<?xml version="1.0" encoding="UTF-8" standalone="no"?>
<!-- Created with Inkscape (http://www.inkscape.org/) -->

<svg
   xmlns:dc="http://purl.org/dc/elements/1.1/"
   xmlns:cc="http://creativecommons.org/ns#"
   xmlns:rdf="http://www.w3.org/1999/02/22-rdf-syntax-ns#"
   xmlns:svg="http://www.w3.org/2000/svg"
   xmlns="http://www.w3.org/2000/svg"
   xmlns:sodipodi="http://sodipodi.sourceforge.net/DTD/sodipodi-0.dtd"
   xmlns:inkscape="http://www.inkscape.org/namespaces/inkscape"
   width="210mm"
   height="297mm"
   viewBox="0 0 210 297"
   version="1.1"
   id="svg8"
   inkscape:version="0.92.4 (5da689c313, 2019-01-14)"
   sodipodi:docname="clock face.svg">
  <defs
     id="defs2" />
  <sodipodi:namedview
     id="base"
     pagecolor="#ffffff"
     bordercolor="#666666"
     borderopacity="1.0"
     inkscape:pageopacity="0.0"
     inkscape:pageshadow="2"
     inkscape:zoom="2.8"
     inkscape:cx="190.36171"
     inkscape:cy="911.61474"
     inkscape:document-units="mm"
     inkscape:current-layer="layer1"
     showgrid="false"
     inkscape:window-width="1920"
     inkscape:window-height="1058"
     inkscape:window-x="2552"
     inkscape:window-y="352"
     inkscape:window-maximized="1" />
  <metadata
     id="metadata5">
    <rdf:RDF>
      <cc:Work
         rdf:about="">
        <dc:format>image/svg+xml</dc:format>
        <dc:type
           rdf:resource="http://purl.org/dc/dcmitype/StillImage" />
        <dc:title></dc:title>
      </cc:Work>
    </rdf:RDF>
  </metadata>
  <g
     inkscape:label="Layer 1"
     inkscape:groupmode="layer"
     id="layer1">
    <g
       id="g6093"
       transform="matrix(0.264583,0.000000,0.000000,0.264583,46.491069,39.031240)"
       style="stroke-linejoin:round;stroke:#000000;stroke-linecap:round;fill:none"
       inkscape:label="Hershey Text">
      <g
         id="g6091">
        <path
           id="path6049"
           transform="translate(0.000000,15.000000)scale(0.012000, -0.012000)"
           style="stroke-width:0.8612in"
           d="M 567 346 L 504 410 L 441 441 L 346 441 L 284 410 L 220 346 L 189 252 L 189 189 L 220 94.5 L 284 31.5 L 346 0 L 441 0 L 504 31.5 L 567 94.5 M 567 346 L 536 315 L 504 378 L 441 410 L 346 410 L 284 378 L 252 346 L 220 252 L 220 189 L 252 94.5 L 284 63 L 346 31.5 L 441 31.5 L 504 63 L 536 126 L 567 94.5" />
        <path
           id="path6051"
           transform="translate(6.804000,15.000000)scale(0.012000, -0.012000)"
           style="stroke-width:0.8612in"
           d="M 220 662 L 220 0 L 252 0 M 220 662 L 252 662 L 252 0 M 252 315 L 346 410 L 410 441 L 504 441 L 567 410 L 598 315 L 598 0 M 252 315 L 346 378 L 410 410 L 472 410 L 536 378 L 567 315 L 567 0 L 598 0" />
        <path
           id="path6053"
           transform="translate(14.364000,15.000000)scale(0.012000, -0.012000)"
           style="stroke-width:0.8612in"
           d="M 220 220 L 567 220 L 567 315 L 536 378 L 504 410 L 441 441 L 346 441 L 284 410 L 220 346 L 189 252 L 189 189 L 220 94.5 L 284 31.5 L 346 0 L 441 0 L 504 31.5 L 567 94.5 M 220 252 L 536 252 L 536 315 L 504 378 L 441 410 L 346 410 L 284 378 L 252 346 L 220 252 L 220 189 L 252 94.5 L 284 63 L 346 31.5 L 441 31.5 L 504 63 L 536 126 L 567 94.5" />
        <path
           id="path6055"
           transform="translate(21.168000,15.000000)scale(0.012000, -0.012000)"
           style="stroke-width:0.8612in"
           d="M 567 346 L 504 410 L 441 441 L 346 441 L 284 410 L 220 346 L 189 252 L 189 189 L 220 94.5 L 284 31.5 L 346 0 L 441 0 L 504 31.5 L 567 94.5 M 567 346 L 536 315 L 504 378 L 441 410 L 346 410 L 284 378 L 252 346 L 220 252 L 220 189 L 252 94.5 L 284 63 L 346 31.5 L 441 31.5 L 504 63 L 536 126 L 567 94.5" />
        <path
           id="path6057"
           transform="translate(27.972000,15.000000)scale(0.012000, -0.012000)"
           style="stroke-width:0.8612in"
           d="M 220 662 L 220 0 L 252 0 M 220 662 L 252 662 L 252 0 M 598 441 L 567 441 L 252 126 M 598 441 L 252 94.5 M 346 220 L 536 0 L 598 0 M 378 252 L 598 0" />
        <path
           id="path6059"
           transform="translate(35.148000,15.000000)scale(0.012000, -0.012000)"
           style="stroke-width:0.8612in"
           d="M 220 662 L 189 630 L 189 598 L 220 567 L 252 567 L 284 598 L 284 630 L 252 662 L 220 662 M 220 630 L 220 598 L 252 598 L 252 630 L 220 630 M 220 441 L 220 0 L 252 0 M 220 441 L 252 441 L 252 0" />
        <path
           id="path6061"
           transform="translate(38.556000,15.000000)scale(0.012000, -0.012000)"
           style="stroke-width:0.8612in"
           d="M 220 441 L 220 0 L 252 0 M 220 441 L 252 441 L 252 0 M 252 315 L 346 410 L 410 441 L 504 441 L 567 410 L 598 315 L 598 0 M 252 315 L 346 378 L 410 410 L 472 410 L 536 378 L 567 315 L 567 0 L 598 0" />
        <path
           id="path6063"
           transform="translate(46.116000,15.000000)scale(0.012000, -0.012000)"
           style="stroke-width:0.8612in"
           d="M 598 441 L 567 441 L 567 -31.5 L 536 -126 L 504 -158 L 441 -189 L 378 -189 L 315 -158 L 284 -126 L 220 -126 M 598 441 L 598 -31.5 L 567 -126 L 504 -189 L 441 -220 L 346 -220 L 284 -189 L 220 -126 M 567 346 L 504 410 L 441 441 L 346 441 L 284 410 L 220 346 L 189 252 L 189 189 L 220 94.5 L 284 31.5 L 346 0 L 441 0 L 504 31.5 L 567 94.5 M 567 346 L 441 410 L 346 410 L 284 378 L 252 346 L 220 252 L 220 189 L 252 94.5 L 284 63 L 346 31.5 L 441 31.5 L 567 94.5" />
        <path
           id="path6065"
           transform="translate(58.212000,15.000000)scale(0.012000, -0.012000)"
           style="stroke-width:0.8612in"
           d="M 220 662 L 220 0 L 252 0 M 220 662 L 252 662 L 252 0 M 252 315 L 346 410 L 410 441 L 504 441 L 567 410 L 598 315 L 598 0 M 252 315 L 346 378 L 410 410 L 472 410 L 536 378 L 567 315 L 567 0 L 598 0" />
        <path
           id="path6067"
           transform="translate(65.772000,15.000000)scale(0.012000, -0.012000)"
           style="stroke-width:0.8612in"
           d="M 346 441 L 284 410 L 220 346 L 189 252 L 189 189 L 220 94.5 L 284 31.5 L 346 0 L 441 0 L 504 31.5 L 567 94.5 L 598 189 L 598 252 L 567 346 L 504 410 L 441 441 L 346 441 M 346 410 L 284 378 L 252 346 L 220 252 L 220 189 L 252 94.5 L 284 63 L 346 31.5 L 441 31.5 L 504 63 L 536 94.5 L 567 189 L 567 252 L 536 346 L 504 378 L 441 410 L 346 410" />
        <path
           id="path6069"
           transform="translate(72.948000,15.000000)scale(0.012000, -0.012000)"
           style="stroke-width:0.8612in"
           d="M 189 441 L 346 0 M 189 441 L 220 441 L 346 94.5 M 472 441 L 346 94.5 M 472 346 L 346 0 M 472 346 L 598 0 M 472 441 L 598 94.5 M 756 441 L 724 441 L 598 94.5 M 756 441 L 598 0" />
        <path
           id="path6071"
           transform="translate(86.556000,15.000000)scale(0.012000, -0.012000)"
           style="stroke-width:0.8612in"
           d="M 252 662 L 252 0 L 284 0 M 252 662 L 284 662 L 284 0 M 158 441 L 378 441 L 378 410 M 158 441 L 158 410 L 378 410" />
        <path
           id="path6073"
           transform="translate(90.708000,15.000000)scale(0.012000, -0.012000)"
           style="stroke-width:0.8612in"
           d="M 220 662 L 220 0 L 252 0 M 220 662 L 252 662 L 252 0 M 252 315 L 346 410 L 410 441 L 504 441 L 567 410 L 598 315 L 598 0 M 252 315 L 346 378 L 410 410 L 472 410 L 536 378 L 567 315 L 567 0 L 598 0" />
        <path
           id="path6075"
           transform="translate(98.268000,15.000000)scale(0.012000, -0.012000)"
           style="stroke-width:0.8612in"
           d="M 220 220 L 567 220 L 567 315 L 536 378 L 504 410 L 441 441 L 346 441 L 284 410 L 220 346 L 189 252 L 189 189 L 220 94.5 L 284 31.5 L 346 0 L 441 0 L 504 31.5 L 567 94.5 M 220 252 L 536 252 L 536 315 L 504 378 L 441 410 L 346 410 L 284 378 L 252 346 L 220 252 L 220 189 L 252 94.5 L 284 63 L 346 31.5 L 441 31.5 L 504 63 L 536 126 L 567 94.5" />
        <path
           id="path6077"
           transform="translate(109.608000,15.000000)scale(0.012000, -0.012000)"
           style="stroke-width:0.8612in"
           d="M 252 662 L 252 0 L 284 0 M 252 662 L 284 662 L 284 0 M 158 441 L 378 441 L 378 410 M 158 441 L 158 410 L 378 410" />
        <path
           id="path6079"
           transform="translate(113.760000,15.000000)scale(0.012000, -0.012000)"
           style="stroke-width:0.8612in"
           d="M 220 662 L 220 0 L 252 0 M 220 662 L 252 662 L 252 0 M 252 315 L 346 410 L 410 441 L 504 441 L 567 410 L 598 315 L 598 0 M 252 315 L 346 378 L 410 410 L 472 410 L 536 378 L 567 315 L 567 0 L 598 0" />
        <path
           id="path6081"
           transform="translate(121.320000,15.000000)scale(0.012000, -0.012000)"
           style="stroke-width:0.8612in"
           d="M 220 662 L 189 630 L 189 598 L 220 567 L 252 567 L 284 598 L 284 630 L 252 662 L 220 662 M 220 630 L 220 598 L 252 598 L 252 630 L 220 630 M 220 441 L 220 0 L 252 0 M 220 441 L 252 441 L 252 0" />
        <path
           id="path6083"
           transform="translate(124.728000,15.000000)scale(0.012000, -0.012000)"
           style="stroke-width:0.8612in"
           d="M 220 441 L 220 0 L 252 0 M 220 441 L 252 441 L 252 0 M 252 315 L 346 410 L 410 441 L 504 441 L 567 410 L 598 315 L 598 0 M 252 315 L 346 378 L 410 410 L 472 410 L 536 378 L 567 315 L 567 0 L 598 0" />
        <path
           id="path6085"
           transform="translate(132.288000,15.000000)scale(0.012000, -0.012000)"
           style="stroke-width:0.8612in"
           d="M 598 441 L 567 441 L 567 -31.5 L 536 -126 L 504 -158 L 441 -189 L 378 -189 L 315 -158 L 284 -126 L 220 -126 M 598 441 L 598 -31.5 L 567 -126 L 504 -189 L 441 -220 L 346 -220 L 284 -189 L 220 -126 M 567 346 L 504 410 L 441 441 L 346 441 L 284 410 L 220 346 L 189 252 L 189 189 L 220 94.5 L 284 31.5 L 346 0 L 441 0 L 504 31.5 L 567 94.5 M 567 346 L 441 410 L 346 410 L 284 378 L 252 346 L 220 252 L 220 189 L 252 94.5 L 284 63 L 346 31.5 L 441 31.5 L 567 94.5" />
        <path
           id="path6087"
           transform="translate(144.384000,15.000000)scale(0.012000, -0.012000)"
           style="stroke-width:0.8612in"
           d="M 567 662 L 567 0 L 598 0 M 567 662 L 598 662 L 598 0 M 567 346 L 504 410 L 441 441 L 346 441 L 284 410 L 220 346 L 189 252 L 189 189 L 220 94.5 L 284 31.5 L 346 0 L 441 0 L 504 31.5 L 567 94.5 M 567 346 L 441 410 L 346 410 L 284 378 L 252 346 L 220 252 L 220 189 L 252 94.5 L 284 63 L 346 31.5 L 441 31.5 L 567 94.5" />
        <path
           id="path6089"
           transform="translate(151.944000,15.000000)scale(0.012000, -0.012000)"
           style="stroke-width:0.8612in"
           d="M 346 441 L 284 410 L 220 346 L 189 252 L 189 189 L 220 94.5 L 284 31.5 L 346 0 L 441 0 L 504 31.5 L 567 94.5 L 598 189 L 598 252 L 567 346 L 504 410 L 441 441 L 346 441 M 346 410 L 284 378 L 252 346 L 220 252 L 220 189 L 252 94.5 L 284 63 L 346 31.5 L 441 31.5 L 504 63 L 536 94.5 L 567 189 L 567 252 L 536 346 L 504 378 L 441 410 L 346 410" />
      </g>
    </g>
    <flowRoot
       xml:space="preserve"
       id="flowRoot6120"
       style="font-style:normal;font-weight:normal;font-size:12px;line-height:1.25;font-family:sans-serif;letter-spacing:0px;word-spacing:0px;fill:#000000;fill-opacity:1;stroke:none"
       transform="scale(0.26458333)"><flowRegion
         id="flowRegion6122"><rect
           id="rect6124"
           width="213.03572"
           height="182.5"
           x="161.96428"
           y="189.30536" /></flowRegion><flowPara
         id="flowPara6126">ITLISASAMPM</flowPara><flowPara
         id="flowPara6140">ACQUARTERDC</flowPara><flowPara
         id="flowPara6173">TWENTYFIVEX</flowPara><flowPara
         id="flowPara6175">HALFSTENFTO</flowPara><flowPara
         id="flowPara6177">PASTERUNINE</flowPara><flowPara
         id="flowPara6179">ONESIXTHREE</flowPara><flowPara
         id="flowPara6181">FOURFIVETWO</flowPara><flowPara
         id="flowPara6185">EIGHTELEVEN</flowPara><flowPara
         id="flowPara6169">SEVENTWELVE</flowPara><flowPara
         id="flowPara6189">TENSEO'CLOCK</flowPara><flowPara
         id="flowPara6171" /></flowRoot>  </g>
</svg>
