M48
; DRILL file {KiCad (5.1.5)-2} date 12/12/2019 1:27:46 PM
; FORMAT={-:-/ absolute / inch / decimal}
; #@! TF.CreationDate,2019-12-12T13:27:46-05:00
; #@! TF.GenerationSoftware,Kicad,Pcbnew,(5.1.5)-2
; #@! TF.FileFunction,Plated,1,2,PTH
FMAT,2
INCH
T1C0.2362
%
G90
G05
T1
X1.1556Y-1.2224
X0.6156Y-2.7224
X2.5056Y-2.4224
X3.0456Y-1.2224
X2.5056Y-2.7224
X2.9921Y-3.6474
X2.5056Y-0.6224
X0.8856Y-1.8224
X1.9656Y-1.5224
X1.4256Y-0.9224
X2.7756Y-1.8224
X1.6956Y-3.0224
X1.1556Y-2.1224
X3.3156Y-0.9224
X0.6156Y-3.3224
X3.0456Y-2.1224
X3.0456Y-2.4224
X2.5056Y-3.3224
X1.9656Y-2.4224
X3.0456Y-3.3224
X2.5056Y-1.2224
X1.9656Y-2.7224
X3.3156Y-1.5224
X1.4256Y-1.5224
X0.8856Y-3.0224
X0.8856Y-0.9224
X2.2356Y-1.8224
X1.6956Y-0.6224
X2.7756Y-0.9224
X3.0456Y-3.0224
X2.5056Y-2.1224
X1.9656Y-3.3224
X1.4256Y-2.4224
X1.9656Y-1.2224
X1.4256Y-2.7224
X2.7756Y-1.5224
X0.8856Y-1.5224
X3.3156Y-2.7224
X0.9449Y-3.6474
X3.3156Y-0.6224
X1.6956Y-1.8224
X1.1556Y-0.6224
X2.2356Y-0.9224
X0.6156Y-2.1224
X2.5056Y-3.0224
X1.9656Y-2.1224
X1.4256Y-3.3224
X0.8856Y-2.4224
X1.4256Y-1.2224
X0.8856Y-2.7224
X3.3156Y-1.2224
X2.7756Y-2.7224
X2.3097Y-3.6474
X2.7756Y-0.6224
X1.1556Y-1.8224
X2.2356Y-1.5224
X0.6156Y-0.6224
X1.6956Y-0.9224
X3.0456Y-1.8224
X1.9656Y-3.0224
X1.4256Y-2.1224
X0.6156Y-1.2224
X0.8856Y-3.3224
X3.3156Y-2.1224
X0.8856Y-1.2224
X3.3156Y-2.4224
X2.7756Y-3.3224
X2.2356Y-2.4224
X2.7756Y-1.2224
X2.2356Y-2.7224
X2.2356Y-0.6224
X0.6156Y-1.8224
X1.6956Y-1.5224
X1.1556Y-3.0224
X1.1556Y-0.9224
X2.5056Y-1.8224
X1.4256Y-3.0224
X1.9656Y-0.6224
X3.0456Y-0.9224
X3.3156Y-3.0224
X2.7756Y-2.1224
X3.3156Y-3.3224
X2.7756Y-2.4224
X2.2356Y-3.3224
X1.6956Y-2.4224
X2.2356Y-1.2224
X1.6956Y-2.7224
X3.0456Y-1.5224
X1.1556Y-1.5224
X0.6156Y-3.0224
X0.6156Y-0.9224
X1.9656Y-1.8224
X1.4256Y-0.6224
X2.5056Y-0.9224
X0.8856Y-2.1224
X2.7756Y-3.0224
X2.2356Y-2.1224
X1.6956Y-3.3224
X1.1556Y-2.4224
X1.6956Y-1.2224
X1.1556Y-2.7224
X2.5056Y-1.5224
X0.6156Y-1.5224
X3.0456Y-2.7224
X1.6273Y-3.6474
X3.0456Y-0.6224
X1.4256Y-1.8224
X0.8856Y-0.6224
X1.9656Y-0.9224
X3.3156Y-1.8224
X2.2356Y-3.0224
X1.6956Y-2.1224
X1.1556Y-3.3224
X0.6156Y-2.4224
T0
M30
