G04 #@! TF.GenerationSoftware,KiCad,Pcbnew,(5.1.5)-2*
G04 #@! TF.CreationDate,2019-12-12T13:27:44-05:00*
G04 #@! TF.ProjectId,spacer,73706163-6572-42e6-9b69-6361645f7063,rev?*
G04 #@! TF.SameCoordinates,Original*
G04 #@! TF.FileFunction,Profile,NP*
%FSLAX46Y46*%
G04 Gerber Fmt 4.6, Leading zero omitted, Abs format (unit mm)*
G04 Created by KiCad (PCBNEW (5.1.5)-2) date 2019-12-12 13:27:44*
%MOMM*%
%LPD*%
G04 APERTURE LIST*
%ADD10C,0.050000*%
G04 APERTURE END LIST*
D10*
X54804000Y-93280000D02*
X57280500Y-96328000D01*
X55820000Y-90740000D02*
X54804000Y-93280000D01*
X45152000Y-93280000D02*
X43120000Y-95820000D01*
X44644000Y-91756000D02*
X45152000Y-93280000D01*
X44136000Y-90740000D02*
X44644000Y-91756000D01*
X20000000Y-11000000D02*
X23000000Y-9000000D01*
X2000000Y-13000000D02*
X4000000Y-17000000D01*
X2000000Y-7000000D02*
X2000000Y-13000000D01*
X1000000Y-5000000D02*
X2000000Y-7000000D01*
X1000000Y-1000000D02*
X1000000Y-5000000D01*
X31000000Y-1000000D02*
X1000000Y-1000000D01*
X31000000Y-5000000D02*
X31000000Y-1000000D01*
X23000000Y-5000000D02*
X31000000Y-5000000D01*
X23000000Y-9000000D02*
X23000000Y-5000000D01*
X16000000Y-11000000D02*
X20000000Y-11000000D01*
X14000000Y-12000000D02*
X16000000Y-11000000D01*
X11000000Y-14000000D02*
X14000000Y-12000000D01*
X11000000Y-17000000D02*
X11000000Y-14000000D01*
X4000000Y-17000000D02*
X11000000Y-17000000D01*
X0Y-28000000D02*
X0Y0D01*
X0Y-43000000D02*
X0Y-39000000D01*
X0Y-71000000D02*
X0Y-55000000D01*
X0Y-85000000D02*
X0Y-77000000D01*
X0Y-100000000D02*
X0Y-90000000D01*
X5000000Y-28000000D02*
X0Y-28000000D01*
X5000000Y-39000000D02*
X5000000Y-28000000D01*
X0Y-39000000D02*
X5000000Y-39000000D01*
X5000000Y-43000000D02*
X0Y-43000000D01*
X5000000Y-55000000D02*
X5000000Y-43000000D01*
X0Y-55000000D02*
X5000000Y-55000000D01*
X5000000Y-71000000D02*
X0Y-71000000D01*
X5000000Y-77000000D02*
X5000000Y-71000000D01*
X0Y-77000000D02*
X5000000Y-77000000D01*
X5000000Y-85000000D02*
X0Y-85000000D01*
X5000000Y-90000000D02*
X5000000Y-85000000D01*
X0Y-90000000D02*
X5000000Y-90000000D01*
X52010000Y-90740000D02*
X55820000Y-90740000D01*
X52010000Y-89470000D02*
X52010000Y-90740000D01*
X50740000Y-88200000D02*
X52010000Y-89470000D01*
X49470000Y-88200000D02*
X50740000Y-88200000D01*
X48200000Y-89470000D02*
X49470000Y-88200000D01*
X48200000Y-90740000D02*
X48200000Y-89470000D01*
X44136000Y-90740000D02*
X48200000Y-90740000D01*
X57280500Y-100000000D02*
X100000000Y-100000000D01*
X0Y-100000000D02*
X43120000Y-100000000D01*
X57280500Y-96328000D02*
X57280500Y-100000000D01*
X43120000Y-100000000D02*
X43120000Y-95820000D01*
X100000000Y0D02*
X100000000Y-100000000D01*
X0Y0D02*
X100000000Y0D01*
M02*
