M48
; DRILL file {KiCad (5.1.4)-1} date 12/11/2019 9:26:32 PM
; FORMAT={-:-/ absolute / inch / decimal}
; #@! TF.CreationDate,2019-12-11T21:26:32-05:00
; #@! TF.GenerationSoftware,Kicad,Pcbnew,(5.1.4)-1
; #@! TF.FileFunction,Plated,1,2,PTH
FMAT,2
INCH
T1C0.0157
T2C0.0236
T3C0.0394
%
G90
G05
T1
X0.0551Y-0.1417
X0.0647Y-0.1035
X0.1213Y-0.4567
X0.1249Y-0.5077
X0.1457Y-0.1417
X0.2362Y-0.6299
X0.3285Y-0.5604
X0.3713Y-0.4738
X0.4626Y-0.4374
X0.4646Y-0.1535
X0.4876Y-0.4851
X0.5076Y-0.9824
X0.5076Y-1.5824
X0.5076Y-2.1824
X0.5076Y-2.7824
X0.5103Y-0.5452
X0.5176Y-1.2324
X0.5176Y-1.8324
X0.5176Y-2.4324
X0.5176Y-3.0324
X0.5236Y-0.1772
X0.5676Y-0.2153
X0.6142Y-0.622
X0.6142Y-1.222
X0.6142Y-1.822
X0.6142Y-2.422
X0.6142Y-3.022
X0.6176Y-0.2824
X0.6176Y-0.9324
X0.6176Y-1.5324
X0.6176Y-2.1324
X0.6176Y-2.7324
X0.6176Y-3.3324
X0.7451Y-0.6224
X0.7476Y-0.4999
X0.878Y-0.2008
X0.8842Y-0.622
X0.8842Y-1.222
X0.8842Y-1.822
X0.8842Y-2.422
X0.8842Y-3.022
X0.8876Y-0.9324
X0.8876Y-1.5324
X0.8876Y-2.1324
X0.8876Y-2.7324
X0.8876Y-3.3324
X0.9803Y-0.4094
X1.1542Y-0.622
X1.1542Y-1.222
X1.1542Y-1.822
X1.1542Y-2.422
X1.1542Y-3.022
X1.1576Y-0.9324
X1.1576Y-1.5324
X1.1576Y-2.1324
X1.1576Y-2.7324
X1.1576Y-3.3324
X1.4242Y-0.622
X1.4242Y-1.222
X1.4242Y-1.822
X1.4242Y-2.422
X1.4242Y-3.022
X1.4276Y-0.9324
X1.4276Y-1.5324
X1.4276Y-2.1324
X1.4276Y-2.7324
X1.4276Y-3.3324
X1.6942Y-0.622
X1.6942Y-1.222
X1.6942Y-1.822
X1.6942Y-2.422
X1.6942Y-3.022
X1.6976Y-0.9324
X1.6976Y-1.5324
X1.6976Y-2.1324
X1.6976Y-2.7324
X1.6976Y-3.3324
X1.8001Y-3.6549
X1.8176Y-3.6224
X1.9301Y-3.4899
X1.9642Y-0.622
X1.9642Y-1.222
X1.9642Y-1.822
X1.9642Y-2.422
X1.9642Y-3.022
X1.9676Y-0.9324
X1.9676Y-1.5324
X1.9676Y-2.1324
X1.9676Y-2.7324
X1.9676Y-3.3324
X2.0076Y-3.4924
X2.1186Y-3.6214
X2.1376Y-3.6549
X2.2342Y-0.622
X2.2342Y-1.222
X2.2342Y-1.822
X2.2342Y-2.422
X2.2342Y-3.022
X2.2376Y-0.9324
X2.2376Y-1.5324
X2.2376Y-2.1324
X2.2376Y-2.7324
X2.2376Y-3.3324
X2.5042Y-0.622
X2.5042Y-1.222
X2.5042Y-1.822
X2.5042Y-2.422
X2.5042Y-3.022
X2.5076Y-0.9324
X2.5076Y-1.5324
X2.5076Y-2.1324
X2.5076Y-2.7324
X2.5076Y-3.3324
X2.7742Y-0.622
X2.7742Y-1.222
X2.7742Y-1.822
X2.7742Y-2.422
X2.7742Y-3.022
X2.7776Y-0.9324
X2.7776Y-1.5324
X2.7776Y-2.1324
X2.7776Y-2.7324
X2.7776Y-3.3324
X3.0442Y-0.622
X3.0442Y-1.222
X3.0442Y-1.822
X3.0442Y-2.422
X3.0442Y-3.022
X3.0476Y-0.9324
X3.0476Y-1.5324
X3.0476Y-2.1324
X3.0476Y-2.7324
X3.0476Y-3.3324
X3.3142Y-0.622
X3.3142Y-1.222
X3.3142Y-1.822
X3.3142Y-2.422
X3.3142Y-3.022
X3.3176Y-0.9324
X3.3176Y-1.5324
X3.3176Y-2.1324
X3.3176Y-2.7324
X3.3176Y-3.3324
X3.4176Y-0.6124
X3.4176Y-1.2124
X3.4176Y-1.8124
X3.4176Y-2.4124
X3.4176Y-3.0124
X3.4276Y-0.8624
X3.4276Y-1.4624
X3.4276Y-2.0624
X3.4276Y-2.6624
X3.4276Y-3.2624
T3
X0.0428Y-1.8076
X0.1176Y-1.7485
X0.1176Y-1.8666
X0.6319Y-0.0984
X0.7319Y-0.0984
X0.8319Y-0.0984
X0.9319Y-0.0984
X1.0319Y-0.0984
X1.1319Y-0.0984
X0.0428Y-2.92
X0.1176Y-2.8609
X0.1176Y-2.9791
X0.0428Y-3.4449
X0.1176Y-3.3858
X0.1176Y-3.5039
X0.0428Y-1.2068
X0.1176Y-1.1477
X0.1176Y-1.2658
X0.0428Y-2.0376
X0.1176Y-1.9785
X0.1176Y-2.0966
X0.0428Y-1.4268
X0.1176Y-1.3677
X0.1176Y-1.4858
T2
G00X1.749Y-3.6806
M15
G01X1.749Y-3.712
M16
G05
G00X1.749Y-3.8302
M15
G01X1.749Y-3.8774
M16
G05
G00X2.188Y-3.6806
M15
G01X2.188Y-3.712
M16
G05
G00X2.188Y-3.8302
M15
G01X2.188Y-3.8774
M16
G05
T0
M30
