G04 #@! TF.GenerationSoftware,KiCad,Pcbnew,(5.1.4)-1*
G04 #@! TF.CreationDate,2019-12-11T21:26:34-05:00*
G04 #@! TF.ProjectId,main,6d61696e-2e6b-4696-9361-645f70636258,rev?*
G04 #@! TF.SameCoordinates,Original*
G04 #@! TF.FileFunction,Copper,L2,Bot*
G04 #@! TF.FilePolarity,Positive*
%FSLAX46Y46*%
G04 Gerber Fmt 4.6, Leading zero omitted, Abs format (unit mm)*
G04 Created by KiCad (PCBNEW (5.1.4)-1) date 2019-12-11 21:26:34*
%MOMM*%
%LPD*%
G04 APERTURE LIST*
%ADD10O,1.000000X1.800000*%
%ADD11O,1.000000X2.200000*%
%ADD12R,3.000000X4.200000*%
%ADD13O,1.700000X1.700000*%
%ADD14R,1.700000X1.700000*%
%ADD15C,1.524000*%
%ADD16C,0.800000*%
%ADD17C,0.250000*%
%ADD18C,1.000000*%
%ADD19C,0.500000*%
%ADD20C,0.152400*%
G04 APERTURE END LIST*
D10*
X55575000Y-93886000D03*
D11*
X55575000Y-97886000D03*
X44425000Y-97886000D03*
D10*
X44425000Y-93886000D03*
D12*
X56300000Y-10400000D03*
X27300000Y-10400000D03*
D13*
X16050000Y-2500000D03*
X18590000Y-2500000D03*
X21130000Y-2500000D03*
X23670000Y-2500000D03*
X26210000Y-2500000D03*
D14*
X28750000Y-2500000D03*
D15*
X1088000Y-87500000D03*
X2988000Y-89000000D03*
X2988000Y-86000000D03*
X1088000Y-74168000D03*
X2988000Y-75668000D03*
X2988000Y-72668000D03*
X1088000Y-51754000D03*
X2988000Y-53254000D03*
X2988000Y-50254000D03*
X1088000Y-45912000D03*
X2988000Y-47412000D03*
X2988000Y-44412000D03*
X1088000Y-36240000D03*
X2988000Y-37740000D03*
X2988000Y-34740000D03*
X1088000Y-30652000D03*
X2988000Y-32152000D03*
X2988000Y-29152000D03*
D16*
X6000000Y-16000000D03*
X22300000Y-5100000D03*
X14418000Y-5467741D03*
X11751000Y-11111000D03*
X50994000Y-88708000D03*
X49025500Y-88644500D03*
X15600000Y-15800000D03*
X22458000Y-15800000D03*
X29316000Y-15800000D03*
X36174000Y-15800000D03*
X43032000Y-15800000D03*
X49890000Y-15800000D03*
X56748000Y-15800000D03*
X63606000Y-15800000D03*
X70464000Y-15800000D03*
X77322000Y-15800000D03*
X84180000Y-15800000D03*
X15600000Y-31040000D03*
X22458000Y-31040000D03*
X29316000Y-31040000D03*
X36174000Y-31040000D03*
X43032000Y-31040000D03*
X49890000Y-31040000D03*
X56748000Y-31040000D03*
X63606000Y-31040000D03*
X70464000Y-31040000D03*
X77322000Y-31040000D03*
X84180000Y-31040000D03*
X15600000Y-46280000D03*
X22458000Y-46280000D03*
X29316000Y-46280000D03*
X36174000Y-46280000D03*
X43032000Y-46280000D03*
X49890000Y-46280000D03*
X56748000Y-46280000D03*
X63606000Y-46280000D03*
X70464000Y-46280000D03*
X77322000Y-46280000D03*
X84180000Y-46280000D03*
X15600000Y-61520000D03*
X22458000Y-61520000D03*
X29316000Y-61520000D03*
X36174000Y-61520000D03*
X43032000Y-61520000D03*
X49890000Y-61520000D03*
X56748000Y-61520000D03*
X63606000Y-61520000D03*
X70464000Y-61520000D03*
X77322000Y-61520000D03*
X84180000Y-61520000D03*
X15600000Y-76760000D03*
X22458000Y-76760000D03*
X29316000Y-76760000D03*
X36174000Y-76760000D03*
X43032000Y-76760000D03*
X49890000Y-76760000D03*
X56748000Y-76760000D03*
X63606000Y-76760000D03*
X70464000Y-76760000D03*
X77322000Y-76760000D03*
X84180000Y-76760000D03*
X15688000Y-23684000D03*
X22546000Y-23684000D03*
X29404000Y-23684000D03*
X36262000Y-23684000D03*
X43120000Y-23684000D03*
X49978000Y-23684000D03*
X56836000Y-23684000D03*
X63694000Y-23684000D03*
X70552000Y-23684000D03*
X77410000Y-23684000D03*
X84268000Y-23684000D03*
X15688000Y-38924000D03*
X22546000Y-38924000D03*
X29404000Y-38924000D03*
X36262000Y-38924000D03*
X43120000Y-38924000D03*
X49978000Y-38924000D03*
X56836000Y-38924000D03*
X63694000Y-38924000D03*
X70552000Y-38924000D03*
X77410000Y-38924000D03*
X84268000Y-38924000D03*
X15688000Y-54164000D03*
X22546000Y-54164000D03*
X29404000Y-54164000D03*
X36262000Y-54164000D03*
X43120000Y-54164000D03*
X49978000Y-54164000D03*
X56836000Y-54164000D03*
X63694000Y-54164000D03*
X70552000Y-54164000D03*
X77410000Y-54164000D03*
X84268000Y-54164000D03*
X15688000Y-69404000D03*
X22546000Y-69404000D03*
X29404000Y-69404000D03*
X36262000Y-69404000D03*
X43120000Y-69404000D03*
X49978000Y-69404000D03*
X56836000Y-69404000D03*
X63694000Y-69404000D03*
X70552000Y-69404000D03*
X77410000Y-69404000D03*
X84268000Y-69404000D03*
X15688000Y-84644000D03*
X22546000Y-84644000D03*
X29404000Y-84644000D03*
X36262000Y-84644000D03*
X43120000Y-84644000D03*
X49978000Y-84644000D03*
X56836000Y-84644000D03*
X63694000Y-84644000D03*
X70552000Y-84644000D03*
X77410000Y-84644000D03*
X84268000Y-84644000D03*
X45723500Y-92835500D03*
X54296000Y-92835500D03*
X53813400Y-91984600D03*
X46168000Y-92010000D03*
X18926500Y-15810000D03*
X18990000Y-12698500D03*
X13300000Y-4500000D03*
X11800000Y-3900000D03*
X3700000Y-3600000D03*
X9431790Y-12035260D03*
X3080058Y-11600000D03*
X8343972Y-14234850D03*
X15688000Y-7174000D03*
X12386000Y-12322021D03*
X1400000Y-3599994D03*
X1642538Y-2629846D03*
X24900000Y-10400000D03*
X3171344Y-12896211D03*
X12961271Y-13847048D03*
X13148000Y-77024000D03*
X12894000Y-70674000D03*
X13148000Y-61784000D03*
X12894000Y-55434000D03*
X12894000Y-40194000D03*
X13148000Y-46544000D03*
X12894000Y-24954000D03*
X13148000Y-31304000D03*
X86808000Y-15556000D03*
X87062000Y-21906000D03*
X86808000Y-30796000D03*
X87062000Y-37146000D03*
X86808000Y-46036000D03*
X87062000Y-52386000D03*
X87062000Y-67626000D03*
X86808000Y-61276000D03*
X87062000Y-82866000D03*
X86808000Y-76516000D03*
D17*
X22300000Y-3870000D02*
X23670000Y-2500000D01*
X22300000Y-5100000D02*
X22300000Y-3870000D01*
D18*
X18990000Y-12698500D02*
X18990000Y-15746500D01*
X18990000Y-15746500D02*
X18926500Y-15810000D01*
D19*
X13300000Y-4500000D02*
X12400000Y-4500000D01*
X12400000Y-4500000D02*
X11800000Y-3900000D01*
D18*
X11800000Y-3900000D02*
X4000000Y-3900000D01*
X4000000Y-3900000D02*
X3700000Y-3600000D01*
X3700000Y-10980058D02*
X3080058Y-11600000D01*
X9431790Y-12035260D02*
X8996530Y-11600000D01*
X3700000Y-3600000D02*
X3700000Y-10980058D01*
X8996530Y-11600000D02*
X3080058Y-11600000D01*
D17*
X18590000Y-4272000D02*
X15688000Y-7174000D01*
X18590000Y-2500000D02*
X18590000Y-4272000D01*
X10473171Y-14234850D02*
X12386000Y-12322021D01*
X8343972Y-14234850D02*
X10473171Y-14234850D01*
X16050000Y-2500000D02*
X15350000Y-1800000D01*
X1965685Y-3599994D02*
X1400000Y-3599994D01*
X3765679Y-1800000D02*
X1965685Y-3599994D01*
X15350000Y-1800000D02*
X3765679Y-1800000D01*
X25034999Y-1324999D02*
X2947385Y-1324999D01*
X2947385Y-1324999D02*
X1642538Y-2629846D01*
X26210000Y-2500000D02*
X25034999Y-1324999D01*
X27300000Y-10400000D02*
X24900000Y-10400000D01*
X8808319Y-18000000D02*
X12961271Y-13847048D01*
X4900000Y-18000000D02*
X8808319Y-18000000D01*
X3171344Y-12896211D02*
X3171344Y-16271344D01*
X3171344Y-16271344D02*
X4900000Y-18000000D01*
X12894000Y-76770000D02*
X12894000Y-70674000D01*
X13148000Y-77024000D02*
X12894000Y-76770000D01*
X13148000Y-61784000D02*
X12894000Y-61530000D01*
X12894000Y-61530000D02*
X12894000Y-55434000D01*
X13148000Y-46544000D02*
X12894000Y-46290000D01*
X12894000Y-46290000D02*
X12894000Y-40194000D01*
X12894000Y-31050000D02*
X12894000Y-24954000D01*
X13148000Y-31304000D02*
X12894000Y-31050000D01*
X86808000Y-15556000D02*
X87062000Y-15810000D01*
X87062000Y-15810000D02*
X87062000Y-21906000D01*
X86808000Y-30796000D02*
X87062000Y-31050000D01*
X87062000Y-31050000D02*
X87062000Y-37146000D01*
X87062000Y-46290000D02*
X87062000Y-52386000D01*
X86808000Y-46036000D02*
X87062000Y-46290000D01*
X86808000Y-61276000D02*
X87062000Y-61530000D01*
X87062000Y-61530000D02*
X87062000Y-67626000D01*
X87062000Y-76770000D02*
X87062000Y-82866000D01*
X86808000Y-76516000D02*
X87062000Y-76770000D01*
D20*
G36*
X99746401Y-99746400D02*
G01*
X54740100Y-99746400D01*
X54740100Y-99194126D01*
X54772301Y-99236185D01*
X54934078Y-99378369D01*
X55120486Y-99486260D01*
X55232079Y-99514540D01*
X55397200Y-99407147D01*
X55397200Y-98063800D01*
X55752800Y-98063800D01*
X55752800Y-99407147D01*
X55917921Y-99514540D01*
X56029514Y-99486260D01*
X56215922Y-99378369D01*
X56377699Y-99236185D01*
X56508629Y-99065172D01*
X56603680Y-98871901D01*
X56659200Y-98663800D01*
X56659200Y-98063800D01*
X55752800Y-98063800D01*
X55397200Y-98063800D01*
X55377200Y-98063800D01*
X55377200Y-97708200D01*
X55397200Y-97708200D01*
X55397200Y-96364853D01*
X55752800Y-96364853D01*
X55752800Y-97708200D01*
X56659200Y-97708200D01*
X56659200Y-97108200D01*
X56603680Y-96900099D01*
X56508629Y-96706828D01*
X56377699Y-96535815D01*
X56215922Y-96393631D01*
X56029514Y-96285740D01*
X55917921Y-96257460D01*
X55752800Y-96364853D01*
X55397200Y-96364853D01*
X55232079Y-96257460D01*
X55120486Y-96285740D01*
X54934078Y-96393631D01*
X54772301Y-96535815D01*
X54740100Y-96577874D01*
X54740100Y-94994126D01*
X54772301Y-95036185D01*
X54934078Y-95178369D01*
X55120486Y-95286260D01*
X55232079Y-95314540D01*
X55397200Y-95207147D01*
X55397200Y-94063800D01*
X55752800Y-94063800D01*
X55752800Y-95207147D01*
X55917921Y-95314540D01*
X56029514Y-95286260D01*
X56215922Y-95178369D01*
X56377699Y-95036185D01*
X56505406Y-94869381D01*
X93673800Y-94869381D01*
X93673800Y-95130619D01*
X93724765Y-95386838D01*
X93824737Y-95628191D01*
X93969873Y-95845403D01*
X94154597Y-96030127D01*
X94371809Y-96175263D01*
X94613162Y-96275235D01*
X94869381Y-96326200D01*
X95130619Y-96326200D01*
X95386838Y-96275235D01*
X95628191Y-96175263D01*
X95845403Y-96030127D01*
X96030127Y-95845403D01*
X96175263Y-95628191D01*
X96275235Y-95386838D01*
X96326200Y-95130619D01*
X96326200Y-94869381D01*
X96275235Y-94613162D01*
X96175263Y-94371809D01*
X96030127Y-94154597D01*
X95845403Y-93969873D01*
X95628191Y-93824737D01*
X95386838Y-93724765D01*
X95130619Y-93673800D01*
X94869381Y-93673800D01*
X94613162Y-93724765D01*
X94371809Y-93824737D01*
X94154597Y-93969873D01*
X93969873Y-94154597D01*
X93824737Y-94371809D01*
X93724765Y-94613162D01*
X93673800Y-94869381D01*
X56505406Y-94869381D01*
X56508629Y-94865172D01*
X56603680Y-94671901D01*
X56659200Y-94463800D01*
X56659200Y-94063800D01*
X55752800Y-94063800D01*
X55397200Y-94063800D01*
X55377200Y-94063800D01*
X55377200Y-93708200D01*
X55397200Y-93708200D01*
X55397200Y-92564853D01*
X55752800Y-92564853D01*
X55752800Y-93708200D01*
X56659200Y-93708200D01*
X56659200Y-93308200D01*
X56603680Y-93100099D01*
X56508629Y-92906828D01*
X56377699Y-92735815D01*
X56215922Y-92593631D01*
X56029514Y-92485740D01*
X55917921Y-92457460D01*
X55752800Y-92564853D01*
X55397200Y-92564853D01*
X55232079Y-92457460D01*
X55120486Y-92485740D01*
X54934078Y-92593631D01*
X54772301Y-92735815D01*
X54641371Y-92906828D01*
X54546320Y-93100099D01*
X54490800Y-93308200D01*
X54490800Y-93597096D01*
X54486500Y-93596673D01*
X54474041Y-93597900D01*
X45545459Y-93597900D01*
X45533000Y-93596673D01*
X45520541Y-93597900D01*
X45509200Y-93599017D01*
X45509200Y-93308200D01*
X45453680Y-93100099D01*
X45358629Y-92906828D01*
X45227699Y-92735815D01*
X45065922Y-92593631D01*
X44879514Y-92485740D01*
X44767921Y-92457460D01*
X44602800Y-92564853D01*
X44602800Y-93708200D01*
X44622800Y-93708200D01*
X44622800Y-94063800D01*
X44602800Y-94063800D01*
X44602800Y-95207147D01*
X44767921Y-95314540D01*
X44879514Y-95286260D01*
X45065922Y-95178369D01*
X45227699Y-95036185D01*
X45279401Y-94968655D01*
X45279401Y-96603345D01*
X45227699Y-96535815D01*
X45065922Y-96393631D01*
X44879514Y-96285740D01*
X44767921Y-96257460D01*
X44602800Y-96364853D01*
X44602800Y-97708200D01*
X44622800Y-97708200D01*
X44622800Y-98063800D01*
X44602800Y-98063800D01*
X44602800Y-99407147D01*
X44767921Y-99514540D01*
X44879514Y-99486260D01*
X45065922Y-99378369D01*
X45227699Y-99236185D01*
X45279400Y-99168656D01*
X45279400Y-99746400D01*
X253600Y-99746400D01*
X253600Y-98063800D01*
X43340800Y-98063800D01*
X43340800Y-98663800D01*
X43396320Y-98871901D01*
X43491371Y-99065172D01*
X43622301Y-99236185D01*
X43784078Y-99378369D01*
X43970486Y-99486260D01*
X44082079Y-99514540D01*
X44247200Y-99407147D01*
X44247200Y-98063800D01*
X43340800Y-98063800D01*
X253600Y-98063800D01*
X253600Y-97108200D01*
X43340800Y-97108200D01*
X43340800Y-97708200D01*
X44247200Y-97708200D01*
X44247200Y-96364853D01*
X44082079Y-96257460D01*
X43970486Y-96285740D01*
X43784078Y-96393631D01*
X43622301Y-96535815D01*
X43491371Y-96706828D01*
X43396320Y-96900099D01*
X43340800Y-97108200D01*
X253600Y-97108200D01*
X253600Y-94869381D01*
X3673800Y-94869381D01*
X3673800Y-95130619D01*
X3724765Y-95386838D01*
X3824737Y-95628191D01*
X3969873Y-95845403D01*
X4154597Y-96030127D01*
X4371809Y-96175263D01*
X4613162Y-96275235D01*
X4869381Y-96326200D01*
X5130619Y-96326200D01*
X5386838Y-96275235D01*
X5628191Y-96175263D01*
X5845403Y-96030127D01*
X6030127Y-95845403D01*
X6175263Y-95628191D01*
X6275235Y-95386838D01*
X6326200Y-95130619D01*
X6326200Y-94869381D01*
X6275235Y-94613162D01*
X6175263Y-94371809D01*
X6030127Y-94154597D01*
X5939330Y-94063800D01*
X43340800Y-94063800D01*
X43340800Y-94463800D01*
X43396320Y-94671901D01*
X43491371Y-94865172D01*
X43622301Y-95036185D01*
X43784078Y-95178369D01*
X43970486Y-95286260D01*
X44082079Y-95314540D01*
X44247200Y-95207147D01*
X44247200Y-94063800D01*
X43340800Y-94063800D01*
X5939330Y-94063800D01*
X5845403Y-93969873D01*
X5628191Y-93824737D01*
X5386838Y-93724765D01*
X5130619Y-93673800D01*
X4869381Y-93673800D01*
X4613162Y-93724765D01*
X4371809Y-93824737D01*
X4154597Y-93969873D01*
X3969873Y-94154597D01*
X3824737Y-94371809D01*
X3724765Y-94613162D01*
X3673800Y-94869381D01*
X253600Y-94869381D01*
X253600Y-93308200D01*
X43340800Y-93308200D01*
X43340800Y-93708200D01*
X44247200Y-93708200D01*
X44247200Y-92564853D01*
X44082079Y-92457460D01*
X43970486Y-92485740D01*
X43784078Y-92593631D01*
X43622301Y-92735815D01*
X43491371Y-92906828D01*
X43396320Y-93100099D01*
X43340800Y-93308200D01*
X253600Y-93308200D01*
X253600Y-88897746D01*
X1949800Y-88897746D01*
X1949800Y-89102254D01*
X1989698Y-89302832D01*
X2067959Y-89491772D01*
X2181578Y-89661814D01*
X2326186Y-89806422D01*
X2496228Y-89920041D01*
X2685168Y-89998302D01*
X2885746Y-90038200D01*
X3090254Y-90038200D01*
X3290832Y-89998302D01*
X3479772Y-89920041D01*
X3649814Y-89806422D01*
X3794422Y-89661814D01*
X3908041Y-89491772D01*
X3986302Y-89302832D01*
X4026200Y-89102254D01*
X4026200Y-88897746D01*
X3986302Y-88697168D01*
X3908041Y-88508228D01*
X3794422Y-88338186D01*
X3649814Y-88193578D01*
X3479772Y-88079959D01*
X3290832Y-88001698D01*
X3090254Y-87961800D01*
X2885746Y-87961800D01*
X2685168Y-88001698D01*
X2496228Y-88079959D01*
X2326186Y-88193578D01*
X2181578Y-88338186D01*
X2067959Y-88508228D01*
X1989698Y-88697168D01*
X1949800Y-88897746D01*
X253600Y-88897746D01*
X253600Y-88119942D01*
X281578Y-88161814D01*
X426186Y-88306422D01*
X596228Y-88420041D01*
X785168Y-88498302D01*
X985746Y-88538200D01*
X1190254Y-88538200D01*
X1390832Y-88498302D01*
X1579772Y-88420041D01*
X1749814Y-88306422D01*
X1894422Y-88161814D01*
X2008041Y-87991772D01*
X2086302Y-87802832D01*
X2126200Y-87602254D01*
X2126200Y-87397746D01*
X2086302Y-87197168D01*
X2008041Y-87008228D01*
X1982265Y-86969651D01*
X2269797Y-86969651D01*
X2343636Y-87189382D01*
X2588055Y-87292238D01*
X2847843Y-87345433D01*
X3113017Y-87346925D01*
X3373387Y-87296654D01*
X3618946Y-87196554D01*
X3632364Y-87189382D01*
X3706203Y-86969651D01*
X2988000Y-86251447D01*
X2269797Y-86969651D01*
X1982265Y-86969651D01*
X1894422Y-86838186D01*
X1749814Y-86693578D01*
X1579772Y-86579959D01*
X1390832Y-86501698D01*
X1190254Y-86461800D01*
X985746Y-86461800D01*
X785168Y-86501698D01*
X596228Y-86579959D01*
X426186Y-86693578D01*
X281578Y-86838186D01*
X253600Y-86880058D01*
X253600Y-86125017D01*
X1641075Y-86125017D01*
X1691346Y-86385387D01*
X1791446Y-86630946D01*
X1798618Y-86644364D01*
X2018349Y-86718203D01*
X2736553Y-86000000D01*
X3239447Y-86000000D01*
X3957651Y-86718203D01*
X4177382Y-86644364D01*
X4280238Y-86399945D01*
X4333433Y-86140157D01*
X4334925Y-85874983D01*
X4284654Y-85614613D01*
X4184554Y-85369054D01*
X4177382Y-85355636D01*
X3957651Y-85281797D01*
X3239447Y-86000000D01*
X2736553Y-86000000D01*
X2018349Y-85281797D01*
X1798618Y-85355636D01*
X1695762Y-85600055D01*
X1642567Y-85859843D01*
X1641075Y-86125017D01*
X253600Y-86125017D01*
X253600Y-85030349D01*
X2269797Y-85030349D01*
X2988000Y-85748553D01*
X3706203Y-85030349D01*
X3632364Y-84810618D01*
X3387945Y-84707762D01*
X3128157Y-84654567D01*
X2862983Y-84653075D01*
X2602613Y-84703346D01*
X2357054Y-84803446D01*
X2343636Y-84810618D01*
X2269797Y-85030349D01*
X253600Y-85030349D01*
X253600Y-75565746D01*
X1949800Y-75565746D01*
X1949800Y-75770254D01*
X1989698Y-75970832D01*
X2067959Y-76159772D01*
X2181578Y-76329814D01*
X2326186Y-76474422D01*
X2496228Y-76588041D01*
X2685168Y-76666302D01*
X2885746Y-76706200D01*
X3090254Y-76706200D01*
X3290832Y-76666302D01*
X3479772Y-76588041D01*
X3649814Y-76474422D01*
X3794422Y-76329814D01*
X3908041Y-76159772D01*
X3986302Y-75970832D01*
X4026200Y-75770254D01*
X4026200Y-75565746D01*
X3986302Y-75365168D01*
X3908041Y-75176228D01*
X3794422Y-75006186D01*
X3649814Y-74861578D01*
X3479772Y-74747959D01*
X3290832Y-74669698D01*
X3090254Y-74629800D01*
X2885746Y-74629800D01*
X2685168Y-74669698D01*
X2496228Y-74747959D01*
X2326186Y-74861578D01*
X2181578Y-75006186D01*
X2067959Y-75176228D01*
X1989698Y-75365168D01*
X1949800Y-75565746D01*
X253600Y-75565746D01*
X253600Y-74787942D01*
X281578Y-74829814D01*
X426186Y-74974422D01*
X596228Y-75088041D01*
X785168Y-75166302D01*
X985746Y-75206200D01*
X1190254Y-75206200D01*
X1390832Y-75166302D01*
X1579772Y-75088041D01*
X1749814Y-74974422D01*
X1894422Y-74829814D01*
X2008041Y-74659772D01*
X2086302Y-74470832D01*
X2126200Y-74270254D01*
X2126200Y-74065746D01*
X2086302Y-73865168D01*
X2008041Y-73676228D01*
X1982265Y-73637651D01*
X2269797Y-73637651D01*
X2343636Y-73857382D01*
X2588055Y-73960238D01*
X2847843Y-74013433D01*
X3113017Y-74014925D01*
X3373387Y-73964654D01*
X3618946Y-73864554D01*
X3632364Y-73857382D01*
X3706203Y-73637651D01*
X2988000Y-72919447D01*
X2269797Y-73637651D01*
X1982265Y-73637651D01*
X1894422Y-73506186D01*
X1749814Y-73361578D01*
X1579772Y-73247959D01*
X1390832Y-73169698D01*
X1190254Y-73129800D01*
X985746Y-73129800D01*
X785168Y-73169698D01*
X596228Y-73247959D01*
X426186Y-73361578D01*
X281578Y-73506186D01*
X253600Y-73548058D01*
X253600Y-72793017D01*
X1641075Y-72793017D01*
X1691346Y-73053387D01*
X1791446Y-73298946D01*
X1798618Y-73312364D01*
X2018349Y-73386203D01*
X2736553Y-72668000D01*
X3239447Y-72668000D01*
X3957651Y-73386203D01*
X4177382Y-73312364D01*
X4280238Y-73067945D01*
X4333433Y-72808157D01*
X4334925Y-72542983D01*
X4284654Y-72282613D01*
X4184554Y-72037054D01*
X4177382Y-72023636D01*
X3957651Y-71949797D01*
X3239447Y-72668000D01*
X2736553Y-72668000D01*
X2018349Y-71949797D01*
X1798618Y-72023636D01*
X1695762Y-72268055D01*
X1642567Y-72527843D01*
X1641075Y-72793017D01*
X253600Y-72793017D01*
X253600Y-71698349D01*
X2269797Y-71698349D01*
X2988000Y-72416553D01*
X3706203Y-71698349D01*
X3632364Y-71478618D01*
X3387945Y-71375762D01*
X3128157Y-71322567D01*
X2862983Y-71321075D01*
X2602613Y-71371346D01*
X2357054Y-71471446D01*
X2343636Y-71478618D01*
X2269797Y-71698349D01*
X253600Y-71698349D01*
X253600Y-70607400D01*
X12217800Y-70607400D01*
X12217800Y-70740600D01*
X12243786Y-70871240D01*
X12294759Y-70994301D01*
X12368761Y-71105052D01*
X12462948Y-71199239D01*
X12492801Y-71219186D01*
X12492800Y-76750292D01*
X12490859Y-76770000D01*
X12492800Y-76789705D01*
X12492800Y-76789707D01*
X12496892Y-76831255D01*
X12471800Y-76957400D01*
X12471800Y-77090600D01*
X12497786Y-77221240D01*
X12548759Y-77344301D01*
X12622761Y-77455052D01*
X12716948Y-77549239D01*
X12827699Y-77623241D01*
X12950760Y-77674214D01*
X13081400Y-77700200D01*
X13214600Y-77700200D01*
X13345240Y-77674214D01*
X13468301Y-77623241D01*
X13579052Y-77549239D01*
X13673239Y-77455052D01*
X13747241Y-77344301D01*
X13798214Y-77221240D01*
X13824200Y-77090600D01*
X13824200Y-76957400D01*
X13798214Y-76826760D01*
X13747241Y-76703699D01*
X13673239Y-76592948D01*
X13579052Y-76498761D01*
X13505179Y-76449400D01*
X86131800Y-76449400D01*
X86131800Y-76582600D01*
X86157786Y-76713240D01*
X86208759Y-76836301D01*
X86282761Y-76947052D01*
X86376948Y-77041239D01*
X86487699Y-77115241D01*
X86610760Y-77166214D01*
X86660800Y-77176168D01*
X86660801Y-82320814D01*
X86630948Y-82340761D01*
X86536761Y-82434948D01*
X86462759Y-82545699D01*
X86411786Y-82668760D01*
X86385800Y-82799400D01*
X86385800Y-82932600D01*
X86411786Y-83063240D01*
X86462759Y-83186301D01*
X86536761Y-83297052D01*
X86630948Y-83391239D01*
X86741699Y-83465241D01*
X86864760Y-83516214D01*
X86995400Y-83542200D01*
X87128600Y-83542200D01*
X87259240Y-83516214D01*
X87382301Y-83465241D01*
X87493052Y-83391239D01*
X87587239Y-83297052D01*
X87661241Y-83186301D01*
X87712214Y-83063240D01*
X87738200Y-82932600D01*
X87738200Y-82799400D01*
X87712214Y-82668760D01*
X87661241Y-82545699D01*
X87587239Y-82434948D01*
X87493052Y-82340761D01*
X87463200Y-82320814D01*
X87463200Y-76789704D01*
X87465141Y-76769999D01*
X87463200Y-76750292D01*
X87459108Y-76708745D01*
X87484200Y-76582600D01*
X87484200Y-76449400D01*
X87458214Y-76318760D01*
X87407241Y-76195699D01*
X87333239Y-76084948D01*
X87239052Y-75990761D01*
X87128301Y-75916759D01*
X87005240Y-75865786D01*
X86874600Y-75839800D01*
X86741400Y-75839800D01*
X86610760Y-75865786D01*
X86487699Y-75916759D01*
X86376948Y-75990761D01*
X86282761Y-76084948D01*
X86208759Y-76195699D01*
X86157786Y-76318760D01*
X86131800Y-76449400D01*
X13505179Y-76449400D01*
X13468301Y-76424759D01*
X13345240Y-76373786D01*
X13295200Y-76363832D01*
X13295200Y-71219186D01*
X13325052Y-71199239D01*
X13419239Y-71105052D01*
X13493241Y-70994301D01*
X13544214Y-70871240D01*
X13570200Y-70740600D01*
X13570200Y-70607400D01*
X13544214Y-70476760D01*
X13493241Y-70353699D01*
X13419239Y-70242948D01*
X13325052Y-70148761D01*
X13214301Y-70074759D01*
X13091240Y-70023786D01*
X12960600Y-69997800D01*
X12827400Y-69997800D01*
X12696760Y-70023786D01*
X12573699Y-70074759D01*
X12462948Y-70148761D01*
X12368761Y-70242948D01*
X12294759Y-70353699D01*
X12243786Y-70476760D01*
X12217800Y-70607400D01*
X253600Y-70607400D01*
X253600Y-55367400D01*
X12217800Y-55367400D01*
X12217800Y-55500600D01*
X12243786Y-55631240D01*
X12294759Y-55754301D01*
X12368761Y-55865052D01*
X12462948Y-55959239D01*
X12492801Y-55979186D01*
X12492800Y-61510292D01*
X12490859Y-61530000D01*
X12492800Y-61549705D01*
X12492800Y-61549707D01*
X12496892Y-61591255D01*
X12471800Y-61717400D01*
X12471800Y-61850600D01*
X12497786Y-61981240D01*
X12548759Y-62104301D01*
X12622761Y-62215052D01*
X12716948Y-62309239D01*
X12827699Y-62383241D01*
X12950760Y-62434214D01*
X13081400Y-62460200D01*
X13214600Y-62460200D01*
X13345240Y-62434214D01*
X13468301Y-62383241D01*
X13579052Y-62309239D01*
X13673239Y-62215052D01*
X13747241Y-62104301D01*
X13798214Y-61981240D01*
X13824200Y-61850600D01*
X13824200Y-61717400D01*
X13798214Y-61586760D01*
X13747241Y-61463699D01*
X13673239Y-61352948D01*
X13579052Y-61258761D01*
X13505179Y-61209400D01*
X86131800Y-61209400D01*
X86131800Y-61342600D01*
X86157786Y-61473240D01*
X86208759Y-61596301D01*
X86282761Y-61707052D01*
X86376948Y-61801239D01*
X86487699Y-61875241D01*
X86610760Y-61926214D01*
X86660800Y-61936168D01*
X86660801Y-67080814D01*
X86630948Y-67100761D01*
X86536761Y-67194948D01*
X86462759Y-67305699D01*
X86411786Y-67428760D01*
X86385800Y-67559400D01*
X86385800Y-67692600D01*
X86411786Y-67823240D01*
X86462759Y-67946301D01*
X86536761Y-68057052D01*
X86630948Y-68151239D01*
X86741699Y-68225241D01*
X86864760Y-68276214D01*
X86995400Y-68302200D01*
X87128600Y-68302200D01*
X87259240Y-68276214D01*
X87382301Y-68225241D01*
X87493052Y-68151239D01*
X87587239Y-68057052D01*
X87661241Y-67946301D01*
X87712214Y-67823240D01*
X87738200Y-67692600D01*
X87738200Y-67559400D01*
X87712214Y-67428760D01*
X87661241Y-67305699D01*
X87587239Y-67194948D01*
X87493052Y-67100761D01*
X87463200Y-67080814D01*
X87463200Y-61549704D01*
X87465141Y-61529999D01*
X87463200Y-61510292D01*
X87459108Y-61468745D01*
X87484200Y-61342600D01*
X87484200Y-61209400D01*
X87458214Y-61078760D01*
X87407241Y-60955699D01*
X87333239Y-60844948D01*
X87239052Y-60750761D01*
X87128301Y-60676759D01*
X87005240Y-60625786D01*
X86874600Y-60599800D01*
X86741400Y-60599800D01*
X86610760Y-60625786D01*
X86487699Y-60676759D01*
X86376948Y-60750761D01*
X86282761Y-60844948D01*
X86208759Y-60955699D01*
X86157786Y-61078760D01*
X86131800Y-61209400D01*
X13505179Y-61209400D01*
X13468301Y-61184759D01*
X13345240Y-61133786D01*
X13295200Y-61123832D01*
X13295200Y-55979186D01*
X13325052Y-55959239D01*
X13419239Y-55865052D01*
X13493241Y-55754301D01*
X13544214Y-55631240D01*
X13570200Y-55500600D01*
X13570200Y-55367400D01*
X13544214Y-55236760D01*
X13493241Y-55113699D01*
X13419239Y-55002948D01*
X13325052Y-54908761D01*
X13214301Y-54834759D01*
X13091240Y-54783786D01*
X12960600Y-54757800D01*
X12827400Y-54757800D01*
X12696760Y-54783786D01*
X12573699Y-54834759D01*
X12462948Y-54908761D01*
X12368761Y-55002948D01*
X12294759Y-55113699D01*
X12243786Y-55236760D01*
X12217800Y-55367400D01*
X253600Y-55367400D01*
X253600Y-53151746D01*
X1949800Y-53151746D01*
X1949800Y-53356254D01*
X1989698Y-53556832D01*
X2067959Y-53745772D01*
X2181578Y-53915814D01*
X2326186Y-54060422D01*
X2496228Y-54174041D01*
X2685168Y-54252302D01*
X2885746Y-54292200D01*
X3090254Y-54292200D01*
X3290832Y-54252302D01*
X3479772Y-54174041D01*
X3649814Y-54060422D01*
X3794422Y-53915814D01*
X3908041Y-53745772D01*
X3986302Y-53556832D01*
X4026200Y-53356254D01*
X4026200Y-53151746D01*
X3986302Y-52951168D01*
X3908041Y-52762228D01*
X3794422Y-52592186D01*
X3649814Y-52447578D01*
X3479772Y-52333959D01*
X3290832Y-52255698D01*
X3090254Y-52215800D01*
X2885746Y-52215800D01*
X2685168Y-52255698D01*
X2496228Y-52333959D01*
X2326186Y-52447578D01*
X2181578Y-52592186D01*
X2067959Y-52762228D01*
X1989698Y-52951168D01*
X1949800Y-53151746D01*
X253600Y-53151746D01*
X253600Y-52373942D01*
X281578Y-52415814D01*
X426186Y-52560422D01*
X596228Y-52674041D01*
X785168Y-52752302D01*
X985746Y-52792200D01*
X1190254Y-52792200D01*
X1390832Y-52752302D01*
X1579772Y-52674041D01*
X1749814Y-52560422D01*
X1894422Y-52415814D01*
X2008041Y-52245772D01*
X2086302Y-52056832D01*
X2126200Y-51856254D01*
X2126200Y-51651746D01*
X2086302Y-51451168D01*
X2008041Y-51262228D01*
X1982265Y-51223651D01*
X2269797Y-51223651D01*
X2343636Y-51443382D01*
X2588055Y-51546238D01*
X2847843Y-51599433D01*
X3113017Y-51600925D01*
X3373387Y-51550654D01*
X3618946Y-51450554D01*
X3632364Y-51443382D01*
X3706203Y-51223651D01*
X2988000Y-50505447D01*
X2269797Y-51223651D01*
X1982265Y-51223651D01*
X1894422Y-51092186D01*
X1749814Y-50947578D01*
X1579772Y-50833959D01*
X1390832Y-50755698D01*
X1190254Y-50715800D01*
X985746Y-50715800D01*
X785168Y-50755698D01*
X596228Y-50833959D01*
X426186Y-50947578D01*
X281578Y-51092186D01*
X253600Y-51134058D01*
X253600Y-50379017D01*
X1641075Y-50379017D01*
X1691346Y-50639387D01*
X1791446Y-50884946D01*
X1798618Y-50898364D01*
X2018349Y-50972203D01*
X2736553Y-50254000D01*
X3239447Y-50254000D01*
X3957651Y-50972203D01*
X4177382Y-50898364D01*
X4280238Y-50653945D01*
X4333433Y-50394157D01*
X4334925Y-50128983D01*
X4284654Y-49868613D01*
X4184554Y-49623054D01*
X4177382Y-49609636D01*
X3957651Y-49535797D01*
X3239447Y-50254000D01*
X2736553Y-50254000D01*
X2018349Y-49535797D01*
X1798618Y-49609636D01*
X1695762Y-49854055D01*
X1642567Y-50113843D01*
X1641075Y-50379017D01*
X253600Y-50379017D01*
X253600Y-49284349D01*
X2269797Y-49284349D01*
X2988000Y-50002553D01*
X3706203Y-49284349D01*
X3632364Y-49064618D01*
X3387945Y-48961762D01*
X3128157Y-48908567D01*
X2862983Y-48907075D01*
X2602613Y-48957346D01*
X2357054Y-49057446D01*
X2343636Y-49064618D01*
X2269797Y-49284349D01*
X253600Y-49284349D01*
X253600Y-47309746D01*
X1949800Y-47309746D01*
X1949800Y-47514254D01*
X1989698Y-47714832D01*
X2067959Y-47903772D01*
X2181578Y-48073814D01*
X2326186Y-48218422D01*
X2496228Y-48332041D01*
X2685168Y-48410302D01*
X2885746Y-48450200D01*
X3090254Y-48450200D01*
X3290832Y-48410302D01*
X3479772Y-48332041D01*
X3649814Y-48218422D01*
X3794422Y-48073814D01*
X3908041Y-47903772D01*
X3986302Y-47714832D01*
X4026200Y-47514254D01*
X4026200Y-47309746D01*
X3986302Y-47109168D01*
X3908041Y-46920228D01*
X3794422Y-46750186D01*
X3649814Y-46605578D01*
X3479772Y-46491959D01*
X3290832Y-46413698D01*
X3090254Y-46373800D01*
X2885746Y-46373800D01*
X2685168Y-46413698D01*
X2496228Y-46491959D01*
X2326186Y-46605578D01*
X2181578Y-46750186D01*
X2067959Y-46920228D01*
X1989698Y-47109168D01*
X1949800Y-47309746D01*
X253600Y-47309746D01*
X253600Y-46531942D01*
X281578Y-46573814D01*
X426186Y-46718422D01*
X596228Y-46832041D01*
X785168Y-46910302D01*
X985746Y-46950200D01*
X1190254Y-46950200D01*
X1390832Y-46910302D01*
X1579772Y-46832041D01*
X1749814Y-46718422D01*
X1894422Y-46573814D01*
X2008041Y-46403772D01*
X2086302Y-46214832D01*
X2126200Y-46014254D01*
X2126200Y-45809746D01*
X2086302Y-45609168D01*
X2008041Y-45420228D01*
X1982265Y-45381651D01*
X2269797Y-45381651D01*
X2343636Y-45601382D01*
X2588055Y-45704238D01*
X2847843Y-45757433D01*
X3113017Y-45758925D01*
X3373387Y-45708654D01*
X3618946Y-45608554D01*
X3632364Y-45601382D01*
X3706203Y-45381651D01*
X2988000Y-44663447D01*
X2269797Y-45381651D01*
X1982265Y-45381651D01*
X1894422Y-45250186D01*
X1749814Y-45105578D01*
X1579772Y-44991959D01*
X1390832Y-44913698D01*
X1190254Y-44873800D01*
X985746Y-44873800D01*
X785168Y-44913698D01*
X596228Y-44991959D01*
X426186Y-45105578D01*
X281578Y-45250186D01*
X253600Y-45292058D01*
X253600Y-44537017D01*
X1641075Y-44537017D01*
X1691346Y-44797387D01*
X1791446Y-45042946D01*
X1798618Y-45056364D01*
X2018349Y-45130203D01*
X2736553Y-44412000D01*
X3239447Y-44412000D01*
X3957651Y-45130203D01*
X4177382Y-45056364D01*
X4280238Y-44811945D01*
X4333433Y-44552157D01*
X4334925Y-44286983D01*
X4284654Y-44026613D01*
X4184554Y-43781054D01*
X4177382Y-43767636D01*
X3957651Y-43693797D01*
X3239447Y-44412000D01*
X2736553Y-44412000D01*
X2018349Y-43693797D01*
X1798618Y-43767636D01*
X1695762Y-44012055D01*
X1642567Y-44271843D01*
X1641075Y-44537017D01*
X253600Y-44537017D01*
X253600Y-43442349D01*
X2269797Y-43442349D01*
X2988000Y-44160553D01*
X3706203Y-43442349D01*
X3632364Y-43222618D01*
X3387945Y-43119762D01*
X3128157Y-43066567D01*
X2862983Y-43065075D01*
X2602613Y-43115346D01*
X2357054Y-43215446D01*
X2343636Y-43222618D01*
X2269797Y-43442349D01*
X253600Y-43442349D01*
X253600Y-40127400D01*
X12217800Y-40127400D01*
X12217800Y-40260600D01*
X12243786Y-40391240D01*
X12294759Y-40514301D01*
X12368761Y-40625052D01*
X12462948Y-40719239D01*
X12492801Y-40739186D01*
X12492800Y-46270292D01*
X12490859Y-46290000D01*
X12492800Y-46309705D01*
X12492800Y-46309707D01*
X12496892Y-46351255D01*
X12471800Y-46477400D01*
X12471800Y-46610600D01*
X12497786Y-46741240D01*
X12548759Y-46864301D01*
X12622761Y-46975052D01*
X12716948Y-47069239D01*
X12827699Y-47143241D01*
X12950760Y-47194214D01*
X13081400Y-47220200D01*
X13214600Y-47220200D01*
X13345240Y-47194214D01*
X13468301Y-47143241D01*
X13579052Y-47069239D01*
X13673239Y-46975052D01*
X13747241Y-46864301D01*
X13798214Y-46741240D01*
X13824200Y-46610600D01*
X13824200Y-46477400D01*
X13798214Y-46346760D01*
X13747241Y-46223699D01*
X13673239Y-46112948D01*
X13579052Y-46018761D01*
X13505179Y-45969400D01*
X86131800Y-45969400D01*
X86131800Y-46102600D01*
X86157786Y-46233240D01*
X86208759Y-46356301D01*
X86282761Y-46467052D01*
X86376948Y-46561239D01*
X86487699Y-46635241D01*
X86610760Y-46686214D01*
X86660800Y-46696168D01*
X86660801Y-51840814D01*
X86630948Y-51860761D01*
X86536761Y-51954948D01*
X86462759Y-52065699D01*
X86411786Y-52188760D01*
X86385800Y-52319400D01*
X86385800Y-52452600D01*
X86411786Y-52583240D01*
X86462759Y-52706301D01*
X86536761Y-52817052D01*
X86630948Y-52911239D01*
X86741699Y-52985241D01*
X86864760Y-53036214D01*
X86995400Y-53062200D01*
X87128600Y-53062200D01*
X87259240Y-53036214D01*
X87382301Y-52985241D01*
X87493052Y-52911239D01*
X87587239Y-52817052D01*
X87661241Y-52706301D01*
X87712214Y-52583240D01*
X87738200Y-52452600D01*
X87738200Y-52319400D01*
X87712214Y-52188760D01*
X87661241Y-52065699D01*
X87587239Y-51954948D01*
X87493052Y-51860761D01*
X87463200Y-51840814D01*
X87463200Y-46309704D01*
X87465141Y-46289999D01*
X87463200Y-46270292D01*
X87459108Y-46228745D01*
X87484200Y-46102600D01*
X87484200Y-45969400D01*
X87458214Y-45838760D01*
X87407241Y-45715699D01*
X87333239Y-45604948D01*
X87239052Y-45510761D01*
X87128301Y-45436759D01*
X87005240Y-45385786D01*
X86874600Y-45359800D01*
X86741400Y-45359800D01*
X86610760Y-45385786D01*
X86487699Y-45436759D01*
X86376948Y-45510761D01*
X86282761Y-45604948D01*
X86208759Y-45715699D01*
X86157786Y-45838760D01*
X86131800Y-45969400D01*
X13505179Y-45969400D01*
X13468301Y-45944759D01*
X13345240Y-45893786D01*
X13295200Y-45883832D01*
X13295200Y-40739186D01*
X13325052Y-40719239D01*
X13419239Y-40625052D01*
X13493241Y-40514301D01*
X13544214Y-40391240D01*
X13570200Y-40260600D01*
X13570200Y-40127400D01*
X13544214Y-39996760D01*
X13493241Y-39873699D01*
X13419239Y-39762948D01*
X13325052Y-39668761D01*
X13214301Y-39594759D01*
X13091240Y-39543786D01*
X12960600Y-39517800D01*
X12827400Y-39517800D01*
X12696760Y-39543786D01*
X12573699Y-39594759D01*
X12462948Y-39668761D01*
X12368761Y-39762948D01*
X12294759Y-39873699D01*
X12243786Y-39996760D01*
X12217800Y-40127400D01*
X253600Y-40127400D01*
X253600Y-37637746D01*
X1949800Y-37637746D01*
X1949800Y-37842254D01*
X1989698Y-38042832D01*
X2067959Y-38231772D01*
X2181578Y-38401814D01*
X2326186Y-38546422D01*
X2496228Y-38660041D01*
X2685168Y-38738302D01*
X2885746Y-38778200D01*
X3090254Y-38778200D01*
X3290832Y-38738302D01*
X3479772Y-38660041D01*
X3649814Y-38546422D01*
X3794422Y-38401814D01*
X3908041Y-38231772D01*
X3986302Y-38042832D01*
X4026200Y-37842254D01*
X4026200Y-37637746D01*
X3986302Y-37437168D01*
X3908041Y-37248228D01*
X3794422Y-37078186D01*
X3649814Y-36933578D01*
X3479772Y-36819959D01*
X3290832Y-36741698D01*
X3090254Y-36701800D01*
X2885746Y-36701800D01*
X2685168Y-36741698D01*
X2496228Y-36819959D01*
X2326186Y-36933578D01*
X2181578Y-37078186D01*
X2067959Y-37248228D01*
X1989698Y-37437168D01*
X1949800Y-37637746D01*
X253600Y-37637746D01*
X253600Y-36859942D01*
X281578Y-36901814D01*
X426186Y-37046422D01*
X596228Y-37160041D01*
X785168Y-37238302D01*
X985746Y-37278200D01*
X1190254Y-37278200D01*
X1390832Y-37238302D01*
X1579772Y-37160041D01*
X1749814Y-37046422D01*
X1894422Y-36901814D01*
X2008041Y-36731772D01*
X2086302Y-36542832D01*
X2126200Y-36342254D01*
X2126200Y-36137746D01*
X2086302Y-35937168D01*
X2008041Y-35748228D01*
X1982265Y-35709651D01*
X2269797Y-35709651D01*
X2343636Y-35929382D01*
X2588055Y-36032238D01*
X2847843Y-36085433D01*
X3113017Y-36086925D01*
X3373387Y-36036654D01*
X3618946Y-35936554D01*
X3632364Y-35929382D01*
X3706203Y-35709651D01*
X2988000Y-34991447D01*
X2269797Y-35709651D01*
X1982265Y-35709651D01*
X1894422Y-35578186D01*
X1749814Y-35433578D01*
X1579772Y-35319959D01*
X1390832Y-35241698D01*
X1190254Y-35201800D01*
X985746Y-35201800D01*
X785168Y-35241698D01*
X596228Y-35319959D01*
X426186Y-35433578D01*
X281578Y-35578186D01*
X253600Y-35620058D01*
X253600Y-34865017D01*
X1641075Y-34865017D01*
X1691346Y-35125387D01*
X1791446Y-35370946D01*
X1798618Y-35384364D01*
X2018349Y-35458203D01*
X2736553Y-34740000D01*
X3239447Y-34740000D01*
X3957651Y-35458203D01*
X4177382Y-35384364D01*
X4280238Y-35139945D01*
X4333433Y-34880157D01*
X4334925Y-34614983D01*
X4284654Y-34354613D01*
X4184554Y-34109054D01*
X4177382Y-34095636D01*
X3957651Y-34021797D01*
X3239447Y-34740000D01*
X2736553Y-34740000D01*
X2018349Y-34021797D01*
X1798618Y-34095636D01*
X1695762Y-34340055D01*
X1642567Y-34599843D01*
X1641075Y-34865017D01*
X253600Y-34865017D01*
X253600Y-33770349D01*
X2269797Y-33770349D01*
X2988000Y-34488553D01*
X3706203Y-33770349D01*
X3632364Y-33550618D01*
X3387945Y-33447762D01*
X3128157Y-33394567D01*
X2862983Y-33393075D01*
X2602613Y-33443346D01*
X2357054Y-33543446D01*
X2343636Y-33550618D01*
X2269797Y-33770349D01*
X253600Y-33770349D01*
X253600Y-32049746D01*
X1949800Y-32049746D01*
X1949800Y-32254254D01*
X1989698Y-32454832D01*
X2067959Y-32643772D01*
X2181578Y-32813814D01*
X2326186Y-32958422D01*
X2496228Y-33072041D01*
X2685168Y-33150302D01*
X2885746Y-33190200D01*
X3090254Y-33190200D01*
X3290832Y-33150302D01*
X3479772Y-33072041D01*
X3649814Y-32958422D01*
X3794422Y-32813814D01*
X3908041Y-32643772D01*
X3986302Y-32454832D01*
X4026200Y-32254254D01*
X4026200Y-32049746D01*
X3986302Y-31849168D01*
X3908041Y-31660228D01*
X3794422Y-31490186D01*
X3649814Y-31345578D01*
X3479772Y-31231959D01*
X3290832Y-31153698D01*
X3090254Y-31113800D01*
X2885746Y-31113800D01*
X2685168Y-31153698D01*
X2496228Y-31231959D01*
X2326186Y-31345578D01*
X2181578Y-31490186D01*
X2067959Y-31660228D01*
X1989698Y-31849168D01*
X1949800Y-32049746D01*
X253600Y-32049746D01*
X253600Y-31271942D01*
X281578Y-31313814D01*
X426186Y-31458422D01*
X596228Y-31572041D01*
X785168Y-31650302D01*
X985746Y-31690200D01*
X1190254Y-31690200D01*
X1390832Y-31650302D01*
X1579772Y-31572041D01*
X1749814Y-31458422D01*
X1894422Y-31313814D01*
X2008041Y-31143772D01*
X2086302Y-30954832D01*
X2126200Y-30754254D01*
X2126200Y-30549746D01*
X2086302Y-30349168D01*
X2008041Y-30160228D01*
X1982265Y-30121651D01*
X2269797Y-30121651D01*
X2343636Y-30341382D01*
X2588055Y-30444238D01*
X2847843Y-30497433D01*
X3113017Y-30498925D01*
X3373387Y-30448654D01*
X3618946Y-30348554D01*
X3632364Y-30341382D01*
X3706203Y-30121651D01*
X2988000Y-29403447D01*
X2269797Y-30121651D01*
X1982265Y-30121651D01*
X1894422Y-29990186D01*
X1749814Y-29845578D01*
X1579772Y-29731959D01*
X1390832Y-29653698D01*
X1190254Y-29613800D01*
X985746Y-29613800D01*
X785168Y-29653698D01*
X596228Y-29731959D01*
X426186Y-29845578D01*
X281578Y-29990186D01*
X253600Y-30032058D01*
X253600Y-29277017D01*
X1641075Y-29277017D01*
X1691346Y-29537387D01*
X1791446Y-29782946D01*
X1798618Y-29796364D01*
X2018349Y-29870203D01*
X2736553Y-29152000D01*
X3239447Y-29152000D01*
X3957651Y-29870203D01*
X4177382Y-29796364D01*
X4280238Y-29551945D01*
X4333433Y-29292157D01*
X4334925Y-29026983D01*
X4284654Y-28766613D01*
X4184554Y-28521054D01*
X4177382Y-28507636D01*
X3957651Y-28433797D01*
X3239447Y-29152000D01*
X2736553Y-29152000D01*
X2018349Y-28433797D01*
X1798618Y-28507636D01*
X1695762Y-28752055D01*
X1642567Y-29011843D01*
X1641075Y-29277017D01*
X253600Y-29277017D01*
X253600Y-28182349D01*
X2269797Y-28182349D01*
X2988000Y-28900553D01*
X3706203Y-28182349D01*
X3632364Y-27962618D01*
X3387945Y-27859762D01*
X3128157Y-27806567D01*
X2862983Y-27805075D01*
X2602613Y-27855346D01*
X2357054Y-27955446D01*
X2343636Y-27962618D01*
X2269797Y-28182349D01*
X253600Y-28182349D01*
X253600Y-24887400D01*
X12217800Y-24887400D01*
X12217800Y-25020600D01*
X12243786Y-25151240D01*
X12294759Y-25274301D01*
X12368761Y-25385052D01*
X12462948Y-25479239D01*
X12492801Y-25499186D01*
X12492800Y-31030292D01*
X12490859Y-31050000D01*
X12492800Y-31069705D01*
X12492800Y-31069707D01*
X12496892Y-31111255D01*
X12471800Y-31237400D01*
X12471800Y-31370600D01*
X12497786Y-31501240D01*
X12548759Y-31624301D01*
X12622761Y-31735052D01*
X12716948Y-31829239D01*
X12827699Y-31903241D01*
X12950760Y-31954214D01*
X13081400Y-31980200D01*
X13214600Y-31980200D01*
X13345240Y-31954214D01*
X13468301Y-31903241D01*
X13579052Y-31829239D01*
X13673239Y-31735052D01*
X13747241Y-31624301D01*
X13798214Y-31501240D01*
X13824200Y-31370600D01*
X13824200Y-31237400D01*
X13798214Y-31106760D01*
X13747241Y-30983699D01*
X13673239Y-30872948D01*
X13579052Y-30778761D01*
X13505179Y-30729400D01*
X86131800Y-30729400D01*
X86131800Y-30862600D01*
X86157786Y-30993240D01*
X86208759Y-31116301D01*
X86282761Y-31227052D01*
X86376948Y-31321239D01*
X86487699Y-31395241D01*
X86610760Y-31446214D01*
X86660800Y-31456168D01*
X86660801Y-36600814D01*
X86630948Y-36620761D01*
X86536761Y-36714948D01*
X86462759Y-36825699D01*
X86411786Y-36948760D01*
X86385800Y-37079400D01*
X86385800Y-37212600D01*
X86411786Y-37343240D01*
X86462759Y-37466301D01*
X86536761Y-37577052D01*
X86630948Y-37671239D01*
X86741699Y-37745241D01*
X86864760Y-37796214D01*
X86995400Y-37822200D01*
X87128600Y-37822200D01*
X87259240Y-37796214D01*
X87382301Y-37745241D01*
X87493052Y-37671239D01*
X87587239Y-37577052D01*
X87661241Y-37466301D01*
X87712214Y-37343240D01*
X87738200Y-37212600D01*
X87738200Y-37079400D01*
X87712214Y-36948760D01*
X87661241Y-36825699D01*
X87587239Y-36714948D01*
X87493052Y-36620761D01*
X87463200Y-36600814D01*
X87463200Y-31069704D01*
X87465141Y-31049999D01*
X87463200Y-31030292D01*
X87459108Y-30988745D01*
X87484200Y-30862600D01*
X87484200Y-30729400D01*
X87458214Y-30598760D01*
X87407241Y-30475699D01*
X87333239Y-30364948D01*
X87239052Y-30270761D01*
X87128301Y-30196759D01*
X87005240Y-30145786D01*
X86874600Y-30119800D01*
X86741400Y-30119800D01*
X86610760Y-30145786D01*
X86487699Y-30196759D01*
X86376948Y-30270761D01*
X86282761Y-30364948D01*
X86208759Y-30475699D01*
X86157786Y-30598760D01*
X86131800Y-30729400D01*
X13505179Y-30729400D01*
X13468301Y-30704759D01*
X13345240Y-30653786D01*
X13295200Y-30643832D01*
X13295200Y-25499186D01*
X13325052Y-25479239D01*
X13419239Y-25385052D01*
X13493241Y-25274301D01*
X13544214Y-25151240D01*
X13570200Y-25020600D01*
X13570200Y-24887400D01*
X13544214Y-24756760D01*
X13493241Y-24633699D01*
X13419239Y-24522948D01*
X13325052Y-24428761D01*
X13214301Y-24354759D01*
X13091240Y-24303786D01*
X12960600Y-24277800D01*
X12827400Y-24277800D01*
X12696760Y-24303786D01*
X12573699Y-24354759D01*
X12462948Y-24428761D01*
X12368761Y-24522948D01*
X12294759Y-24633699D01*
X12243786Y-24756760D01*
X12217800Y-24887400D01*
X253600Y-24887400D01*
X253600Y-22283381D01*
X6487800Y-22283381D01*
X6487800Y-22544619D01*
X6538765Y-22800838D01*
X6638737Y-23042191D01*
X6783873Y-23259403D01*
X6968597Y-23444127D01*
X7185809Y-23589263D01*
X7427162Y-23689235D01*
X7683381Y-23740200D01*
X7944619Y-23740200D01*
X8200838Y-23689235D01*
X8442191Y-23589263D01*
X8659403Y-23444127D01*
X8844127Y-23259403D01*
X8989263Y-23042191D01*
X9089235Y-22800838D01*
X9140200Y-22544619D01*
X9140200Y-22283381D01*
X9089235Y-22027162D01*
X8989263Y-21785809D01*
X8844127Y-21568597D01*
X8659403Y-21383873D01*
X8442191Y-21238737D01*
X8200838Y-21138765D01*
X7944619Y-21087800D01*
X7683381Y-21087800D01*
X7427162Y-21138765D01*
X7185809Y-21238737D01*
X6968597Y-21383873D01*
X6783873Y-21568597D01*
X6638737Y-21785809D01*
X6538765Y-22027162D01*
X6487800Y-22283381D01*
X253600Y-22283381D01*
X253600Y-11600000D01*
X2300103Y-11600000D01*
X2315090Y-11752162D01*
X2359474Y-11898476D01*
X2431549Y-12033320D01*
X2528547Y-12151511D01*
X2646738Y-12248509D01*
X2781582Y-12320584D01*
X2805049Y-12327703D01*
X2740292Y-12370972D01*
X2646105Y-12465159D01*
X2572103Y-12575910D01*
X2521130Y-12698971D01*
X2495144Y-12829611D01*
X2495144Y-12962811D01*
X2521130Y-13093451D01*
X2572103Y-13216512D01*
X2646105Y-13327263D01*
X2740292Y-13421450D01*
X2770144Y-13441397D01*
X2770145Y-16251629D01*
X2768203Y-16271344D01*
X2775950Y-16349992D01*
X2798891Y-16425619D01*
X2836145Y-16495317D01*
X2849400Y-16511468D01*
X2886281Y-16556408D01*
X2901593Y-16568974D01*
X4602375Y-18269758D01*
X4614936Y-18285064D01*
X4630242Y-18297625D01*
X4630244Y-18297627D01*
X4676026Y-18335199D01*
X4713281Y-18355112D01*
X4745725Y-18372454D01*
X4821351Y-18395395D01*
X4880292Y-18401200D01*
X4880295Y-18401200D01*
X4900000Y-18403141D01*
X4919705Y-18401200D01*
X8788614Y-18401200D01*
X8808319Y-18403141D01*
X8828024Y-18401200D01*
X8828027Y-18401200D01*
X8886968Y-18395395D01*
X8962594Y-18372454D01*
X9032292Y-18335199D01*
X9093383Y-18285064D01*
X9105953Y-18269747D01*
X11565700Y-15810000D01*
X18146546Y-15810000D01*
X18161532Y-15962161D01*
X18205916Y-16108475D01*
X18277992Y-16243319D01*
X18374989Y-16361511D01*
X18493181Y-16458508D01*
X18628025Y-16530584D01*
X18774339Y-16574968D01*
X18926500Y-16589954D01*
X19078661Y-16574968D01*
X19224975Y-16530584D01*
X19359819Y-16458508D01*
X19448398Y-16385814D01*
X19511898Y-16322314D01*
X19541511Y-16298011D01*
X19638509Y-16179820D01*
X19710584Y-16044976D01*
X19754968Y-15898662D01*
X19766200Y-15784624D01*
X19766200Y-15784616D01*
X19769954Y-15746500D01*
X19766200Y-15708384D01*
X19766200Y-15489400D01*
X86131800Y-15489400D01*
X86131800Y-15622600D01*
X86157786Y-15753240D01*
X86208759Y-15876301D01*
X86282761Y-15987052D01*
X86376948Y-16081239D01*
X86487699Y-16155241D01*
X86610760Y-16206214D01*
X86660800Y-16216168D01*
X86660801Y-21360814D01*
X86630948Y-21380761D01*
X86536761Y-21474948D01*
X86462759Y-21585699D01*
X86411786Y-21708760D01*
X86385800Y-21839400D01*
X86385800Y-21972600D01*
X86411786Y-22103240D01*
X86462759Y-22226301D01*
X86536761Y-22337052D01*
X86630948Y-22431239D01*
X86741699Y-22505241D01*
X86864760Y-22556214D01*
X86995400Y-22582200D01*
X87128600Y-22582200D01*
X87259240Y-22556214D01*
X87382301Y-22505241D01*
X87493052Y-22431239D01*
X87587239Y-22337052D01*
X87661241Y-22226301D01*
X87712214Y-22103240D01*
X87738200Y-21972600D01*
X87738200Y-21839400D01*
X87712214Y-21708760D01*
X87661241Y-21585699D01*
X87587239Y-21474948D01*
X87493052Y-21380761D01*
X87463200Y-21360814D01*
X87463200Y-15829704D01*
X87465141Y-15809999D01*
X87462642Y-15784624D01*
X87459108Y-15748745D01*
X87484200Y-15622600D01*
X87484200Y-15489400D01*
X87458214Y-15358760D01*
X87407241Y-15235699D01*
X87333239Y-15124948D01*
X87239052Y-15030761D01*
X87128301Y-14956759D01*
X87005240Y-14905786D01*
X86874600Y-14879800D01*
X86741400Y-14879800D01*
X86610760Y-14905786D01*
X86487699Y-14956759D01*
X86376948Y-15030761D01*
X86282761Y-15124948D01*
X86208759Y-15235699D01*
X86157786Y-15358760D01*
X86131800Y-15489400D01*
X19766200Y-15489400D01*
X19766200Y-12660376D01*
X19754968Y-12546338D01*
X19710584Y-12400024D01*
X19638509Y-12265180D01*
X19541511Y-12146989D01*
X19423319Y-12049991D01*
X19288475Y-11977916D01*
X19142161Y-11933532D01*
X18990000Y-11918545D01*
X18837838Y-11933532D01*
X18691524Y-11977916D01*
X18556680Y-12049991D01*
X18438489Y-12146989D01*
X18341491Y-12265181D01*
X18269416Y-12400025D01*
X18225032Y-12546339D01*
X18213800Y-12660377D01*
X18213801Y-15496773D01*
X18205916Y-15511525D01*
X18161532Y-15657839D01*
X18146546Y-15810000D01*
X11565700Y-15810000D01*
X12859457Y-14516244D01*
X12894671Y-14523248D01*
X13027871Y-14523248D01*
X13158511Y-14497262D01*
X13281572Y-14446289D01*
X13392323Y-14372287D01*
X13486510Y-14278100D01*
X13560512Y-14167349D01*
X13611485Y-14044288D01*
X13637471Y-13913648D01*
X13637471Y-13780448D01*
X13611485Y-13649808D01*
X13560512Y-13526747D01*
X13486510Y-13415996D01*
X13392323Y-13321809D01*
X13281572Y-13247807D01*
X13158511Y-13196834D01*
X13027871Y-13170848D01*
X12894671Y-13170848D01*
X12764031Y-13196834D01*
X12640970Y-13247807D01*
X12530219Y-13321809D01*
X12436032Y-13415996D01*
X12362030Y-13526747D01*
X12311057Y-13649808D01*
X12285071Y-13780448D01*
X12285071Y-13913648D01*
X12292075Y-13948862D01*
X8642138Y-17598800D01*
X5066183Y-17598800D01*
X3572544Y-16105163D01*
X3572544Y-14168250D01*
X7667772Y-14168250D01*
X7667772Y-14301450D01*
X7693758Y-14432090D01*
X7744731Y-14555151D01*
X7818733Y-14665902D01*
X7912920Y-14760089D01*
X8023671Y-14834091D01*
X8146732Y-14885064D01*
X8277372Y-14911050D01*
X8410572Y-14911050D01*
X8541212Y-14885064D01*
X8664273Y-14834091D01*
X8775024Y-14760089D01*
X8869211Y-14665902D01*
X8889158Y-14636050D01*
X10453466Y-14636050D01*
X10473171Y-14637991D01*
X10492876Y-14636050D01*
X10492879Y-14636050D01*
X10551820Y-14630245D01*
X10627446Y-14607304D01*
X10697144Y-14570049D01*
X10758235Y-14519914D01*
X10770805Y-14504597D01*
X12284187Y-12991217D01*
X12319400Y-12998221D01*
X12452600Y-12998221D01*
X12583240Y-12972235D01*
X12706301Y-12921262D01*
X12817052Y-12847260D01*
X12911239Y-12753073D01*
X12985241Y-12642322D01*
X13036214Y-12519261D01*
X13062200Y-12388621D01*
X13062200Y-12255421D01*
X13036214Y-12124781D01*
X12985241Y-12001720D01*
X12911239Y-11890969D01*
X12817052Y-11796782D01*
X12706301Y-11722780D01*
X12583240Y-11671807D01*
X12452600Y-11645821D01*
X12319400Y-11645821D01*
X12188760Y-11671807D01*
X12065699Y-11722780D01*
X11954948Y-11796782D01*
X11860761Y-11890969D01*
X11786759Y-12001720D01*
X11735786Y-12124781D01*
X11709800Y-12255421D01*
X11709800Y-12388621D01*
X11716804Y-12423834D01*
X10306990Y-13833650D01*
X8889158Y-13833650D01*
X8869211Y-13803798D01*
X8775024Y-13709611D01*
X8664273Y-13635609D01*
X8541212Y-13584636D01*
X8410572Y-13558650D01*
X8277372Y-13558650D01*
X8146732Y-13584636D01*
X8023671Y-13635609D01*
X7912920Y-13709611D01*
X7818733Y-13803798D01*
X7744731Y-13914549D01*
X7693758Y-14037610D01*
X7667772Y-14168250D01*
X3572544Y-14168250D01*
X3572544Y-13441397D01*
X3602396Y-13421450D01*
X3696583Y-13327263D01*
X3770585Y-13216512D01*
X3821558Y-13093451D01*
X3847544Y-12962811D01*
X3847544Y-12829611D01*
X3821558Y-12698971D01*
X3770585Y-12575910D01*
X3696583Y-12465159D01*
X3607624Y-12376200D01*
X8675018Y-12376200D01*
X8909892Y-12611074D01*
X8998471Y-12683769D01*
X9133314Y-12755844D01*
X9279628Y-12800228D01*
X9431790Y-12815214D01*
X9583951Y-12800228D01*
X9730265Y-12755844D01*
X9865109Y-12683769D01*
X9983301Y-12586771D01*
X10080299Y-12468579D01*
X10152374Y-12333735D01*
X10196758Y-12187421D01*
X10211744Y-12035260D01*
X10196758Y-11883098D01*
X10152374Y-11736784D01*
X10080299Y-11601941D01*
X10007604Y-11513362D01*
X9572344Y-11078102D01*
X9548041Y-11048489D01*
X9429850Y-10951491D01*
X9295006Y-10879416D01*
X9148692Y-10835032D01*
X9034654Y-10823800D01*
X9034646Y-10823800D01*
X8996530Y-10820046D01*
X8958414Y-10823800D01*
X4476200Y-10823800D01*
X4476200Y-10333400D01*
X24223800Y-10333400D01*
X24223800Y-10466600D01*
X24249786Y-10597240D01*
X24300759Y-10720301D01*
X24374761Y-10831052D01*
X24468948Y-10925239D01*
X24579699Y-10999241D01*
X24702760Y-11050214D01*
X24833400Y-11076200D01*
X24966600Y-11076200D01*
X25097240Y-11050214D01*
X25220301Y-10999241D01*
X25331052Y-10925239D01*
X25425239Y-10831052D01*
X25445186Y-10801200D01*
X25522464Y-10801200D01*
X25522464Y-12500000D01*
X25527797Y-12554145D01*
X25543590Y-12606208D01*
X25569237Y-12654191D01*
X25603752Y-12696248D01*
X25645809Y-12730763D01*
X25693792Y-12756410D01*
X25745855Y-12772203D01*
X25800000Y-12777536D01*
X28800000Y-12777536D01*
X28854145Y-12772203D01*
X28906208Y-12756410D01*
X28954191Y-12730763D01*
X28996248Y-12696248D01*
X29030763Y-12654191D01*
X29056410Y-12606208D01*
X29072203Y-12554145D01*
X29077536Y-12500000D01*
X54212973Y-12500000D01*
X54224253Y-12614523D01*
X54257658Y-12724646D01*
X54311905Y-12826135D01*
X54384909Y-12915091D01*
X54473865Y-12988095D01*
X54575354Y-13042342D01*
X54685477Y-13075747D01*
X54800000Y-13087027D01*
X55976150Y-13084200D01*
X56122200Y-12938150D01*
X56122200Y-10577800D01*
X56477800Y-10577800D01*
X56477800Y-12938150D01*
X56623850Y-13084200D01*
X57800000Y-13087027D01*
X57914523Y-13075747D01*
X58024646Y-13042342D01*
X58126135Y-12988095D01*
X58215091Y-12915091D01*
X58288095Y-12826135D01*
X58342342Y-12724646D01*
X58375747Y-12614523D01*
X58387027Y-12500000D01*
X58384200Y-10723850D01*
X58238150Y-10577800D01*
X56477800Y-10577800D01*
X56122200Y-10577800D01*
X54361850Y-10577800D01*
X54215800Y-10723850D01*
X54212973Y-12500000D01*
X29077536Y-12500000D01*
X29077536Y-8300000D01*
X54212973Y-8300000D01*
X54215800Y-10076150D01*
X54361850Y-10222200D01*
X56122200Y-10222200D01*
X56122200Y-7861850D01*
X56477800Y-7861850D01*
X56477800Y-10222200D01*
X58238150Y-10222200D01*
X58384200Y-10076150D01*
X58387027Y-8300000D01*
X58375747Y-8185477D01*
X58342342Y-8075354D01*
X58288095Y-7973865D01*
X58215091Y-7884909D01*
X58126135Y-7811905D01*
X58024646Y-7757658D01*
X57914523Y-7724253D01*
X57800000Y-7712973D01*
X56623850Y-7715800D01*
X56477800Y-7861850D01*
X56122200Y-7861850D01*
X55976150Y-7715800D01*
X54800000Y-7712973D01*
X54685477Y-7724253D01*
X54575354Y-7757658D01*
X54473865Y-7811905D01*
X54384909Y-7884909D01*
X54311905Y-7973865D01*
X54257658Y-8075354D01*
X54224253Y-8185477D01*
X54212973Y-8300000D01*
X29077536Y-8300000D01*
X29072203Y-8245855D01*
X29056410Y-8193792D01*
X29030763Y-8145809D01*
X28996248Y-8103752D01*
X28954191Y-8069237D01*
X28906208Y-8043590D01*
X28854145Y-8027797D01*
X28800000Y-8022464D01*
X25800000Y-8022464D01*
X25745855Y-8027797D01*
X25693792Y-8043590D01*
X25645809Y-8069237D01*
X25603752Y-8103752D01*
X25569237Y-8145809D01*
X25543590Y-8193792D01*
X25527797Y-8245855D01*
X25522464Y-8300000D01*
X25522464Y-9998800D01*
X25445186Y-9998800D01*
X25425239Y-9968948D01*
X25331052Y-9874761D01*
X25220301Y-9800759D01*
X25097240Y-9749786D01*
X24966600Y-9723800D01*
X24833400Y-9723800D01*
X24702760Y-9749786D01*
X24579699Y-9800759D01*
X24468948Y-9874761D01*
X24374761Y-9968948D01*
X24300759Y-10079699D01*
X24249786Y-10202760D01*
X24223800Y-10333400D01*
X4476200Y-10333400D01*
X4476200Y-4676200D01*
X11832041Y-4676200D01*
X12009640Y-4853798D01*
X12026120Y-4873880D01*
X12106244Y-4939636D01*
X12197658Y-4988498D01*
X12296847Y-5018586D01*
X12399999Y-5028746D01*
X12425848Y-5026200D01*
X12870386Y-5026200D01*
X12979699Y-5099241D01*
X13102760Y-5150214D01*
X13233400Y-5176200D01*
X13366600Y-5176200D01*
X13497240Y-5150214D01*
X13620301Y-5099241D01*
X13731052Y-5025239D01*
X13825239Y-4931052D01*
X13899241Y-4820301D01*
X13950214Y-4697240D01*
X13976200Y-4566600D01*
X13976200Y-4433400D01*
X13950214Y-4302760D01*
X13899241Y-4179699D01*
X13825239Y-4068948D01*
X13731052Y-3974761D01*
X13620301Y-3900759D01*
X13497240Y-3849786D01*
X13366600Y-3823800D01*
X13233400Y-3823800D01*
X13102760Y-3849786D01*
X12979699Y-3900759D01*
X12870386Y-3973800D01*
X12617959Y-3973800D01*
X12576745Y-3932587D01*
X12579955Y-3900000D01*
X12564968Y-3747838D01*
X12520584Y-3601524D01*
X12448509Y-3466680D01*
X12351511Y-3348489D01*
X12233320Y-3251491D01*
X12098476Y-3179416D01*
X11952162Y-3135032D01*
X11838124Y-3123800D01*
X4321512Y-3123800D01*
X4275815Y-3078103D01*
X4251511Y-3048489D01*
X4133319Y-2951491D01*
X3998475Y-2879416D01*
X3852161Y-2835032D01*
X3700000Y-2820045D01*
X3547838Y-2835032D01*
X3401524Y-2879416D01*
X3266680Y-2951491D01*
X3148489Y-3048489D01*
X3051491Y-3166681D01*
X2979416Y-3301525D01*
X2935032Y-3447839D01*
X2923800Y-3561877D01*
X2923800Y-3561884D01*
X2920046Y-3600000D01*
X2923800Y-3638117D01*
X2923801Y-10658545D01*
X2558160Y-11024186D01*
X2528547Y-11048489D01*
X2431549Y-11166680D01*
X2359474Y-11301524D01*
X2315090Y-11447838D01*
X2300103Y-11600000D01*
X253600Y-11600000D01*
X253600Y-3533394D01*
X723800Y-3533394D01*
X723800Y-3666594D01*
X749786Y-3797234D01*
X800759Y-3920295D01*
X874761Y-4031046D01*
X968948Y-4125233D01*
X1079699Y-4199235D01*
X1202760Y-4250208D01*
X1333400Y-4276194D01*
X1466600Y-4276194D01*
X1597240Y-4250208D01*
X1720301Y-4199235D01*
X1831052Y-4125233D01*
X1925239Y-4031046D01*
X1945186Y-4001194D01*
X1945980Y-4001194D01*
X1965685Y-4003135D01*
X1985390Y-4001194D01*
X1985393Y-4001194D01*
X2044334Y-3995389D01*
X2119960Y-3972448D01*
X2189658Y-3935193D01*
X2250749Y-3885058D01*
X2263319Y-3869741D01*
X3931861Y-2201200D01*
X14963764Y-2201200D01*
X14940095Y-2279226D01*
X14918351Y-2500000D01*
X14940095Y-2720774D01*
X15004493Y-2933063D01*
X15109068Y-3128710D01*
X15249803Y-3300197D01*
X15421290Y-3440932D01*
X15616937Y-3545507D01*
X15829226Y-3609905D01*
X15994675Y-3626200D01*
X16105325Y-3626200D01*
X16270774Y-3609905D01*
X16483063Y-3545507D01*
X16678710Y-3440932D01*
X16850197Y-3300197D01*
X16990932Y-3128710D01*
X17095507Y-2933063D01*
X17159905Y-2720774D01*
X17181649Y-2500000D01*
X17159905Y-2279226D01*
X17095507Y-2066937D01*
X16990932Y-1871290D01*
X16871860Y-1726199D01*
X17768140Y-1726199D01*
X17649068Y-1871290D01*
X17544493Y-2066937D01*
X17480095Y-2279226D01*
X17458351Y-2500000D01*
X17480095Y-2720774D01*
X17544493Y-2933063D01*
X17649068Y-3128710D01*
X17789803Y-3300197D01*
X17961290Y-3440932D01*
X18156937Y-3545507D01*
X18188801Y-3555173D01*
X18188801Y-4105816D01*
X15789814Y-6504805D01*
X15754600Y-6497800D01*
X15621400Y-6497800D01*
X15490760Y-6523786D01*
X15367699Y-6574759D01*
X15256948Y-6648761D01*
X15162761Y-6742948D01*
X15088759Y-6853699D01*
X15037786Y-6976760D01*
X15011800Y-7107400D01*
X15011800Y-7240600D01*
X15037786Y-7371240D01*
X15088759Y-7494301D01*
X15162761Y-7605052D01*
X15256948Y-7699239D01*
X15367699Y-7773241D01*
X15490760Y-7824214D01*
X15621400Y-7850200D01*
X15754600Y-7850200D01*
X15885240Y-7824214D01*
X16008301Y-7773241D01*
X16119052Y-7699239D01*
X16213239Y-7605052D01*
X16287241Y-7494301D01*
X16338214Y-7371240D01*
X16364200Y-7240600D01*
X16364200Y-7107400D01*
X16357195Y-7072186D01*
X18560001Y-4869381D01*
X93673800Y-4869381D01*
X93673800Y-5130619D01*
X93724765Y-5386838D01*
X93824737Y-5628191D01*
X93969873Y-5845403D01*
X94154597Y-6030127D01*
X94371809Y-6175263D01*
X94613162Y-6275235D01*
X94869381Y-6326200D01*
X95130619Y-6326200D01*
X95386838Y-6275235D01*
X95628191Y-6175263D01*
X95845403Y-6030127D01*
X96030127Y-5845403D01*
X96175263Y-5628191D01*
X96275235Y-5386838D01*
X96326200Y-5130619D01*
X96326200Y-4869381D01*
X96275235Y-4613162D01*
X96175263Y-4371809D01*
X96030127Y-4154597D01*
X95845403Y-3969873D01*
X95628191Y-3824737D01*
X95386838Y-3724765D01*
X95130619Y-3673800D01*
X94869381Y-3673800D01*
X94613162Y-3724765D01*
X94371809Y-3824737D01*
X94154597Y-3969873D01*
X93969873Y-4154597D01*
X93824737Y-4371809D01*
X93724765Y-4613162D01*
X93673800Y-4869381D01*
X18560001Y-4869381D01*
X18859758Y-4569625D01*
X18875064Y-4557064D01*
X18887627Y-4541756D01*
X18925199Y-4495974D01*
X18948965Y-4451511D01*
X18962454Y-4426275D01*
X18985395Y-4350649D01*
X18991200Y-4291708D01*
X18991200Y-4291705D01*
X18993141Y-4272000D01*
X18991200Y-4252295D01*
X18991200Y-3555173D01*
X19023063Y-3545507D01*
X19218710Y-3440932D01*
X19390197Y-3300197D01*
X19530932Y-3128710D01*
X19635507Y-2933063D01*
X19699905Y-2720774D01*
X19721649Y-2500000D01*
X19699905Y-2279226D01*
X19635507Y-2066937D01*
X19530932Y-1871290D01*
X19411860Y-1726199D01*
X20308140Y-1726199D01*
X20189068Y-1871290D01*
X20084493Y-2066937D01*
X20020095Y-2279226D01*
X19998351Y-2500000D01*
X20020095Y-2720774D01*
X20084493Y-2933063D01*
X20189068Y-3128710D01*
X20329803Y-3300197D01*
X20501290Y-3440932D01*
X20696937Y-3545507D01*
X20909226Y-3609905D01*
X21074675Y-3626200D01*
X21185325Y-3626200D01*
X21350774Y-3609905D01*
X21563063Y-3545507D01*
X21758710Y-3440932D01*
X21930197Y-3300197D01*
X22070932Y-3128710D01*
X22175507Y-2933063D01*
X22239905Y-2720774D01*
X22244137Y-2677802D01*
X22392906Y-2677802D01*
X22292192Y-2898240D01*
X22396359Y-3159385D01*
X22549471Y-3395190D01*
X22745645Y-3596594D01*
X22977341Y-3755856D01*
X23235656Y-3866856D01*
X23271761Y-3877801D01*
X23492200Y-3775820D01*
X23492200Y-2677800D01*
X23472200Y-2677800D01*
X23472200Y-2322200D01*
X23492200Y-2322200D01*
X23492200Y-2302200D01*
X23847800Y-2302200D01*
X23847800Y-2322200D01*
X23867800Y-2322200D01*
X23867800Y-2677800D01*
X23847800Y-2677800D01*
X23847800Y-3775820D01*
X24068239Y-3877801D01*
X24104344Y-3866856D01*
X24362659Y-3755856D01*
X24594355Y-3596594D01*
X24790529Y-3395190D01*
X24943641Y-3159385D01*
X25047808Y-2898240D01*
X24947094Y-2677802D01*
X25095863Y-2677802D01*
X25100095Y-2720774D01*
X25164493Y-2933063D01*
X25269068Y-3128710D01*
X25409803Y-3300197D01*
X25581290Y-3440932D01*
X25776937Y-3545507D01*
X25989226Y-3609905D01*
X26154675Y-3626200D01*
X26265325Y-3626200D01*
X26430774Y-3609905D01*
X26643063Y-3545507D01*
X26838710Y-3440932D01*
X27010197Y-3300197D01*
X27150932Y-3128710D01*
X27255507Y-2933063D01*
X27319905Y-2720774D01*
X27341649Y-2500000D01*
X27319905Y-2279226D01*
X27255507Y-2066937D01*
X27150932Y-1871290D01*
X27010197Y-1699803D01*
X26949512Y-1650000D01*
X27622464Y-1650000D01*
X27622464Y-3350000D01*
X27627797Y-3404145D01*
X27643590Y-3456208D01*
X27669237Y-3504191D01*
X27703752Y-3546248D01*
X27745809Y-3580763D01*
X27793792Y-3606410D01*
X27845855Y-3622203D01*
X27900000Y-3627536D01*
X29600000Y-3627536D01*
X29654145Y-3622203D01*
X29706208Y-3606410D01*
X29754191Y-3580763D01*
X29796248Y-3546248D01*
X29830763Y-3504191D01*
X29856410Y-3456208D01*
X29872203Y-3404145D01*
X29877536Y-3350000D01*
X29877536Y-1650000D01*
X29872203Y-1595855D01*
X29856410Y-1543792D01*
X29830763Y-1495809D01*
X29796248Y-1453752D01*
X29754191Y-1419237D01*
X29706208Y-1393590D01*
X29654145Y-1377797D01*
X29600000Y-1372464D01*
X27900000Y-1372464D01*
X27845855Y-1377797D01*
X27793792Y-1393590D01*
X27745809Y-1419237D01*
X27703752Y-1453752D01*
X27669237Y-1495809D01*
X27643590Y-1543792D01*
X27627797Y-1595855D01*
X27622464Y-1650000D01*
X26949512Y-1650000D01*
X26838710Y-1559068D01*
X26643063Y-1454493D01*
X26430774Y-1390095D01*
X26265325Y-1373800D01*
X26154675Y-1373800D01*
X25989226Y-1390095D01*
X25776937Y-1454493D01*
X25747571Y-1470189D01*
X25332633Y-1055252D01*
X25320063Y-1039935D01*
X25258972Y-989800D01*
X25189274Y-952545D01*
X25113648Y-929604D01*
X25054707Y-923799D01*
X25054704Y-923799D01*
X25034999Y-921858D01*
X25015294Y-923799D01*
X2967089Y-923799D01*
X2947384Y-921858D01*
X2927679Y-923799D01*
X2927677Y-923799D01*
X2868736Y-929604D01*
X2793110Y-952545D01*
X2793108Y-952546D01*
X2723411Y-989800D01*
X2698346Y-1010371D01*
X2662321Y-1039935D01*
X2649755Y-1055247D01*
X1744352Y-1960651D01*
X1709138Y-1953646D01*
X1575938Y-1953646D01*
X1445298Y-1979632D01*
X1322237Y-2030605D01*
X1211486Y-2104607D01*
X1117299Y-2198794D01*
X1043297Y-2309545D01*
X992324Y-2432606D01*
X966338Y-2563246D01*
X966338Y-2696446D01*
X992324Y-2827086D01*
X1043297Y-2950147D01*
X1077910Y-3001948D01*
X968948Y-3074755D01*
X874761Y-3168942D01*
X800759Y-3279693D01*
X749786Y-3402754D01*
X723800Y-3533394D01*
X253600Y-3533394D01*
X253600Y-253600D01*
X99746400Y-253600D01*
X99746401Y-99746400D01*
X99746401Y-99746400D01*
G37*
X99746401Y-99746400D02*
X54740100Y-99746400D01*
X54740100Y-99194126D01*
X54772301Y-99236185D01*
X54934078Y-99378369D01*
X55120486Y-99486260D01*
X55232079Y-99514540D01*
X55397200Y-99407147D01*
X55397200Y-98063800D01*
X55752800Y-98063800D01*
X55752800Y-99407147D01*
X55917921Y-99514540D01*
X56029514Y-99486260D01*
X56215922Y-99378369D01*
X56377699Y-99236185D01*
X56508629Y-99065172D01*
X56603680Y-98871901D01*
X56659200Y-98663800D01*
X56659200Y-98063800D01*
X55752800Y-98063800D01*
X55397200Y-98063800D01*
X55377200Y-98063800D01*
X55377200Y-97708200D01*
X55397200Y-97708200D01*
X55397200Y-96364853D01*
X55752800Y-96364853D01*
X55752800Y-97708200D01*
X56659200Y-97708200D01*
X56659200Y-97108200D01*
X56603680Y-96900099D01*
X56508629Y-96706828D01*
X56377699Y-96535815D01*
X56215922Y-96393631D01*
X56029514Y-96285740D01*
X55917921Y-96257460D01*
X55752800Y-96364853D01*
X55397200Y-96364853D01*
X55232079Y-96257460D01*
X55120486Y-96285740D01*
X54934078Y-96393631D01*
X54772301Y-96535815D01*
X54740100Y-96577874D01*
X54740100Y-94994126D01*
X54772301Y-95036185D01*
X54934078Y-95178369D01*
X55120486Y-95286260D01*
X55232079Y-95314540D01*
X55397200Y-95207147D01*
X55397200Y-94063800D01*
X55752800Y-94063800D01*
X55752800Y-95207147D01*
X55917921Y-95314540D01*
X56029514Y-95286260D01*
X56215922Y-95178369D01*
X56377699Y-95036185D01*
X56505406Y-94869381D01*
X93673800Y-94869381D01*
X93673800Y-95130619D01*
X93724765Y-95386838D01*
X93824737Y-95628191D01*
X93969873Y-95845403D01*
X94154597Y-96030127D01*
X94371809Y-96175263D01*
X94613162Y-96275235D01*
X94869381Y-96326200D01*
X95130619Y-96326200D01*
X95386838Y-96275235D01*
X95628191Y-96175263D01*
X95845403Y-96030127D01*
X96030127Y-95845403D01*
X96175263Y-95628191D01*
X96275235Y-95386838D01*
X96326200Y-95130619D01*
X96326200Y-94869381D01*
X96275235Y-94613162D01*
X96175263Y-94371809D01*
X96030127Y-94154597D01*
X95845403Y-93969873D01*
X95628191Y-93824737D01*
X95386838Y-93724765D01*
X95130619Y-93673800D01*
X94869381Y-93673800D01*
X94613162Y-93724765D01*
X94371809Y-93824737D01*
X94154597Y-93969873D01*
X93969873Y-94154597D01*
X93824737Y-94371809D01*
X93724765Y-94613162D01*
X93673800Y-94869381D01*
X56505406Y-94869381D01*
X56508629Y-94865172D01*
X56603680Y-94671901D01*
X56659200Y-94463800D01*
X56659200Y-94063800D01*
X55752800Y-94063800D01*
X55397200Y-94063800D01*
X55377200Y-94063800D01*
X55377200Y-93708200D01*
X55397200Y-93708200D01*
X55397200Y-92564853D01*
X55752800Y-92564853D01*
X55752800Y-93708200D01*
X56659200Y-93708200D01*
X56659200Y-93308200D01*
X56603680Y-93100099D01*
X56508629Y-92906828D01*
X56377699Y-92735815D01*
X56215922Y-92593631D01*
X56029514Y-92485740D01*
X55917921Y-92457460D01*
X55752800Y-92564853D01*
X55397200Y-92564853D01*
X55232079Y-92457460D01*
X55120486Y-92485740D01*
X54934078Y-92593631D01*
X54772301Y-92735815D01*
X54641371Y-92906828D01*
X54546320Y-93100099D01*
X54490800Y-93308200D01*
X54490800Y-93597096D01*
X54486500Y-93596673D01*
X54474041Y-93597900D01*
X45545459Y-93597900D01*
X45533000Y-93596673D01*
X45520541Y-93597900D01*
X45509200Y-93599017D01*
X45509200Y-93308200D01*
X45453680Y-93100099D01*
X45358629Y-92906828D01*
X45227699Y-92735815D01*
X45065922Y-92593631D01*
X44879514Y-92485740D01*
X44767921Y-92457460D01*
X44602800Y-92564853D01*
X44602800Y-93708200D01*
X44622800Y-93708200D01*
X44622800Y-94063800D01*
X44602800Y-94063800D01*
X44602800Y-95207147D01*
X44767921Y-95314540D01*
X44879514Y-95286260D01*
X45065922Y-95178369D01*
X45227699Y-95036185D01*
X45279401Y-94968655D01*
X45279401Y-96603345D01*
X45227699Y-96535815D01*
X45065922Y-96393631D01*
X44879514Y-96285740D01*
X44767921Y-96257460D01*
X44602800Y-96364853D01*
X44602800Y-97708200D01*
X44622800Y-97708200D01*
X44622800Y-98063800D01*
X44602800Y-98063800D01*
X44602800Y-99407147D01*
X44767921Y-99514540D01*
X44879514Y-99486260D01*
X45065922Y-99378369D01*
X45227699Y-99236185D01*
X45279400Y-99168656D01*
X45279400Y-99746400D01*
X253600Y-99746400D01*
X253600Y-98063800D01*
X43340800Y-98063800D01*
X43340800Y-98663800D01*
X43396320Y-98871901D01*
X43491371Y-99065172D01*
X43622301Y-99236185D01*
X43784078Y-99378369D01*
X43970486Y-99486260D01*
X44082079Y-99514540D01*
X44247200Y-99407147D01*
X44247200Y-98063800D01*
X43340800Y-98063800D01*
X253600Y-98063800D01*
X253600Y-97108200D01*
X43340800Y-97108200D01*
X43340800Y-97708200D01*
X44247200Y-97708200D01*
X44247200Y-96364853D01*
X44082079Y-96257460D01*
X43970486Y-96285740D01*
X43784078Y-96393631D01*
X43622301Y-96535815D01*
X43491371Y-96706828D01*
X43396320Y-96900099D01*
X43340800Y-97108200D01*
X253600Y-97108200D01*
X253600Y-94869381D01*
X3673800Y-94869381D01*
X3673800Y-95130619D01*
X3724765Y-95386838D01*
X3824737Y-95628191D01*
X3969873Y-95845403D01*
X4154597Y-96030127D01*
X4371809Y-96175263D01*
X4613162Y-96275235D01*
X4869381Y-96326200D01*
X5130619Y-96326200D01*
X5386838Y-96275235D01*
X5628191Y-96175263D01*
X5845403Y-96030127D01*
X6030127Y-95845403D01*
X6175263Y-95628191D01*
X6275235Y-95386838D01*
X6326200Y-95130619D01*
X6326200Y-94869381D01*
X6275235Y-94613162D01*
X6175263Y-94371809D01*
X6030127Y-94154597D01*
X5939330Y-94063800D01*
X43340800Y-94063800D01*
X43340800Y-94463800D01*
X43396320Y-94671901D01*
X43491371Y-94865172D01*
X43622301Y-95036185D01*
X43784078Y-95178369D01*
X43970486Y-95286260D01*
X44082079Y-95314540D01*
X44247200Y-95207147D01*
X44247200Y-94063800D01*
X43340800Y-94063800D01*
X5939330Y-94063800D01*
X5845403Y-93969873D01*
X5628191Y-93824737D01*
X5386838Y-93724765D01*
X5130619Y-93673800D01*
X4869381Y-93673800D01*
X4613162Y-93724765D01*
X4371809Y-93824737D01*
X4154597Y-93969873D01*
X3969873Y-94154597D01*
X3824737Y-94371809D01*
X3724765Y-94613162D01*
X3673800Y-94869381D01*
X253600Y-94869381D01*
X253600Y-93308200D01*
X43340800Y-93308200D01*
X43340800Y-93708200D01*
X44247200Y-93708200D01*
X44247200Y-92564853D01*
X44082079Y-92457460D01*
X43970486Y-92485740D01*
X43784078Y-92593631D01*
X43622301Y-92735815D01*
X43491371Y-92906828D01*
X43396320Y-93100099D01*
X43340800Y-93308200D01*
X253600Y-93308200D01*
X253600Y-88897746D01*
X1949800Y-88897746D01*
X1949800Y-89102254D01*
X1989698Y-89302832D01*
X2067959Y-89491772D01*
X2181578Y-89661814D01*
X2326186Y-89806422D01*
X2496228Y-89920041D01*
X2685168Y-89998302D01*
X2885746Y-90038200D01*
X3090254Y-90038200D01*
X3290832Y-89998302D01*
X3479772Y-89920041D01*
X3649814Y-89806422D01*
X3794422Y-89661814D01*
X3908041Y-89491772D01*
X3986302Y-89302832D01*
X4026200Y-89102254D01*
X4026200Y-88897746D01*
X3986302Y-88697168D01*
X3908041Y-88508228D01*
X3794422Y-88338186D01*
X3649814Y-88193578D01*
X3479772Y-88079959D01*
X3290832Y-88001698D01*
X3090254Y-87961800D01*
X2885746Y-87961800D01*
X2685168Y-88001698D01*
X2496228Y-88079959D01*
X2326186Y-88193578D01*
X2181578Y-88338186D01*
X2067959Y-88508228D01*
X1989698Y-88697168D01*
X1949800Y-88897746D01*
X253600Y-88897746D01*
X253600Y-88119942D01*
X281578Y-88161814D01*
X426186Y-88306422D01*
X596228Y-88420041D01*
X785168Y-88498302D01*
X985746Y-88538200D01*
X1190254Y-88538200D01*
X1390832Y-88498302D01*
X1579772Y-88420041D01*
X1749814Y-88306422D01*
X1894422Y-88161814D01*
X2008041Y-87991772D01*
X2086302Y-87802832D01*
X2126200Y-87602254D01*
X2126200Y-87397746D01*
X2086302Y-87197168D01*
X2008041Y-87008228D01*
X1982265Y-86969651D01*
X2269797Y-86969651D01*
X2343636Y-87189382D01*
X2588055Y-87292238D01*
X2847843Y-87345433D01*
X3113017Y-87346925D01*
X3373387Y-87296654D01*
X3618946Y-87196554D01*
X3632364Y-87189382D01*
X3706203Y-86969651D01*
X2988000Y-86251447D01*
X2269797Y-86969651D01*
X1982265Y-86969651D01*
X1894422Y-86838186D01*
X1749814Y-86693578D01*
X1579772Y-86579959D01*
X1390832Y-86501698D01*
X1190254Y-86461800D01*
X985746Y-86461800D01*
X785168Y-86501698D01*
X596228Y-86579959D01*
X426186Y-86693578D01*
X281578Y-86838186D01*
X253600Y-86880058D01*
X253600Y-86125017D01*
X1641075Y-86125017D01*
X1691346Y-86385387D01*
X1791446Y-86630946D01*
X1798618Y-86644364D01*
X2018349Y-86718203D01*
X2736553Y-86000000D01*
X3239447Y-86000000D01*
X3957651Y-86718203D01*
X4177382Y-86644364D01*
X4280238Y-86399945D01*
X4333433Y-86140157D01*
X4334925Y-85874983D01*
X4284654Y-85614613D01*
X4184554Y-85369054D01*
X4177382Y-85355636D01*
X3957651Y-85281797D01*
X3239447Y-86000000D01*
X2736553Y-86000000D01*
X2018349Y-85281797D01*
X1798618Y-85355636D01*
X1695762Y-85600055D01*
X1642567Y-85859843D01*
X1641075Y-86125017D01*
X253600Y-86125017D01*
X253600Y-85030349D01*
X2269797Y-85030349D01*
X2988000Y-85748553D01*
X3706203Y-85030349D01*
X3632364Y-84810618D01*
X3387945Y-84707762D01*
X3128157Y-84654567D01*
X2862983Y-84653075D01*
X2602613Y-84703346D01*
X2357054Y-84803446D01*
X2343636Y-84810618D01*
X2269797Y-85030349D01*
X253600Y-85030349D01*
X253600Y-75565746D01*
X1949800Y-75565746D01*
X1949800Y-75770254D01*
X1989698Y-75970832D01*
X2067959Y-76159772D01*
X2181578Y-76329814D01*
X2326186Y-76474422D01*
X2496228Y-76588041D01*
X2685168Y-76666302D01*
X2885746Y-76706200D01*
X3090254Y-76706200D01*
X3290832Y-76666302D01*
X3479772Y-76588041D01*
X3649814Y-76474422D01*
X3794422Y-76329814D01*
X3908041Y-76159772D01*
X3986302Y-75970832D01*
X4026200Y-75770254D01*
X4026200Y-75565746D01*
X3986302Y-75365168D01*
X3908041Y-75176228D01*
X3794422Y-75006186D01*
X3649814Y-74861578D01*
X3479772Y-74747959D01*
X3290832Y-74669698D01*
X3090254Y-74629800D01*
X2885746Y-74629800D01*
X2685168Y-74669698D01*
X2496228Y-74747959D01*
X2326186Y-74861578D01*
X2181578Y-75006186D01*
X2067959Y-75176228D01*
X1989698Y-75365168D01*
X1949800Y-75565746D01*
X253600Y-75565746D01*
X253600Y-74787942D01*
X281578Y-74829814D01*
X426186Y-74974422D01*
X596228Y-75088041D01*
X785168Y-75166302D01*
X985746Y-75206200D01*
X1190254Y-75206200D01*
X1390832Y-75166302D01*
X1579772Y-75088041D01*
X1749814Y-74974422D01*
X1894422Y-74829814D01*
X2008041Y-74659772D01*
X2086302Y-74470832D01*
X2126200Y-74270254D01*
X2126200Y-74065746D01*
X2086302Y-73865168D01*
X2008041Y-73676228D01*
X1982265Y-73637651D01*
X2269797Y-73637651D01*
X2343636Y-73857382D01*
X2588055Y-73960238D01*
X2847843Y-74013433D01*
X3113017Y-74014925D01*
X3373387Y-73964654D01*
X3618946Y-73864554D01*
X3632364Y-73857382D01*
X3706203Y-73637651D01*
X2988000Y-72919447D01*
X2269797Y-73637651D01*
X1982265Y-73637651D01*
X1894422Y-73506186D01*
X1749814Y-73361578D01*
X1579772Y-73247959D01*
X1390832Y-73169698D01*
X1190254Y-73129800D01*
X985746Y-73129800D01*
X785168Y-73169698D01*
X596228Y-73247959D01*
X426186Y-73361578D01*
X281578Y-73506186D01*
X253600Y-73548058D01*
X253600Y-72793017D01*
X1641075Y-72793017D01*
X1691346Y-73053387D01*
X1791446Y-73298946D01*
X1798618Y-73312364D01*
X2018349Y-73386203D01*
X2736553Y-72668000D01*
X3239447Y-72668000D01*
X3957651Y-73386203D01*
X4177382Y-73312364D01*
X4280238Y-73067945D01*
X4333433Y-72808157D01*
X4334925Y-72542983D01*
X4284654Y-72282613D01*
X4184554Y-72037054D01*
X4177382Y-72023636D01*
X3957651Y-71949797D01*
X3239447Y-72668000D01*
X2736553Y-72668000D01*
X2018349Y-71949797D01*
X1798618Y-72023636D01*
X1695762Y-72268055D01*
X1642567Y-72527843D01*
X1641075Y-72793017D01*
X253600Y-72793017D01*
X253600Y-71698349D01*
X2269797Y-71698349D01*
X2988000Y-72416553D01*
X3706203Y-71698349D01*
X3632364Y-71478618D01*
X3387945Y-71375762D01*
X3128157Y-71322567D01*
X2862983Y-71321075D01*
X2602613Y-71371346D01*
X2357054Y-71471446D01*
X2343636Y-71478618D01*
X2269797Y-71698349D01*
X253600Y-71698349D01*
X253600Y-70607400D01*
X12217800Y-70607400D01*
X12217800Y-70740600D01*
X12243786Y-70871240D01*
X12294759Y-70994301D01*
X12368761Y-71105052D01*
X12462948Y-71199239D01*
X12492801Y-71219186D01*
X12492800Y-76750292D01*
X12490859Y-76770000D01*
X12492800Y-76789705D01*
X12492800Y-76789707D01*
X12496892Y-76831255D01*
X12471800Y-76957400D01*
X12471800Y-77090600D01*
X12497786Y-77221240D01*
X12548759Y-77344301D01*
X12622761Y-77455052D01*
X12716948Y-77549239D01*
X12827699Y-77623241D01*
X12950760Y-77674214D01*
X13081400Y-77700200D01*
X13214600Y-77700200D01*
X13345240Y-77674214D01*
X13468301Y-77623241D01*
X13579052Y-77549239D01*
X13673239Y-77455052D01*
X13747241Y-77344301D01*
X13798214Y-77221240D01*
X13824200Y-77090600D01*
X13824200Y-76957400D01*
X13798214Y-76826760D01*
X13747241Y-76703699D01*
X13673239Y-76592948D01*
X13579052Y-76498761D01*
X13505179Y-76449400D01*
X86131800Y-76449400D01*
X86131800Y-76582600D01*
X86157786Y-76713240D01*
X86208759Y-76836301D01*
X86282761Y-76947052D01*
X86376948Y-77041239D01*
X86487699Y-77115241D01*
X86610760Y-77166214D01*
X86660800Y-77176168D01*
X86660801Y-82320814D01*
X86630948Y-82340761D01*
X86536761Y-82434948D01*
X86462759Y-82545699D01*
X86411786Y-82668760D01*
X86385800Y-82799400D01*
X86385800Y-82932600D01*
X86411786Y-83063240D01*
X86462759Y-83186301D01*
X86536761Y-83297052D01*
X86630948Y-83391239D01*
X86741699Y-83465241D01*
X86864760Y-83516214D01*
X86995400Y-83542200D01*
X87128600Y-83542200D01*
X87259240Y-83516214D01*
X87382301Y-83465241D01*
X87493052Y-83391239D01*
X87587239Y-83297052D01*
X87661241Y-83186301D01*
X87712214Y-83063240D01*
X87738200Y-82932600D01*
X87738200Y-82799400D01*
X87712214Y-82668760D01*
X87661241Y-82545699D01*
X87587239Y-82434948D01*
X87493052Y-82340761D01*
X87463200Y-82320814D01*
X87463200Y-76789704D01*
X87465141Y-76769999D01*
X87463200Y-76750292D01*
X87459108Y-76708745D01*
X87484200Y-76582600D01*
X87484200Y-76449400D01*
X87458214Y-76318760D01*
X87407241Y-76195699D01*
X87333239Y-76084948D01*
X87239052Y-75990761D01*
X87128301Y-75916759D01*
X87005240Y-75865786D01*
X86874600Y-75839800D01*
X86741400Y-75839800D01*
X86610760Y-75865786D01*
X86487699Y-75916759D01*
X86376948Y-75990761D01*
X86282761Y-76084948D01*
X86208759Y-76195699D01*
X86157786Y-76318760D01*
X86131800Y-76449400D01*
X13505179Y-76449400D01*
X13468301Y-76424759D01*
X13345240Y-76373786D01*
X13295200Y-76363832D01*
X13295200Y-71219186D01*
X13325052Y-71199239D01*
X13419239Y-71105052D01*
X13493241Y-70994301D01*
X13544214Y-70871240D01*
X13570200Y-70740600D01*
X13570200Y-70607400D01*
X13544214Y-70476760D01*
X13493241Y-70353699D01*
X13419239Y-70242948D01*
X13325052Y-70148761D01*
X13214301Y-70074759D01*
X13091240Y-70023786D01*
X12960600Y-69997800D01*
X12827400Y-69997800D01*
X12696760Y-70023786D01*
X12573699Y-70074759D01*
X12462948Y-70148761D01*
X12368761Y-70242948D01*
X12294759Y-70353699D01*
X12243786Y-70476760D01*
X12217800Y-70607400D01*
X253600Y-70607400D01*
X253600Y-55367400D01*
X12217800Y-55367400D01*
X12217800Y-55500600D01*
X12243786Y-55631240D01*
X12294759Y-55754301D01*
X12368761Y-55865052D01*
X12462948Y-55959239D01*
X12492801Y-55979186D01*
X12492800Y-61510292D01*
X12490859Y-61530000D01*
X12492800Y-61549705D01*
X12492800Y-61549707D01*
X12496892Y-61591255D01*
X12471800Y-61717400D01*
X12471800Y-61850600D01*
X12497786Y-61981240D01*
X12548759Y-62104301D01*
X12622761Y-62215052D01*
X12716948Y-62309239D01*
X12827699Y-62383241D01*
X12950760Y-62434214D01*
X13081400Y-62460200D01*
X13214600Y-62460200D01*
X13345240Y-62434214D01*
X13468301Y-62383241D01*
X13579052Y-62309239D01*
X13673239Y-62215052D01*
X13747241Y-62104301D01*
X13798214Y-61981240D01*
X13824200Y-61850600D01*
X13824200Y-61717400D01*
X13798214Y-61586760D01*
X13747241Y-61463699D01*
X13673239Y-61352948D01*
X13579052Y-61258761D01*
X13505179Y-61209400D01*
X86131800Y-61209400D01*
X86131800Y-61342600D01*
X86157786Y-61473240D01*
X86208759Y-61596301D01*
X86282761Y-61707052D01*
X86376948Y-61801239D01*
X86487699Y-61875241D01*
X86610760Y-61926214D01*
X86660800Y-61936168D01*
X86660801Y-67080814D01*
X86630948Y-67100761D01*
X86536761Y-67194948D01*
X86462759Y-67305699D01*
X86411786Y-67428760D01*
X86385800Y-67559400D01*
X86385800Y-67692600D01*
X86411786Y-67823240D01*
X86462759Y-67946301D01*
X86536761Y-68057052D01*
X86630948Y-68151239D01*
X86741699Y-68225241D01*
X86864760Y-68276214D01*
X86995400Y-68302200D01*
X87128600Y-68302200D01*
X87259240Y-68276214D01*
X87382301Y-68225241D01*
X87493052Y-68151239D01*
X87587239Y-68057052D01*
X87661241Y-67946301D01*
X87712214Y-67823240D01*
X87738200Y-67692600D01*
X87738200Y-67559400D01*
X87712214Y-67428760D01*
X87661241Y-67305699D01*
X87587239Y-67194948D01*
X87493052Y-67100761D01*
X87463200Y-67080814D01*
X87463200Y-61549704D01*
X87465141Y-61529999D01*
X87463200Y-61510292D01*
X87459108Y-61468745D01*
X87484200Y-61342600D01*
X87484200Y-61209400D01*
X87458214Y-61078760D01*
X87407241Y-60955699D01*
X87333239Y-60844948D01*
X87239052Y-60750761D01*
X87128301Y-60676759D01*
X87005240Y-60625786D01*
X86874600Y-60599800D01*
X86741400Y-60599800D01*
X86610760Y-60625786D01*
X86487699Y-60676759D01*
X86376948Y-60750761D01*
X86282761Y-60844948D01*
X86208759Y-60955699D01*
X86157786Y-61078760D01*
X86131800Y-61209400D01*
X13505179Y-61209400D01*
X13468301Y-61184759D01*
X13345240Y-61133786D01*
X13295200Y-61123832D01*
X13295200Y-55979186D01*
X13325052Y-55959239D01*
X13419239Y-55865052D01*
X13493241Y-55754301D01*
X13544214Y-55631240D01*
X13570200Y-55500600D01*
X13570200Y-55367400D01*
X13544214Y-55236760D01*
X13493241Y-55113699D01*
X13419239Y-55002948D01*
X13325052Y-54908761D01*
X13214301Y-54834759D01*
X13091240Y-54783786D01*
X12960600Y-54757800D01*
X12827400Y-54757800D01*
X12696760Y-54783786D01*
X12573699Y-54834759D01*
X12462948Y-54908761D01*
X12368761Y-55002948D01*
X12294759Y-55113699D01*
X12243786Y-55236760D01*
X12217800Y-55367400D01*
X253600Y-55367400D01*
X253600Y-53151746D01*
X1949800Y-53151746D01*
X1949800Y-53356254D01*
X1989698Y-53556832D01*
X2067959Y-53745772D01*
X2181578Y-53915814D01*
X2326186Y-54060422D01*
X2496228Y-54174041D01*
X2685168Y-54252302D01*
X2885746Y-54292200D01*
X3090254Y-54292200D01*
X3290832Y-54252302D01*
X3479772Y-54174041D01*
X3649814Y-54060422D01*
X3794422Y-53915814D01*
X3908041Y-53745772D01*
X3986302Y-53556832D01*
X4026200Y-53356254D01*
X4026200Y-53151746D01*
X3986302Y-52951168D01*
X3908041Y-52762228D01*
X3794422Y-52592186D01*
X3649814Y-52447578D01*
X3479772Y-52333959D01*
X3290832Y-52255698D01*
X3090254Y-52215800D01*
X2885746Y-52215800D01*
X2685168Y-52255698D01*
X2496228Y-52333959D01*
X2326186Y-52447578D01*
X2181578Y-52592186D01*
X2067959Y-52762228D01*
X1989698Y-52951168D01*
X1949800Y-53151746D01*
X253600Y-53151746D01*
X253600Y-52373942D01*
X281578Y-52415814D01*
X426186Y-52560422D01*
X596228Y-52674041D01*
X785168Y-52752302D01*
X985746Y-52792200D01*
X1190254Y-52792200D01*
X1390832Y-52752302D01*
X1579772Y-52674041D01*
X1749814Y-52560422D01*
X1894422Y-52415814D01*
X2008041Y-52245772D01*
X2086302Y-52056832D01*
X2126200Y-51856254D01*
X2126200Y-51651746D01*
X2086302Y-51451168D01*
X2008041Y-51262228D01*
X1982265Y-51223651D01*
X2269797Y-51223651D01*
X2343636Y-51443382D01*
X2588055Y-51546238D01*
X2847843Y-51599433D01*
X3113017Y-51600925D01*
X3373387Y-51550654D01*
X3618946Y-51450554D01*
X3632364Y-51443382D01*
X3706203Y-51223651D01*
X2988000Y-50505447D01*
X2269797Y-51223651D01*
X1982265Y-51223651D01*
X1894422Y-51092186D01*
X1749814Y-50947578D01*
X1579772Y-50833959D01*
X1390832Y-50755698D01*
X1190254Y-50715800D01*
X985746Y-50715800D01*
X785168Y-50755698D01*
X596228Y-50833959D01*
X426186Y-50947578D01*
X281578Y-51092186D01*
X253600Y-51134058D01*
X253600Y-50379017D01*
X1641075Y-50379017D01*
X1691346Y-50639387D01*
X1791446Y-50884946D01*
X1798618Y-50898364D01*
X2018349Y-50972203D01*
X2736553Y-50254000D01*
X3239447Y-50254000D01*
X3957651Y-50972203D01*
X4177382Y-50898364D01*
X4280238Y-50653945D01*
X4333433Y-50394157D01*
X4334925Y-50128983D01*
X4284654Y-49868613D01*
X4184554Y-49623054D01*
X4177382Y-49609636D01*
X3957651Y-49535797D01*
X3239447Y-50254000D01*
X2736553Y-50254000D01*
X2018349Y-49535797D01*
X1798618Y-49609636D01*
X1695762Y-49854055D01*
X1642567Y-50113843D01*
X1641075Y-50379017D01*
X253600Y-50379017D01*
X253600Y-49284349D01*
X2269797Y-49284349D01*
X2988000Y-50002553D01*
X3706203Y-49284349D01*
X3632364Y-49064618D01*
X3387945Y-48961762D01*
X3128157Y-48908567D01*
X2862983Y-48907075D01*
X2602613Y-48957346D01*
X2357054Y-49057446D01*
X2343636Y-49064618D01*
X2269797Y-49284349D01*
X253600Y-49284349D01*
X253600Y-47309746D01*
X1949800Y-47309746D01*
X1949800Y-47514254D01*
X1989698Y-47714832D01*
X2067959Y-47903772D01*
X2181578Y-48073814D01*
X2326186Y-48218422D01*
X2496228Y-48332041D01*
X2685168Y-48410302D01*
X2885746Y-48450200D01*
X3090254Y-48450200D01*
X3290832Y-48410302D01*
X3479772Y-48332041D01*
X3649814Y-48218422D01*
X3794422Y-48073814D01*
X3908041Y-47903772D01*
X3986302Y-47714832D01*
X4026200Y-47514254D01*
X4026200Y-47309746D01*
X3986302Y-47109168D01*
X3908041Y-46920228D01*
X3794422Y-46750186D01*
X3649814Y-46605578D01*
X3479772Y-46491959D01*
X3290832Y-46413698D01*
X3090254Y-46373800D01*
X2885746Y-46373800D01*
X2685168Y-46413698D01*
X2496228Y-46491959D01*
X2326186Y-46605578D01*
X2181578Y-46750186D01*
X2067959Y-46920228D01*
X1989698Y-47109168D01*
X1949800Y-47309746D01*
X253600Y-47309746D01*
X253600Y-46531942D01*
X281578Y-46573814D01*
X426186Y-46718422D01*
X596228Y-46832041D01*
X785168Y-46910302D01*
X985746Y-46950200D01*
X1190254Y-46950200D01*
X1390832Y-46910302D01*
X1579772Y-46832041D01*
X1749814Y-46718422D01*
X1894422Y-46573814D01*
X2008041Y-46403772D01*
X2086302Y-46214832D01*
X2126200Y-46014254D01*
X2126200Y-45809746D01*
X2086302Y-45609168D01*
X2008041Y-45420228D01*
X1982265Y-45381651D01*
X2269797Y-45381651D01*
X2343636Y-45601382D01*
X2588055Y-45704238D01*
X2847843Y-45757433D01*
X3113017Y-45758925D01*
X3373387Y-45708654D01*
X3618946Y-45608554D01*
X3632364Y-45601382D01*
X3706203Y-45381651D01*
X2988000Y-44663447D01*
X2269797Y-45381651D01*
X1982265Y-45381651D01*
X1894422Y-45250186D01*
X1749814Y-45105578D01*
X1579772Y-44991959D01*
X1390832Y-44913698D01*
X1190254Y-44873800D01*
X985746Y-44873800D01*
X785168Y-44913698D01*
X596228Y-44991959D01*
X426186Y-45105578D01*
X281578Y-45250186D01*
X253600Y-45292058D01*
X253600Y-44537017D01*
X1641075Y-44537017D01*
X1691346Y-44797387D01*
X1791446Y-45042946D01*
X1798618Y-45056364D01*
X2018349Y-45130203D01*
X2736553Y-44412000D01*
X3239447Y-44412000D01*
X3957651Y-45130203D01*
X4177382Y-45056364D01*
X4280238Y-44811945D01*
X4333433Y-44552157D01*
X4334925Y-44286983D01*
X4284654Y-44026613D01*
X4184554Y-43781054D01*
X4177382Y-43767636D01*
X3957651Y-43693797D01*
X3239447Y-44412000D01*
X2736553Y-44412000D01*
X2018349Y-43693797D01*
X1798618Y-43767636D01*
X1695762Y-44012055D01*
X1642567Y-44271843D01*
X1641075Y-44537017D01*
X253600Y-44537017D01*
X253600Y-43442349D01*
X2269797Y-43442349D01*
X2988000Y-44160553D01*
X3706203Y-43442349D01*
X3632364Y-43222618D01*
X3387945Y-43119762D01*
X3128157Y-43066567D01*
X2862983Y-43065075D01*
X2602613Y-43115346D01*
X2357054Y-43215446D01*
X2343636Y-43222618D01*
X2269797Y-43442349D01*
X253600Y-43442349D01*
X253600Y-40127400D01*
X12217800Y-40127400D01*
X12217800Y-40260600D01*
X12243786Y-40391240D01*
X12294759Y-40514301D01*
X12368761Y-40625052D01*
X12462948Y-40719239D01*
X12492801Y-40739186D01*
X12492800Y-46270292D01*
X12490859Y-46290000D01*
X12492800Y-46309705D01*
X12492800Y-46309707D01*
X12496892Y-46351255D01*
X12471800Y-46477400D01*
X12471800Y-46610600D01*
X12497786Y-46741240D01*
X12548759Y-46864301D01*
X12622761Y-46975052D01*
X12716948Y-47069239D01*
X12827699Y-47143241D01*
X12950760Y-47194214D01*
X13081400Y-47220200D01*
X13214600Y-47220200D01*
X13345240Y-47194214D01*
X13468301Y-47143241D01*
X13579052Y-47069239D01*
X13673239Y-46975052D01*
X13747241Y-46864301D01*
X13798214Y-46741240D01*
X13824200Y-46610600D01*
X13824200Y-46477400D01*
X13798214Y-46346760D01*
X13747241Y-46223699D01*
X13673239Y-46112948D01*
X13579052Y-46018761D01*
X13505179Y-45969400D01*
X86131800Y-45969400D01*
X86131800Y-46102600D01*
X86157786Y-46233240D01*
X86208759Y-46356301D01*
X86282761Y-46467052D01*
X86376948Y-46561239D01*
X86487699Y-46635241D01*
X86610760Y-46686214D01*
X86660800Y-46696168D01*
X86660801Y-51840814D01*
X86630948Y-51860761D01*
X86536761Y-51954948D01*
X86462759Y-52065699D01*
X86411786Y-52188760D01*
X86385800Y-52319400D01*
X86385800Y-52452600D01*
X86411786Y-52583240D01*
X86462759Y-52706301D01*
X86536761Y-52817052D01*
X86630948Y-52911239D01*
X86741699Y-52985241D01*
X86864760Y-53036214D01*
X86995400Y-53062200D01*
X87128600Y-53062200D01*
X87259240Y-53036214D01*
X87382301Y-52985241D01*
X87493052Y-52911239D01*
X87587239Y-52817052D01*
X87661241Y-52706301D01*
X87712214Y-52583240D01*
X87738200Y-52452600D01*
X87738200Y-52319400D01*
X87712214Y-52188760D01*
X87661241Y-52065699D01*
X87587239Y-51954948D01*
X87493052Y-51860761D01*
X87463200Y-51840814D01*
X87463200Y-46309704D01*
X87465141Y-46289999D01*
X87463200Y-46270292D01*
X87459108Y-46228745D01*
X87484200Y-46102600D01*
X87484200Y-45969400D01*
X87458214Y-45838760D01*
X87407241Y-45715699D01*
X87333239Y-45604948D01*
X87239052Y-45510761D01*
X87128301Y-45436759D01*
X87005240Y-45385786D01*
X86874600Y-45359800D01*
X86741400Y-45359800D01*
X86610760Y-45385786D01*
X86487699Y-45436759D01*
X86376948Y-45510761D01*
X86282761Y-45604948D01*
X86208759Y-45715699D01*
X86157786Y-45838760D01*
X86131800Y-45969400D01*
X13505179Y-45969400D01*
X13468301Y-45944759D01*
X13345240Y-45893786D01*
X13295200Y-45883832D01*
X13295200Y-40739186D01*
X13325052Y-40719239D01*
X13419239Y-40625052D01*
X13493241Y-40514301D01*
X13544214Y-40391240D01*
X13570200Y-40260600D01*
X13570200Y-40127400D01*
X13544214Y-39996760D01*
X13493241Y-39873699D01*
X13419239Y-39762948D01*
X13325052Y-39668761D01*
X13214301Y-39594759D01*
X13091240Y-39543786D01*
X12960600Y-39517800D01*
X12827400Y-39517800D01*
X12696760Y-39543786D01*
X12573699Y-39594759D01*
X12462948Y-39668761D01*
X12368761Y-39762948D01*
X12294759Y-39873699D01*
X12243786Y-39996760D01*
X12217800Y-40127400D01*
X253600Y-40127400D01*
X253600Y-37637746D01*
X1949800Y-37637746D01*
X1949800Y-37842254D01*
X1989698Y-38042832D01*
X2067959Y-38231772D01*
X2181578Y-38401814D01*
X2326186Y-38546422D01*
X2496228Y-38660041D01*
X2685168Y-38738302D01*
X2885746Y-38778200D01*
X3090254Y-38778200D01*
X3290832Y-38738302D01*
X3479772Y-38660041D01*
X3649814Y-38546422D01*
X3794422Y-38401814D01*
X3908041Y-38231772D01*
X3986302Y-38042832D01*
X4026200Y-37842254D01*
X4026200Y-37637746D01*
X3986302Y-37437168D01*
X3908041Y-37248228D01*
X3794422Y-37078186D01*
X3649814Y-36933578D01*
X3479772Y-36819959D01*
X3290832Y-36741698D01*
X3090254Y-36701800D01*
X2885746Y-36701800D01*
X2685168Y-36741698D01*
X2496228Y-36819959D01*
X2326186Y-36933578D01*
X2181578Y-37078186D01*
X2067959Y-37248228D01*
X1989698Y-37437168D01*
X1949800Y-37637746D01*
X253600Y-37637746D01*
X253600Y-36859942D01*
X281578Y-36901814D01*
X426186Y-37046422D01*
X596228Y-37160041D01*
X785168Y-37238302D01*
X985746Y-37278200D01*
X1190254Y-37278200D01*
X1390832Y-37238302D01*
X1579772Y-37160041D01*
X1749814Y-37046422D01*
X1894422Y-36901814D01*
X2008041Y-36731772D01*
X2086302Y-36542832D01*
X2126200Y-36342254D01*
X2126200Y-36137746D01*
X2086302Y-35937168D01*
X2008041Y-35748228D01*
X1982265Y-35709651D01*
X2269797Y-35709651D01*
X2343636Y-35929382D01*
X2588055Y-36032238D01*
X2847843Y-36085433D01*
X3113017Y-36086925D01*
X3373387Y-36036654D01*
X3618946Y-35936554D01*
X3632364Y-35929382D01*
X3706203Y-35709651D01*
X2988000Y-34991447D01*
X2269797Y-35709651D01*
X1982265Y-35709651D01*
X1894422Y-35578186D01*
X1749814Y-35433578D01*
X1579772Y-35319959D01*
X1390832Y-35241698D01*
X1190254Y-35201800D01*
X985746Y-35201800D01*
X785168Y-35241698D01*
X596228Y-35319959D01*
X426186Y-35433578D01*
X281578Y-35578186D01*
X253600Y-35620058D01*
X253600Y-34865017D01*
X1641075Y-34865017D01*
X1691346Y-35125387D01*
X1791446Y-35370946D01*
X1798618Y-35384364D01*
X2018349Y-35458203D01*
X2736553Y-34740000D01*
X3239447Y-34740000D01*
X3957651Y-35458203D01*
X4177382Y-35384364D01*
X4280238Y-35139945D01*
X4333433Y-34880157D01*
X4334925Y-34614983D01*
X4284654Y-34354613D01*
X4184554Y-34109054D01*
X4177382Y-34095636D01*
X3957651Y-34021797D01*
X3239447Y-34740000D01*
X2736553Y-34740000D01*
X2018349Y-34021797D01*
X1798618Y-34095636D01*
X1695762Y-34340055D01*
X1642567Y-34599843D01*
X1641075Y-34865017D01*
X253600Y-34865017D01*
X253600Y-33770349D01*
X2269797Y-33770349D01*
X2988000Y-34488553D01*
X3706203Y-33770349D01*
X3632364Y-33550618D01*
X3387945Y-33447762D01*
X3128157Y-33394567D01*
X2862983Y-33393075D01*
X2602613Y-33443346D01*
X2357054Y-33543446D01*
X2343636Y-33550618D01*
X2269797Y-33770349D01*
X253600Y-33770349D01*
X253600Y-32049746D01*
X1949800Y-32049746D01*
X1949800Y-32254254D01*
X1989698Y-32454832D01*
X2067959Y-32643772D01*
X2181578Y-32813814D01*
X2326186Y-32958422D01*
X2496228Y-33072041D01*
X2685168Y-33150302D01*
X2885746Y-33190200D01*
X3090254Y-33190200D01*
X3290832Y-33150302D01*
X3479772Y-33072041D01*
X3649814Y-32958422D01*
X3794422Y-32813814D01*
X3908041Y-32643772D01*
X3986302Y-32454832D01*
X4026200Y-32254254D01*
X4026200Y-32049746D01*
X3986302Y-31849168D01*
X3908041Y-31660228D01*
X3794422Y-31490186D01*
X3649814Y-31345578D01*
X3479772Y-31231959D01*
X3290832Y-31153698D01*
X3090254Y-31113800D01*
X2885746Y-31113800D01*
X2685168Y-31153698D01*
X2496228Y-31231959D01*
X2326186Y-31345578D01*
X2181578Y-31490186D01*
X2067959Y-31660228D01*
X1989698Y-31849168D01*
X1949800Y-32049746D01*
X253600Y-32049746D01*
X253600Y-31271942D01*
X281578Y-31313814D01*
X426186Y-31458422D01*
X596228Y-31572041D01*
X785168Y-31650302D01*
X985746Y-31690200D01*
X1190254Y-31690200D01*
X1390832Y-31650302D01*
X1579772Y-31572041D01*
X1749814Y-31458422D01*
X1894422Y-31313814D01*
X2008041Y-31143772D01*
X2086302Y-30954832D01*
X2126200Y-30754254D01*
X2126200Y-30549746D01*
X2086302Y-30349168D01*
X2008041Y-30160228D01*
X1982265Y-30121651D01*
X2269797Y-30121651D01*
X2343636Y-30341382D01*
X2588055Y-30444238D01*
X2847843Y-30497433D01*
X3113017Y-30498925D01*
X3373387Y-30448654D01*
X3618946Y-30348554D01*
X3632364Y-30341382D01*
X3706203Y-30121651D01*
X2988000Y-29403447D01*
X2269797Y-30121651D01*
X1982265Y-30121651D01*
X1894422Y-29990186D01*
X1749814Y-29845578D01*
X1579772Y-29731959D01*
X1390832Y-29653698D01*
X1190254Y-29613800D01*
X985746Y-29613800D01*
X785168Y-29653698D01*
X596228Y-29731959D01*
X426186Y-29845578D01*
X281578Y-29990186D01*
X253600Y-30032058D01*
X253600Y-29277017D01*
X1641075Y-29277017D01*
X1691346Y-29537387D01*
X1791446Y-29782946D01*
X1798618Y-29796364D01*
X2018349Y-29870203D01*
X2736553Y-29152000D01*
X3239447Y-29152000D01*
X3957651Y-29870203D01*
X4177382Y-29796364D01*
X4280238Y-29551945D01*
X4333433Y-29292157D01*
X4334925Y-29026983D01*
X4284654Y-28766613D01*
X4184554Y-28521054D01*
X4177382Y-28507636D01*
X3957651Y-28433797D01*
X3239447Y-29152000D01*
X2736553Y-29152000D01*
X2018349Y-28433797D01*
X1798618Y-28507636D01*
X1695762Y-28752055D01*
X1642567Y-29011843D01*
X1641075Y-29277017D01*
X253600Y-29277017D01*
X253600Y-28182349D01*
X2269797Y-28182349D01*
X2988000Y-28900553D01*
X3706203Y-28182349D01*
X3632364Y-27962618D01*
X3387945Y-27859762D01*
X3128157Y-27806567D01*
X2862983Y-27805075D01*
X2602613Y-27855346D01*
X2357054Y-27955446D01*
X2343636Y-27962618D01*
X2269797Y-28182349D01*
X253600Y-28182349D01*
X253600Y-24887400D01*
X12217800Y-24887400D01*
X12217800Y-25020600D01*
X12243786Y-25151240D01*
X12294759Y-25274301D01*
X12368761Y-25385052D01*
X12462948Y-25479239D01*
X12492801Y-25499186D01*
X12492800Y-31030292D01*
X12490859Y-31050000D01*
X12492800Y-31069705D01*
X12492800Y-31069707D01*
X12496892Y-31111255D01*
X12471800Y-31237400D01*
X12471800Y-31370600D01*
X12497786Y-31501240D01*
X12548759Y-31624301D01*
X12622761Y-31735052D01*
X12716948Y-31829239D01*
X12827699Y-31903241D01*
X12950760Y-31954214D01*
X13081400Y-31980200D01*
X13214600Y-31980200D01*
X13345240Y-31954214D01*
X13468301Y-31903241D01*
X13579052Y-31829239D01*
X13673239Y-31735052D01*
X13747241Y-31624301D01*
X13798214Y-31501240D01*
X13824200Y-31370600D01*
X13824200Y-31237400D01*
X13798214Y-31106760D01*
X13747241Y-30983699D01*
X13673239Y-30872948D01*
X13579052Y-30778761D01*
X13505179Y-30729400D01*
X86131800Y-30729400D01*
X86131800Y-30862600D01*
X86157786Y-30993240D01*
X86208759Y-31116301D01*
X86282761Y-31227052D01*
X86376948Y-31321239D01*
X86487699Y-31395241D01*
X86610760Y-31446214D01*
X86660800Y-31456168D01*
X86660801Y-36600814D01*
X86630948Y-36620761D01*
X86536761Y-36714948D01*
X86462759Y-36825699D01*
X86411786Y-36948760D01*
X86385800Y-37079400D01*
X86385800Y-37212600D01*
X86411786Y-37343240D01*
X86462759Y-37466301D01*
X86536761Y-37577052D01*
X86630948Y-37671239D01*
X86741699Y-37745241D01*
X86864760Y-37796214D01*
X86995400Y-37822200D01*
X87128600Y-37822200D01*
X87259240Y-37796214D01*
X87382301Y-37745241D01*
X87493052Y-37671239D01*
X87587239Y-37577052D01*
X87661241Y-37466301D01*
X87712214Y-37343240D01*
X87738200Y-37212600D01*
X87738200Y-37079400D01*
X87712214Y-36948760D01*
X87661241Y-36825699D01*
X87587239Y-36714948D01*
X87493052Y-36620761D01*
X87463200Y-36600814D01*
X87463200Y-31069704D01*
X87465141Y-31049999D01*
X87463200Y-31030292D01*
X87459108Y-30988745D01*
X87484200Y-30862600D01*
X87484200Y-30729400D01*
X87458214Y-30598760D01*
X87407241Y-30475699D01*
X87333239Y-30364948D01*
X87239052Y-30270761D01*
X87128301Y-30196759D01*
X87005240Y-30145786D01*
X86874600Y-30119800D01*
X86741400Y-30119800D01*
X86610760Y-30145786D01*
X86487699Y-30196759D01*
X86376948Y-30270761D01*
X86282761Y-30364948D01*
X86208759Y-30475699D01*
X86157786Y-30598760D01*
X86131800Y-30729400D01*
X13505179Y-30729400D01*
X13468301Y-30704759D01*
X13345240Y-30653786D01*
X13295200Y-30643832D01*
X13295200Y-25499186D01*
X13325052Y-25479239D01*
X13419239Y-25385052D01*
X13493241Y-25274301D01*
X13544214Y-25151240D01*
X13570200Y-25020600D01*
X13570200Y-24887400D01*
X13544214Y-24756760D01*
X13493241Y-24633699D01*
X13419239Y-24522948D01*
X13325052Y-24428761D01*
X13214301Y-24354759D01*
X13091240Y-24303786D01*
X12960600Y-24277800D01*
X12827400Y-24277800D01*
X12696760Y-24303786D01*
X12573699Y-24354759D01*
X12462948Y-24428761D01*
X12368761Y-24522948D01*
X12294759Y-24633699D01*
X12243786Y-24756760D01*
X12217800Y-24887400D01*
X253600Y-24887400D01*
X253600Y-22283381D01*
X6487800Y-22283381D01*
X6487800Y-22544619D01*
X6538765Y-22800838D01*
X6638737Y-23042191D01*
X6783873Y-23259403D01*
X6968597Y-23444127D01*
X7185809Y-23589263D01*
X7427162Y-23689235D01*
X7683381Y-23740200D01*
X7944619Y-23740200D01*
X8200838Y-23689235D01*
X8442191Y-23589263D01*
X8659403Y-23444127D01*
X8844127Y-23259403D01*
X8989263Y-23042191D01*
X9089235Y-22800838D01*
X9140200Y-22544619D01*
X9140200Y-22283381D01*
X9089235Y-22027162D01*
X8989263Y-21785809D01*
X8844127Y-21568597D01*
X8659403Y-21383873D01*
X8442191Y-21238737D01*
X8200838Y-21138765D01*
X7944619Y-21087800D01*
X7683381Y-21087800D01*
X7427162Y-21138765D01*
X7185809Y-21238737D01*
X6968597Y-21383873D01*
X6783873Y-21568597D01*
X6638737Y-21785809D01*
X6538765Y-22027162D01*
X6487800Y-22283381D01*
X253600Y-22283381D01*
X253600Y-11600000D01*
X2300103Y-11600000D01*
X2315090Y-11752162D01*
X2359474Y-11898476D01*
X2431549Y-12033320D01*
X2528547Y-12151511D01*
X2646738Y-12248509D01*
X2781582Y-12320584D01*
X2805049Y-12327703D01*
X2740292Y-12370972D01*
X2646105Y-12465159D01*
X2572103Y-12575910D01*
X2521130Y-12698971D01*
X2495144Y-12829611D01*
X2495144Y-12962811D01*
X2521130Y-13093451D01*
X2572103Y-13216512D01*
X2646105Y-13327263D01*
X2740292Y-13421450D01*
X2770144Y-13441397D01*
X2770145Y-16251629D01*
X2768203Y-16271344D01*
X2775950Y-16349992D01*
X2798891Y-16425619D01*
X2836145Y-16495317D01*
X2849400Y-16511468D01*
X2886281Y-16556408D01*
X2901593Y-16568974D01*
X4602375Y-18269758D01*
X4614936Y-18285064D01*
X4630242Y-18297625D01*
X4630244Y-18297627D01*
X4676026Y-18335199D01*
X4713281Y-18355112D01*
X4745725Y-18372454D01*
X4821351Y-18395395D01*
X4880292Y-18401200D01*
X4880295Y-18401200D01*
X4900000Y-18403141D01*
X4919705Y-18401200D01*
X8788614Y-18401200D01*
X8808319Y-18403141D01*
X8828024Y-18401200D01*
X8828027Y-18401200D01*
X8886968Y-18395395D01*
X8962594Y-18372454D01*
X9032292Y-18335199D01*
X9093383Y-18285064D01*
X9105953Y-18269747D01*
X11565700Y-15810000D01*
X18146546Y-15810000D01*
X18161532Y-15962161D01*
X18205916Y-16108475D01*
X18277992Y-16243319D01*
X18374989Y-16361511D01*
X18493181Y-16458508D01*
X18628025Y-16530584D01*
X18774339Y-16574968D01*
X18926500Y-16589954D01*
X19078661Y-16574968D01*
X19224975Y-16530584D01*
X19359819Y-16458508D01*
X19448398Y-16385814D01*
X19511898Y-16322314D01*
X19541511Y-16298011D01*
X19638509Y-16179820D01*
X19710584Y-16044976D01*
X19754968Y-15898662D01*
X19766200Y-15784624D01*
X19766200Y-15784616D01*
X19769954Y-15746500D01*
X19766200Y-15708384D01*
X19766200Y-15489400D01*
X86131800Y-15489400D01*
X86131800Y-15622600D01*
X86157786Y-15753240D01*
X86208759Y-15876301D01*
X86282761Y-15987052D01*
X86376948Y-16081239D01*
X86487699Y-16155241D01*
X86610760Y-16206214D01*
X86660800Y-16216168D01*
X86660801Y-21360814D01*
X86630948Y-21380761D01*
X86536761Y-21474948D01*
X86462759Y-21585699D01*
X86411786Y-21708760D01*
X86385800Y-21839400D01*
X86385800Y-21972600D01*
X86411786Y-22103240D01*
X86462759Y-22226301D01*
X86536761Y-22337052D01*
X86630948Y-22431239D01*
X86741699Y-22505241D01*
X86864760Y-22556214D01*
X86995400Y-22582200D01*
X87128600Y-22582200D01*
X87259240Y-22556214D01*
X87382301Y-22505241D01*
X87493052Y-22431239D01*
X87587239Y-22337052D01*
X87661241Y-22226301D01*
X87712214Y-22103240D01*
X87738200Y-21972600D01*
X87738200Y-21839400D01*
X87712214Y-21708760D01*
X87661241Y-21585699D01*
X87587239Y-21474948D01*
X87493052Y-21380761D01*
X87463200Y-21360814D01*
X87463200Y-15829704D01*
X87465141Y-15809999D01*
X87462642Y-15784624D01*
X87459108Y-15748745D01*
X87484200Y-15622600D01*
X87484200Y-15489400D01*
X87458214Y-15358760D01*
X87407241Y-15235699D01*
X87333239Y-15124948D01*
X87239052Y-15030761D01*
X87128301Y-14956759D01*
X87005240Y-14905786D01*
X86874600Y-14879800D01*
X86741400Y-14879800D01*
X86610760Y-14905786D01*
X86487699Y-14956759D01*
X86376948Y-15030761D01*
X86282761Y-15124948D01*
X86208759Y-15235699D01*
X86157786Y-15358760D01*
X86131800Y-15489400D01*
X19766200Y-15489400D01*
X19766200Y-12660376D01*
X19754968Y-12546338D01*
X19710584Y-12400024D01*
X19638509Y-12265180D01*
X19541511Y-12146989D01*
X19423319Y-12049991D01*
X19288475Y-11977916D01*
X19142161Y-11933532D01*
X18990000Y-11918545D01*
X18837838Y-11933532D01*
X18691524Y-11977916D01*
X18556680Y-12049991D01*
X18438489Y-12146989D01*
X18341491Y-12265181D01*
X18269416Y-12400025D01*
X18225032Y-12546339D01*
X18213800Y-12660377D01*
X18213801Y-15496773D01*
X18205916Y-15511525D01*
X18161532Y-15657839D01*
X18146546Y-15810000D01*
X11565700Y-15810000D01*
X12859457Y-14516244D01*
X12894671Y-14523248D01*
X13027871Y-14523248D01*
X13158511Y-14497262D01*
X13281572Y-14446289D01*
X13392323Y-14372287D01*
X13486510Y-14278100D01*
X13560512Y-14167349D01*
X13611485Y-14044288D01*
X13637471Y-13913648D01*
X13637471Y-13780448D01*
X13611485Y-13649808D01*
X13560512Y-13526747D01*
X13486510Y-13415996D01*
X13392323Y-13321809D01*
X13281572Y-13247807D01*
X13158511Y-13196834D01*
X13027871Y-13170848D01*
X12894671Y-13170848D01*
X12764031Y-13196834D01*
X12640970Y-13247807D01*
X12530219Y-13321809D01*
X12436032Y-13415996D01*
X12362030Y-13526747D01*
X12311057Y-13649808D01*
X12285071Y-13780448D01*
X12285071Y-13913648D01*
X12292075Y-13948862D01*
X8642138Y-17598800D01*
X5066183Y-17598800D01*
X3572544Y-16105163D01*
X3572544Y-14168250D01*
X7667772Y-14168250D01*
X7667772Y-14301450D01*
X7693758Y-14432090D01*
X7744731Y-14555151D01*
X7818733Y-14665902D01*
X7912920Y-14760089D01*
X8023671Y-14834091D01*
X8146732Y-14885064D01*
X8277372Y-14911050D01*
X8410572Y-14911050D01*
X8541212Y-14885064D01*
X8664273Y-14834091D01*
X8775024Y-14760089D01*
X8869211Y-14665902D01*
X8889158Y-14636050D01*
X10453466Y-14636050D01*
X10473171Y-14637991D01*
X10492876Y-14636050D01*
X10492879Y-14636050D01*
X10551820Y-14630245D01*
X10627446Y-14607304D01*
X10697144Y-14570049D01*
X10758235Y-14519914D01*
X10770805Y-14504597D01*
X12284187Y-12991217D01*
X12319400Y-12998221D01*
X12452600Y-12998221D01*
X12583240Y-12972235D01*
X12706301Y-12921262D01*
X12817052Y-12847260D01*
X12911239Y-12753073D01*
X12985241Y-12642322D01*
X13036214Y-12519261D01*
X13062200Y-12388621D01*
X13062200Y-12255421D01*
X13036214Y-12124781D01*
X12985241Y-12001720D01*
X12911239Y-11890969D01*
X12817052Y-11796782D01*
X12706301Y-11722780D01*
X12583240Y-11671807D01*
X12452600Y-11645821D01*
X12319400Y-11645821D01*
X12188760Y-11671807D01*
X12065699Y-11722780D01*
X11954948Y-11796782D01*
X11860761Y-11890969D01*
X11786759Y-12001720D01*
X11735786Y-12124781D01*
X11709800Y-12255421D01*
X11709800Y-12388621D01*
X11716804Y-12423834D01*
X10306990Y-13833650D01*
X8889158Y-13833650D01*
X8869211Y-13803798D01*
X8775024Y-13709611D01*
X8664273Y-13635609D01*
X8541212Y-13584636D01*
X8410572Y-13558650D01*
X8277372Y-13558650D01*
X8146732Y-13584636D01*
X8023671Y-13635609D01*
X7912920Y-13709611D01*
X7818733Y-13803798D01*
X7744731Y-13914549D01*
X7693758Y-14037610D01*
X7667772Y-14168250D01*
X3572544Y-14168250D01*
X3572544Y-13441397D01*
X3602396Y-13421450D01*
X3696583Y-13327263D01*
X3770585Y-13216512D01*
X3821558Y-13093451D01*
X3847544Y-12962811D01*
X3847544Y-12829611D01*
X3821558Y-12698971D01*
X3770585Y-12575910D01*
X3696583Y-12465159D01*
X3607624Y-12376200D01*
X8675018Y-12376200D01*
X8909892Y-12611074D01*
X8998471Y-12683769D01*
X9133314Y-12755844D01*
X9279628Y-12800228D01*
X9431790Y-12815214D01*
X9583951Y-12800228D01*
X9730265Y-12755844D01*
X9865109Y-12683769D01*
X9983301Y-12586771D01*
X10080299Y-12468579D01*
X10152374Y-12333735D01*
X10196758Y-12187421D01*
X10211744Y-12035260D01*
X10196758Y-11883098D01*
X10152374Y-11736784D01*
X10080299Y-11601941D01*
X10007604Y-11513362D01*
X9572344Y-11078102D01*
X9548041Y-11048489D01*
X9429850Y-10951491D01*
X9295006Y-10879416D01*
X9148692Y-10835032D01*
X9034654Y-10823800D01*
X9034646Y-10823800D01*
X8996530Y-10820046D01*
X8958414Y-10823800D01*
X4476200Y-10823800D01*
X4476200Y-10333400D01*
X24223800Y-10333400D01*
X24223800Y-10466600D01*
X24249786Y-10597240D01*
X24300759Y-10720301D01*
X24374761Y-10831052D01*
X24468948Y-10925239D01*
X24579699Y-10999241D01*
X24702760Y-11050214D01*
X24833400Y-11076200D01*
X24966600Y-11076200D01*
X25097240Y-11050214D01*
X25220301Y-10999241D01*
X25331052Y-10925239D01*
X25425239Y-10831052D01*
X25445186Y-10801200D01*
X25522464Y-10801200D01*
X25522464Y-12500000D01*
X25527797Y-12554145D01*
X25543590Y-12606208D01*
X25569237Y-12654191D01*
X25603752Y-12696248D01*
X25645809Y-12730763D01*
X25693792Y-12756410D01*
X25745855Y-12772203D01*
X25800000Y-12777536D01*
X28800000Y-12777536D01*
X28854145Y-12772203D01*
X28906208Y-12756410D01*
X28954191Y-12730763D01*
X28996248Y-12696248D01*
X29030763Y-12654191D01*
X29056410Y-12606208D01*
X29072203Y-12554145D01*
X29077536Y-12500000D01*
X54212973Y-12500000D01*
X54224253Y-12614523D01*
X54257658Y-12724646D01*
X54311905Y-12826135D01*
X54384909Y-12915091D01*
X54473865Y-12988095D01*
X54575354Y-13042342D01*
X54685477Y-13075747D01*
X54800000Y-13087027D01*
X55976150Y-13084200D01*
X56122200Y-12938150D01*
X56122200Y-10577800D01*
X56477800Y-10577800D01*
X56477800Y-12938150D01*
X56623850Y-13084200D01*
X57800000Y-13087027D01*
X57914523Y-13075747D01*
X58024646Y-13042342D01*
X58126135Y-12988095D01*
X58215091Y-12915091D01*
X58288095Y-12826135D01*
X58342342Y-12724646D01*
X58375747Y-12614523D01*
X58387027Y-12500000D01*
X58384200Y-10723850D01*
X58238150Y-10577800D01*
X56477800Y-10577800D01*
X56122200Y-10577800D01*
X54361850Y-10577800D01*
X54215800Y-10723850D01*
X54212973Y-12500000D01*
X29077536Y-12500000D01*
X29077536Y-8300000D01*
X54212973Y-8300000D01*
X54215800Y-10076150D01*
X54361850Y-10222200D01*
X56122200Y-10222200D01*
X56122200Y-7861850D01*
X56477800Y-7861850D01*
X56477800Y-10222200D01*
X58238150Y-10222200D01*
X58384200Y-10076150D01*
X58387027Y-8300000D01*
X58375747Y-8185477D01*
X58342342Y-8075354D01*
X58288095Y-7973865D01*
X58215091Y-7884909D01*
X58126135Y-7811905D01*
X58024646Y-7757658D01*
X57914523Y-7724253D01*
X57800000Y-7712973D01*
X56623850Y-7715800D01*
X56477800Y-7861850D01*
X56122200Y-7861850D01*
X55976150Y-7715800D01*
X54800000Y-7712973D01*
X54685477Y-7724253D01*
X54575354Y-7757658D01*
X54473865Y-7811905D01*
X54384909Y-7884909D01*
X54311905Y-7973865D01*
X54257658Y-8075354D01*
X54224253Y-8185477D01*
X54212973Y-8300000D01*
X29077536Y-8300000D01*
X29072203Y-8245855D01*
X29056410Y-8193792D01*
X29030763Y-8145809D01*
X28996248Y-8103752D01*
X28954191Y-8069237D01*
X28906208Y-8043590D01*
X28854145Y-8027797D01*
X28800000Y-8022464D01*
X25800000Y-8022464D01*
X25745855Y-8027797D01*
X25693792Y-8043590D01*
X25645809Y-8069237D01*
X25603752Y-8103752D01*
X25569237Y-8145809D01*
X25543590Y-8193792D01*
X25527797Y-8245855D01*
X25522464Y-8300000D01*
X25522464Y-9998800D01*
X25445186Y-9998800D01*
X25425239Y-9968948D01*
X25331052Y-9874761D01*
X25220301Y-9800759D01*
X25097240Y-9749786D01*
X24966600Y-9723800D01*
X24833400Y-9723800D01*
X24702760Y-9749786D01*
X24579699Y-9800759D01*
X24468948Y-9874761D01*
X24374761Y-9968948D01*
X24300759Y-10079699D01*
X24249786Y-10202760D01*
X24223800Y-10333400D01*
X4476200Y-10333400D01*
X4476200Y-4676200D01*
X11832041Y-4676200D01*
X12009640Y-4853798D01*
X12026120Y-4873880D01*
X12106244Y-4939636D01*
X12197658Y-4988498D01*
X12296847Y-5018586D01*
X12399999Y-5028746D01*
X12425848Y-5026200D01*
X12870386Y-5026200D01*
X12979699Y-5099241D01*
X13102760Y-5150214D01*
X13233400Y-5176200D01*
X13366600Y-5176200D01*
X13497240Y-5150214D01*
X13620301Y-5099241D01*
X13731052Y-5025239D01*
X13825239Y-4931052D01*
X13899241Y-4820301D01*
X13950214Y-4697240D01*
X13976200Y-4566600D01*
X13976200Y-4433400D01*
X13950214Y-4302760D01*
X13899241Y-4179699D01*
X13825239Y-4068948D01*
X13731052Y-3974761D01*
X13620301Y-3900759D01*
X13497240Y-3849786D01*
X13366600Y-3823800D01*
X13233400Y-3823800D01*
X13102760Y-3849786D01*
X12979699Y-3900759D01*
X12870386Y-3973800D01*
X12617959Y-3973800D01*
X12576745Y-3932587D01*
X12579955Y-3900000D01*
X12564968Y-3747838D01*
X12520584Y-3601524D01*
X12448509Y-3466680D01*
X12351511Y-3348489D01*
X12233320Y-3251491D01*
X12098476Y-3179416D01*
X11952162Y-3135032D01*
X11838124Y-3123800D01*
X4321512Y-3123800D01*
X4275815Y-3078103D01*
X4251511Y-3048489D01*
X4133319Y-2951491D01*
X3998475Y-2879416D01*
X3852161Y-2835032D01*
X3700000Y-2820045D01*
X3547838Y-2835032D01*
X3401524Y-2879416D01*
X3266680Y-2951491D01*
X3148489Y-3048489D01*
X3051491Y-3166681D01*
X2979416Y-3301525D01*
X2935032Y-3447839D01*
X2923800Y-3561877D01*
X2923800Y-3561884D01*
X2920046Y-3600000D01*
X2923800Y-3638117D01*
X2923801Y-10658545D01*
X2558160Y-11024186D01*
X2528547Y-11048489D01*
X2431549Y-11166680D01*
X2359474Y-11301524D01*
X2315090Y-11447838D01*
X2300103Y-11600000D01*
X253600Y-11600000D01*
X253600Y-3533394D01*
X723800Y-3533394D01*
X723800Y-3666594D01*
X749786Y-3797234D01*
X800759Y-3920295D01*
X874761Y-4031046D01*
X968948Y-4125233D01*
X1079699Y-4199235D01*
X1202760Y-4250208D01*
X1333400Y-4276194D01*
X1466600Y-4276194D01*
X1597240Y-4250208D01*
X1720301Y-4199235D01*
X1831052Y-4125233D01*
X1925239Y-4031046D01*
X1945186Y-4001194D01*
X1945980Y-4001194D01*
X1965685Y-4003135D01*
X1985390Y-4001194D01*
X1985393Y-4001194D01*
X2044334Y-3995389D01*
X2119960Y-3972448D01*
X2189658Y-3935193D01*
X2250749Y-3885058D01*
X2263319Y-3869741D01*
X3931861Y-2201200D01*
X14963764Y-2201200D01*
X14940095Y-2279226D01*
X14918351Y-2500000D01*
X14940095Y-2720774D01*
X15004493Y-2933063D01*
X15109068Y-3128710D01*
X15249803Y-3300197D01*
X15421290Y-3440932D01*
X15616937Y-3545507D01*
X15829226Y-3609905D01*
X15994675Y-3626200D01*
X16105325Y-3626200D01*
X16270774Y-3609905D01*
X16483063Y-3545507D01*
X16678710Y-3440932D01*
X16850197Y-3300197D01*
X16990932Y-3128710D01*
X17095507Y-2933063D01*
X17159905Y-2720774D01*
X17181649Y-2500000D01*
X17159905Y-2279226D01*
X17095507Y-2066937D01*
X16990932Y-1871290D01*
X16871860Y-1726199D01*
X17768140Y-1726199D01*
X17649068Y-1871290D01*
X17544493Y-2066937D01*
X17480095Y-2279226D01*
X17458351Y-2500000D01*
X17480095Y-2720774D01*
X17544493Y-2933063D01*
X17649068Y-3128710D01*
X17789803Y-3300197D01*
X17961290Y-3440932D01*
X18156937Y-3545507D01*
X18188801Y-3555173D01*
X18188801Y-4105816D01*
X15789814Y-6504805D01*
X15754600Y-6497800D01*
X15621400Y-6497800D01*
X15490760Y-6523786D01*
X15367699Y-6574759D01*
X15256948Y-6648761D01*
X15162761Y-6742948D01*
X15088759Y-6853699D01*
X15037786Y-6976760D01*
X15011800Y-7107400D01*
X15011800Y-7240600D01*
X15037786Y-7371240D01*
X15088759Y-7494301D01*
X15162761Y-7605052D01*
X15256948Y-7699239D01*
X15367699Y-7773241D01*
X15490760Y-7824214D01*
X15621400Y-7850200D01*
X15754600Y-7850200D01*
X15885240Y-7824214D01*
X16008301Y-7773241D01*
X16119052Y-7699239D01*
X16213239Y-7605052D01*
X16287241Y-7494301D01*
X16338214Y-7371240D01*
X16364200Y-7240600D01*
X16364200Y-7107400D01*
X16357195Y-7072186D01*
X18560001Y-4869381D01*
X93673800Y-4869381D01*
X93673800Y-5130619D01*
X93724765Y-5386838D01*
X93824737Y-5628191D01*
X93969873Y-5845403D01*
X94154597Y-6030127D01*
X94371809Y-6175263D01*
X94613162Y-6275235D01*
X94869381Y-6326200D01*
X95130619Y-6326200D01*
X95386838Y-6275235D01*
X95628191Y-6175263D01*
X95845403Y-6030127D01*
X96030127Y-5845403D01*
X96175263Y-5628191D01*
X96275235Y-5386838D01*
X96326200Y-5130619D01*
X96326200Y-4869381D01*
X96275235Y-4613162D01*
X96175263Y-4371809D01*
X96030127Y-4154597D01*
X95845403Y-3969873D01*
X95628191Y-3824737D01*
X95386838Y-3724765D01*
X95130619Y-3673800D01*
X94869381Y-3673800D01*
X94613162Y-3724765D01*
X94371809Y-3824737D01*
X94154597Y-3969873D01*
X93969873Y-4154597D01*
X93824737Y-4371809D01*
X93724765Y-4613162D01*
X93673800Y-4869381D01*
X18560001Y-4869381D01*
X18859758Y-4569625D01*
X18875064Y-4557064D01*
X18887627Y-4541756D01*
X18925199Y-4495974D01*
X18948965Y-4451511D01*
X18962454Y-4426275D01*
X18985395Y-4350649D01*
X18991200Y-4291708D01*
X18991200Y-4291705D01*
X18993141Y-4272000D01*
X18991200Y-4252295D01*
X18991200Y-3555173D01*
X19023063Y-3545507D01*
X19218710Y-3440932D01*
X19390197Y-3300197D01*
X19530932Y-3128710D01*
X19635507Y-2933063D01*
X19699905Y-2720774D01*
X19721649Y-2500000D01*
X19699905Y-2279226D01*
X19635507Y-2066937D01*
X19530932Y-1871290D01*
X19411860Y-1726199D01*
X20308140Y-1726199D01*
X20189068Y-1871290D01*
X20084493Y-2066937D01*
X20020095Y-2279226D01*
X19998351Y-2500000D01*
X20020095Y-2720774D01*
X20084493Y-2933063D01*
X20189068Y-3128710D01*
X20329803Y-3300197D01*
X20501290Y-3440932D01*
X20696937Y-3545507D01*
X20909226Y-3609905D01*
X21074675Y-3626200D01*
X21185325Y-3626200D01*
X21350774Y-3609905D01*
X21563063Y-3545507D01*
X21758710Y-3440932D01*
X21930197Y-3300197D01*
X22070932Y-3128710D01*
X22175507Y-2933063D01*
X22239905Y-2720774D01*
X22244137Y-2677802D01*
X22392906Y-2677802D01*
X22292192Y-2898240D01*
X22396359Y-3159385D01*
X22549471Y-3395190D01*
X22745645Y-3596594D01*
X22977341Y-3755856D01*
X23235656Y-3866856D01*
X23271761Y-3877801D01*
X23492200Y-3775820D01*
X23492200Y-2677800D01*
X23472200Y-2677800D01*
X23472200Y-2322200D01*
X23492200Y-2322200D01*
X23492200Y-2302200D01*
X23847800Y-2302200D01*
X23847800Y-2322200D01*
X23867800Y-2322200D01*
X23867800Y-2677800D01*
X23847800Y-2677800D01*
X23847800Y-3775820D01*
X24068239Y-3877801D01*
X24104344Y-3866856D01*
X24362659Y-3755856D01*
X24594355Y-3596594D01*
X24790529Y-3395190D01*
X24943641Y-3159385D01*
X25047808Y-2898240D01*
X24947094Y-2677802D01*
X25095863Y-2677802D01*
X25100095Y-2720774D01*
X25164493Y-2933063D01*
X25269068Y-3128710D01*
X25409803Y-3300197D01*
X25581290Y-3440932D01*
X25776937Y-3545507D01*
X25989226Y-3609905D01*
X26154675Y-3626200D01*
X26265325Y-3626200D01*
X26430774Y-3609905D01*
X26643063Y-3545507D01*
X26838710Y-3440932D01*
X27010197Y-3300197D01*
X27150932Y-3128710D01*
X27255507Y-2933063D01*
X27319905Y-2720774D01*
X27341649Y-2500000D01*
X27319905Y-2279226D01*
X27255507Y-2066937D01*
X27150932Y-1871290D01*
X27010197Y-1699803D01*
X26949512Y-1650000D01*
X27622464Y-1650000D01*
X27622464Y-3350000D01*
X27627797Y-3404145D01*
X27643590Y-3456208D01*
X27669237Y-3504191D01*
X27703752Y-3546248D01*
X27745809Y-3580763D01*
X27793792Y-3606410D01*
X27845855Y-3622203D01*
X27900000Y-3627536D01*
X29600000Y-3627536D01*
X29654145Y-3622203D01*
X29706208Y-3606410D01*
X29754191Y-3580763D01*
X29796248Y-3546248D01*
X29830763Y-3504191D01*
X29856410Y-3456208D01*
X29872203Y-3404145D01*
X29877536Y-3350000D01*
X29877536Y-1650000D01*
X29872203Y-1595855D01*
X29856410Y-1543792D01*
X29830763Y-1495809D01*
X29796248Y-1453752D01*
X29754191Y-1419237D01*
X29706208Y-1393590D01*
X29654145Y-1377797D01*
X29600000Y-1372464D01*
X27900000Y-1372464D01*
X27845855Y-1377797D01*
X27793792Y-1393590D01*
X27745809Y-1419237D01*
X27703752Y-1453752D01*
X27669237Y-1495809D01*
X27643590Y-1543792D01*
X27627797Y-1595855D01*
X27622464Y-1650000D01*
X26949512Y-1650000D01*
X26838710Y-1559068D01*
X26643063Y-1454493D01*
X26430774Y-1390095D01*
X26265325Y-1373800D01*
X26154675Y-1373800D01*
X25989226Y-1390095D01*
X25776937Y-1454493D01*
X25747571Y-1470189D01*
X25332633Y-1055252D01*
X25320063Y-1039935D01*
X25258972Y-989800D01*
X25189274Y-952545D01*
X25113648Y-929604D01*
X25054707Y-923799D01*
X25054704Y-923799D01*
X25034999Y-921858D01*
X25015294Y-923799D01*
X2967089Y-923799D01*
X2947384Y-921858D01*
X2927679Y-923799D01*
X2927677Y-923799D01*
X2868736Y-929604D01*
X2793110Y-952545D01*
X2793108Y-952546D01*
X2723411Y-989800D01*
X2698346Y-1010371D01*
X2662321Y-1039935D01*
X2649755Y-1055247D01*
X1744352Y-1960651D01*
X1709138Y-1953646D01*
X1575938Y-1953646D01*
X1445298Y-1979632D01*
X1322237Y-2030605D01*
X1211486Y-2104607D01*
X1117299Y-2198794D01*
X1043297Y-2309545D01*
X992324Y-2432606D01*
X966338Y-2563246D01*
X966338Y-2696446D01*
X992324Y-2827086D01*
X1043297Y-2950147D01*
X1077910Y-3001948D01*
X968948Y-3074755D01*
X874761Y-3168942D01*
X800759Y-3279693D01*
X749786Y-3402754D01*
X723800Y-3533394D01*
X253600Y-3533394D01*
X253600Y-253600D01*
X99746400Y-253600D01*
X99746401Y-99746400D01*
M02*
