G04 #@! TF.GenerationSoftware,KiCad,Pcbnew,(5.1.4)-1*
G04 #@! TF.CreationDate,2019-12-11T21:26:35-05:00*
G04 #@! TF.ProjectId,main,6d61696e-2e6b-4696-9361-645f70636258,rev?*
G04 #@! TF.SameCoordinates,Original*
G04 #@! TF.FileFunction,Soldermask,Bot*
G04 #@! TF.FilePolarity,Negative*
%FSLAX46Y46*%
G04 Gerber Fmt 4.6, Leading zero omitted, Abs format (unit mm)*
G04 Created by KiCad (PCBNEW (5.1.4)-1) date 2019-12-11 21:26:35*
%MOMM*%
%LPD*%
G04 APERTURE LIST*
%ADD10C,0.100000*%
G04 APERTURE END LIST*
D10*
G36*
X55683014Y-96742973D02*
G01*
X55786878Y-96774479D01*
X55830907Y-96798013D01*
X55882599Y-96825643D01*
X55882601Y-96825644D01*
X55882600Y-96825644D01*
X55966501Y-96894499D01*
X56035356Y-96978400D01*
X56086521Y-97074121D01*
X56118027Y-97177985D01*
X56126000Y-97258933D01*
X56126000Y-98513067D01*
X56118027Y-98594015D01*
X56086521Y-98697879D01*
X56086519Y-98697882D01*
X56035357Y-98793600D01*
X55966501Y-98877501D01*
X55882600Y-98946357D01*
X55814055Y-98982995D01*
X55786879Y-98997521D01*
X55683015Y-99029027D01*
X55575000Y-99039666D01*
X55466986Y-99029027D01*
X55363122Y-98997521D01*
X55335946Y-98982995D01*
X55267401Y-98946357D01*
X55183500Y-98877501D01*
X55114644Y-98793600D01*
X55063482Y-98697882D01*
X55063480Y-98697879D01*
X55031974Y-98594015D01*
X55024001Y-98513067D01*
X55024000Y-97258934D01*
X55031973Y-97177986D01*
X55063479Y-97074122D01*
X55114644Y-96978400D01*
X55183499Y-96894499D01*
X55267400Y-96825644D01*
X55267399Y-96825644D01*
X55267401Y-96825643D01*
X55319093Y-96798013D01*
X55363121Y-96774479D01*
X55466985Y-96742973D01*
X55575000Y-96732334D01*
X55683014Y-96742973D01*
X55683014Y-96742973D01*
G37*
G36*
X44533014Y-96742973D02*
G01*
X44636878Y-96774479D01*
X44680907Y-96798013D01*
X44732599Y-96825643D01*
X44732601Y-96825644D01*
X44732600Y-96825644D01*
X44816501Y-96894499D01*
X44885356Y-96978400D01*
X44936521Y-97074121D01*
X44968027Y-97177985D01*
X44976000Y-97258933D01*
X44976000Y-98513067D01*
X44968027Y-98594015D01*
X44936521Y-98697879D01*
X44936519Y-98697882D01*
X44885357Y-98793600D01*
X44816501Y-98877501D01*
X44732600Y-98946357D01*
X44664055Y-98982995D01*
X44636879Y-98997521D01*
X44533015Y-99029027D01*
X44425000Y-99039666D01*
X44316986Y-99029027D01*
X44213122Y-98997521D01*
X44185946Y-98982995D01*
X44117401Y-98946357D01*
X44033500Y-98877501D01*
X43964644Y-98793600D01*
X43913482Y-98697882D01*
X43913480Y-98697879D01*
X43881974Y-98594015D01*
X43874001Y-98513067D01*
X43874000Y-97258934D01*
X43881973Y-97177986D01*
X43913479Y-97074122D01*
X43964644Y-96978400D01*
X44033499Y-96894499D01*
X44117400Y-96825644D01*
X44117399Y-96825644D01*
X44117401Y-96825643D01*
X44169093Y-96798013D01*
X44213121Y-96774479D01*
X44316985Y-96742973D01*
X44425000Y-96732334D01*
X44533014Y-96742973D01*
X44533014Y-96742973D01*
G37*
G36*
X95214795Y-93920156D02*
G01*
X95321150Y-93941311D01*
X95521520Y-94024307D01*
X95701844Y-94144795D01*
X95855205Y-94298156D01*
X95975693Y-94478480D01*
X96058689Y-94678851D01*
X96101000Y-94891560D01*
X96101000Y-95108440D01*
X96058689Y-95321149D01*
X95975693Y-95521520D01*
X95855205Y-95701844D01*
X95701844Y-95855205D01*
X95521520Y-95975693D01*
X95321150Y-96058689D01*
X95214794Y-96079845D01*
X95108440Y-96101000D01*
X94891560Y-96101000D01*
X94785206Y-96079845D01*
X94678850Y-96058689D01*
X94578666Y-96017191D01*
X94478480Y-95975693D01*
X94298156Y-95855205D01*
X94144795Y-95701844D01*
X94024307Y-95521520D01*
X93941311Y-95321149D01*
X93899000Y-95108440D01*
X93899000Y-94891560D01*
X93941311Y-94678851D01*
X94024307Y-94478480D01*
X94144795Y-94298156D01*
X94298156Y-94144795D01*
X94478480Y-94024307D01*
X94578666Y-93982809D01*
X94678850Y-93941311D01*
X94785205Y-93920156D01*
X94891560Y-93899000D01*
X95108440Y-93899000D01*
X95214795Y-93920156D01*
X95214795Y-93920156D01*
G37*
G36*
X5214795Y-93920156D02*
G01*
X5321150Y-93941311D01*
X5521520Y-94024307D01*
X5701844Y-94144795D01*
X5855205Y-94298156D01*
X5975693Y-94478480D01*
X6058689Y-94678851D01*
X6101000Y-94891560D01*
X6101000Y-95108440D01*
X6058689Y-95321149D01*
X5975693Y-95521520D01*
X5855205Y-95701844D01*
X5701844Y-95855205D01*
X5521520Y-95975693D01*
X5421334Y-96017191D01*
X5321150Y-96058689D01*
X5214794Y-96079845D01*
X5108440Y-96101000D01*
X4891560Y-96101000D01*
X4785206Y-96079845D01*
X4678850Y-96058689D01*
X4578666Y-96017191D01*
X4478480Y-95975693D01*
X4298156Y-95855205D01*
X4144795Y-95701844D01*
X4024307Y-95521520D01*
X3941311Y-95321149D01*
X3899000Y-95108440D01*
X3899000Y-94891560D01*
X3941311Y-94678851D01*
X4024307Y-94478480D01*
X4144795Y-94298156D01*
X4298156Y-94144795D01*
X4478480Y-94024307D01*
X4678850Y-93941311D01*
X4785205Y-93920156D01*
X4891560Y-93899000D01*
X5108440Y-93899000D01*
X5214795Y-93920156D01*
X5214795Y-93920156D01*
G37*
G36*
X55683014Y-92942973D02*
G01*
X55786878Y-92974479D01*
X55830907Y-92998013D01*
X55882599Y-93025643D01*
X55882601Y-93025644D01*
X55882600Y-93025644D01*
X55966501Y-93094499D01*
X56035356Y-93178400D01*
X56086521Y-93274121D01*
X56118027Y-93377985D01*
X56126000Y-93458933D01*
X56126000Y-94313067D01*
X56118027Y-94394015D01*
X56086521Y-94497879D01*
X56086519Y-94497882D01*
X56035357Y-94593600D01*
X55966501Y-94677501D01*
X55882600Y-94746357D01*
X55814055Y-94782995D01*
X55786879Y-94797521D01*
X55683015Y-94829027D01*
X55575000Y-94839666D01*
X55466986Y-94829027D01*
X55363122Y-94797521D01*
X55335946Y-94782995D01*
X55267401Y-94746357D01*
X55183500Y-94677501D01*
X55114644Y-94593600D01*
X55063482Y-94497882D01*
X55063480Y-94497879D01*
X55031973Y-94394015D01*
X55024000Y-94313067D01*
X55024000Y-93458934D01*
X55031973Y-93377986D01*
X55063479Y-93274122D01*
X55114644Y-93178400D01*
X55183499Y-93094499D01*
X55267400Y-93025644D01*
X55267399Y-93025644D01*
X55267401Y-93025643D01*
X55319093Y-92998013D01*
X55363121Y-92974479D01*
X55466985Y-92942973D01*
X55575000Y-92932334D01*
X55683014Y-92942973D01*
X55683014Y-92942973D01*
G37*
G36*
X44533014Y-92942973D02*
G01*
X44636878Y-92974479D01*
X44680907Y-92998013D01*
X44732599Y-93025643D01*
X44732601Y-93025644D01*
X44732600Y-93025644D01*
X44816501Y-93094499D01*
X44885356Y-93178400D01*
X44936521Y-93274121D01*
X44968027Y-93377985D01*
X44976000Y-93458933D01*
X44976000Y-94313067D01*
X44968027Y-94394015D01*
X44936521Y-94497879D01*
X44936519Y-94497882D01*
X44885357Y-94593600D01*
X44816501Y-94677501D01*
X44732600Y-94746357D01*
X44664055Y-94782995D01*
X44636879Y-94797521D01*
X44533015Y-94829027D01*
X44425000Y-94839666D01*
X44316986Y-94829027D01*
X44213122Y-94797521D01*
X44185946Y-94782995D01*
X44117401Y-94746357D01*
X44033500Y-94677501D01*
X43964644Y-94593600D01*
X43913482Y-94497882D01*
X43913480Y-94497879D01*
X43881973Y-94394015D01*
X43874000Y-94313067D01*
X43874000Y-93458934D01*
X43881973Y-93377986D01*
X43913479Y-93274122D01*
X43964644Y-93178400D01*
X44033499Y-93094499D01*
X44117400Y-93025644D01*
X44117399Y-93025644D01*
X44117401Y-93025643D01*
X44169093Y-92998013D01*
X44213121Y-92974479D01*
X44316985Y-92942973D01*
X44425000Y-92932334D01*
X44533014Y-92942973D01*
X44533014Y-92942973D01*
G37*
G36*
X3225142Y-88218242D02*
G01*
X3373101Y-88279529D01*
X3506255Y-88368499D01*
X3619501Y-88481745D01*
X3708471Y-88614899D01*
X3769758Y-88762858D01*
X3801000Y-88919925D01*
X3801000Y-89080075D01*
X3769758Y-89237142D01*
X3708471Y-89385101D01*
X3619501Y-89518255D01*
X3506255Y-89631501D01*
X3373101Y-89720471D01*
X3225142Y-89781758D01*
X3068075Y-89813000D01*
X2907925Y-89813000D01*
X2750858Y-89781758D01*
X2602899Y-89720471D01*
X2469745Y-89631501D01*
X2356499Y-89518255D01*
X2267529Y-89385101D01*
X2206242Y-89237142D01*
X2175000Y-89080075D01*
X2175000Y-88919925D01*
X2206242Y-88762858D01*
X2267529Y-88614899D01*
X2356499Y-88481745D01*
X2469745Y-88368499D01*
X2602899Y-88279529D01*
X2750858Y-88218242D01*
X2907925Y-88187000D01*
X3068075Y-88187000D01*
X3225142Y-88218242D01*
X3225142Y-88218242D01*
G37*
G36*
X1325142Y-86718242D02*
G01*
X1473101Y-86779529D01*
X1606255Y-86868499D01*
X1719501Y-86981745D01*
X1808471Y-87114899D01*
X1869758Y-87262858D01*
X1901000Y-87419925D01*
X1901000Y-87580075D01*
X1869758Y-87737142D01*
X1808471Y-87885101D01*
X1719501Y-88018255D01*
X1606255Y-88131501D01*
X1473101Y-88220471D01*
X1325142Y-88281758D01*
X1168075Y-88313000D01*
X1007925Y-88313000D01*
X850858Y-88281758D01*
X702899Y-88220471D01*
X569745Y-88131501D01*
X456499Y-88018255D01*
X367529Y-87885101D01*
X306242Y-87737142D01*
X275000Y-87580075D01*
X275000Y-87419925D01*
X306242Y-87262858D01*
X367529Y-87114899D01*
X456499Y-86981745D01*
X569745Y-86868499D01*
X702899Y-86779529D01*
X850858Y-86718242D01*
X1007925Y-86687000D01*
X1168075Y-86687000D01*
X1325142Y-86718242D01*
X1325142Y-86718242D01*
G37*
G36*
X3225142Y-85218242D02*
G01*
X3373101Y-85279529D01*
X3506255Y-85368499D01*
X3619501Y-85481745D01*
X3708471Y-85614899D01*
X3769758Y-85762858D01*
X3801000Y-85919925D01*
X3801000Y-86080075D01*
X3769758Y-86237142D01*
X3708471Y-86385101D01*
X3619501Y-86518255D01*
X3506255Y-86631501D01*
X3373101Y-86720471D01*
X3225142Y-86781758D01*
X3068075Y-86813000D01*
X2907925Y-86813000D01*
X2750858Y-86781758D01*
X2602899Y-86720471D01*
X2469745Y-86631501D01*
X2356499Y-86518255D01*
X2267529Y-86385101D01*
X2206242Y-86237142D01*
X2175000Y-86080075D01*
X2175000Y-85919925D01*
X2206242Y-85762858D01*
X2267529Y-85614899D01*
X2356499Y-85481745D01*
X2469745Y-85368499D01*
X2602899Y-85279529D01*
X2750858Y-85218242D01*
X2907925Y-85187000D01*
X3068075Y-85187000D01*
X3225142Y-85218242D01*
X3225142Y-85218242D01*
G37*
G36*
X3225142Y-74886242D02*
G01*
X3373101Y-74947529D01*
X3506255Y-75036499D01*
X3619501Y-75149745D01*
X3708471Y-75282899D01*
X3769758Y-75430858D01*
X3801000Y-75587925D01*
X3801000Y-75748075D01*
X3769758Y-75905142D01*
X3708471Y-76053101D01*
X3619501Y-76186255D01*
X3506255Y-76299501D01*
X3373101Y-76388471D01*
X3225142Y-76449758D01*
X3068075Y-76481000D01*
X2907925Y-76481000D01*
X2750858Y-76449758D01*
X2602899Y-76388471D01*
X2469745Y-76299501D01*
X2356499Y-76186255D01*
X2267529Y-76053101D01*
X2206242Y-75905142D01*
X2175000Y-75748075D01*
X2175000Y-75587925D01*
X2206242Y-75430858D01*
X2267529Y-75282899D01*
X2356499Y-75149745D01*
X2469745Y-75036499D01*
X2602899Y-74947529D01*
X2750858Y-74886242D01*
X2907925Y-74855000D01*
X3068075Y-74855000D01*
X3225142Y-74886242D01*
X3225142Y-74886242D01*
G37*
G36*
X1325142Y-73386242D02*
G01*
X1473101Y-73447529D01*
X1606255Y-73536499D01*
X1719501Y-73649745D01*
X1808471Y-73782899D01*
X1869758Y-73930858D01*
X1901000Y-74087925D01*
X1901000Y-74248075D01*
X1869758Y-74405142D01*
X1808471Y-74553101D01*
X1719501Y-74686255D01*
X1606255Y-74799501D01*
X1473101Y-74888471D01*
X1325142Y-74949758D01*
X1168075Y-74981000D01*
X1007925Y-74981000D01*
X850858Y-74949758D01*
X702899Y-74888471D01*
X569745Y-74799501D01*
X456499Y-74686255D01*
X367529Y-74553101D01*
X306242Y-74405142D01*
X275000Y-74248075D01*
X275000Y-74087925D01*
X306242Y-73930858D01*
X367529Y-73782899D01*
X456499Y-73649745D01*
X569745Y-73536499D01*
X702899Y-73447529D01*
X850858Y-73386242D01*
X1007925Y-73355000D01*
X1168075Y-73355000D01*
X1325142Y-73386242D01*
X1325142Y-73386242D01*
G37*
G36*
X3225142Y-71886242D02*
G01*
X3373101Y-71947529D01*
X3506255Y-72036499D01*
X3619501Y-72149745D01*
X3708471Y-72282899D01*
X3769758Y-72430858D01*
X3801000Y-72587925D01*
X3801000Y-72748075D01*
X3769758Y-72905142D01*
X3708471Y-73053101D01*
X3619501Y-73186255D01*
X3506255Y-73299501D01*
X3373101Y-73388471D01*
X3225142Y-73449758D01*
X3068075Y-73481000D01*
X2907925Y-73481000D01*
X2750858Y-73449758D01*
X2602899Y-73388471D01*
X2469745Y-73299501D01*
X2356499Y-73186255D01*
X2267529Y-73053101D01*
X2206242Y-72905142D01*
X2175000Y-72748075D01*
X2175000Y-72587925D01*
X2206242Y-72430858D01*
X2267529Y-72282899D01*
X2356499Y-72149745D01*
X2469745Y-72036499D01*
X2602899Y-71947529D01*
X2750858Y-71886242D01*
X2907925Y-71855000D01*
X3068075Y-71855000D01*
X3225142Y-71886242D01*
X3225142Y-71886242D01*
G37*
G36*
X3225142Y-52472242D02*
G01*
X3373101Y-52533529D01*
X3506255Y-52622499D01*
X3619501Y-52735745D01*
X3708471Y-52868899D01*
X3769758Y-53016858D01*
X3801000Y-53173925D01*
X3801000Y-53334075D01*
X3769758Y-53491142D01*
X3708471Y-53639101D01*
X3619501Y-53772255D01*
X3506255Y-53885501D01*
X3373101Y-53974471D01*
X3225142Y-54035758D01*
X3068075Y-54067000D01*
X2907925Y-54067000D01*
X2750858Y-54035758D01*
X2602899Y-53974471D01*
X2469745Y-53885501D01*
X2356499Y-53772255D01*
X2267529Y-53639101D01*
X2206242Y-53491142D01*
X2175000Y-53334075D01*
X2175000Y-53173925D01*
X2206242Y-53016858D01*
X2267529Y-52868899D01*
X2356499Y-52735745D01*
X2469745Y-52622499D01*
X2602899Y-52533529D01*
X2750858Y-52472242D01*
X2907925Y-52441000D01*
X3068075Y-52441000D01*
X3225142Y-52472242D01*
X3225142Y-52472242D01*
G37*
G36*
X1325142Y-50972242D02*
G01*
X1473101Y-51033529D01*
X1606255Y-51122499D01*
X1719501Y-51235745D01*
X1808471Y-51368899D01*
X1869758Y-51516858D01*
X1901000Y-51673925D01*
X1901000Y-51834075D01*
X1869758Y-51991142D01*
X1808471Y-52139101D01*
X1719501Y-52272255D01*
X1606255Y-52385501D01*
X1473101Y-52474471D01*
X1325142Y-52535758D01*
X1168075Y-52567000D01*
X1007925Y-52567000D01*
X850858Y-52535758D01*
X702899Y-52474471D01*
X569745Y-52385501D01*
X456499Y-52272255D01*
X367529Y-52139101D01*
X306242Y-51991142D01*
X275000Y-51834075D01*
X275000Y-51673925D01*
X306242Y-51516858D01*
X367529Y-51368899D01*
X456499Y-51235745D01*
X569745Y-51122499D01*
X702899Y-51033529D01*
X850858Y-50972242D01*
X1007925Y-50941000D01*
X1168075Y-50941000D01*
X1325142Y-50972242D01*
X1325142Y-50972242D01*
G37*
G36*
X3225142Y-49472242D02*
G01*
X3373101Y-49533529D01*
X3506255Y-49622499D01*
X3619501Y-49735745D01*
X3708471Y-49868899D01*
X3769758Y-50016858D01*
X3801000Y-50173925D01*
X3801000Y-50334075D01*
X3769758Y-50491142D01*
X3708471Y-50639101D01*
X3619501Y-50772255D01*
X3506255Y-50885501D01*
X3373101Y-50974471D01*
X3225142Y-51035758D01*
X3068075Y-51067000D01*
X2907925Y-51067000D01*
X2750858Y-51035758D01*
X2602899Y-50974471D01*
X2469745Y-50885501D01*
X2356499Y-50772255D01*
X2267529Y-50639101D01*
X2206242Y-50491142D01*
X2175000Y-50334075D01*
X2175000Y-50173925D01*
X2206242Y-50016858D01*
X2267529Y-49868899D01*
X2356499Y-49735745D01*
X2469745Y-49622499D01*
X2602899Y-49533529D01*
X2750858Y-49472242D01*
X2907925Y-49441000D01*
X3068075Y-49441000D01*
X3225142Y-49472242D01*
X3225142Y-49472242D01*
G37*
G36*
X3225142Y-46630242D02*
G01*
X3373101Y-46691529D01*
X3506255Y-46780499D01*
X3619501Y-46893745D01*
X3708471Y-47026899D01*
X3769758Y-47174858D01*
X3801000Y-47331925D01*
X3801000Y-47492075D01*
X3769758Y-47649142D01*
X3708471Y-47797101D01*
X3619501Y-47930255D01*
X3506255Y-48043501D01*
X3373101Y-48132471D01*
X3225142Y-48193758D01*
X3068075Y-48225000D01*
X2907925Y-48225000D01*
X2750858Y-48193758D01*
X2602899Y-48132471D01*
X2469745Y-48043501D01*
X2356499Y-47930255D01*
X2267529Y-47797101D01*
X2206242Y-47649142D01*
X2175000Y-47492075D01*
X2175000Y-47331925D01*
X2206242Y-47174858D01*
X2267529Y-47026899D01*
X2356499Y-46893745D01*
X2469745Y-46780499D01*
X2602899Y-46691529D01*
X2750858Y-46630242D01*
X2907925Y-46599000D01*
X3068075Y-46599000D01*
X3225142Y-46630242D01*
X3225142Y-46630242D01*
G37*
G36*
X1325142Y-45130242D02*
G01*
X1473101Y-45191529D01*
X1606255Y-45280499D01*
X1719501Y-45393745D01*
X1808471Y-45526899D01*
X1869758Y-45674858D01*
X1901000Y-45831925D01*
X1901000Y-45992075D01*
X1869758Y-46149142D01*
X1808471Y-46297101D01*
X1719501Y-46430255D01*
X1606255Y-46543501D01*
X1473101Y-46632471D01*
X1325142Y-46693758D01*
X1168075Y-46725000D01*
X1007925Y-46725000D01*
X850858Y-46693758D01*
X702899Y-46632471D01*
X569745Y-46543501D01*
X456499Y-46430255D01*
X367529Y-46297101D01*
X306242Y-46149142D01*
X275000Y-45992075D01*
X275000Y-45831925D01*
X306242Y-45674858D01*
X367529Y-45526899D01*
X456499Y-45393745D01*
X569745Y-45280499D01*
X702899Y-45191529D01*
X850858Y-45130242D01*
X1007925Y-45099000D01*
X1168075Y-45099000D01*
X1325142Y-45130242D01*
X1325142Y-45130242D01*
G37*
G36*
X3225142Y-43630242D02*
G01*
X3373101Y-43691529D01*
X3506255Y-43780499D01*
X3619501Y-43893745D01*
X3708471Y-44026899D01*
X3769758Y-44174858D01*
X3801000Y-44331925D01*
X3801000Y-44492075D01*
X3769758Y-44649142D01*
X3708471Y-44797101D01*
X3619501Y-44930255D01*
X3506255Y-45043501D01*
X3373101Y-45132471D01*
X3225142Y-45193758D01*
X3068075Y-45225000D01*
X2907925Y-45225000D01*
X2750858Y-45193758D01*
X2602899Y-45132471D01*
X2469745Y-45043501D01*
X2356499Y-44930255D01*
X2267529Y-44797101D01*
X2206242Y-44649142D01*
X2175000Y-44492075D01*
X2175000Y-44331925D01*
X2206242Y-44174858D01*
X2267529Y-44026899D01*
X2356499Y-43893745D01*
X2469745Y-43780499D01*
X2602899Y-43691529D01*
X2750858Y-43630242D01*
X2907925Y-43599000D01*
X3068075Y-43599000D01*
X3225142Y-43630242D01*
X3225142Y-43630242D01*
G37*
G36*
X3225142Y-36958242D02*
G01*
X3373101Y-37019529D01*
X3506255Y-37108499D01*
X3619501Y-37221745D01*
X3708471Y-37354899D01*
X3769758Y-37502858D01*
X3801000Y-37659925D01*
X3801000Y-37820075D01*
X3769758Y-37977142D01*
X3708471Y-38125101D01*
X3619501Y-38258255D01*
X3506255Y-38371501D01*
X3373101Y-38460471D01*
X3225142Y-38521758D01*
X3068075Y-38553000D01*
X2907925Y-38553000D01*
X2750858Y-38521758D01*
X2602899Y-38460471D01*
X2469745Y-38371501D01*
X2356499Y-38258255D01*
X2267529Y-38125101D01*
X2206242Y-37977142D01*
X2175000Y-37820075D01*
X2175000Y-37659925D01*
X2206242Y-37502858D01*
X2267529Y-37354899D01*
X2356499Y-37221745D01*
X2469745Y-37108499D01*
X2602899Y-37019529D01*
X2750858Y-36958242D01*
X2907925Y-36927000D01*
X3068075Y-36927000D01*
X3225142Y-36958242D01*
X3225142Y-36958242D01*
G37*
G36*
X1325142Y-35458242D02*
G01*
X1473101Y-35519529D01*
X1606255Y-35608499D01*
X1719501Y-35721745D01*
X1808471Y-35854899D01*
X1869758Y-36002858D01*
X1901000Y-36159925D01*
X1901000Y-36320075D01*
X1869758Y-36477142D01*
X1808471Y-36625101D01*
X1719501Y-36758255D01*
X1606255Y-36871501D01*
X1473101Y-36960471D01*
X1325142Y-37021758D01*
X1168075Y-37053000D01*
X1007925Y-37053000D01*
X850858Y-37021758D01*
X702899Y-36960471D01*
X569745Y-36871501D01*
X456499Y-36758255D01*
X367529Y-36625101D01*
X306242Y-36477142D01*
X275000Y-36320075D01*
X275000Y-36159925D01*
X306242Y-36002858D01*
X367529Y-35854899D01*
X456499Y-35721745D01*
X569745Y-35608499D01*
X702899Y-35519529D01*
X850858Y-35458242D01*
X1007925Y-35427000D01*
X1168075Y-35427000D01*
X1325142Y-35458242D01*
X1325142Y-35458242D01*
G37*
G36*
X3225142Y-33958242D02*
G01*
X3373101Y-34019529D01*
X3506255Y-34108499D01*
X3619501Y-34221745D01*
X3708471Y-34354899D01*
X3769758Y-34502858D01*
X3801000Y-34659925D01*
X3801000Y-34820075D01*
X3769758Y-34977142D01*
X3708471Y-35125101D01*
X3619501Y-35258255D01*
X3506255Y-35371501D01*
X3373101Y-35460471D01*
X3225142Y-35521758D01*
X3068075Y-35553000D01*
X2907925Y-35553000D01*
X2750858Y-35521758D01*
X2602899Y-35460471D01*
X2469745Y-35371501D01*
X2356499Y-35258255D01*
X2267529Y-35125101D01*
X2206242Y-34977142D01*
X2175000Y-34820075D01*
X2175000Y-34659925D01*
X2206242Y-34502858D01*
X2267529Y-34354899D01*
X2356499Y-34221745D01*
X2469745Y-34108499D01*
X2602899Y-34019529D01*
X2750858Y-33958242D01*
X2907925Y-33927000D01*
X3068075Y-33927000D01*
X3225142Y-33958242D01*
X3225142Y-33958242D01*
G37*
G36*
X3225142Y-31370242D02*
G01*
X3373101Y-31431529D01*
X3506255Y-31520499D01*
X3619501Y-31633745D01*
X3708471Y-31766899D01*
X3769758Y-31914858D01*
X3801000Y-32071925D01*
X3801000Y-32232075D01*
X3769758Y-32389142D01*
X3708471Y-32537101D01*
X3619501Y-32670255D01*
X3506255Y-32783501D01*
X3373101Y-32872471D01*
X3225142Y-32933758D01*
X3068075Y-32965000D01*
X2907925Y-32965000D01*
X2750858Y-32933758D01*
X2602899Y-32872471D01*
X2469745Y-32783501D01*
X2356499Y-32670255D01*
X2267529Y-32537101D01*
X2206242Y-32389142D01*
X2175000Y-32232075D01*
X2175000Y-32071925D01*
X2206242Y-31914858D01*
X2267529Y-31766899D01*
X2356499Y-31633745D01*
X2469745Y-31520499D01*
X2602899Y-31431529D01*
X2750858Y-31370242D01*
X2907925Y-31339000D01*
X3068075Y-31339000D01*
X3225142Y-31370242D01*
X3225142Y-31370242D01*
G37*
G36*
X1325142Y-29870242D02*
G01*
X1473101Y-29931529D01*
X1606255Y-30020499D01*
X1719501Y-30133745D01*
X1808471Y-30266899D01*
X1869758Y-30414858D01*
X1901000Y-30571925D01*
X1901000Y-30732075D01*
X1869758Y-30889142D01*
X1808471Y-31037101D01*
X1719501Y-31170255D01*
X1606255Y-31283501D01*
X1473101Y-31372471D01*
X1325142Y-31433758D01*
X1168075Y-31465000D01*
X1007925Y-31465000D01*
X850858Y-31433758D01*
X702899Y-31372471D01*
X569745Y-31283501D01*
X456499Y-31170255D01*
X367529Y-31037101D01*
X306242Y-30889142D01*
X275000Y-30732075D01*
X275000Y-30571925D01*
X306242Y-30414858D01*
X367529Y-30266899D01*
X456499Y-30133745D01*
X569745Y-30020499D01*
X702899Y-29931529D01*
X850858Y-29870242D01*
X1007925Y-29839000D01*
X1168075Y-29839000D01*
X1325142Y-29870242D01*
X1325142Y-29870242D01*
G37*
G36*
X3225142Y-28370242D02*
G01*
X3373101Y-28431529D01*
X3506255Y-28520499D01*
X3619501Y-28633745D01*
X3708471Y-28766899D01*
X3769758Y-28914858D01*
X3801000Y-29071925D01*
X3801000Y-29232075D01*
X3769758Y-29389142D01*
X3708471Y-29537101D01*
X3619501Y-29670255D01*
X3506255Y-29783501D01*
X3373101Y-29872471D01*
X3225142Y-29933758D01*
X3068075Y-29965000D01*
X2907925Y-29965000D01*
X2750858Y-29933758D01*
X2602899Y-29872471D01*
X2469745Y-29783501D01*
X2356499Y-29670255D01*
X2267529Y-29537101D01*
X2206242Y-29389142D01*
X2175000Y-29232075D01*
X2175000Y-29071925D01*
X2206242Y-28914858D01*
X2267529Y-28766899D01*
X2356499Y-28633745D01*
X2469745Y-28520499D01*
X2602899Y-28431529D01*
X2750858Y-28370242D01*
X2907925Y-28339000D01*
X3068075Y-28339000D01*
X3225142Y-28370242D01*
X3225142Y-28370242D01*
G37*
G36*
X8028795Y-21334156D02*
G01*
X8135150Y-21355311D01*
X8335520Y-21438307D01*
X8515844Y-21558795D01*
X8669205Y-21712156D01*
X8789693Y-21892480D01*
X8872689Y-22092851D01*
X8915000Y-22305560D01*
X8915000Y-22522440D01*
X8872689Y-22735149D01*
X8789693Y-22935520D01*
X8669205Y-23115844D01*
X8515844Y-23269205D01*
X8335520Y-23389693D01*
X8235334Y-23431191D01*
X8135150Y-23472689D01*
X8028795Y-23493844D01*
X7922440Y-23515000D01*
X7705560Y-23515000D01*
X7599205Y-23493844D01*
X7492850Y-23472689D01*
X7392666Y-23431191D01*
X7292480Y-23389693D01*
X7112156Y-23269205D01*
X6958795Y-23115844D01*
X6838307Y-22935520D01*
X6755311Y-22735149D01*
X6713000Y-22522440D01*
X6713000Y-22305560D01*
X6755311Y-22092851D01*
X6838307Y-21892480D01*
X6958795Y-21712156D01*
X7112156Y-21558795D01*
X7292480Y-21438307D01*
X7492850Y-21355311D01*
X7599205Y-21334156D01*
X7705560Y-21313000D01*
X7922440Y-21313000D01*
X8028795Y-21334156D01*
X8028795Y-21334156D01*
G37*
G36*
X57851000Y-12551000D02*
G01*
X54749000Y-12551000D01*
X54749000Y-8249000D01*
X57851000Y-8249000D01*
X57851000Y-12551000D01*
X57851000Y-12551000D01*
G37*
G36*
X28851000Y-12551000D02*
G01*
X25749000Y-12551000D01*
X25749000Y-8249000D01*
X28851000Y-8249000D01*
X28851000Y-12551000D01*
X28851000Y-12551000D01*
G37*
G36*
X95214794Y-3920155D02*
G01*
X95321150Y-3941311D01*
X95421334Y-3982809D01*
X95521520Y-4024307D01*
X95701844Y-4144795D01*
X95855205Y-4298156D01*
X95975693Y-4478480D01*
X96058689Y-4678851D01*
X96101000Y-4891560D01*
X96101000Y-5108440D01*
X96058689Y-5321149D01*
X95975693Y-5521520D01*
X95855205Y-5701844D01*
X95701844Y-5855205D01*
X95521520Y-5975693D01*
X95321150Y-6058689D01*
X95214795Y-6079844D01*
X95108440Y-6101000D01*
X94891560Y-6101000D01*
X94785205Y-6079844D01*
X94678850Y-6058689D01*
X94478480Y-5975693D01*
X94298156Y-5855205D01*
X94144795Y-5701844D01*
X94024307Y-5521520D01*
X93941311Y-5321149D01*
X93899000Y-5108440D01*
X93899000Y-4891560D01*
X93941311Y-4678851D01*
X94024307Y-4478480D01*
X94144795Y-4298156D01*
X94298156Y-4144795D01*
X94478480Y-4024307D01*
X94578666Y-3982809D01*
X94678850Y-3941311D01*
X94785206Y-3920155D01*
X94891560Y-3899000D01*
X95108440Y-3899000D01*
X95214794Y-3920155D01*
X95214794Y-3920155D01*
G37*
G36*
X16160443Y-1605519D02*
G01*
X16226627Y-1612037D01*
X16396466Y-1663557D01*
X16552991Y-1747222D01*
X16588729Y-1776552D01*
X16690186Y-1859814D01*
X16773448Y-1961271D01*
X16802778Y-1997009D01*
X16886443Y-2153534D01*
X16937963Y-2323373D01*
X16955359Y-2500000D01*
X16937963Y-2676627D01*
X16886443Y-2846466D01*
X16802778Y-3002991D01*
X16773448Y-3038729D01*
X16690186Y-3140186D01*
X16588729Y-3223448D01*
X16552991Y-3252778D01*
X16396466Y-3336443D01*
X16226627Y-3387963D01*
X16160443Y-3394481D01*
X16094260Y-3401000D01*
X16005740Y-3401000D01*
X15939557Y-3394481D01*
X15873373Y-3387963D01*
X15703534Y-3336443D01*
X15547009Y-3252778D01*
X15511271Y-3223448D01*
X15409814Y-3140186D01*
X15326552Y-3038729D01*
X15297222Y-3002991D01*
X15213557Y-2846466D01*
X15162037Y-2676627D01*
X15144641Y-2500000D01*
X15162037Y-2323373D01*
X15213557Y-2153534D01*
X15297222Y-1997009D01*
X15326552Y-1961271D01*
X15409814Y-1859814D01*
X15511271Y-1776552D01*
X15547009Y-1747222D01*
X15703534Y-1663557D01*
X15873373Y-1612037D01*
X15939557Y-1605519D01*
X16005740Y-1599000D01*
X16094260Y-1599000D01*
X16160443Y-1605519D01*
X16160443Y-1605519D01*
G37*
G36*
X29651000Y-3401000D02*
G01*
X27849000Y-3401000D01*
X27849000Y-1599000D01*
X29651000Y-1599000D01*
X29651000Y-3401000D01*
X29651000Y-3401000D01*
G37*
G36*
X26320443Y-1605519D02*
G01*
X26386627Y-1612037D01*
X26556466Y-1663557D01*
X26712991Y-1747222D01*
X26748729Y-1776552D01*
X26850186Y-1859814D01*
X26933448Y-1961271D01*
X26962778Y-1997009D01*
X27046443Y-2153534D01*
X27097963Y-2323373D01*
X27115359Y-2500000D01*
X27097963Y-2676627D01*
X27046443Y-2846466D01*
X26962778Y-3002991D01*
X26933448Y-3038729D01*
X26850186Y-3140186D01*
X26748729Y-3223448D01*
X26712991Y-3252778D01*
X26556466Y-3336443D01*
X26386627Y-3387963D01*
X26320443Y-3394481D01*
X26254260Y-3401000D01*
X26165740Y-3401000D01*
X26099557Y-3394481D01*
X26033373Y-3387963D01*
X25863534Y-3336443D01*
X25707009Y-3252778D01*
X25671271Y-3223448D01*
X25569814Y-3140186D01*
X25486552Y-3038729D01*
X25457222Y-3002991D01*
X25373557Y-2846466D01*
X25322037Y-2676627D01*
X25304641Y-2500000D01*
X25322037Y-2323373D01*
X25373557Y-2153534D01*
X25457222Y-1997009D01*
X25486552Y-1961271D01*
X25569814Y-1859814D01*
X25671271Y-1776552D01*
X25707009Y-1747222D01*
X25863534Y-1663557D01*
X26033373Y-1612037D01*
X26099557Y-1605519D01*
X26165740Y-1599000D01*
X26254260Y-1599000D01*
X26320443Y-1605519D01*
X26320443Y-1605519D01*
G37*
G36*
X23780443Y-1605519D02*
G01*
X23846627Y-1612037D01*
X24016466Y-1663557D01*
X24172991Y-1747222D01*
X24208729Y-1776552D01*
X24310186Y-1859814D01*
X24393448Y-1961271D01*
X24422778Y-1997009D01*
X24506443Y-2153534D01*
X24557963Y-2323373D01*
X24575359Y-2500000D01*
X24557963Y-2676627D01*
X24506443Y-2846466D01*
X24422778Y-3002991D01*
X24393448Y-3038729D01*
X24310186Y-3140186D01*
X24208729Y-3223448D01*
X24172991Y-3252778D01*
X24016466Y-3336443D01*
X23846627Y-3387963D01*
X23780443Y-3394481D01*
X23714260Y-3401000D01*
X23625740Y-3401000D01*
X23559557Y-3394481D01*
X23493373Y-3387963D01*
X23323534Y-3336443D01*
X23167009Y-3252778D01*
X23131271Y-3223448D01*
X23029814Y-3140186D01*
X22946552Y-3038729D01*
X22917222Y-3002991D01*
X22833557Y-2846466D01*
X22782037Y-2676627D01*
X22764641Y-2500000D01*
X22782037Y-2323373D01*
X22833557Y-2153534D01*
X22917222Y-1997009D01*
X22946552Y-1961271D01*
X23029814Y-1859814D01*
X23131271Y-1776552D01*
X23167009Y-1747222D01*
X23323534Y-1663557D01*
X23493373Y-1612037D01*
X23559557Y-1605519D01*
X23625740Y-1599000D01*
X23714260Y-1599000D01*
X23780443Y-1605519D01*
X23780443Y-1605519D01*
G37*
G36*
X21240443Y-1605519D02*
G01*
X21306627Y-1612037D01*
X21476466Y-1663557D01*
X21632991Y-1747222D01*
X21668729Y-1776552D01*
X21770186Y-1859814D01*
X21853448Y-1961271D01*
X21882778Y-1997009D01*
X21966443Y-2153534D01*
X22017963Y-2323373D01*
X22035359Y-2500000D01*
X22017963Y-2676627D01*
X21966443Y-2846466D01*
X21882778Y-3002991D01*
X21853448Y-3038729D01*
X21770186Y-3140186D01*
X21668729Y-3223448D01*
X21632991Y-3252778D01*
X21476466Y-3336443D01*
X21306627Y-3387963D01*
X21240443Y-3394481D01*
X21174260Y-3401000D01*
X21085740Y-3401000D01*
X21019557Y-3394481D01*
X20953373Y-3387963D01*
X20783534Y-3336443D01*
X20627009Y-3252778D01*
X20591271Y-3223448D01*
X20489814Y-3140186D01*
X20406552Y-3038729D01*
X20377222Y-3002991D01*
X20293557Y-2846466D01*
X20242037Y-2676627D01*
X20224641Y-2500000D01*
X20242037Y-2323373D01*
X20293557Y-2153534D01*
X20377222Y-1997009D01*
X20406552Y-1961271D01*
X20489814Y-1859814D01*
X20591271Y-1776552D01*
X20627009Y-1747222D01*
X20783534Y-1663557D01*
X20953373Y-1612037D01*
X21019557Y-1605519D01*
X21085740Y-1599000D01*
X21174260Y-1599000D01*
X21240443Y-1605519D01*
X21240443Y-1605519D01*
G37*
G36*
X18700443Y-1605519D02*
G01*
X18766627Y-1612037D01*
X18936466Y-1663557D01*
X19092991Y-1747222D01*
X19128729Y-1776552D01*
X19230186Y-1859814D01*
X19313448Y-1961271D01*
X19342778Y-1997009D01*
X19426443Y-2153534D01*
X19477963Y-2323373D01*
X19495359Y-2500000D01*
X19477963Y-2676627D01*
X19426443Y-2846466D01*
X19342778Y-3002991D01*
X19313448Y-3038729D01*
X19230186Y-3140186D01*
X19128729Y-3223448D01*
X19092991Y-3252778D01*
X18936466Y-3336443D01*
X18766627Y-3387963D01*
X18700443Y-3394481D01*
X18634260Y-3401000D01*
X18545740Y-3401000D01*
X18479557Y-3394481D01*
X18413373Y-3387963D01*
X18243534Y-3336443D01*
X18087009Y-3252778D01*
X18051271Y-3223448D01*
X17949814Y-3140186D01*
X17866552Y-3038729D01*
X17837222Y-3002991D01*
X17753557Y-2846466D01*
X17702037Y-2676627D01*
X17684641Y-2500000D01*
X17702037Y-2323373D01*
X17753557Y-2153534D01*
X17837222Y-1997009D01*
X17866552Y-1961271D01*
X17949814Y-1859814D01*
X18051271Y-1776552D01*
X18087009Y-1747222D01*
X18243534Y-1663557D01*
X18413373Y-1612037D01*
X18479557Y-1605519D01*
X18545740Y-1599000D01*
X18634260Y-1599000D01*
X18700443Y-1605519D01*
X18700443Y-1605519D01*
G37*
M02*
