G04 #@! TF.GenerationSoftware,KiCad,Pcbnew,(5.1.4)-1*
G04 #@! TF.CreationDate,2019-12-11T22:02:44-05:00*
G04 #@! TF.ProjectId,spacer,73706163-6572-42e6-9b69-6361645f7063,rev?*
G04 #@! TF.SameCoordinates,Original*
G04 #@! TF.FileFunction,Soldermask,Top*
G04 #@! TF.FilePolarity,Negative*
%FSLAX46Y46*%
G04 Gerber Fmt 4.6, Leading zero omitted, Abs format (unit mm)*
G04 Created by KiCad (PCBNEW (5.1.4)-1) date 2019-12-11 22:02:44*
%MOMM*%
%LPD*%
G04 APERTURE LIST*
%ADD10C,0.100000*%
G04 APERTURE END LIST*
D10*
G36*
X95214795Y-93920156D02*
G01*
X95321150Y-93941311D01*
X95521520Y-94024307D01*
X95701844Y-94144795D01*
X95855205Y-94298156D01*
X95975693Y-94478480D01*
X96058689Y-94678851D01*
X96101000Y-94891560D01*
X96101000Y-95108440D01*
X96058689Y-95321149D01*
X95975693Y-95521520D01*
X95855205Y-95701844D01*
X95701844Y-95855205D01*
X95521520Y-95975693D01*
X95321150Y-96058689D01*
X95214794Y-96079845D01*
X95108440Y-96101000D01*
X94891560Y-96101000D01*
X94785206Y-96079845D01*
X94678850Y-96058689D01*
X94578666Y-96017191D01*
X94478480Y-95975693D01*
X94298156Y-95855205D01*
X94144795Y-95701844D01*
X94024307Y-95521520D01*
X93941311Y-95321149D01*
X93899000Y-95108440D01*
X93899000Y-94891560D01*
X93941311Y-94678851D01*
X94024307Y-94478480D01*
X94144795Y-94298156D01*
X94298156Y-94144795D01*
X94478480Y-94024307D01*
X94578666Y-93982809D01*
X94678850Y-93941311D01*
X94785205Y-93920156D01*
X94891560Y-93899000D01*
X95108440Y-93899000D01*
X95214795Y-93920156D01*
X95214795Y-93920156D01*
G37*
G36*
X5214795Y-93920156D02*
G01*
X5321150Y-93941311D01*
X5521520Y-94024307D01*
X5701844Y-94144795D01*
X5855205Y-94298156D01*
X5975693Y-94478480D01*
X6058689Y-94678851D01*
X6101000Y-94891560D01*
X6101000Y-95108440D01*
X6058689Y-95321149D01*
X5975693Y-95521520D01*
X5855205Y-95701844D01*
X5701844Y-95855205D01*
X5521520Y-95975693D01*
X5421334Y-96017191D01*
X5321150Y-96058689D01*
X5214794Y-96079845D01*
X5108440Y-96101000D01*
X4891560Y-96101000D01*
X4785206Y-96079845D01*
X4678850Y-96058689D01*
X4578666Y-96017191D01*
X4478480Y-95975693D01*
X4298156Y-95855205D01*
X4144795Y-95701844D01*
X4024307Y-95521520D01*
X3941311Y-95321149D01*
X3899000Y-95108440D01*
X3899000Y-94891560D01*
X3941311Y-94678851D01*
X4024307Y-94478480D01*
X4144795Y-94298156D01*
X4298156Y-94144795D01*
X4478480Y-94024307D01*
X4678850Y-93941311D01*
X4785205Y-93920156D01*
X4891560Y-93899000D01*
X5108440Y-93899000D01*
X5214795Y-93920156D01*
X5214795Y-93920156D01*
G37*
G36*
X57390175Y-81348585D02*
G01*
X57689728Y-81408170D01*
X58254074Y-81641930D01*
X58761972Y-81981296D01*
X59193904Y-82413228D01*
X59533270Y-82921126D01*
X59767030Y-83485472D01*
X59886200Y-84084578D01*
X59886200Y-84695422D01*
X59767030Y-85294528D01*
X59533270Y-85858874D01*
X59193904Y-86366772D01*
X58761972Y-86798704D01*
X58254074Y-87138070D01*
X57689728Y-87371830D01*
X57390175Y-87431415D01*
X57090623Y-87491000D01*
X56479777Y-87491000D01*
X56180225Y-87431415D01*
X55880672Y-87371830D01*
X55316326Y-87138070D01*
X54808428Y-86798704D01*
X54376496Y-86366772D01*
X54037130Y-85858874D01*
X53803370Y-85294528D01*
X53684200Y-84695422D01*
X53684200Y-84084578D01*
X53803370Y-83485472D01*
X54037130Y-82921126D01*
X54376496Y-82413228D01*
X54808428Y-81981296D01*
X55316326Y-81641930D01*
X55880672Y-81408170D01*
X56180225Y-81348585D01*
X56479777Y-81289000D01*
X57090623Y-81289000D01*
X57390175Y-81348585D01*
X57390175Y-81348585D01*
G37*
G36*
X77964175Y-81348585D02*
G01*
X78263728Y-81408170D01*
X78828074Y-81641930D01*
X79335972Y-81981296D01*
X79767904Y-82413228D01*
X80107270Y-82921126D01*
X80341030Y-83485472D01*
X80460200Y-84084578D01*
X80460200Y-84695422D01*
X80341030Y-85294528D01*
X80107270Y-85858874D01*
X79767904Y-86366772D01*
X79335972Y-86798704D01*
X78828074Y-87138070D01*
X78263728Y-87371830D01*
X77964175Y-87431415D01*
X77664623Y-87491000D01*
X77053777Y-87491000D01*
X76754225Y-87431415D01*
X76454672Y-87371830D01*
X75890326Y-87138070D01*
X75382428Y-86798704D01*
X74950496Y-86366772D01*
X74611130Y-85858874D01*
X74377370Y-85294528D01*
X74258200Y-84695422D01*
X74258200Y-84084578D01*
X74377370Y-83485472D01*
X74611130Y-82921126D01*
X74950496Y-82413228D01*
X75382428Y-81981296D01*
X75890326Y-81641930D01*
X76454672Y-81408170D01*
X76754225Y-81348585D01*
X77053777Y-81289000D01*
X77664623Y-81289000D01*
X77964175Y-81348585D01*
X77964175Y-81348585D01*
G37*
G36*
X71106175Y-81348585D02*
G01*
X71405728Y-81408170D01*
X71970074Y-81641930D01*
X72477972Y-81981296D01*
X72909904Y-82413228D01*
X73249270Y-82921126D01*
X73483030Y-83485472D01*
X73602200Y-84084578D01*
X73602200Y-84695422D01*
X73483030Y-85294528D01*
X73249270Y-85858874D01*
X72909904Y-86366772D01*
X72477972Y-86798704D01*
X71970074Y-87138070D01*
X71405728Y-87371830D01*
X71106175Y-87431415D01*
X70806623Y-87491000D01*
X70195777Y-87491000D01*
X69896225Y-87431415D01*
X69596672Y-87371830D01*
X69032326Y-87138070D01*
X68524428Y-86798704D01*
X68092496Y-86366772D01*
X67753130Y-85858874D01*
X67519370Y-85294528D01*
X67400200Y-84695422D01*
X67400200Y-84084578D01*
X67519370Y-83485472D01*
X67753130Y-82921126D01*
X68092496Y-82413228D01*
X68524428Y-81981296D01*
X69032326Y-81641930D01*
X69596672Y-81408170D01*
X69896225Y-81348585D01*
X70195777Y-81289000D01*
X70806623Y-81289000D01*
X71106175Y-81348585D01*
X71106175Y-81348585D01*
G37*
G36*
X64248175Y-81348585D02*
G01*
X64547728Y-81408170D01*
X65112074Y-81641930D01*
X65619972Y-81981296D01*
X66051904Y-82413228D01*
X66391270Y-82921126D01*
X66625030Y-83485472D01*
X66744200Y-84084578D01*
X66744200Y-84695422D01*
X66625030Y-85294528D01*
X66391270Y-85858874D01*
X66051904Y-86366772D01*
X65619972Y-86798704D01*
X65112074Y-87138070D01*
X64547728Y-87371830D01*
X64248175Y-87431415D01*
X63948623Y-87491000D01*
X63337777Y-87491000D01*
X63038225Y-87431415D01*
X62738672Y-87371830D01*
X62174326Y-87138070D01*
X61666428Y-86798704D01*
X61234496Y-86366772D01*
X60895130Y-85858874D01*
X60661370Y-85294528D01*
X60542200Y-84695422D01*
X60542200Y-84084578D01*
X60661370Y-83485472D01*
X60895130Y-82921126D01*
X61234496Y-82413228D01*
X61666428Y-81981296D01*
X62174326Y-81641930D01*
X62738672Y-81408170D01*
X63038225Y-81348585D01*
X63337777Y-81289000D01*
X63948623Y-81289000D01*
X64248175Y-81348585D01*
X64248175Y-81348585D01*
G37*
G36*
X50532175Y-81348585D02*
G01*
X50831728Y-81408170D01*
X51396074Y-81641930D01*
X51903972Y-81981296D01*
X52335904Y-82413228D01*
X52675270Y-82921126D01*
X52909030Y-83485472D01*
X53028200Y-84084578D01*
X53028200Y-84695422D01*
X52909030Y-85294528D01*
X52675270Y-85858874D01*
X52335904Y-86366772D01*
X51903972Y-86798704D01*
X51396074Y-87138070D01*
X50831728Y-87371830D01*
X50532175Y-87431415D01*
X50232623Y-87491000D01*
X49621777Y-87491000D01*
X49322225Y-87431415D01*
X49022672Y-87371830D01*
X48458326Y-87138070D01*
X47950428Y-86798704D01*
X47518496Y-86366772D01*
X47179130Y-85858874D01*
X46945370Y-85294528D01*
X46826200Y-84695422D01*
X46826200Y-84084578D01*
X46945370Y-83485472D01*
X47179130Y-82921126D01*
X47518496Y-82413228D01*
X47950428Y-81981296D01*
X48458326Y-81641930D01*
X49022672Y-81408170D01*
X49322225Y-81348585D01*
X49621777Y-81289000D01*
X50232623Y-81289000D01*
X50532175Y-81348585D01*
X50532175Y-81348585D01*
G37*
G36*
X43674175Y-81348585D02*
G01*
X43973728Y-81408170D01*
X44538074Y-81641930D01*
X45045972Y-81981296D01*
X45477904Y-82413228D01*
X45817270Y-82921126D01*
X46051030Y-83485472D01*
X46170200Y-84084578D01*
X46170200Y-84695422D01*
X46051030Y-85294528D01*
X45817270Y-85858874D01*
X45477904Y-86366772D01*
X45045972Y-86798704D01*
X44538074Y-87138070D01*
X43973728Y-87371830D01*
X43674175Y-87431415D01*
X43374623Y-87491000D01*
X42763777Y-87491000D01*
X42464225Y-87431415D01*
X42164672Y-87371830D01*
X41600326Y-87138070D01*
X41092428Y-86798704D01*
X40660496Y-86366772D01*
X40321130Y-85858874D01*
X40087370Y-85294528D01*
X39968200Y-84695422D01*
X39968200Y-84084578D01*
X40087370Y-83485472D01*
X40321130Y-82921126D01*
X40660496Y-82413228D01*
X41092428Y-81981296D01*
X41600326Y-81641930D01*
X42164672Y-81408170D01*
X42464225Y-81348585D01*
X42763777Y-81289000D01*
X43374623Y-81289000D01*
X43674175Y-81348585D01*
X43674175Y-81348585D01*
G37*
G36*
X36816175Y-81348585D02*
G01*
X37115728Y-81408170D01*
X37680074Y-81641930D01*
X38187972Y-81981296D01*
X38619904Y-82413228D01*
X38959270Y-82921126D01*
X39193030Y-83485472D01*
X39312200Y-84084578D01*
X39312200Y-84695422D01*
X39193030Y-85294528D01*
X38959270Y-85858874D01*
X38619904Y-86366772D01*
X38187972Y-86798704D01*
X37680074Y-87138070D01*
X37115728Y-87371830D01*
X36816175Y-87431415D01*
X36516623Y-87491000D01*
X35905777Y-87491000D01*
X35606225Y-87431415D01*
X35306672Y-87371830D01*
X34742326Y-87138070D01*
X34234428Y-86798704D01*
X33802496Y-86366772D01*
X33463130Y-85858874D01*
X33229370Y-85294528D01*
X33110200Y-84695422D01*
X33110200Y-84084578D01*
X33229370Y-83485472D01*
X33463130Y-82921126D01*
X33802496Y-82413228D01*
X34234428Y-81981296D01*
X34742326Y-81641930D01*
X35306672Y-81408170D01*
X35606225Y-81348585D01*
X35905777Y-81289000D01*
X36516623Y-81289000D01*
X36816175Y-81348585D01*
X36816175Y-81348585D01*
G37*
G36*
X29958175Y-81348585D02*
G01*
X30257728Y-81408170D01*
X30822074Y-81641930D01*
X31329972Y-81981296D01*
X31761904Y-82413228D01*
X32101270Y-82921126D01*
X32335030Y-83485472D01*
X32454200Y-84084578D01*
X32454200Y-84695422D01*
X32335030Y-85294528D01*
X32101270Y-85858874D01*
X31761904Y-86366772D01*
X31329972Y-86798704D01*
X30822074Y-87138070D01*
X30257728Y-87371830D01*
X29958175Y-87431415D01*
X29658623Y-87491000D01*
X29047777Y-87491000D01*
X28748225Y-87431415D01*
X28448672Y-87371830D01*
X27884326Y-87138070D01*
X27376428Y-86798704D01*
X26944496Y-86366772D01*
X26605130Y-85858874D01*
X26371370Y-85294528D01*
X26252200Y-84695422D01*
X26252200Y-84084578D01*
X26371370Y-83485472D01*
X26605130Y-82921126D01*
X26944496Y-82413228D01*
X27376428Y-81981296D01*
X27884326Y-81641930D01*
X28448672Y-81408170D01*
X28748225Y-81348585D01*
X29047777Y-81289000D01*
X29658623Y-81289000D01*
X29958175Y-81348585D01*
X29958175Y-81348585D01*
G37*
G36*
X23100175Y-81348585D02*
G01*
X23399728Y-81408170D01*
X23964074Y-81641930D01*
X24471972Y-81981296D01*
X24903904Y-82413228D01*
X25243270Y-82921126D01*
X25477030Y-83485472D01*
X25596200Y-84084578D01*
X25596200Y-84695422D01*
X25477030Y-85294528D01*
X25243270Y-85858874D01*
X24903904Y-86366772D01*
X24471972Y-86798704D01*
X23964074Y-87138070D01*
X23399728Y-87371830D01*
X23100175Y-87431415D01*
X22800623Y-87491000D01*
X22189777Y-87491000D01*
X21890225Y-87431415D01*
X21590672Y-87371830D01*
X21026326Y-87138070D01*
X20518428Y-86798704D01*
X20086496Y-86366772D01*
X19747130Y-85858874D01*
X19513370Y-85294528D01*
X19394200Y-84695422D01*
X19394200Y-84084578D01*
X19513370Y-83485472D01*
X19747130Y-82921126D01*
X20086496Y-82413228D01*
X20518428Y-81981296D01*
X21026326Y-81641930D01*
X21590672Y-81408170D01*
X21890225Y-81348585D01*
X22189777Y-81289000D01*
X22800623Y-81289000D01*
X23100175Y-81348585D01*
X23100175Y-81348585D01*
G37*
G36*
X16242175Y-81348585D02*
G01*
X16541728Y-81408170D01*
X17106074Y-81641930D01*
X17613972Y-81981296D01*
X18045904Y-82413228D01*
X18385270Y-82921126D01*
X18619030Y-83485472D01*
X18738200Y-84084578D01*
X18738200Y-84695422D01*
X18619030Y-85294528D01*
X18385270Y-85858874D01*
X18045904Y-86366772D01*
X17613972Y-86798704D01*
X17106074Y-87138070D01*
X16541728Y-87371830D01*
X16242175Y-87431415D01*
X15942623Y-87491000D01*
X15331777Y-87491000D01*
X15032225Y-87431415D01*
X14732672Y-87371830D01*
X14168326Y-87138070D01*
X13660428Y-86798704D01*
X13228496Y-86366772D01*
X12889130Y-85858874D01*
X12655370Y-85294528D01*
X12536200Y-84695422D01*
X12536200Y-84084578D01*
X12655370Y-83485472D01*
X12889130Y-82921126D01*
X13228496Y-82413228D01*
X13660428Y-81981296D01*
X14168326Y-81641930D01*
X14732672Y-81408170D01*
X15032225Y-81348585D01*
X15331777Y-81289000D01*
X15942623Y-81289000D01*
X16242175Y-81348585D01*
X16242175Y-81348585D01*
G37*
G36*
X84822175Y-81348585D02*
G01*
X85121728Y-81408170D01*
X85686074Y-81641930D01*
X86193972Y-81981296D01*
X86625904Y-82413228D01*
X86965270Y-82921126D01*
X87199030Y-83485472D01*
X87318200Y-84084578D01*
X87318200Y-84695422D01*
X87199030Y-85294528D01*
X86965270Y-85858874D01*
X86625904Y-86366772D01*
X86193972Y-86798704D01*
X85686074Y-87138070D01*
X85121728Y-87371830D01*
X84822175Y-87431415D01*
X84522623Y-87491000D01*
X83911777Y-87491000D01*
X83612225Y-87431415D01*
X83312672Y-87371830D01*
X82748326Y-87138070D01*
X82240428Y-86798704D01*
X81808496Y-86366772D01*
X81469130Y-85858874D01*
X81235370Y-85294528D01*
X81116200Y-84695422D01*
X81116200Y-84084578D01*
X81235370Y-83485472D01*
X81469130Y-82921126D01*
X81808496Y-82413228D01*
X82240428Y-81981296D01*
X82748326Y-81641930D01*
X83312672Y-81408170D01*
X83612225Y-81348585D01*
X83911777Y-81289000D01*
X84522623Y-81289000D01*
X84822175Y-81348585D01*
X84822175Y-81348585D01*
G37*
G36*
X64248175Y-73728585D02*
G01*
X64547728Y-73788170D01*
X65112074Y-74021930D01*
X65619972Y-74361296D01*
X66051904Y-74793228D01*
X66391270Y-75301126D01*
X66625030Y-75865472D01*
X66744200Y-76464578D01*
X66744200Y-77075422D01*
X66625030Y-77674528D01*
X66391270Y-78238874D01*
X66051904Y-78746772D01*
X65619972Y-79178704D01*
X65112074Y-79518070D01*
X64547728Y-79751830D01*
X64248175Y-79811415D01*
X63948623Y-79871000D01*
X63337777Y-79871000D01*
X63038225Y-79811415D01*
X62738672Y-79751830D01*
X62174326Y-79518070D01*
X61666428Y-79178704D01*
X61234496Y-78746772D01*
X60895130Y-78238874D01*
X60661370Y-77674528D01*
X60542200Y-77075422D01*
X60542200Y-76464578D01*
X60661370Y-75865472D01*
X60895130Y-75301126D01*
X61234496Y-74793228D01*
X61666428Y-74361296D01*
X62174326Y-74021930D01*
X62738672Y-73788170D01*
X63038225Y-73728585D01*
X63337777Y-73669000D01*
X63948623Y-73669000D01*
X64248175Y-73728585D01*
X64248175Y-73728585D01*
G37*
G36*
X16242175Y-73728585D02*
G01*
X16541728Y-73788170D01*
X17106074Y-74021930D01*
X17613972Y-74361296D01*
X18045904Y-74793228D01*
X18385270Y-75301126D01*
X18619030Y-75865472D01*
X18738200Y-76464578D01*
X18738200Y-77075422D01*
X18619030Y-77674528D01*
X18385270Y-78238874D01*
X18045904Y-78746772D01*
X17613972Y-79178704D01*
X17106074Y-79518070D01*
X16541728Y-79751830D01*
X16242175Y-79811415D01*
X15942623Y-79871000D01*
X15331777Y-79871000D01*
X15032225Y-79811415D01*
X14732672Y-79751830D01*
X14168326Y-79518070D01*
X13660428Y-79178704D01*
X13228496Y-78746772D01*
X12889130Y-78238874D01*
X12655370Y-77674528D01*
X12536200Y-77075422D01*
X12536200Y-76464578D01*
X12655370Y-75865472D01*
X12889130Y-75301126D01*
X13228496Y-74793228D01*
X13660428Y-74361296D01*
X14168326Y-74021930D01*
X14732672Y-73788170D01*
X15032225Y-73728585D01*
X15331777Y-73669000D01*
X15942623Y-73669000D01*
X16242175Y-73728585D01*
X16242175Y-73728585D01*
G37*
G36*
X23100175Y-73728585D02*
G01*
X23399728Y-73788170D01*
X23964074Y-74021930D01*
X24471972Y-74361296D01*
X24903904Y-74793228D01*
X25243270Y-75301126D01*
X25477030Y-75865472D01*
X25596200Y-76464578D01*
X25596200Y-77075422D01*
X25477030Y-77674528D01*
X25243270Y-78238874D01*
X24903904Y-78746772D01*
X24471972Y-79178704D01*
X23964074Y-79518070D01*
X23399728Y-79751830D01*
X23100175Y-79811415D01*
X22800623Y-79871000D01*
X22189777Y-79871000D01*
X21890225Y-79811415D01*
X21590672Y-79751830D01*
X21026326Y-79518070D01*
X20518428Y-79178704D01*
X20086496Y-78746772D01*
X19747130Y-78238874D01*
X19513370Y-77674528D01*
X19394200Y-77075422D01*
X19394200Y-76464578D01*
X19513370Y-75865472D01*
X19747130Y-75301126D01*
X20086496Y-74793228D01*
X20518428Y-74361296D01*
X21026326Y-74021930D01*
X21590672Y-73788170D01*
X21890225Y-73728585D01*
X22189777Y-73669000D01*
X22800623Y-73669000D01*
X23100175Y-73728585D01*
X23100175Y-73728585D01*
G37*
G36*
X29958175Y-73728585D02*
G01*
X30257728Y-73788170D01*
X30822074Y-74021930D01*
X31329972Y-74361296D01*
X31761904Y-74793228D01*
X32101270Y-75301126D01*
X32335030Y-75865472D01*
X32454200Y-76464578D01*
X32454200Y-77075422D01*
X32335030Y-77674528D01*
X32101270Y-78238874D01*
X31761904Y-78746772D01*
X31329972Y-79178704D01*
X30822074Y-79518070D01*
X30257728Y-79751830D01*
X29958175Y-79811415D01*
X29658623Y-79871000D01*
X29047777Y-79871000D01*
X28748225Y-79811415D01*
X28448672Y-79751830D01*
X27884326Y-79518070D01*
X27376428Y-79178704D01*
X26944496Y-78746772D01*
X26605130Y-78238874D01*
X26371370Y-77674528D01*
X26252200Y-77075422D01*
X26252200Y-76464578D01*
X26371370Y-75865472D01*
X26605130Y-75301126D01*
X26944496Y-74793228D01*
X27376428Y-74361296D01*
X27884326Y-74021930D01*
X28448672Y-73788170D01*
X28748225Y-73728585D01*
X29047777Y-73669000D01*
X29658623Y-73669000D01*
X29958175Y-73728585D01*
X29958175Y-73728585D01*
G37*
G36*
X36816175Y-73728585D02*
G01*
X37115728Y-73788170D01*
X37680074Y-74021930D01*
X38187972Y-74361296D01*
X38619904Y-74793228D01*
X38959270Y-75301126D01*
X39193030Y-75865472D01*
X39312200Y-76464578D01*
X39312200Y-77075422D01*
X39193030Y-77674528D01*
X38959270Y-78238874D01*
X38619904Y-78746772D01*
X38187972Y-79178704D01*
X37680074Y-79518070D01*
X37115728Y-79751830D01*
X36816175Y-79811415D01*
X36516623Y-79871000D01*
X35905777Y-79871000D01*
X35606225Y-79811415D01*
X35306672Y-79751830D01*
X34742326Y-79518070D01*
X34234428Y-79178704D01*
X33802496Y-78746772D01*
X33463130Y-78238874D01*
X33229370Y-77674528D01*
X33110200Y-77075422D01*
X33110200Y-76464578D01*
X33229370Y-75865472D01*
X33463130Y-75301126D01*
X33802496Y-74793228D01*
X34234428Y-74361296D01*
X34742326Y-74021930D01*
X35306672Y-73788170D01*
X35606225Y-73728585D01*
X35905777Y-73669000D01*
X36516623Y-73669000D01*
X36816175Y-73728585D01*
X36816175Y-73728585D01*
G37*
G36*
X43674175Y-73728585D02*
G01*
X43973728Y-73788170D01*
X44538074Y-74021930D01*
X45045972Y-74361296D01*
X45477904Y-74793228D01*
X45817270Y-75301126D01*
X46051030Y-75865472D01*
X46170200Y-76464578D01*
X46170200Y-77075422D01*
X46051030Y-77674528D01*
X45817270Y-78238874D01*
X45477904Y-78746772D01*
X45045972Y-79178704D01*
X44538074Y-79518070D01*
X43973728Y-79751830D01*
X43674175Y-79811415D01*
X43374623Y-79871000D01*
X42763777Y-79871000D01*
X42464225Y-79811415D01*
X42164672Y-79751830D01*
X41600326Y-79518070D01*
X41092428Y-79178704D01*
X40660496Y-78746772D01*
X40321130Y-78238874D01*
X40087370Y-77674528D01*
X39968200Y-77075422D01*
X39968200Y-76464578D01*
X40087370Y-75865472D01*
X40321130Y-75301126D01*
X40660496Y-74793228D01*
X41092428Y-74361296D01*
X41600326Y-74021930D01*
X42164672Y-73788170D01*
X42464225Y-73728585D01*
X42763777Y-73669000D01*
X43374623Y-73669000D01*
X43674175Y-73728585D01*
X43674175Y-73728585D01*
G37*
G36*
X50532175Y-73728585D02*
G01*
X50831728Y-73788170D01*
X51396074Y-74021930D01*
X51903972Y-74361296D01*
X52335904Y-74793228D01*
X52675270Y-75301126D01*
X52909030Y-75865472D01*
X53028200Y-76464578D01*
X53028200Y-77075422D01*
X52909030Y-77674528D01*
X52675270Y-78238874D01*
X52335904Y-78746772D01*
X51903972Y-79178704D01*
X51396074Y-79518070D01*
X50831728Y-79751830D01*
X50532175Y-79811415D01*
X50232623Y-79871000D01*
X49621777Y-79871000D01*
X49322225Y-79811415D01*
X49022672Y-79751830D01*
X48458326Y-79518070D01*
X47950428Y-79178704D01*
X47518496Y-78746772D01*
X47179130Y-78238874D01*
X46945370Y-77674528D01*
X46826200Y-77075422D01*
X46826200Y-76464578D01*
X46945370Y-75865472D01*
X47179130Y-75301126D01*
X47518496Y-74793228D01*
X47950428Y-74361296D01*
X48458326Y-74021930D01*
X49022672Y-73788170D01*
X49322225Y-73728585D01*
X49621777Y-73669000D01*
X50232623Y-73669000D01*
X50532175Y-73728585D01*
X50532175Y-73728585D01*
G37*
G36*
X57390175Y-73728585D02*
G01*
X57689728Y-73788170D01*
X58254074Y-74021930D01*
X58761972Y-74361296D01*
X59193904Y-74793228D01*
X59533270Y-75301126D01*
X59767030Y-75865472D01*
X59886200Y-76464578D01*
X59886200Y-77075422D01*
X59767030Y-77674528D01*
X59533270Y-78238874D01*
X59193904Y-78746772D01*
X58761972Y-79178704D01*
X58254074Y-79518070D01*
X57689728Y-79751830D01*
X57390175Y-79811415D01*
X57090623Y-79871000D01*
X56479777Y-79871000D01*
X56180225Y-79811415D01*
X55880672Y-79751830D01*
X55316326Y-79518070D01*
X54808428Y-79178704D01*
X54376496Y-78746772D01*
X54037130Y-78238874D01*
X53803370Y-77674528D01*
X53684200Y-77075422D01*
X53684200Y-76464578D01*
X53803370Y-75865472D01*
X54037130Y-75301126D01*
X54376496Y-74793228D01*
X54808428Y-74361296D01*
X55316326Y-74021930D01*
X55880672Y-73788170D01*
X56180225Y-73728585D01*
X56479777Y-73669000D01*
X57090623Y-73669000D01*
X57390175Y-73728585D01*
X57390175Y-73728585D01*
G37*
G36*
X71106175Y-73728585D02*
G01*
X71405728Y-73788170D01*
X71970074Y-74021930D01*
X72477972Y-74361296D01*
X72909904Y-74793228D01*
X73249270Y-75301126D01*
X73483030Y-75865472D01*
X73602200Y-76464578D01*
X73602200Y-77075422D01*
X73483030Y-77674528D01*
X73249270Y-78238874D01*
X72909904Y-78746772D01*
X72477972Y-79178704D01*
X71970074Y-79518070D01*
X71405728Y-79751830D01*
X71106175Y-79811415D01*
X70806623Y-79871000D01*
X70195777Y-79871000D01*
X69896225Y-79811415D01*
X69596672Y-79751830D01*
X69032326Y-79518070D01*
X68524428Y-79178704D01*
X68092496Y-78746772D01*
X67753130Y-78238874D01*
X67519370Y-77674528D01*
X67400200Y-77075422D01*
X67400200Y-76464578D01*
X67519370Y-75865472D01*
X67753130Y-75301126D01*
X68092496Y-74793228D01*
X68524428Y-74361296D01*
X69032326Y-74021930D01*
X69596672Y-73788170D01*
X69896225Y-73728585D01*
X70195777Y-73669000D01*
X70806623Y-73669000D01*
X71106175Y-73728585D01*
X71106175Y-73728585D01*
G37*
G36*
X84822175Y-73728585D02*
G01*
X85121728Y-73788170D01*
X85686074Y-74021930D01*
X86193972Y-74361296D01*
X86625904Y-74793228D01*
X86965270Y-75301126D01*
X87199030Y-75865472D01*
X87318200Y-76464578D01*
X87318200Y-77075422D01*
X87199030Y-77674528D01*
X86965270Y-78238874D01*
X86625904Y-78746772D01*
X86193972Y-79178704D01*
X85686074Y-79518070D01*
X85121728Y-79751830D01*
X84822175Y-79811415D01*
X84522623Y-79871000D01*
X83911777Y-79871000D01*
X83612225Y-79811415D01*
X83312672Y-79751830D01*
X82748326Y-79518070D01*
X82240428Y-79178704D01*
X81808496Y-78746772D01*
X81469130Y-78238874D01*
X81235370Y-77674528D01*
X81116200Y-77075422D01*
X81116200Y-76464578D01*
X81235370Y-75865472D01*
X81469130Y-75301126D01*
X81808496Y-74793228D01*
X82240428Y-74361296D01*
X82748326Y-74021930D01*
X83312672Y-73788170D01*
X83612225Y-73728585D01*
X83911777Y-73669000D01*
X84522623Y-73669000D01*
X84822175Y-73728585D01*
X84822175Y-73728585D01*
G37*
G36*
X77964175Y-73728585D02*
G01*
X78263728Y-73788170D01*
X78828074Y-74021930D01*
X79335972Y-74361296D01*
X79767904Y-74793228D01*
X80107270Y-75301126D01*
X80341030Y-75865472D01*
X80460200Y-76464578D01*
X80460200Y-77075422D01*
X80341030Y-77674528D01*
X80107270Y-78238874D01*
X79767904Y-78746772D01*
X79335972Y-79178704D01*
X78828074Y-79518070D01*
X78263728Y-79751830D01*
X77964175Y-79811415D01*
X77664623Y-79871000D01*
X77053777Y-79871000D01*
X76754225Y-79811415D01*
X76454672Y-79751830D01*
X75890326Y-79518070D01*
X75382428Y-79178704D01*
X74950496Y-78746772D01*
X74611130Y-78238874D01*
X74377370Y-77674528D01*
X74258200Y-77075422D01*
X74258200Y-76464578D01*
X74377370Y-75865472D01*
X74611130Y-75301126D01*
X74950496Y-74793228D01*
X75382428Y-74361296D01*
X75890326Y-74021930D01*
X76454672Y-73788170D01*
X76754225Y-73728585D01*
X77053777Y-73669000D01*
X77664623Y-73669000D01*
X77964175Y-73728585D01*
X77964175Y-73728585D01*
G37*
G36*
X36816175Y-66108585D02*
G01*
X37115728Y-66168170D01*
X37680074Y-66401930D01*
X38187972Y-66741296D01*
X38619904Y-67173228D01*
X38959270Y-67681126D01*
X39193030Y-68245472D01*
X39312200Y-68844578D01*
X39312200Y-69455422D01*
X39193030Y-70054528D01*
X38959270Y-70618874D01*
X38619904Y-71126772D01*
X38187972Y-71558704D01*
X37680074Y-71898070D01*
X37115728Y-72131830D01*
X36816175Y-72191415D01*
X36516623Y-72251000D01*
X35905777Y-72251000D01*
X35606225Y-72191415D01*
X35306672Y-72131830D01*
X34742326Y-71898070D01*
X34234428Y-71558704D01*
X33802496Y-71126772D01*
X33463130Y-70618874D01*
X33229370Y-70054528D01*
X33110200Y-69455422D01*
X33110200Y-68844578D01*
X33229370Y-68245472D01*
X33463130Y-67681126D01*
X33802496Y-67173228D01*
X34234428Y-66741296D01*
X34742326Y-66401930D01*
X35306672Y-66168170D01*
X35606225Y-66108585D01*
X35905777Y-66049000D01*
X36516623Y-66049000D01*
X36816175Y-66108585D01*
X36816175Y-66108585D01*
G37*
G36*
X16242175Y-66108585D02*
G01*
X16541728Y-66168170D01*
X17106074Y-66401930D01*
X17613972Y-66741296D01*
X18045904Y-67173228D01*
X18385270Y-67681126D01*
X18619030Y-68245472D01*
X18738200Y-68844578D01*
X18738200Y-69455422D01*
X18619030Y-70054528D01*
X18385270Y-70618874D01*
X18045904Y-71126772D01*
X17613972Y-71558704D01*
X17106074Y-71898070D01*
X16541728Y-72131830D01*
X16242175Y-72191415D01*
X15942623Y-72251000D01*
X15331777Y-72251000D01*
X15032225Y-72191415D01*
X14732672Y-72131830D01*
X14168326Y-71898070D01*
X13660428Y-71558704D01*
X13228496Y-71126772D01*
X12889130Y-70618874D01*
X12655370Y-70054528D01*
X12536200Y-69455422D01*
X12536200Y-68844578D01*
X12655370Y-68245472D01*
X12889130Y-67681126D01*
X13228496Y-67173228D01*
X13660428Y-66741296D01*
X14168326Y-66401930D01*
X14732672Y-66168170D01*
X15032225Y-66108585D01*
X15331777Y-66049000D01*
X15942623Y-66049000D01*
X16242175Y-66108585D01*
X16242175Y-66108585D01*
G37*
G36*
X23100175Y-66108585D02*
G01*
X23399728Y-66168170D01*
X23964074Y-66401930D01*
X24471972Y-66741296D01*
X24903904Y-67173228D01*
X25243270Y-67681126D01*
X25477030Y-68245472D01*
X25596200Y-68844578D01*
X25596200Y-69455422D01*
X25477030Y-70054528D01*
X25243270Y-70618874D01*
X24903904Y-71126772D01*
X24471972Y-71558704D01*
X23964074Y-71898070D01*
X23399728Y-72131830D01*
X23100175Y-72191415D01*
X22800623Y-72251000D01*
X22189777Y-72251000D01*
X21890225Y-72191415D01*
X21590672Y-72131830D01*
X21026326Y-71898070D01*
X20518428Y-71558704D01*
X20086496Y-71126772D01*
X19747130Y-70618874D01*
X19513370Y-70054528D01*
X19394200Y-69455422D01*
X19394200Y-68844578D01*
X19513370Y-68245472D01*
X19747130Y-67681126D01*
X20086496Y-67173228D01*
X20518428Y-66741296D01*
X21026326Y-66401930D01*
X21590672Y-66168170D01*
X21890225Y-66108585D01*
X22189777Y-66049000D01*
X22800623Y-66049000D01*
X23100175Y-66108585D01*
X23100175Y-66108585D01*
G37*
G36*
X29958175Y-66108585D02*
G01*
X30257728Y-66168170D01*
X30822074Y-66401930D01*
X31329972Y-66741296D01*
X31761904Y-67173228D01*
X32101270Y-67681126D01*
X32335030Y-68245472D01*
X32454200Y-68844578D01*
X32454200Y-69455422D01*
X32335030Y-70054528D01*
X32101270Y-70618874D01*
X31761904Y-71126772D01*
X31329972Y-71558704D01*
X30822074Y-71898070D01*
X30257728Y-72131830D01*
X29958175Y-72191415D01*
X29658623Y-72251000D01*
X29047777Y-72251000D01*
X28748225Y-72191415D01*
X28448672Y-72131830D01*
X27884326Y-71898070D01*
X27376428Y-71558704D01*
X26944496Y-71126772D01*
X26605130Y-70618874D01*
X26371370Y-70054528D01*
X26252200Y-69455422D01*
X26252200Y-68844578D01*
X26371370Y-68245472D01*
X26605130Y-67681126D01*
X26944496Y-67173228D01*
X27376428Y-66741296D01*
X27884326Y-66401930D01*
X28448672Y-66168170D01*
X28748225Y-66108585D01*
X29047777Y-66049000D01*
X29658623Y-66049000D01*
X29958175Y-66108585D01*
X29958175Y-66108585D01*
G37*
G36*
X43674175Y-66108585D02*
G01*
X43973728Y-66168170D01*
X44538074Y-66401930D01*
X45045972Y-66741296D01*
X45477904Y-67173228D01*
X45817270Y-67681126D01*
X46051030Y-68245472D01*
X46170200Y-68844578D01*
X46170200Y-69455422D01*
X46051030Y-70054528D01*
X45817270Y-70618874D01*
X45477904Y-71126772D01*
X45045972Y-71558704D01*
X44538074Y-71898070D01*
X43973728Y-72131830D01*
X43674175Y-72191415D01*
X43374623Y-72251000D01*
X42763777Y-72251000D01*
X42464225Y-72191415D01*
X42164672Y-72131830D01*
X41600326Y-71898070D01*
X41092428Y-71558704D01*
X40660496Y-71126772D01*
X40321130Y-70618874D01*
X40087370Y-70054528D01*
X39968200Y-69455422D01*
X39968200Y-68844578D01*
X40087370Y-68245472D01*
X40321130Y-67681126D01*
X40660496Y-67173228D01*
X41092428Y-66741296D01*
X41600326Y-66401930D01*
X42164672Y-66168170D01*
X42464225Y-66108585D01*
X42763777Y-66049000D01*
X43374623Y-66049000D01*
X43674175Y-66108585D01*
X43674175Y-66108585D01*
G37*
G36*
X57390175Y-66108585D02*
G01*
X57689728Y-66168170D01*
X58254074Y-66401930D01*
X58761972Y-66741296D01*
X59193904Y-67173228D01*
X59533270Y-67681126D01*
X59767030Y-68245472D01*
X59886200Y-68844578D01*
X59886200Y-69455422D01*
X59767030Y-70054528D01*
X59533270Y-70618874D01*
X59193904Y-71126772D01*
X58761972Y-71558704D01*
X58254074Y-71898070D01*
X57689728Y-72131830D01*
X57390175Y-72191415D01*
X57090623Y-72251000D01*
X56479777Y-72251000D01*
X56180225Y-72191415D01*
X55880672Y-72131830D01*
X55316326Y-71898070D01*
X54808428Y-71558704D01*
X54376496Y-71126772D01*
X54037130Y-70618874D01*
X53803370Y-70054528D01*
X53684200Y-69455422D01*
X53684200Y-68844578D01*
X53803370Y-68245472D01*
X54037130Y-67681126D01*
X54376496Y-67173228D01*
X54808428Y-66741296D01*
X55316326Y-66401930D01*
X55880672Y-66168170D01*
X56180225Y-66108585D01*
X56479777Y-66049000D01*
X57090623Y-66049000D01*
X57390175Y-66108585D01*
X57390175Y-66108585D01*
G37*
G36*
X71106175Y-66108585D02*
G01*
X71405728Y-66168170D01*
X71970074Y-66401930D01*
X72477972Y-66741296D01*
X72909904Y-67173228D01*
X73249270Y-67681126D01*
X73483030Y-68245472D01*
X73602200Y-68844578D01*
X73602200Y-69455422D01*
X73483030Y-70054528D01*
X73249270Y-70618874D01*
X72909904Y-71126772D01*
X72477972Y-71558704D01*
X71970074Y-71898070D01*
X71405728Y-72131830D01*
X71106175Y-72191415D01*
X70806623Y-72251000D01*
X70195777Y-72251000D01*
X69896225Y-72191415D01*
X69596672Y-72131830D01*
X69032326Y-71898070D01*
X68524428Y-71558704D01*
X68092496Y-71126772D01*
X67753130Y-70618874D01*
X67519370Y-70054528D01*
X67400200Y-69455422D01*
X67400200Y-68844578D01*
X67519370Y-68245472D01*
X67753130Y-67681126D01*
X68092496Y-67173228D01*
X68524428Y-66741296D01*
X69032326Y-66401930D01*
X69596672Y-66168170D01*
X69896225Y-66108585D01*
X70195777Y-66049000D01*
X70806623Y-66049000D01*
X71106175Y-66108585D01*
X71106175Y-66108585D01*
G37*
G36*
X64248175Y-66108585D02*
G01*
X64547728Y-66168170D01*
X65112074Y-66401930D01*
X65619972Y-66741296D01*
X66051904Y-67173228D01*
X66391270Y-67681126D01*
X66625030Y-68245472D01*
X66744200Y-68844578D01*
X66744200Y-69455422D01*
X66625030Y-70054528D01*
X66391270Y-70618874D01*
X66051904Y-71126772D01*
X65619972Y-71558704D01*
X65112074Y-71898070D01*
X64547728Y-72131830D01*
X64248175Y-72191415D01*
X63948623Y-72251000D01*
X63337777Y-72251000D01*
X63038225Y-72191415D01*
X62738672Y-72131830D01*
X62174326Y-71898070D01*
X61666428Y-71558704D01*
X61234496Y-71126772D01*
X60895130Y-70618874D01*
X60661370Y-70054528D01*
X60542200Y-69455422D01*
X60542200Y-68844578D01*
X60661370Y-68245472D01*
X60895130Y-67681126D01*
X61234496Y-67173228D01*
X61666428Y-66741296D01*
X62174326Y-66401930D01*
X62738672Y-66168170D01*
X63038225Y-66108585D01*
X63337777Y-66049000D01*
X63948623Y-66049000D01*
X64248175Y-66108585D01*
X64248175Y-66108585D01*
G37*
G36*
X84822175Y-66108585D02*
G01*
X85121728Y-66168170D01*
X85686074Y-66401930D01*
X86193972Y-66741296D01*
X86625904Y-67173228D01*
X86965270Y-67681126D01*
X87199030Y-68245472D01*
X87318200Y-68844578D01*
X87318200Y-69455422D01*
X87199030Y-70054528D01*
X86965270Y-70618874D01*
X86625904Y-71126772D01*
X86193972Y-71558704D01*
X85686074Y-71898070D01*
X85121728Y-72131830D01*
X84822175Y-72191415D01*
X84522623Y-72251000D01*
X83911777Y-72251000D01*
X83612225Y-72191415D01*
X83312672Y-72131830D01*
X82748326Y-71898070D01*
X82240428Y-71558704D01*
X81808496Y-71126772D01*
X81469130Y-70618874D01*
X81235370Y-70054528D01*
X81116200Y-69455422D01*
X81116200Y-68844578D01*
X81235370Y-68245472D01*
X81469130Y-67681126D01*
X81808496Y-67173228D01*
X82240428Y-66741296D01*
X82748326Y-66401930D01*
X83312672Y-66168170D01*
X83612225Y-66108585D01*
X83911777Y-66049000D01*
X84522623Y-66049000D01*
X84822175Y-66108585D01*
X84822175Y-66108585D01*
G37*
G36*
X77964175Y-66108585D02*
G01*
X78263728Y-66168170D01*
X78828074Y-66401930D01*
X79335972Y-66741296D01*
X79767904Y-67173228D01*
X80107270Y-67681126D01*
X80341030Y-68245472D01*
X80460200Y-68844578D01*
X80460200Y-69455422D01*
X80341030Y-70054528D01*
X80107270Y-70618874D01*
X79767904Y-71126772D01*
X79335972Y-71558704D01*
X78828074Y-71898070D01*
X78263728Y-72131830D01*
X77964175Y-72191415D01*
X77664623Y-72251000D01*
X77053777Y-72251000D01*
X76754225Y-72191415D01*
X76454672Y-72131830D01*
X75890326Y-71898070D01*
X75382428Y-71558704D01*
X74950496Y-71126772D01*
X74611130Y-70618874D01*
X74377370Y-70054528D01*
X74258200Y-69455422D01*
X74258200Y-68844578D01*
X74377370Y-68245472D01*
X74611130Y-67681126D01*
X74950496Y-67173228D01*
X75382428Y-66741296D01*
X75890326Y-66401930D01*
X76454672Y-66168170D01*
X76754225Y-66108585D01*
X77053777Y-66049000D01*
X77664623Y-66049000D01*
X77964175Y-66108585D01*
X77964175Y-66108585D01*
G37*
G36*
X50532175Y-66108585D02*
G01*
X50831728Y-66168170D01*
X51396074Y-66401930D01*
X51903972Y-66741296D01*
X52335904Y-67173228D01*
X52675270Y-67681126D01*
X52909030Y-68245472D01*
X53028200Y-68844578D01*
X53028200Y-69455422D01*
X52909030Y-70054528D01*
X52675270Y-70618874D01*
X52335904Y-71126772D01*
X51903972Y-71558704D01*
X51396074Y-71898070D01*
X50831728Y-72131830D01*
X50532175Y-72191415D01*
X50232623Y-72251000D01*
X49621777Y-72251000D01*
X49322225Y-72191415D01*
X49022672Y-72131830D01*
X48458326Y-71898070D01*
X47950428Y-71558704D01*
X47518496Y-71126772D01*
X47179130Y-70618874D01*
X46945370Y-70054528D01*
X46826200Y-69455422D01*
X46826200Y-68844578D01*
X46945370Y-68245472D01*
X47179130Y-67681126D01*
X47518496Y-67173228D01*
X47950428Y-66741296D01*
X48458326Y-66401930D01*
X49022672Y-66168170D01*
X49322225Y-66108585D01*
X49621777Y-66049000D01*
X50232623Y-66049000D01*
X50532175Y-66108585D01*
X50532175Y-66108585D01*
G37*
G36*
X77964175Y-58488585D02*
G01*
X78263728Y-58548170D01*
X78828074Y-58781930D01*
X79335972Y-59121296D01*
X79767904Y-59553228D01*
X80107270Y-60061126D01*
X80341030Y-60625472D01*
X80460200Y-61224578D01*
X80460200Y-61835422D01*
X80341030Y-62434528D01*
X80107270Y-62998874D01*
X79767904Y-63506772D01*
X79335972Y-63938704D01*
X78828074Y-64278070D01*
X78263728Y-64511830D01*
X77964175Y-64571415D01*
X77664623Y-64631000D01*
X77053777Y-64631000D01*
X76754225Y-64571415D01*
X76454672Y-64511830D01*
X75890326Y-64278070D01*
X75382428Y-63938704D01*
X74950496Y-63506772D01*
X74611130Y-62998874D01*
X74377370Y-62434528D01*
X74258200Y-61835422D01*
X74258200Y-61224578D01*
X74377370Y-60625472D01*
X74611130Y-60061126D01*
X74950496Y-59553228D01*
X75382428Y-59121296D01*
X75890326Y-58781930D01*
X76454672Y-58548170D01*
X76754225Y-58488585D01*
X77053777Y-58429000D01*
X77664623Y-58429000D01*
X77964175Y-58488585D01*
X77964175Y-58488585D01*
G37*
G36*
X50532175Y-58488585D02*
G01*
X50831728Y-58548170D01*
X51396074Y-58781930D01*
X51903972Y-59121296D01*
X52335904Y-59553228D01*
X52675270Y-60061126D01*
X52909030Y-60625472D01*
X53028200Y-61224578D01*
X53028200Y-61835422D01*
X52909030Y-62434528D01*
X52675270Y-62998874D01*
X52335904Y-63506772D01*
X51903972Y-63938704D01*
X51396074Y-64278070D01*
X50831728Y-64511830D01*
X50532175Y-64571415D01*
X50232623Y-64631000D01*
X49621777Y-64631000D01*
X49322225Y-64571415D01*
X49022672Y-64511830D01*
X48458326Y-64278070D01*
X47950428Y-63938704D01*
X47518496Y-63506772D01*
X47179130Y-62998874D01*
X46945370Y-62434528D01*
X46826200Y-61835422D01*
X46826200Y-61224578D01*
X46945370Y-60625472D01*
X47179130Y-60061126D01*
X47518496Y-59553228D01*
X47950428Y-59121296D01*
X48458326Y-58781930D01*
X49022672Y-58548170D01*
X49322225Y-58488585D01*
X49621777Y-58429000D01*
X50232623Y-58429000D01*
X50532175Y-58488585D01*
X50532175Y-58488585D01*
G37*
G36*
X43674175Y-58488585D02*
G01*
X43973728Y-58548170D01*
X44538074Y-58781930D01*
X45045972Y-59121296D01*
X45477904Y-59553228D01*
X45817270Y-60061126D01*
X46051030Y-60625472D01*
X46170200Y-61224578D01*
X46170200Y-61835422D01*
X46051030Y-62434528D01*
X45817270Y-62998874D01*
X45477904Y-63506772D01*
X45045972Y-63938704D01*
X44538074Y-64278070D01*
X43973728Y-64511830D01*
X43674175Y-64571415D01*
X43374623Y-64631000D01*
X42763777Y-64631000D01*
X42464225Y-64571415D01*
X42164672Y-64511830D01*
X41600326Y-64278070D01*
X41092428Y-63938704D01*
X40660496Y-63506772D01*
X40321130Y-62998874D01*
X40087370Y-62434528D01*
X39968200Y-61835422D01*
X39968200Y-61224578D01*
X40087370Y-60625472D01*
X40321130Y-60061126D01*
X40660496Y-59553228D01*
X41092428Y-59121296D01*
X41600326Y-58781930D01*
X42164672Y-58548170D01*
X42464225Y-58488585D01*
X42763777Y-58429000D01*
X43374623Y-58429000D01*
X43674175Y-58488585D01*
X43674175Y-58488585D01*
G37*
G36*
X36816175Y-58488585D02*
G01*
X37115728Y-58548170D01*
X37680074Y-58781930D01*
X38187972Y-59121296D01*
X38619904Y-59553228D01*
X38959270Y-60061126D01*
X39193030Y-60625472D01*
X39312200Y-61224578D01*
X39312200Y-61835422D01*
X39193030Y-62434528D01*
X38959270Y-62998874D01*
X38619904Y-63506772D01*
X38187972Y-63938704D01*
X37680074Y-64278070D01*
X37115728Y-64511830D01*
X36816175Y-64571415D01*
X36516623Y-64631000D01*
X35905777Y-64631000D01*
X35606225Y-64571415D01*
X35306672Y-64511830D01*
X34742326Y-64278070D01*
X34234428Y-63938704D01*
X33802496Y-63506772D01*
X33463130Y-62998874D01*
X33229370Y-62434528D01*
X33110200Y-61835422D01*
X33110200Y-61224578D01*
X33229370Y-60625472D01*
X33463130Y-60061126D01*
X33802496Y-59553228D01*
X34234428Y-59121296D01*
X34742326Y-58781930D01*
X35306672Y-58548170D01*
X35606225Y-58488585D01*
X35905777Y-58429000D01*
X36516623Y-58429000D01*
X36816175Y-58488585D01*
X36816175Y-58488585D01*
G37*
G36*
X57390175Y-58488585D02*
G01*
X57689728Y-58548170D01*
X58254074Y-58781930D01*
X58761972Y-59121296D01*
X59193904Y-59553228D01*
X59533270Y-60061126D01*
X59767030Y-60625472D01*
X59886200Y-61224578D01*
X59886200Y-61835422D01*
X59767030Y-62434528D01*
X59533270Y-62998874D01*
X59193904Y-63506772D01*
X58761972Y-63938704D01*
X58254074Y-64278070D01*
X57689728Y-64511830D01*
X57390175Y-64571415D01*
X57090623Y-64631000D01*
X56479777Y-64631000D01*
X56180225Y-64571415D01*
X55880672Y-64511830D01*
X55316326Y-64278070D01*
X54808428Y-63938704D01*
X54376496Y-63506772D01*
X54037130Y-62998874D01*
X53803370Y-62434528D01*
X53684200Y-61835422D01*
X53684200Y-61224578D01*
X53803370Y-60625472D01*
X54037130Y-60061126D01*
X54376496Y-59553228D01*
X54808428Y-59121296D01*
X55316326Y-58781930D01*
X55880672Y-58548170D01*
X56180225Y-58488585D01*
X56479777Y-58429000D01*
X57090623Y-58429000D01*
X57390175Y-58488585D01*
X57390175Y-58488585D01*
G37*
G36*
X71106175Y-58488585D02*
G01*
X71405728Y-58548170D01*
X71970074Y-58781930D01*
X72477972Y-59121296D01*
X72909904Y-59553228D01*
X73249270Y-60061126D01*
X73483030Y-60625472D01*
X73602200Y-61224578D01*
X73602200Y-61835422D01*
X73483030Y-62434528D01*
X73249270Y-62998874D01*
X72909904Y-63506772D01*
X72477972Y-63938704D01*
X71970074Y-64278070D01*
X71405728Y-64511830D01*
X71106175Y-64571415D01*
X70806623Y-64631000D01*
X70195777Y-64631000D01*
X69896225Y-64571415D01*
X69596672Y-64511830D01*
X69032326Y-64278070D01*
X68524428Y-63938704D01*
X68092496Y-63506772D01*
X67753130Y-62998874D01*
X67519370Y-62434528D01*
X67400200Y-61835422D01*
X67400200Y-61224578D01*
X67519370Y-60625472D01*
X67753130Y-60061126D01*
X68092496Y-59553228D01*
X68524428Y-59121296D01*
X69032326Y-58781930D01*
X69596672Y-58548170D01*
X69896225Y-58488585D01*
X70195777Y-58429000D01*
X70806623Y-58429000D01*
X71106175Y-58488585D01*
X71106175Y-58488585D01*
G37*
G36*
X84822175Y-58488585D02*
G01*
X85121728Y-58548170D01*
X85686074Y-58781930D01*
X86193972Y-59121296D01*
X86625904Y-59553228D01*
X86965270Y-60061126D01*
X87199030Y-60625472D01*
X87318200Y-61224578D01*
X87318200Y-61835422D01*
X87199030Y-62434528D01*
X86965270Y-62998874D01*
X86625904Y-63506772D01*
X86193972Y-63938704D01*
X85686074Y-64278070D01*
X85121728Y-64511830D01*
X84822175Y-64571415D01*
X84522623Y-64631000D01*
X83911777Y-64631000D01*
X83612225Y-64571415D01*
X83312672Y-64511830D01*
X82748326Y-64278070D01*
X82240428Y-63938704D01*
X81808496Y-63506772D01*
X81469130Y-62998874D01*
X81235370Y-62434528D01*
X81116200Y-61835422D01*
X81116200Y-61224578D01*
X81235370Y-60625472D01*
X81469130Y-60061126D01*
X81808496Y-59553228D01*
X82240428Y-59121296D01*
X82748326Y-58781930D01*
X83312672Y-58548170D01*
X83612225Y-58488585D01*
X83911777Y-58429000D01*
X84522623Y-58429000D01*
X84822175Y-58488585D01*
X84822175Y-58488585D01*
G37*
G36*
X16242175Y-58488585D02*
G01*
X16541728Y-58548170D01*
X17106074Y-58781930D01*
X17613972Y-59121296D01*
X18045904Y-59553228D01*
X18385270Y-60061126D01*
X18619030Y-60625472D01*
X18738200Y-61224578D01*
X18738200Y-61835422D01*
X18619030Y-62434528D01*
X18385270Y-62998874D01*
X18045904Y-63506772D01*
X17613972Y-63938704D01*
X17106074Y-64278070D01*
X16541728Y-64511830D01*
X16242175Y-64571415D01*
X15942623Y-64631000D01*
X15331777Y-64631000D01*
X15032225Y-64571415D01*
X14732672Y-64511830D01*
X14168326Y-64278070D01*
X13660428Y-63938704D01*
X13228496Y-63506772D01*
X12889130Y-62998874D01*
X12655370Y-62434528D01*
X12536200Y-61835422D01*
X12536200Y-61224578D01*
X12655370Y-60625472D01*
X12889130Y-60061126D01*
X13228496Y-59553228D01*
X13660428Y-59121296D01*
X14168326Y-58781930D01*
X14732672Y-58548170D01*
X15032225Y-58488585D01*
X15331777Y-58429000D01*
X15942623Y-58429000D01*
X16242175Y-58488585D01*
X16242175Y-58488585D01*
G37*
G36*
X23100175Y-58488585D02*
G01*
X23399728Y-58548170D01*
X23964074Y-58781930D01*
X24471972Y-59121296D01*
X24903904Y-59553228D01*
X25243270Y-60061126D01*
X25477030Y-60625472D01*
X25596200Y-61224578D01*
X25596200Y-61835422D01*
X25477030Y-62434528D01*
X25243270Y-62998874D01*
X24903904Y-63506772D01*
X24471972Y-63938704D01*
X23964074Y-64278070D01*
X23399728Y-64511830D01*
X23100175Y-64571415D01*
X22800623Y-64631000D01*
X22189777Y-64631000D01*
X21890225Y-64571415D01*
X21590672Y-64511830D01*
X21026326Y-64278070D01*
X20518428Y-63938704D01*
X20086496Y-63506772D01*
X19747130Y-62998874D01*
X19513370Y-62434528D01*
X19394200Y-61835422D01*
X19394200Y-61224578D01*
X19513370Y-60625472D01*
X19747130Y-60061126D01*
X20086496Y-59553228D01*
X20518428Y-59121296D01*
X21026326Y-58781930D01*
X21590672Y-58548170D01*
X21890225Y-58488585D01*
X22189777Y-58429000D01*
X22800623Y-58429000D01*
X23100175Y-58488585D01*
X23100175Y-58488585D01*
G37*
G36*
X64248175Y-58488585D02*
G01*
X64547728Y-58548170D01*
X65112074Y-58781930D01*
X65619972Y-59121296D01*
X66051904Y-59553228D01*
X66391270Y-60061126D01*
X66625030Y-60625472D01*
X66744200Y-61224578D01*
X66744200Y-61835422D01*
X66625030Y-62434528D01*
X66391270Y-62998874D01*
X66051904Y-63506772D01*
X65619972Y-63938704D01*
X65112074Y-64278070D01*
X64547728Y-64511830D01*
X64248175Y-64571415D01*
X63948623Y-64631000D01*
X63337777Y-64631000D01*
X63038225Y-64571415D01*
X62738672Y-64511830D01*
X62174326Y-64278070D01*
X61666428Y-63938704D01*
X61234496Y-63506772D01*
X60895130Y-62998874D01*
X60661370Y-62434528D01*
X60542200Y-61835422D01*
X60542200Y-61224578D01*
X60661370Y-60625472D01*
X60895130Y-60061126D01*
X61234496Y-59553228D01*
X61666428Y-59121296D01*
X62174326Y-58781930D01*
X62738672Y-58548170D01*
X63038225Y-58488585D01*
X63337777Y-58429000D01*
X63948623Y-58429000D01*
X64248175Y-58488585D01*
X64248175Y-58488585D01*
G37*
G36*
X29958175Y-58488585D02*
G01*
X30257728Y-58548170D01*
X30822074Y-58781930D01*
X31329972Y-59121296D01*
X31761904Y-59553228D01*
X32101270Y-60061126D01*
X32335030Y-60625472D01*
X32454200Y-61224578D01*
X32454200Y-61835422D01*
X32335030Y-62434528D01*
X32101270Y-62998874D01*
X31761904Y-63506772D01*
X31329972Y-63938704D01*
X30822074Y-64278070D01*
X30257728Y-64511830D01*
X29958175Y-64571415D01*
X29658623Y-64631000D01*
X29047777Y-64631000D01*
X28748225Y-64571415D01*
X28448672Y-64511830D01*
X27884326Y-64278070D01*
X27376428Y-63938704D01*
X26944496Y-63506772D01*
X26605130Y-62998874D01*
X26371370Y-62434528D01*
X26252200Y-61835422D01*
X26252200Y-61224578D01*
X26371370Y-60625472D01*
X26605130Y-60061126D01*
X26944496Y-59553228D01*
X27376428Y-59121296D01*
X27884326Y-58781930D01*
X28448672Y-58548170D01*
X28748225Y-58488585D01*
X29047777Y-58429000D01*
X29658623Y-58429000D01*
X29958175Y-58488585D01*
X29958175Y-58488585D01*
G37*
G36*
X71106175Y-50868585D02*
G01*
X71405728Y-50928170D01*
X71970074Y-51161930D01*
X72477972Y-51501296D01*
X72909904Y-51933228D01*
X73249270Y-52441126D01*
X73483030Y-53005472D01*
X73602200Y-53604578D01*
X73602200Y-54215422D01*
X73483030Y-54814528D01*
X73249270Y-55378874D01*
X72909904Y-55886772D01*
X72477972Y-56318704D01*
X71970074Y-56658070D01*
X71405728Y-56891830D01*
X71106175Y-56951415D01*
X70806623Y-57011000D01*
X70195777Y-57011000D01*
X69896225Y-56951415D01*
X69596672Y-56891830D01*
X69032326Y-56658070D01*
X68524428Y-56318704D01*
X68092496Y-55886772D01*
X67753130Y-55378874D01*
X67519370Y-54814528D01*
X67400200Y-54215422D01*
X67400200Y-53604578D01*
X67519370Y-53005472D01*
X67753130Y-52441126D01*
X68092496Y-51933228D01*
X68524428Y-51501296D01*
X69032326Y-51161930D01*
X69596672Y-50928170D01*
X69896225Y-50868585D01*
X70195777Y-50809000D01*
X70806623Y-50809000D01*
X71106175Y-50868585D01*
X71106175Y-50868585D01*
G37*
G36*
X84822175Y-50868585D02*
G01*
X85121728Y-50928170D01*
X85686074Y-51161930D01*
X86193972Y-51501296D01*
X86625904Y-51933228D01*
X86965270Y-52441126D01*
X87199030Y-53005472D01*
X87318200Y-53604578D01*
X87318200Y-54215422D01*
X87199030Y-54814528D01*
X86965270Y-55378874D01*
X86625904Y-55886772D01*
X86193972Y-56318704D01*
X85686074Y-56658070D01*
X85121728Y-56891830D01*
X84822175Y-56951415D01*
X84522623Y-57011000D01*
X83911777Y-57011000D01*
X83612225Y-56951415D01*
X83312672Y-56891830D01*
X82748326Y-56658070D01*
X82240428Y-56318704D01*
X81808496Y-55886772D01*
X81469130Y-55378874D01*
X81235370Y-54814528D01*
X81116200Y-54215422D01*
X81116200Y-53604578D01*
X81235370Y-53005472D01*
X81469130Y-52441126D01*
X81808496Y-51933228D01*
X82240428Y-51501296D01*
X82748326Y-51161930D01*
X83312672Y-50928170D01*
X83612225Y-50868585D01*
X83911777Y-50809000D01*
X84522623Y-50809000D01*
X84822175Y-50868585D01*
X84822175Y-50868585D01*
G37*
G36*
X77964175Y-50868585D02*
G01*
X78263728Y-50928170D01*
X78828074Y-51161930D01*
X79335972Y-51501296D01*
X79767904Y-51933228D01*
X80107270Y-52441126D01*
X80341030Y-53005472D01*
X80460200Y-53604578D01*
X80460200Y-54215422D01*
X80341030Y-54814528D01*
X80107270Y-55378874D01*
X79767904Y-55886772D01*
X79335972Y-56318704D01*
X78828074Y-56658070D01*
X78263728Y-56891830D01*
X77964175Y-56951415D01*
X77664623Y-57011000D01*
X77053777Y-57011000D01*
X76754225Y-56951415D01*
X76454672Y-56891830D01*
X75890326Y-56658070D01*
X75382428Y-56318704D01*
X74950496Y-55886772D01*
X74611130Y-55378874D01*
X74377370Y-54814528D01*
X74258200Y-54215422D01*
X74258200Y-53604578D01*
X74377370Y-53005472D01*
X74611130Y-52441126D01*
X74950496Y-51933228D01*
X75382428Y-51501296D01*
X75890326Y-51161930D01*
X76454672Y-50928170D01*
X76754225Y-50868585D01*
X77053777Y-50809000D01*
X77664623Y-50809000D01*
X77964175Y-50868585D01*
X77964175Y-50868585D01*
G37*
G36*
X64248175Y-50868585D02*
G01*
X64547728Y-50928170D01*
X65112074Y-51161930D01*
X65619972Y-51501296D01*
X66051904Y-51933228D01*
X66391270Y-52441126D01*
X66625030Y-53005472D01*
X66744200Y-53604578D01*
X66744200Y-54215422D01*
X66625030Y-54814528D01*
X66391270Y-55378874D01*
X66051904Y-55886772D01*
X65619972Y-56318704D01*
X65112074Y-56658070D01*
X64547728Y-56891830D01*
X64248175Y-56951415D01*
X63948623Y-57011000D01*
X63337777Y-57011000D01*
X63038225Y-56951415D01*
X62738672Y-56891830D01*
X62174326Y-56658070D01*
X61666428Y-56318704D01*
X61234496Y-55886772D01*
X60895130Y-55378874D01*
X60661370Y-54814528D01*
X60542200Y-54215422D01*
X60542200Y-53604578D01*
X60661370Y-53005472D01*
X60895130Y-52441126D01*
X61234496Y-51933228D01*
X61666428Y-51501296D01*
X62174326Y-51161930D01*
X62738672Y-50928170D01*
X63038225Y-50868585D01*
X63337777Y-50809000D01*
X63948623Y-50809000D01*
X64248175Y-50868585D01*
X64248175Y-50868585D01*
G37*
G36*
X57390175Y-50868585D02*
G01*
X57689728Y-50928170D01*
X58254074Y-51161930D01*
X58761972Y-51501296D01*
X59193904Y-51933228D01*
X59533270Y-52441126D01*
X59767030Y-53005472D01*
X59886200Y-53604578D01*
X59886200Y-54215422D01*
X59767030Y-54814528D01*
X59533270Y-55378874D01*
X59193904Y-55886772D01*
X58761972Y-56318704D01*
X58254074Y-56658070D01*
X57689728Y-56891830D01*
X57390175Y-56951415D01*
X57090623Y-57011000D01*
X56479777Y-57011000D01*
X56180225Y-56951415D01*
X55880672Y-56891830D01*
X55316326Y-56658070D01*
X54808428Y-56318704D01*
X54376496Y-55886772D01*
X54037130Y-55378874D01*
X53803370Y-54814528D01*
X53684200Y-54215422D01*
X53684200Y-53604578D01*
X53803370Y-53005472D01*
X54037130Y-52441126D01*
X54376496Y-51933228D01*
X54808428Y-51501296D01*
X55316326Y-51161930D01*
X55880672Y-50928170D01*
X56180225Y-50868585D01*
X56479777Y-50809000D01*
X57090623Y-50809000D01*
X57390175Y-50868585D01*
X57390175Y-50868585D01*
G37*
G36*
X50532175Y-50868585D02*
G01*
X50831728Y-50928170D01*
X51396074Y-51161930D01*
X51903972Y-51501296D01*
X52335904Y-51933228D01*
X52675270Y-52441126D01*
X52909030Y-53005472D01*
X53028200Y-53604578D01*
X53028200Y-54215422D01*
X52909030Y-54814528D01*
X52675270Y-55378874D01*
X52335904Y-55886772D01*
X51903972Y-56318704D01*
X51396074Y-56658070D01*
X50831728Y-56891830D01*
X50532175Y-56951415D01*
X50232623Y-57011000D01*
X49621777Y-57011000D01*
X49322225Y-56951415D01*
X49022672Y-56891830D01*
X48458326Y-56658070D01*
X47950428Y-56318704D01*
X47518496Y-55886772D01*
X47179130Y-55378874D01*
X46945370Y-54814528D01*
X46826200Y-54215422D01*
X46826200Y-53604578D01*
X46945370Y-53005472D01*
X47179130Y-52441126D01*
X47518496Y-51933228D01*
X47950428Y-51501296D01*
X48458326Y-51161930D01*
X49022672Y-50928170D01*
X49322225Y-50868585D01*
X49621777Y-50809000D01*
X50232623Y-50809000D01*
X50532175Y-50868585D01*
X50532175Y-50868585D01*
G37*
G36*
X43674175Y-50868585D02*
G01*
X43973728Y-50928170D01*
X44538074Y-51161930D01*
X45045972Y-51501296D01*
X45477904Y-51933228D01*
X45817270Y-52441126D01*
X46051030Y-53005472D01*
X46170200Y-53604578D01*
X46170200Y-54215422D01*
X46051030Y-54814528D01*
X45817270Y-55378874D01*
X45477904Y-55886772D01*
X45045972Y-56318704D01*
X44538074Y-56658070D01*
X43973728Y-56891830D01*
X43674175Y-56951415D01*
X43374623Y-57011000D01*
X42763777Y-57011000D01*
X42464225Y-56951415D01*
X42164672Y-56891830D01*
X41600326Y-56658070D01*
X41092428Y-56318704D01*
X40660496Y-55886772D01*
X40321130Y-55378874D01*
X40087370Y-54814528D01*
X39968200Y-54215422D01*
X39968200Y-53604578D01*
X40087370Y-53005472D01*
X40321130Y-52441126D01*
X40660496Y-51933228D01*
X41092428Y-51501296D01*
X41600326Y-51161930D01*
X42164672Y-50928170D01*
X42464225Y-50868585D01*
X42763777Y-50809000D01*
X43374623Y-50809000D01*
X43674175Y-50868585D01*
X43674175Y-50868585D01*
G37*
G36*
X36816175Y-50868585D02*
G01*
X37115728Y-50928170D01*
X37680074Y-51161930D01*
X38187972Y-51501296D01*
X38619904Y-51933228D01*
X38959270Y-52441126D01*
X39193030Y-53005472D01*
X39312200Y-53604578D01*
X39312200Y-54215422D01*
X39193030Y-54814528D01*
X38959270Y-55378874D01*
X38619904Y-55886772D01*
X38187972Y-56318704D01*
X37680074Y-56658070D01*
X37115728Y-56891830D01*
X36816175Y-56951415D01*
X36516623Y-57011000D01*
X35905777Y-57011000D01*
X35606225Y-56951415D01*
X35306672Y-56891830D01*
X34742326Y-56658070D01*
X34234428Y-56318704D01*
X33802496Y-55886772D01*
X33463130Y-55378874D01*
X33229370Y-54814528D01*
X33110200Y-54215422D01*
X33110200Y-53604578D01*
X33229370Y-53005472D01*
X33463130Y-52441126D01*
X33802496Y-51933228D01*
X34234428Y-51501296D01*
X34742326Y-51161930D01*
X35306672Y-50928170D01*
X35606225Y-50868585D01*
X35905777Y-50809000D01*
X36516623Y-50809000D01*
X36816175Y-50868585D01*
X36816175Y-50868585D01*
G37*
G36*
X29958175Y-50868585D02*
G01*
X30257728Y-50928170D01*
X30822074Y-51161930D01*
X31329972Y-51501296D01*
X31761904Y-51933228D01*
X32101270Y-52441126D01*
X32335030Y-53005472D01*
X32454200Y-53604578D01*
X32454200Y-54215422D01*
X32335030Y-54814528D01*
X32101270Y-55378874D01*
X31761904Y-55886772D01*
X31329972Y-56318704D01*
X30822074Y-56658070D01*
X30257728Y-56891830D01*
X29958175Y-56951415D01*
X29658623Y-57011000D01*
X29047777Y-57011000D01*
X28748225Y-56951415D01*
X28448672Y-56891830D01*
X27884326Y-56658070D01*
X27376428Y-56318704D01*
X26944496Y-55886772D01*
X26605130Y-55378874D01*
X26371370Y-54814528D01*
X26252200Y-54215422D01*
X26252200Y-53604578D01*
X26371370Y-53005472D01*
X26605130Y-52441126D01*
X26944496Y-51933228D01*
X27376428Y-51501296D01*
X27884326Y-51161930D01*
X28448672Y-50928170D01*
X28748225Y-50868585D01*
X29047777Y-50809000D01*
X29658623Y-50809000D01*
X29958175Y-50868585D01*
X29958175Y-50868585D01*
G37*
G36*
X23100175Y-50868585D02*
G01*
X23399728Y-50928170D01*
X23964074Y-51161930D01*
X24471972Y-51501296D01*
X24903904Y-51933228D01*
X25243270Y-52441126D01*
X25477030Y-53005472D01*
X25596200Y-53604578D01*
X25596200Y-54215422D01*
X25477030Y-54814528D01*
X25243270Y-55378874D01*
X24903904Y-55886772D01*
X24471972Y-56318704D01*
X23964074Y-56658070D01*
X23399728Y-56891830D01*
X23100175Y-56951415D01*
X22800623Y-57011000D01*
X22189777Y-57011000D01*
X21890225Y-56951415D01*
X21590672Y-56891830D01*
X21026326Y-56658070D01*
X20518428Y-56318704D01*
X20086496Y-55886772D01*
X19747130Y-55378874D01*
X19513370Y-54814528D01*
X19394200Y-54215422D01*
X19394200Y-53604578D01*
X19513370Y-53005472D01*
X19747130Y-52441126D01*
X20086496Y-51933228D01*
X20518428Y-51501296D01*
X21026326Y-51161930D01*
X21590672Y-50928170D01*
X21890225Y-50868585D01*
X22189777Y-50809000D01*
X22800623Y-50809000D01*
X23100175Y-50868585D01*
X23100175Y-50868585D01*
G37*
G36*
X16242175Y-50868585D02*
G01*
X16541728Y-50928170D01*
X17106074Y-51161930D01*
X17613972Y-51501296D01*
X18045904Y-51933228D01*
X18385270Y-52441126D01*
X18619030Y-53005472D01*
X18738200Y-53604578D01*
X18738200Y-54215422D01*
X18619030Y-54814528D01*
X18385270Y-55378874D01*
X18045904Y-55886772D01*
X17613972Y-56318704D01*
X17106074Y-56658070D01*
X16541728Y-56891830D01*
X16242175Y-56951415D01*
X15942623Y-57011000D01*
X15331777Y-57011000D01*
X15032225Y-56951415D01*
X14732672Y-56891830D01*
X14168326Y-56658070D01*
X13660428Y-56318704D01*
X13228496Y-55886772D01*
X12889130Y-55378874D01*
X12655370Y-54814528D01*
X12536200Y-54215422D01*
X12536200Y-53604578D01*
X12655370Y-53005472D01*
X12889130Y-52441126D01*
X13228496Y-51933228D01*
X13660428Y-51501296D01*
X14168326Y-51161930D01*
X14732672Y-50928170D01*
X15032225Y-50868585D01*
X15331777Y-50809000D01*
X15942623Y-50809000D01*
X16242175Y-50868585D01*
X16242175Y-50868585D01*
G37*
G36*
X16242175Y-43248585D02*
G01*
X16541728Y-43308170D01*
X17106074Y-43541930D01*
X17613972Y-43881296D01*
X18045904Y-44313228D01*
X18385270Y-44821126D01*
X18619030Y-45385472D01*
X18738200Y-45984578D01*
X18738200Y-46595422D01*
X18619030Y-47194528D01*
X18385270Y-47758874D01*
X18045904Y-48266772D01*
X17613972Y-48698704D01*
X17106074Y-49038070D01*
X16541728Y-49271830D01*
X16242175Y-49331415D01*
X15942623Y-49391000D01*
X15331777Y-49391000D01*
X15032225Y-49331415D01*
X14732672Y-49271830D01*
X14168326Y-49038070D01*
X13660428Y-48698704D01*
X13228496Y-48266772D01*
X12889130Y-47758874D01*
X12655370Y-47194528D01*
X12536200Y-46595422D01*
X12536200Y-45984578D01*
X12655370Y-45385472D01*
X12889130Y-44821126D01*
X13228496Y-44313228D01*
X13660428Y-43881296D01*
X14168326Y-43541930D01*
X14732672Y-43308170D01*
X15032225Y-43248585D01*
X15331777Y-43189000D01*
X15942623Y-43189000D01*
X16242175Y-43248585D01*
X16242175Y-43248585D01*
G37*
G36*
X84822175Y-43248585D02*
G01*
X85121728Y-43308170D01*
X85686074Y-43541930D01*
X86193972Y-43881296D01*
X86625904Y-44313228D01*
X86965270Y-44821126D01*
X87199030Y-45385472D01*
X87318200Y-45984578D01*
X87318200Y-46595422D01*
X87199030Y-47194528D01*
X86965270Y-47758874D01*
X86625904Y-48266772D01*
X86193972Y-48698704D01*
X85686074Y-49038070D01*
X85121728Y-49271830D01*
X84822175Y-49331415D01*
X84522623Y-49391000D01*
X83911777Y-49391000D01*
X83612225Y-49331415D01*
X83312672Y-49271830D01*
X82748326Y-49038070D01*
X82240428Y-48698704D01*
X81808496Y-48266772D01*
X81469130Y-47758874D01*
X81235370Y-47194528D01*
X81116200Y-46595422D01*
X81116200Y-45984578D01*
X81235370Y-45385472D01*
X81469130Y-44821126D01*
X81808496Y-44313228D01*
X82240428Y-43881296D01*
X82748326Y-43541930D01*
X83312672Y-43308170D01*
X83612225Y-43248585D01*
X83911777Y-43189000D01*
X84522623Y-43189000D01*
X84822175Y-43248585D01*
X84822175Y-43248585D01*
G37*
G36*
X77964175Y-43248585D02*
G01*
X78263728Y-43308170D01*
X78828074Y-43541930D01*
X79335972Y-43881296D01*
X79767904Y-44313228D01*
X80107270Y-44821126D01*
X80341030Y-45385472D01*
X80460200Y-45984578D01*
X80460200Y-46595422D01*
X80341030Y-47194528D01*
X80107270Y-47758874D01*
X79767904Y-48266772D01*
X79335972Y-48698704D01*
X78828074Y-49038070D01*
X78263728Y-49271830D01*
X77964175Y-49331415D01*
X77664623Y-49391000D01*
X77053777Y-49391000D01*
X76754225Y-49331415D01*
X76454672Y-49271830D01*
X75890326Y-49038070D01*
X75382428Y-48698704D01*
X74950496Y-48266772D01*
X74611130Y-47758874D01*
X74377370Y-47194528D01*
X74258200Y-46595422D01*
X74258200Y-45984578D01*
X74377370Y-45385472D01*
X74611130Y-44821126D01*
X74950496Y-44313228D01*
X75382428Y-43881296D01*
X75890326Y-43541930D01*
X76454672Y-43308170D01*
X76754225Y-43248585D01*
X77053777Y-43189000D01*
X77664623Y-43189000D01*
X77964175Y-43248585D01*
X77964175Y-43248585D01*
G37*
G36*
X71106175Y-43248585D02*
G01*
X71405728Y-43308170D01*
X71970074Y-43541930D01*
X72477972Y-43881296D01*
X72909904Y-44313228D01*
X73249270Y-44821126D01*
X73483030Y-45385472D01*
X73602200Y-45984578D01*
X73602200Y-46595422D01*
X73483030Y-47194528D01*
X73249270Y-47758874D01*
X72909904Y-48266772D01*
X72477972Y-48698704D01*
X71970074Y-49038070D01*
X71405728Y-49271830D01*
X71106175Y-49331415D01*
X70806623Y-49391000D01*
X70195777Y-49391000D01*
X69896225Y-49331415D01*
X69596672Y-49271830D01*
X69032326Y-49038070D01*
X68524428Y-48698704D01*
X68092496Y-48266772D01*
X67753130Y-47758874D01*
X67519370Y-47194528D01*
X67400200Y-46595422D01*
X67400200Y-45984578D01*
X67519370Y-45385472D01*
X67753130Y-44821126D01*
X68092496Y-44313228D01*
X68524428Y-43881296D01*
X69032326Y-43541930D01*
X69596672Y-43308170D01*
X69896225Y-43248585D01*
X70195777Y-43189000D01*
X70806623Y-43189000D01*
X71106175Y-43248585D01*
X71106175Y-43248585D01*
G37*
G36*
X64248175Y-43248585D02*
G01*
X64547728Y-43308170D01*
X65112074Y-43541930D01*
X65619972Y-43881296D01*
X66051904Y-44313228D01*
X66391270Y-44821126D01*
X66625030Y-45385472D01*
X66744200Y-45984578D01*
X66744200Y-46595422D01*
X66625030Y-47194528D01*
X66391270Y-47758874D01*
X66051904Y-48266772D01*
X65619972Y-48698704D01*
X65112074Y-49038070D01*
X64547728Y-49271830D01*
X64248175Y-49331415D01*
X63948623Y-49391000D01*
X63337777Y-49391000D01*
X63038225Y-49331415D01*
X62738672Y-49271830D01*
X62174326Y-49038070D01*
X61666428Y-48698704D01*
X61234496Y-48266772D01*
X60895130Y-47758874D01*
X60661370Y-47194528D01*
X60542200Y-46595422D01*
X60542200Y-45984578D01*
X60661370Y-45385472D01*
X60895130Y-44821126D01*
X61234496Y-44313228D01*
X61666428Y-43881296D01*
X62174326Y-43541930D01*
X62738672Y-43308170D01*
X63038225Y-43248585D01*
X63337777Y-43189000D01*
X63948623Y-43189000D01*
X64248175Y-43248585D01*
X64248175Y-43248585D01*
G37*
G36*
X57390175Y-43248585D02*
G01*
X57689728Y-43308170D01*
X58254074Y-43541930D01*
X58761972Y-43881296D01*
X59193904Y-44313228D01*
X59533270Y-44821126D01*
X59767030Y-45385472D01*
X59886200Y-45984578D01*
X59886200Y-46595422D01*
X59767030Y-47194528D01*
X59533270Y-47758874D01*
X59193904Y-48266772D01*
X58761972Y-48698704D01*
X58254074Y-49038070D01*
X57689728Y-49271830D01*
X57390175Y-49331415D01*
X57090623Y-49391000D01*
X56479777Y-49391000D01*
X56180225Y-49331415D01*
X55880672Y-49271830D01*
X55316326Y-49038070D01*
X54808428Y-48698704D01*
X54376496Y-48266772D01*
X54037130Y-47758874D01*
X53803370Y-47194528D01*
X53684200Y-46595422D01*
X53684200Y-45984578D01*
X53803370Y-45385472D01*
X54037130Y-44821126D01*
X54376496Y-44313228D01*
X54808428Y-43881296D01*
X55316326Y-43541930D01*
X55880672Y-43308170D01*
X56180225Y-43248585D01*
X56479777Y-43189000D01*
X57090623Y-43189000D01*
X57390175Y-43248585D01*
X57390175Y-43248585D01*
G37*
G36*
X43674175Y-43248585D02*
G01*
X43973728Y-43308170D01*
X44538074Y-43541930D01*
X45045972Y-43881296D01*
X45477904Y-44313228D01*
X45817270Y-44821126D01*
X46051030Y-45385472D01*
X46170200Y-45984578D01*
X46170200Y-46595422D01*
X46051030Y-47194528D01*
X45817270Y-47758874D01*
X45477904Y-48266772D01*
X45045972Y-48698704D01*
X44538074Y-49038070D01*
X43973728Y-49271830D01*
X43674175Y-49331415D01*
X43374623Y-49391000D01*
X42763777Y-49391000D01*
X42464225Y-49331415D01*
X42164672Y-49271830D01*
X41600326Y-49038070D01*
X41092428Y-48698704D01*
X40660496Y-48266772D01*
X40321130Y-47758874D01*
X40087370Y-47194528D01*
X39968200Y-46595422D01*
X39968200Y-45984578D01*
X40087370Y-45385472D01*
X40321130Y-44821126D01*
X40660496Y-44313228D01*
X41092428Y-43881296D01*
X41600326Y-43541930D01*
X42164672Y-43308170D01*
X42464225Y-43248585D01*
X42763777Y-43189000D01*
X43374623Y-43189000D01*
X43674175Y-43248585D01*
X43674175Y-43248585D01*
G37*
G36*
X36816175Y-43248585D02*
G01*
X37115728Y-43308170D01*
X37680074Y-43541930D01*
X38187972Y-43881296D01*
X38619904Y-44313228D01*
X38959270Y-44821126D01*
X39193030Y-45385472D01*
X39312200Y-45984578D01*
X39312200Y-46595422D01*
X39193030Y-47194528D01*
X38959270Y-47758874D01*
X38619904Y-48266772D01*
X38187972Y-48698704D01*
X37680074Y-49038070D01*
X37115728Y-49271830D01*
X36816175Y-49331415D01*
X36516623Y-49391000D01*
X35905777Y-49391000D01*
X35606225Y-49331415D01*
X35306672Y-49271830D01*
X34742326Y-49038070D01*
X34234428Y-48698704D01*
X33802496Y-48266772D01*
X33463130Y-47758874D01*
X33229370Y-47194528D01*
X33110200Y-46595422D01*
X33110200Y-45984578D01*
X33229370Y-45385472D01*
X33463130Y-44821126D01*
X33802496Y-44313228D01*
X34234428Y-43881296D01*
X34742326Y-43541930D01*
X35306672Y-43308170D01*
X35606225Y-43248585D01*
X35905777Y-43189000D01*
X36516623Y-43189000D01*
X36816175Y-43248585D01*
X36816175Y-43248585D01*
G37*
G36*
X29958175Y-43248585D02*
G01*
X30257728Y-43308170D01*
X30822074Y-43541930D01*
X31329972Y-43881296D01*
X31761904Y-44313228D01*
X32101270Y-44821126D01*
X32335030Y-45385472D01*
X32454200Y-45984578D01*
X32454200Y-46595422D01*
X32335030Y-47194528D01*
X32101270Y-47758874D01*
X31761904Y-48266772D01*
X31329972Y-48698704D01*
X30822074Y-49038070D01*
X30257728Y-49271830D01*
X29958175Y-49331415D01*
X29658623Y-49391000D01*
X29047777Y-49391000D01*
X28748225Y-49331415D01*
X28448672Y-49271830D01*
X27884326Y-49038070D01*
X27376428Y-48698704D01*
X26944496Y-48266772D01*
X26605130Y-47758874D01*
X26371370Y-47194528D01*
X26252200Y-46595422D01*
X26252200Y-45984578D01*
X26371370Y-45385472D01*
X26605130Y-44821126D01*
X26944496Y-44313228D01*
X27376428Y-43881296D01*
X27884326Y-43541930D01*
X28448672Y-43308170D01*
X28748225Y-43248585D01*
X29047777Y-43189000D01*
X29658623Y-43189000D01*
X29958175Y-43248585D01*
X29958175Y-43248585D01*
G37*
G36*
X23100175Y-43248585D02*
G01*
X23399728Y-43308170D01*
X23964074Y-43541930D01*
X24471972Y-43881296D01*
X24903904Y-44313228D01*
X25243270Y-44821126D01*
X25477030Y-45385472D01*
X25596200Y-45984578D01*
X25596200Y-46595422D01*
X25477030Y-47194528D01*
X25243270Y-47758874D01*
X24903904Y-48266772D01*
X24471972Y-48698704D01*
X23964074Y-49038070D01*
X23399728Y-49271830D01*
X23100175Y-49331415D01*
X22800623Y-49391000D01*
X22189777Y-49391000D01*
X21890225Y-49331415D01*
X21590672Y-49271830D01*
X21026326Y-49038070D01*
X20518428Y-48698704D01*
X20086496Y-48266772D01*
X19747130Y-47758874D01*
X19513370Y-47194528D01*
X19394200Y-46595422D01*
X19394200Y-45984578D01*
X19513370Y-45385472D01*
X19747130Y-44821126D01*
X20086496Y-44313228D01*
X20518428Y-43881296D01*
X21026326Y-43541930D01*
X21590672Y-43308170D01*
X21890225Y-43248585D01*
X22189777Y-43189000D01*
X22800623Y-43189000D01*
X23100175Y-43248585D01*
X23100175Y-43248585D01*
G37*
G36*
X50532175Y-43248585D02*
G01*
X50831728Y-43308170D01*
X51396074Y-43541930D01*
X51903972Y-43881296D01*
X52335904Y-44313228D01*
X52675270Y-44821126D01*
X52909030Y-45385472D01*
X53028200Y-45984578D01*
X53028200Y-46595422D01*
X52909030Y-47194528D01*
X52675270Y-47758874D01*
X52335904Y-48266772D01*
X51903972Y-48698704D01*
X51396074Y-49038070D01*
X50831728Y-49271830D01*
X50532175Y-49331415D01*
X50232623Y-49391000D01*
X49621777Y-49391000D01*
X49322225Y-49331415D01*
X49022672Y-49271830D01*
X48458326Y-49038070D01*
X47950428Y-48698704D01*
X47518496Y-48266772D01*
X47179130Y-47758874D01*
X46945370Y-47194528D01*
X46826200Y-46595422D01*
X46826200Y-45984578D01*
X46945370Y-45385472D01*
X47179130Y-44821126D01*
X47518496Y-44313228D01*
X47950428Y-43881296D01*
X48458326Y-43541930D01*
X49022672Y-43308170D01*
X49322225Y-43248585D01*
X49621777Y-43189000D01*
X50232623Y-43189000D01*
X50532175Y-43248585D01*
X50532175Y-43248585D01*
G37*
G36*
X43674175Y-35628585D02*
G01*
X43973728Y-35688170D01*
X44538074Y-35921930D01*
X45045972Y-36261296D01*
X45477904Y-36693228D01*
X45817270Y-37201126D01*
X46051030Y-37765472D01*
X46170200Y-38364578D01*
X46170200Y-38975422D01*
X46051030Y-39574528D01*
X45817270Y-40138874D01*
X45477904Y-40646772D01*
X45045972Y-41078704D01*
X44538074Y-41418070D01*
X43973728Y-41651830D01*
X43674175Y-41711415D01*
X43374623Y-41771000D01*
X42763777Y-41771000D01*
X42464225Y-41711415D01*
X42164672Y-41651830D01*
X41600326Y-41418070D01*
X41092428Y-41078704D01*
X40660496Y-40646772D01*
X40321130Y-40138874D01*
X40087370Y-39574528D01*
X39968200Y-38975422D01*
X39968200Y-38364578D01*
X40087370Y-37765472D01*
X40321130Y-37201126D01*
X40660496Y-36693228D01*
X41092428Y-36261296D01*
X41600326Y-35921930D01*
X42164672Y-35688170D01*
X42464225Y-35628585D01*
X42763777Y-35569000D01*
X43374623Y-35569000D01*
X43674175Y-35628585D01*
X43674175Y-35628585D01*
G37*
G36*
X84822175Y-35628585D02*
G01*
X85121728Y-35688170D01*
X85686074Y-35921930D01*
X86193972Y-36261296D01*
X86625904Y-36693228D01*
X86965270Y-37201126D01*
X87199030Y-37765472D01*
X87318200Y-38364578D01*
X87318200Y-38975422D01*
X87199030Y-39574528D01*
X86965270Y-40138874D01*
X86625904Y-40646772D01*
X86193972Y-41078704D01*
X85686074Y-41418070D01*
X85121728Y-41651830D01*
X84822175Y-41711415D01*
X84522623Y-41771000D01*
X83911777Y-41771000D01*
X83612225Y-41711415D01*
X83312672Y-41651830D01*
X82748326Y-41418070D01*
X82240428Y-41078704D01*
X81808496Y-40646772D01*
X81469130Y-40138874D01*
X81235370Y-39574528D01*
X81116200Y-38975422D01*
X81116200Y-38364578D01*
X81235370Y-37765472D01*
X81469130Y-37201126D01*
X81808496Y-36693228D01*
X82240428Y-36261296D01*
X82748326Y-35921930D01*
X83312672Y-35688170D01*
X83612225Y-35628585D01*
X83911777Y-35569000D01*
X84522623Y-35569000D01*
X84822175Y-35628585D01*
X84822175Y-35628585D01*
G37*
G36*
X16242175Y-35628585D02*
G01*
X16541728Y-35688170D01*
X17106074Y-35921930D01*
X17613972Y-36261296D01*
X18045904Y-36693228D01*
X18385270Y-37201126D01*
X18619030Y-37765472D01*
X18738200Y-38364578D01*
X18738200Y-38975422D01*
X18619030Y-39574528D01*
X18385270Y-40138874D01*
X18045904Y-40646772D01*
X17613972Y-41078704D01*
X17106074Y-41418070D01*
X16541728Y-41651830D01*
X16242175Y-41711415D01*
X15942623Y-41771000D01*
X15331777Y-41771000D01*
X15032225Y-41711415D01*
X14732672Y-41651830D01*
X14168326Y-41418070D01*
X13660428Y-41078704D01*
X13228496Y-40646772D01*
X12889130Y-40138874D01*
X12655370Y-39574528D01*
X12536200Y-38975422D01*
X12536200Y-38364578D01*
X12655370Y-37765472D01*
X12889130Y-37201126D01*
X13228496Y-36693228D01*
X13660428Y-36261296D01*
X14168326Y-35921930D01*
X14732672Y-35688170D01*
X15032225Y-35628585D01*
X15331777Y-35569000D01*
X15942623Y-35569000D01*
X16242175Y-35628585D01*
X16242175Y-35628585D01*
G37*
G36*
X23100175Y-35628585D02*
G01*
X23399728Y-35688170D01*
X23964074Y-35921930D01*
X24471972Y-36261296D01*
X24903904Y-36693228D01*
X25243270Y-37201126D01*
X25477030Y-37765472D01*
X25596200Y-38364578D01*
X25596200Y-38975422D01*
X25477030Y-39574528D01*
X25243270Y-40138874D01*
X24903904Y-40646772D01*
X24471972Y-41078704D01*
X23964074Y-41418070D01*
X23399728Y-41651830D01*
X23100175Y-41711415D01*
X22800623Y-41771000D01*
X22189777Y-41771000D01*
X21890225Y-41711415D01*
X21590672Y-41651830D01*
X21026326Y-41418070D01*
X20518428Y-41078704D01*
X20086496Y-40646772D01*
X19747130Y-40138874D01*
X19513370Y-39574528D01*
X19394200Y-38975422D01*
X19394200Y-38364578D01*
X19513370Y-37765472D01*
X19747130Y-37201126D01*
X20086496Y-36693228D01*
X20518428Y-36261296D01*
X21026326Y-35921930D01*
X21590672Y-35688170D01*
X21890225Y-35628585D01*
X22189777Y-35569000D01*
X22800623Y-35569000D01*
X23100175Y-35628585D01*
X23100175Y-35628585D01*
G37*
G36*
X29958175Y-35628585D02*
G01*
X30257728Y-35688170D01*
X30822074Y-35921930D01*
X31329972Y-36261296D01*
X31761904Y-36693228D01*
X32101270Y-37201126D01*
X32335030Y-37765472D01*
X32454200Y-38364578D01*
X32454200Y-38975422D01*
X32335030Y-39574528D01*
X32101270Y-40138874D01*
X31761904Y-40646772D01*
X31329972Y-41078704D01*
X30822074Y-41418070D01*
X30257728Y-41651830D01*
X29958175Y-41711415D01*
X29658623Y-41771000D01*
X29047777Y-41771000D01*
X28748225Y-41711415D01*
X28448672Y-41651830D01*
X27884326Y-41418070D01*
X27376428Y-41078704D01*
X26944496Y-40646772D01*
X26605130Y-40138874D01*
X26371370Y-39574528D01*
X26252200Y-38975422D01*
X26252200Y-38364578D01*
X26371370Y-37765472D01*
X26605130Y-37201126D01*
X26944496Y-36693228D01*
X27376428Y-36261296D01*
X27884326Y-35921930D01*
X28448672Y-35688170D01*
X28748225Y-35628585D01*
X29047777Y-35569000D01*
X29658623Y-35569000D01*
X29958175Y-35628585D01*
X29958175Y-35628585D01*
G37*
G36*
X36816175Y-35628585D02*
G01*
X37115728Y-35688170D01*
X37680074Y-35921930D01*
X38187972Y-36261296D01*
X38619904Y-36693228D01*
X38959270Y-37201126D01*
X39193030Y-37765472D01*
X39312200Y-38364578D01*
X39312200Y-38975422D01*
X39193030Y-39574528D01*
X38959270Y-40138874D01*
X38619904Y-40646772D01*
X38187972Y-41078704D01*
X37680074Y-41418070D01*
X37115728Y-41651830D01*
X36816175Y-41711415D01*
X36516623Y-41771000D01*
X35905777Y-41771000D01*
X35606225Y-41711415D01*
X35306672Y-41651830D01*
X34742326Y-41418070D01*
X34234428Y-41078704D01*
X33802496Y-40646772D01*
X33463130Y-40138874D01*
X33229370Y-39574528D01*
X33110200Y-38975422D01*
X33110200Y-38364578D01*
X33229370Y-37765472D01*
X33463130Y-37201126D01*
X33802496Y-36693228D01*
X34234428Y-36261296D01*
X34742326Y-35921930D01*
X35306672Y-35688170D01*
X35606225Y-35628585D01*
X35905777Y-35569000D01*
X36516623Y-35569000D01*
X36816175Y-35628585D01*
X36816175Y-35628585D01*
G37*
G36*
X57390175Y-35628585D02*
G01*
X57689728Y-35688170D01*
X58254074Y-35921930D01*
X58761972Y-36261296D01*
X59193904Y-36693228D01*
X59533270Y-37201126D01*
X59767030Y-37765472D01*
X59886200Y-38364578D01*
X59886200Y-38975422D01*
X59767030Y-39574528D01*
X59533270Y-40138874D01*
X59193904Y-40646772D01*
X58761972Y-41078704D01*
X58254074Y-41418070D01*
X57689728Y-41651830D01*
X57390175Y-41711415D01*
X57090623Y-41771000D01*
X56479777Y-41771000D01*
X56180225Y-41711415D01*
X55880672Y-41651830D01*
X55316326Y-41418070D01*
X54808428Y-41078704D01*
X54376496Y-40646772D01*
X54037130Y-40138874D01*
X53803370Y-39574528D01*
X53684200Y-38975422D01*
X53684200Y-38364578D01*
X53803370Y-37765472D01*
X54037130Y-37201126D01*
X54376496Y-36693228D01*
X54808428Y-36261296D01*
X55316326Y-35921930D01*
X55880672Y-35688170D01*
X56180225Y-35628585D01*
X56479777Y-35569000D01*
X57090623Y-35569000D01*
X57390175Y-35628585D01*
X57390175Y-35628585D01*
G37*
G36*
X64248175Y-35628585D02*
G01*
X64547728Y-35688170D01*
X65112074Y-35921930D01*
X65619972Y-36261296D01*
X66051904Y-36693228D01*
X66391270Y-37201126D01*
X66625030Y-37765472D01*
X66744200Y-38364578D01*
X66744200Y-38975422D01*
X66625030Y-39574528D01*
X66391270Y-40138874D01*
X66051904Y-40646772D01*
X65619972Y-41078704D01*
X65112074Y-41418070D01*
X64547728Y-41651830D01*
X64248175Y-41711415D01*
X63948623Y-41771000D01*
X63337777Y-41771000D01*
X63038225Y-41711415D01*
X62738672Y-41651830D01*
X62174326Y-41418070D01*
X61666428Y-41078704D01*
X61234496Y-40646772D01*
X60895130Y-40138874D01*
X60661370Y-39574528D01*
X60542200Y-38975422D01*
X60542200Y-38364578D01*
X60661370Y-37765472D01*
X60895130Y-37201126D01*
X61234496Y-36693228D01*
X61666428Y-36261296D01*
X62174326Y-35921930D01*
X62738672Y-35688170D01*
X63038225Y-35628585D01*
X63337777Y-35569000D01*
X63948623Y-35569000D01*
X64248175Y-35628585D01*
X64248175Y-35628585D01*
G37*
G36*
X71106175Y-35628585D02*
G01*
X71405728Y-35688170D01*
X71970074Y-35921930D01*
X72477972Y-36261296D01*
X72909904Y-36693228D01*
X73249270Y-37201126D01*
X73483030Y-37765472D01*
X73602200Y-38364578D01*
X73602200Y-38975422D01*
X73483030Y-39574528D01*
X73249270Y-40138874D01*
X72909904Y-40646772D01*
X72477972Y-41078704D01*
X71970074Y-41418070D01*
X71405728Y-41651830D01*
X71106175Y-41711415D01*
X70806623Y-41771000D01*
X70195777Y-41771000D01*
X69896225Y-41711415D01*
X69596672Y-41651830D01*
X69032326Y-41418070D01*
X68524428Y-41078704D01*
X68092496Y-40646772D01*
X67753130Y-40138874D01*
X67519370Y-39574528D01*
X67400200Y-38975422D01*
X67400200Y-38364578D01*
X67519370Y-37765472D01*
X67753130Y-37201126D01*
X68092496Y-36693228D01*
X68524428Y-36261296D01*
X69032326Y-35921930D01*
X69596672Y-35688170D01*
X69896225Y-35628585D01*
X70195777Y-35569000D01*
X70806623Y-35569000D01*
X71106175Y-35628585D01*
X71106175Y-35628585D01*
G37*
G36*
X50532175Y-35628585D02*
G01*
X50831728Y-35688170D01*
X51396074Y-35921930D01*
X51903972Y-36261296D01*
X52335904Y-36693228D01*
X52675270Y-37201126D01*
X52909030Y-37765472D01*
X53028200Y-38364578D01*
X53028200Y-38975422D01*
X52909030Y-39574528D01*
X52675270Y-40138874D01*
X52335904Y-40646772D01*
X51903972Y-41078704D01*
X51396074Y-41418070D01*
X50831728Y-41651830D01*
X50532175Y-41711415D01*
X50232623Y-41771000D01*
X49621777Y-41771000D01*
X49322225Y-41711415D01*
X49022672Y-41651830D01*
X48458326Y-41418070D01*
X47950428Y-41078704D01*
X47518496Y-40646772D01*
X47179130Y-40138874D01*
X46945370Y-39574528D01*
X46826200Y-38975422D01*
X46826200Y-38364578D01*
X46945370Y-37765472D01*
X47179130Y-37201126D01*
X47518496Y-36693228D01*
X47950428Y-36261296D01*
X48458326Y-35921930D01*
X49022672Y-35688170D01*
X49322225Y-35628585D01*
X49621777Y-35569000D01*
X50232623Y-35569000D01*
X50532175Y-35628585D01*
X50532175Y-35628585D01*
G37*
G36*
X77964175Y-35628585D02*
G01*
X78263728Y-35688170D01*
X78828074Y-35921930D01*
X79335972Y-36261296D01*
X79767904Y-36693228D01*
X80107270Y-37201126D01*
X80341030Y-37765472D01*
X80460200Y-38364578D01*
X80460200Y-38975422D01*
X80341030Y-39574528D01*
X80107270Y-40138874D01*
X79767904Y-40646772D01*
X79335972Y-41078704D01*
X78828074Y-41418070D01*
X78263728Y-41651830D01*
X77964175Y-41711415D01*
X77664623Y-41771000D01*
X77053777Y-41771000D01*
X76754225Y-41711415D01*
X76454672Y-41651830D01*
X75890326Y-41418070D01*
X75382428Y-41078704D01*
X74950496Y-40646772D01*
X74611130Y-40138874D01*
X74377370Y-39574528D01*
X74258200Y-38975422D01*
X74258200Y-38364578D01*
X74377370Y-37765472D01*
X74611130Y-37201126D01*
X74950496Y-36693228D01*
X75382428Y-36261296D01*
X75890326Y-35921930D01*
X76454672Y-35688170D01*
X76754225Y-35628585D01*
X77053777Y-35569000D01*
X77664623Y-35569000D01*
X77964175Y-35628585D01*
X77964175Y-35628585D01*
G37*
G36*
X77964175Y-28008585D02*
G01*
X78263728Y-28068170D01*
X78828074Y-28301930D01*
X79335972Y-28641296D01*
X79767904Y-29073228D01*
X80107270Y-29581126D01*
X80341030Y-30145472D01*
X80460200Y-30744578D01*
X80460200Y-31355422D01*
X80341030Y-31954528D01*
X80107270Y-32518874D01*
X79767904Y-33026772D01*
X79335972Y-33458704D01*
X78828074Y-33798070D01*
X78263728Y-34031830D01*
X77964175Y-34091415D01*
X77664623Y-34151000D01*
X77053777Y-34151000D01*
X76754225Y-34091415D01*
X76454672Y-34031830D01*
X75890326Y-33798070D01*
X75382428Y-33458704D01*
X74950496Y-33026772D01*
X74611130Y-32518874D01*
X74377370Y-31954528D01*
X74258200Y-31355422D01*
X74258200Y-30744578D01*
X74377370Y-30145472D01*
X74611130Y-29581126D01*
X74950496Y-29073228D01*
X75382428Y-28641296D01*
X75890326Y-28301930D01*
X76454672Y-28068170D01*
X76754225Y-28008585D01*
X77053777Y-27949000D01*
X77664623Y-27949000D01*
X77964175Y-28008585D01*
X77964175Y-28008585D01*
G37*
G36*
X84822175Y-28008585D02*
G01*
X85121728Y-28068170D01*
X85686074Y-28301930D01*
X86193972Y-28641296D01*
X86625904Y-29073228D01*
X86965270Y-29581126D01*
X87199030Y-30145472D01*
X87318200Y-30744578D01*
X87318200Y-31355422D01*
X87199030Y-31954528D01*
X86965270Y-32518874D01*
X86625904Y-33026772D01*
X86193972Y-33458704D01*
X85686074Y-33798070D01*
X85121728Y-34031830D01*
X84822175Y-34091415D01*
X84522623Y-34151000D01*
X83911777Y-34151000D01*
X83612225Y-34091415D01*
X83312672Y-34031830D01*
X82748326Y-33798070D01*
X82240428Y-33458704D01*
X81808496Y-33026772D01*
X81469130Y-32518874D01*
X81235370Y-31954528D01*
X81116200Y-31355422D01*
X81116200Y-30744578D01*
X81235370Y-30145472D01*
X81469130Y-29581126D01*
X81808496Y-29073228D01*
X82240428Y-28641296D01*
X82748326Y-28301930D01*
X83312672Y-28068170D01*
X83612225Y-28008585D01*
X83911777Y-27949000D01*
X84522623Y-27949000D01*
X84822175Y-28008585D01*
X84822175Y-28008585D01*
G37*
G36*
X71106175Y-28008585D02*
G01*
X71405728Y-28068170D01*
X71970074Y-28301930D01*
X72477972Y-28641296D01*
X72909904Y-29073228D01*
X73249270Y-29581126D01*
X73483030Y-30145472D01*
X73602200Y-30744578D01*
X73602200Y-31355422D01*
X73483030Y-31954528D01*
X73249270Y-32518874D01*
X72909904Y-33026772D01*
X72477972Y-33458704D01*
X71970074Y-33798070D01*
X71405728Y-34031830D01*
X71106175Y-34091415D01*
X70806623Y-34151000D01*
X70195777Y-34151000D01*
X69896225Y-34091415D01*
X69596672Y-34031830D01*
X69032326Y-33798070D01*
X68524428Y-33458704D01*
X68092496Y-33026772D01*
X67753130Y-32518874D01*
X67519370Y-31954528D01*
X67400200Y-31355422D01*
X67400200Y-30744578D01*
X67519370Y-30145472D01*
X67753130Y-29581126D01*
X68092496Y-29073228D01*
X68524428Y-28641296D01*
X69032326Y-28301930D01*
X69596672Y-28068170D01*
X69896225Y-28008585D01*
X70195777Y-27949000D01*
X70806623Y-27949000D01*
X71106175Y-28008585D01*
X71106175Y-28008585D01*
G37*
G36*
X64248175Y-28008585D02*
G01*
X64547728Y-28068170D01*
X65112074Y-28301930D01*
X65619972Y-28641296D01*
X66051904Y-29073228D01*
X66391270Y-29581126D01*
X66625030Y-30145472D01*
X66744200Y-30744578D01*
X66744200Y-31355422D01*
X66625030Y-31954528D01*
X66391270Y-32518874D01*
X66051904Y-33026772D01*
X65619972Y-33458704D01*
X65112074Y-33798070D01*
X64547728Y-34031830D01*
X64248175Y-34091415D01*
X63948623Y-34151000D01*
X63337777Y-34151000D01*
X63038225Y-34091415D01*
X62738672Y-34031830D01*
X62174326Y-33798070D01*
X61666428Y-33458704D01*
X61234496Y-33026772D01*
X60895130Y-32518874D01*
X60661370Y-31954528D01*
X60542200Y-31355422D01*
X60542200Y-30744578D01*
X60661370Y-30145472D01*
X60895130Y-29581126D01*
X61234496Y-29073228D01*
X61666428Y-28641296D01*
X62174326Y-28301930D01*
X62738672Y-28068170D01*
X63038225Y-28008585D01*
X63337777Y-27949000D01*
X63948623Y-27949000D01*
X64248175Y-28008585D01*
X64248175Y-28008585D01*
G37*
G36*
X57390175Y-28008585D02*
G01*
X57689728Y-28068170D01*
X58254074Y-28301930D01*
X58761972Y-28641296D01*
X59193904Y-29073228D01*
X59533270Y-29581126D01*
X59767030Y-30145472D01*
X59886200Y-30744578D01*
X59886200Y-31355422D01*
X59767030Y-31954528D01*
X59533270Y-32518874D01*
X59193904Y-33026772D01*
X58761972Y-33458704D01*
X58254074Y-33798070D01*
X57689728Y-34031830D01*
X57390175Y-34091415D01*
X57090623Y-34151000D01*
X56479777Y-34151000D01*
X56180225Y-34091415D01*
X55880672Y-34031830D01*
X55316326Y-33798070D01*
X54808428Y-33458704D01*
X54376496Y-33026772D01*
X54037130Y-32518874D01*
X53803370Y-31954528D01*
X53684200Y-31355422D01*
X53684200Y-30744578D01*
X53803370Y-30145472D01*
X54037130Y-29581126D01*
X54376496Y-29073228D01*
X54808428Y-28641296D01*
X55316326Y-28301930D01*
X55880672Y-28068170D01*
X56180225Y-28008585D01*
X56479777Y-27949000D01*
X57090623Y-27949000D01*
X57390175Y-28008585D01*
X57390175Y-28008585D01*
G37*
G36*
X43674175Y-28008585D02*
G01*
X43973728Y-28068170D01*
X44538074Y-28301930D01*
X45045972Y-28641296D01*
X45477904Y-29073228D01*
X45817270Y-29581126D01*
X46051030Y-30145472D01*
X46170200Y-30744578D01*
X46170200Y-31355422D01*
X46051030Y-31954528D01*
X45817270Y-32518874D01*
X45477904Y-33026772D01*
X45045972Y-33458704D01*
X44538074Y-33798070D01*
X43973728Y-34031830D01*
X43674175Y-34091415D01*
X43374623Y-34151000D01*
X42763777Y-34151000D01*
X42464225Y-34091415D01*
X42164672Y-34031830D01*
X41600326Y-33798070D01*
X41092428Y-33458704D01*
X40660496Y-33026772D01*
X40321130Y-32518874D01*
X40087370Y-31954528D01*
X39968200Y-31355422D01*
X39968200Y-30744578D01*
X40087370Y-30145472D01*
X40321130Y-29581126D01*
X40660496Y-29073228D01*
X41092428Y-28641296D01*
X41600326Y-28301930D01*
X42164672Y-28068170D01*
X42464225Y-28008585D01*
X42763777Y-27949000D01*
X43374623Y-27949000D01*
X43674175Y-28008585D01*
X43674175Y-28008585D01*
G37*
G36*
X36816175Y-28008585D02*
G01*
X37115728Y-28068170D01*
X37680074Y-28301930D01*
X38187972Y-28641296D01*
X38619904Y-29073228D01*
X38959270Y-29581126D01*
X39193030Y-30145472D01*
X39312200Y-30744578D01*
X39312200Y-31355422D01*
X39193030Y-31954528D01*
X38959270Y-32518874D01*
X38619904Y-33026772D01*
X38187972Y-33458704D01*
X37680074Y-33798070D01*
X37115728Y-34031830D01*
X36816175Y-34091415D01*
X36516623Y-34151000D01*
X35905777Y-34151000D01*
X35606225Y-34091415D01*
X35306672Y-34031830D01*
X34742326Y-33798070D01*
X34234428Y-33458704D01*
X33802496Y-33026772D01*
X33463130Y-32518874D01*
X33229370Y-31954528D01*
X33110200Y-31355422D01*
X33110200Y-30744578D01*
X33229370Y-30145472D01*
X33463130Y-29581126D01*
X33802496Y-29073228D01*
X34234428Y-28641296D01*
X34742326Y-28301930D01*
X35306672Y-28068170D01*
X35606225Y-28008585D01*
X35905777Y-27949000D01*
X36516623Y-27949000D01*
X36816175Y-28008585D01*
X36816175Y-28008585D01*
G37*
G36*
X29958175Y-28008585D02*
G01*
X30257728Y-28068170D01*
X30822074Y-28301930D01*
X31329972Y-28641296D01*
X31761904Y-29073228D01*
X32101270Y-29581126D01*
X32335030Y-30145472D01*
X32454200Y-30744578D01*
X32454200Y-31355422D01*
X32335030Y-31954528D01*
X32101270Y-32518874D01*
X31761904Y-33026772D01*
X31329972Y-33458704D01*
X30822074Y-33798070D01*
X30257728Y-34031830D01*
X29958175Y-34091415D01*
X29658623Y-34151000D01*
X29047777Y-34151000D01*
X28748225Y-34091415D01*
X28448672Y-34031830D01*
X27884326Y-33798070D01*
X27376428Y-33458704D01*
X26944496Y-33026772D01*
X26605130Y-32518874D01*
X26371370Y-31954528D01*
X26252200Y-31355422D01*
X26252200Y-30744578D01*
X26371370Y-30145472D01*
X26605130Y-29581126D01*
X26944496Y-29073228D01*
X27376428Y-28641296D01*
X27884326Y-28301930D01*
X28448672Y-28068170D01*
X28748225Y-28008585D01*
X29047777Y-27949000D01*
X29658623Y-27949000D01*
X29958175Y-28008585D01*
X29958175Y-28008585D01*
G37*
G36*
X16242175Y-28008585D02*
G01*
X16541728Y-28068170D01*
X17106074Y-28301930D01*
X17613972Y-28641296D01*
X18045904Y-29073228D01*
X18385270Y-29581126D01*
X18619030Y-30145472D01*
X18738200Y-30744578D01*
X18738200Y-31355422D01*
X18619030Y-31954528D01*
X18385270Y-32518874D01*
X18045904Y-33026772D01*
X17613972Y-33458704D01*
X17106074Y-33798070D01*
X16541728Y-34031830D01*
X16242175Y-34091415D01*
X15942623Y-34151000D01*
X15331777Y-34151000D01*
X15032225Y-34091415D01*
X14732672Y-34031830D01*
X14168326Y-33798070D01*
X13660428Y-33458704D01*
X13228496Y-33026772D01*
X12889130Y-32518874D01*
X12655370Y-31954528D01*
X12536200Y-31355422D01*
X12536200Y-30744578D01*
X12655370Y-30145472D01*
X12889130Y-29581126D01*
X13228496Y-29073228D01*
X13660428Y-28641296D01*
X14168326Y-28301930D01*
X14732672Y-28068170D01*
X15032225Y-28008585D01*
X15331777Y-27949000D01*
X15942623Y-27949000D01*
X16242175Y-28008585D01*
X16242175Y-28008585D01*
G37*
G36*
X23100175Y-28008585D02*
G01*
X23399728Y-28068170D01*
X23964074Y-28301930D01*
X24471972Y-28641296D01*
X24903904Y-29073228D01*
X25243270Y-29581126D01*
X25477030Y-30145472D01*
X25596200Y-30744578D01*
X25596200Y-31355422D01*
X25477030Y-31954528D01*
X25243270Y-32518874D01*
X24903904Y-33026772D01*
X24471972Y-33458704D01*
X23964074Y-33798070D01*
X23399728Y-34031830D01*
X23100175Y-34091415D01*
X22800623Y-34151000D01*
X22189777Y-34151000D01*
X21890225Y-34091415D01*
X21590672Y-34031830D01*
X21026326Y-33798070D01*
X20518428Y-33458704D01*
X20086496Y-33026772D01*
X19747130Y-32518874D01*
X19513370Y-31954528D01*
X19394200Y-31355422D01*
X19394200Y-30744578D01*
X19513370Y-30145472D01*
X19747130Y-29581126D01*
X20086496Y-29073228D01*
X20518428Y-28641296D01*
X21026326Y-28301930D01*
X21590672Y-28068170D01*
X21890225Y-28008585D01*
X22189777Y-27949000D01*
X22800623Y-27949000D01*
X23100175Y-28008585D01*
X23100175Y-28008585D01*
G37*
G36*
X50532175Y-28008585D02*
G01*
X50831728Y-28068170D01*
X51396074Y-28301930D01*
X51903972Y-28641296D01*
X52335904Y-29073228D01*
X52675270Y-29581126D01*
X52909030Y-30145472D01*
X53028200Y-30744578D01*
X53028200Y-31355422D01*
X52909030Y-31954528D01*
X52675270Y-32518874D01*
X52335904Y-33026772D01*
X51903972Y-33458704D01*
X51396074Y-33798070D01*
X50831728Y-34031830D01*
X50532175Y-34091415D01*
X50232623Y-34151000D01*
X49621777Y-34151000D01*
X49322225Y-34091415D01*
X49022672Y-34031830D01*
X48458326Y-33798070D01*
X47950428Y-33458704D01*
X47518496Y-33026772D01*
X47179130Y-32518874D01*
X46945370Y-31954528D01*
X46826200Y-31355422D01*
X46826200Y-30744578D01*
X46945370Y-30145472D01*
X47179130Y-29581126D01*
X47518496Y-29073228D01*
X47950428Y-28641296D01*
X48458326Y-28301930D01*
X49022672Y-28068170D01*
X49322225Y-28008585D01*
X49621777Y-27949000D01*
X50232623Y-27949000D01*
X50532175Y-28008585D01*
X50532175Y-28008585D01*
G37*
G36*
X23100175Y-20388585D02*
G01*
X23399728Y-20448170D01*
X23964074Y-20681930D01*
X24471972Y-21021296D01*
X24903904Y-21453228D01*
X25243270Y-21961126D01*
X25477030Y-22525472D01*
X25596200Y-23124578D01*
X25596200Y-23735422D01*
X25477030Y-24334528D01*
X25243270Y-24898874D01*
X24903904Y-25406772D01*
X24471972Y-25838704D01*
X23964074Y-26178070D01*
X23399728Y-26411830D01*
X23100175Y-26471415D01*
X22800623Y-26531000D01*
X22189777Y-26531000D01*
X21890225Y-26471415D01*
X21590672Y-26411830D01*
X21026326Y-26178070D01*
X20518428Y-25838704D01*
X20086496Y-25406772D01*
X19747130Y-24898874D01*
X19513370Y-24334528D01*
X19394200Y-23735422D01*
X19394200Y-23124578D01*
X19513370Y-22525472D01*
X19747130Y-21961126D01*
X20086496Y-21453228D01*
X20518428Y-21021296D01*
X21026326Y-20681930D01*
X21590672Y-20448170D01*
X21890225Y-20388585D01*
X22189777Y-20329000D01*
X22800623Y-20329000D01*
X23100175Y-20388585D01*
X23100175Y-20388585D01*
G37*
G36*
X16242175Y-20388585D02*
G01*
X16541728Y-20448170D01*
X17106074Y-20681930D01*
X17613972Y-21021296D01*
X18045904Y-21453228D01*
X18385270Y-21961126D01*
X18619030Y-22525472D01*
X18738200Y-23124578D01*
X18738200Y-23735422D01*
X18619030Y-24334528D01*
X18385270Y-24898874D01*
X18045904Y-25406772D01*
X17613972Y-25838704D01*
X17106074Y-26178070D01*
X16541728Y-26411830D01*
X16242175Y-26471415D01*
X15942623Y-26531000D01*
X15331777Y-26531000D01*
X15032225Y-26471415D01*
X14732672Y-26411830D01*
X14168326Y-26178070D01*
X13660428Y-25838704D01*
X13228496Y-25406772D01*
X12889130Y-24898874D01*
X12655370Y-24334528D01*
X12536200Y-23735422D01*
X12536200Y-23124578D01*
X12655370Y-22525472D01*
X12889130Y-21961126D01*
X13228496Y-21453228D01*
X13660428Y-21021296D01*
X14168326Y-20681930D01*
X14732672Y-20448170D01*
X15032225Y-20388585D01*
X15331777Y-20329000D01*
X15942623Y-20329000D01*
X16242175Y-20388585D01*
X16242175Y-20388585D01*
G37*
G36*
X29958175Y-20388585D02*
G01*
X30257728Y-20448170D01*
X30822074Y-20681930D01*
X31329972Y-21021296D01*
X31761904Y-21453228D01*
X32101270Y-21961126D01*
X32335030Y-22525472D01*
X32454200Y-23124578D01*
X32454200Y-23735422D01*
X32335030Y-24334528D01*
X32101270Y-24898874D01*
X31761904Y-25406772D01*
X31329972Y-25838704D01*
X30822074Y-26178070D01*
X30257728Y-26411830D01*
X29958175Y-26471415D01*
X29658623Y-26531000D01*
X29047777Y-26531000D01*
X28748225Y-26471415D01*
X28448672Y-26411830D01*
X27884326Y-26178070D01*
X27376428Y-25838704D01*
X26944496Y-25406772D01*
X26605130Y-24898874D01*
X26371370Y-24334528D01*
X26252200Y-23735422D01*
X26252200Y-23124578D01*
X26371370Y-22525472D01*
X26605130Y-21961126D01*
X26944496Y-21453228D01*
X27376428Y-21021296D01*
X27884326Y-20681930D01*
X28448672Y-20448170D01*
X28748225Y-20388585D01*
X29047777Y-20329000D01*
X29658623Y-20329000D01*
X29958175Y-20388585D01*
X29958175Y-20388585D01*
G37*
G36*
X36816175Y-20388585D02*
G01*
X37115728Y-20448170D01*
X37680074Y-20681930D01*
X38187972Y-21021296D01*
X38619904Y-21453228D01*
X38959270Y-21961126D01*
X39193030Y-22525472D01*
X39312200Y-23124578D01*
X39312200Y-23735422D01*
X39193030Y-24334528D01*
X38959270Y-24898874D01*
X38619904Y-25406772D01*
X38187972Y-25838704D01*
X37680074Y-26178070D01*
X37115728Y-26411830D01*
X36816175Y-26471415D01*
X36516623Y-26531000D01*
X35905777Y-26531000D01*
X35606225Y-26471415D01*
X35306672Y-26411830D01*
X34742326Y-26178070D01*
X34234428Y-25838704D01*
X33802496Y-25406772D01*
X33463130Y-24898874D01*
X33229370Y-24334528D01*
X33110200Y-23735422D01*
X33110200Y-23124578D01*
X33229370Y-22525472D01*
X33463130Y-21961126D01*
X33802496Y-21453228D01*
X34234428Y-21021296D01*
X34742326Y-20681930D01*
X35306672Y-20448170D01*
X35606225Y-20388585D01*
X35905777Y-20329000D01*
X36516623Y-20329000D01*
X36816175Y-20388585D01*
X36816175Y-20388585D01*
G37*
G36*
X43674175Y-20388585D02*
G01*
X43973728Y-20448170D01*
X44538074Y-20681930D01*
X45045972Y-21021296D01*
X45477904Y-21453228D01*
X45817270Y-21961126D01*
X46051030Y-22525472D01*
X46170200Y-23124578D01*
X46170200Y-23735422D01*
X46051030Y-24334528D01*
X45817270Y-24898874D01*
X45477904Y-25406772D01*
X45045972Y-25838704D01*
X44538074Y-26178070D01*
X43973728Y-26411830D01*
X43674175Y-26471415D01*
X43374623Y-26531000D01*
X42763777Y-26531000D01*
X42464225Y-26471415D01*
X42164672Y-26411830D01*
X41600326Y-26178070D01*
X41092428Y-25838704D01*
X40660496Y-25406772D01*
X40321130Y-24898874D01*
X40087370Y-24334528D01*
X39968200Y-23735422D01*
X39968200Y-23124578D01*
X40087370Y-22525472D01*
X40321130Y-21961126D01*
X40660496Y-21453228D01*
X41092428Y-21021296D01*
X41600326Y-20681930D01*
X42164672Y-20448170D01*
X42464225Y-20388585D01*
X42763777Y-20329000D01*
X43374623Y-20329000D01*
X43674175Y-20388585D01*
X43674175Y-20388585D01*
G37*
G36*
X84822175Y-20388585D02*
G01*
X85121728Y-20448170D01*
X85686074Y-20681930D01*
X86193972Y-21021296D01*
X86625904Y-21453228D01*
X86965270Y-21961126D01*
X87199030Y-22525472D01*
X87318200Y-23124578D01*
X87318200Y-23735422D01*
X87199030Y-24334528D01*
X86965270Y-24898874D01*
X86625904Y-25406772D01*
X86193972Y-25838704D01*
X85686074Y-26178070D01*
X85121728Y-26411830D01*
X84822175Y-26471415D01*
X84522623Y-26531000D01*
X83911777Y-26531000D01*
X83612225Y-26471415D01*
X83312672Y-26411830D01*
X82748326Y-26178070D01*
X82240428Y-25838704D01*
X81808496Y-25406772D01*
X81469130Y-24898874D01*
X81235370Y-24334528D01*
X81116200Y-23735422D01*
X81116200Y-23124578D01*
X81235370Y-22525472D01*
X81469130Y-21961126D01*
X81808496Y-21453228D01*
X82240428Y-21021296D01*
X82748326Y-20681930D01*
X83312672Y-20448170D01*
X83612225Y-20388585D01*
X83911777Y-20329000D01*
X84522623Y-20329000D01*
X84822175Y-20388585D01*
X84822175Y-20388585D01*
G37*
G36*
X77964175Y-20388585D02*
G01*
X78263728Y-20448170D01*
X78828074Y-20681930D01*
X79335972Y-21021296D01*
X79767904Y-21453228D01*
X80107270Y-21961126D01*
X80341030Y-22525472D01*
X80460200Y-23124578D01*
X80460200Y-23735422D01*
X80341030Y-24334528D01*
X80107270Y-24898874D01*
X79767904Y-25406772D01*
X79335972Y-25838704D01*
X78828074Y-26178070D01*
X78263728Y-26411830D01*
X77964175Y-26471415D01*
X77664623Y-26531000D01*
X77053777Y-26531000D01*
X76754225Y-26471415D01*
X76454672Y-26411830D01*
X75890326Y-26178070D01*
X75382428Y-25838704D01*
X74950496Y-25406772D01*
X74611130Y-24898874D01*
X74377370Y-24334528D01*
X74258200Y-23735422D01*
X74258200Y-23124578D01*
X74377370Y-22525472D01*
X74611130Y-21961126D01*
X74950496Y-21453228D01*
X75382428Y-21021296D01*
X75890326Y-20681930D01*
X76454672Y-20448170D01*
X76754225Y-20388585D01*
X77053777Y-20329000D01*
X77664623Y-20329000D01*
X77964175Y-20388585D01*
X77964175Y-20388585D01*
G37*
G36*
X57390175Y-20388585D02*
G01*
X57689728Y-20448170D01*
X58254074Y-20681930D01*
X58761972Y-21021296D01*
X59193904Y-21453228D01*
X59533270Y-21961126D01*
X59767030Y-22525472D01*
X59886200Y-23124578D01*
X59886200Y-23735422D01*
X59767030Y-24334528D01*
X59533270Y-24898874D01*
X59193904Y-25406772D01*
X58761972Y-25838704D01*
X58254074Y-26178070D01*
X57689728Y-26411830D01*
X57390175Y-26471415D01*
X57090623Y-26531000D01*
X56479777Y-26531000D01*
X56180225Y-26471415D01*
X55880672Y-26411830D01*
X55316326Y-26178070D01*
X54808428Y-25838704D01*
X54376496Y-25406772D01*
X54037130Y-24898874D01*
X53803370Y-24334528D01*
X53684200Y-23735422D01*
X53684200Y-23124578D01*
X53803370Y-22525472D01*
X54037130Y-21961126D01*
X54376496Y-21453228D01*
X54808428Y-21021296D01*
X55316326Y-20681930D01*
X55880672Y-20448170D01*
X56180225Y-20388585D01*
X56479777Y-20329000D01*
X57090623Y-20329000D01*
X57390175Y-20388585D01*
X57390175Y-20388585D01*
G37*
G36*
X64248175Y-20388585D02*
G01*
X64547728Y-20448170D01*
X65112074Y-20681930D01*
X65619972Y-21021296D01*
X66051904Y-21453228D01*
X66391270Y-21961126D01*
X66625030Y-22525472D01*
X66744200Y-23124578D01*
X66744200Y-23735422D01*
X66625030Y-24334528D01*
X66391270Y-24898874D01*
X66051904Y-25406772D01*
X65619972Y-25838704D01*
X65112074Y-26178070D01*
X64547728Y-26411830D01*
X64248175Y-26471415D01*
X63948623Y-26531000D01*
X63337777Y-26531000D01*
X63038225Y-26471415D01*
X62738672Y-26411830D01*
X62174326Y-26178070D01*
X61666428Y-25838704D01*
X61234496Y-25406772D01*
X60895130Y-24898874D01*
X60661370Y-24334528D01*
X60542200Y-23735422D01*
X60542200Y-23124578D01*
X60661370Y-22525472D01*
X60895130Y-21961126D01*
X61234496Y-21453228D01*
X61666428Y-21021296D01*
X62174326Y-20681930D01*
X62738672Y-20448170D01*
X63038225Y-20388585D01*
X63337777Y-20329000D01*
X63948623Y-20329000D01*
X64248175Y-20388585D01*
X64248175Y-20388585D01*
G37*
G36*
X71106175Y-20388585D02*
G01*
X71405728Y-20448170D01*
X71970074Y-20681930D01*
X72477972Y-21021296D01*
X72909904Y-21453228D01*
X73249270Y-21961126D01*
X73483030Y-22525472D01*
X73602200Y-23124578D01*
X73602200Y-23735422D01*
X73483030Y-24334528D01*
X73249270Y-24898874D01*
X72909904Y-25406772D01*
X72477972Y-25838704D01*
X71970074Y-26178070D01*
X71405728Y-26411830D01*
X71106175Y-26471415D01*
X70806623Y-26531000D01*
X70195777Y-26531000D01*
X69896225Y-26471415D01*
X69596672Y-26411830D01*
X69032326Y-26178070D01*
X68524428Y-25838704D01*
X68092496Y-25406772D01*
X67753130Y-24898874D01*
X67519370Y-24334528D01*
X67400200Y-23735422D01*
X67400200Y-23124578D01*
X67519370Y-22525472D01*
X67753130Y-21961126D01*
X68092496Y-21453228D01*
X68524428Y-21021296D01*
X69032326Y-20681930D01*
X69596672Y-20448170D01*
X69896225Y-20388585D01*
X70195777Y-20329000D01*
X70806623Y-20329000D01*
X71106175Y-20388585D01*
X71106175Y-20388585D01*
G37*
G36*
X50532175Y-20388585D02*
G01*
X50831728Y-20448170D01*
X51396074Y-20681930D01*
X51903972Y-21021296D01*
X52335904Y-21453228D01*
X52675270Y-21961126D01*
X52909030Y-22525472D01*
X53028200Y-23124578D01*
X53028200Y-23735422D01*
X52909030Y-24334528D01*
X52675270Y-24898874D01*
X52335904Y-25406772D01*
X51903972Y-25838704D01*
X51396074Y-26178070D01*
X50831728Y-26411830D01*
X50532175Y-26471415D01*
X50232623Y-26531000D01*
X49621777Y-26531000D01*
X49322225Y-26471415D01*
X49022672Y-26411830D01*
X48458326Y-26178070D01*
X47950428Y-25838704D01*
X47518496Y-25406772D01*
X47179130Y-24898874D01*
X46945370Y-24334528D01*
X46826200Y-23735422D01*
X46826200Y-23124578D01*
X46945370Y-22525472D01*
X47179130Y-21961126D01*
X47518496Y-21453228D01*
X47950428Y-21021296D01*
X48458326Y-20681930D01*
X49022672Y-20448170D01*
X49322225Y-20388585D01*
X49621777Y-20329000D01*
X50232623Y-20329000D01*
X50532175Y-20388585D01*
X50532175Y-20388585D01*
G37*
G36*
X8028795Y-21334156D02*
G01*
X8135150Y-21355311D01*
X8335520Y-21438307D01*
X8515844Y-21558795D01*
X8669205Y-21712156D01*
X8789693Y-21892480D01*
X8872689Y-22092851D01*
X8915000Y-22305560D01*
X8915000Y-22522440D01*
X8872689Y-22735149D01*
X8789693Y-22935520D01*
X8669205Y-23115844D01*
X8515844Y-23269205D01*
X8335520Y-23389693D01*
X8235334Y-23431191D01*
X8135150Y-23472689D01*
X8028795Y-23493844D01*
X7922440Y-23515000D01*
X7705560Y-23515000D01*
X7599205Y-23493844D01*
X7492850Y-23472689D01*
X7392666Y-23431191D01*
X7292480Y-23389693D01*
X7112156Y-23269205D01*
X6958795Y-23115844D01*
X6838307Y-22935520D01*
X6755311Y-22735149D01*
X6713000Y-22522440D01*
X6713000Y-22305560D01*
X6755311Y-22092851D01*
X6838307Y-21892480D01*
X6958795Y-21712156D01*
X7112156Y-21558795D01*
X7292480Y-21438307D01*
X7492850Y-21355311D01*
X7599205Y-21334156D01*
X7705560Y-21313000D01*
X7922440Y-21313000D01*
X8028795Y-21334156D01*
X8028795Y-21334156D01*
G37*
G36*
X23100175Y-12768585D02*
G01*
X23399728Y-12828170D01*
X23964074Y-13061930D01*
X24471972Y-13401296D01*
X24903904Y-13833228D01*
X25243270Y-14341126D01*
X25477030Y-14905472D01*
X25596200Y-15504578D01*
X25596200Y-16115422D01*
X25477030Y-16714528D01*
X25243270Y-17278874D01*
X24903904Y-17786772D01*
X24471972Y-18218704D01*
X23964074Y-18558070D01*
X23399728Y-18791830D01*
X23100175Y-18851415D01*
X22800623Y-18911000D01*
X22189777Y-18911000D01*
X21890225Y-18851415D01*
X21590672Y-18791830D01*
X21026326Y-18558070D01*
X20518428Y-18218704D01*
X20086496Y-17786772D01*
X19747130Y-17278874D01*
X19513370Y-16714528D01*
X19394200Y-16115422D01*
X19394200Y-15504578D01*
X19513370Y-14905472D01*
X19747130Y-14341126D01*
X20086496Y-13833228D01*
X20518428Y-13401296D01*
X21026326Y-13061930D01*
X21590672Y-12828170D01*
X21890225Y-12768585D01*
X22189777Y-12709000D01*
X22800623Y-12709000D01*
X23100175Y-12768585D01*
X23100175Y-12768585D01*
G37*
G36*
X77964175Y-12768585D02*
G01*
X78263728Y-12828170D01*
X78828074Y-13061930D01*
X79335972Y-13401296D01*
X79767904Y-13833228D01*
X80107270Y-14341126D01*
X80341030Y-14905472D01*
X80460200Y-15504578D01*
X80460200Y-16115422D01*
X80341030Y-16714528D01*
X80107270Y-17278874D01*
X79767904Y-17786772D01*
X79335972Y-18218704D01*
X78828074Y-18558070D01*
X78263728Y-18791830D01*
X77964175Y-18851415D01*
X77664623Y-18911000D01*
X77053777Y-18911000D01*
X76754225Y-18851415D01*
X76454672Y-18791830D01*
X75890326Y-18558070D01*
X75382428Y-18218704D01*
X74950496Y-17786772D01*
X74611130Y-17278874D01*
X74377370Y-16714528D01*
X74258200Y-16115422D01*
X74258200Y-15504578D01*
X74377370Y-14905472D01*
X74611130Y-14341126D01*
X74950496Y-13833228D01*
X75382428Y-13401296D01*
X75890326Y-13061930D01*
X76454672Y-12828170D01*
X76754225Y-12768585D01*
X77053777Y-12709000D01*
X77664623Y-12709000D01*
X77964175Y-12768585D01*
X77964175Y-12768585D01*
G37*
G36*
X84822175Y-12768585D02*
G01*
X85121728Y-12828170D01*
X85686074Y-13061930D01*
X86193972Y-13401296D01*
X86625904Y-13833228D01*
X86965270Y-14341126D01*
X87199030Y-14905472D01*
X87318200Y-15504578D01*
X87318200Y-16115422D01*
X87199030Y-16714528D01*
X86965270Y-17278874D01*
X86625904Y-17786772D01*
X86193972Y-18218704D01*
X85686074Y-18558070D01*
X85121728Y-18791830D01*
X84822175Y-18851415D01*
X84522623Y-18911000D01*
X83911777Y-18911000D01*
X83612225Y-18851415D01*
X83312672Y-18791830D01*
X82748326Y-18558070D01*
X82240428Y-18218704D01*
X81808496Y-17786772D01*
X81469130Y-17278874D01*
X81235370Y-16714528D01*
X81116200Y-16115422D01*
X81116200Y-15504578D01*
X81235370Y-14905472D01*
X81469130Y-14341126D01*
X81808496Y-13833228D01*
X82240428Y-13401296D01*
X82748326Y-13061930D01*
X83312672Y-12828170D01*
X83612225Y-12768585D01*
X83911777Y-12709000D01*
X84522623Y-12709000D01*
X84822175Y-12768585D01*
X84822175Y-12768585D01*
G37*
G36*
X64248175Y-12768585D02*
G01*
X64547728Y-12828170D01*
X65112074Y-13061930D01*
X65619972Y-13401296D01*
X66051904Y-13833228D01*
X66391270Y-14341126D01*
X66625030Y-14905472D01*
X66744200Y-15504578D01*
X66744200Y-16115422D01*
X66625030Y-16714528D01*
X66391270Y-17278874D01*
X66051904Y-17786772D01*
X65619972Y-18218704D01*
X65112074Y-18558070D01*
X64547728Y-18791830D01*
X64248175Y-18851415D01*
X63948623Y-18911000D01*
X63337777Y-18911000D01*
X63038225Y-18851415D01*
X62738672Y-18791830D01*
X62174326Y-18558070D01*
X61666428Y-18218704D01*
X61234496Y-17786772D01*
X60895130Y-17278874D01*
X60661370Y-16714528D01*
X60542200Y-16115422D01*
X60542200Y-15504578D01*
X60661370Y-14905472D01*
X60895130Y-14341126D01*
X61234496Y-13833228D01*
X61666428Y-13401296D01*
X62174326Y-13061930D01*
X62738672Y-12828170D01*
X63038225Y-12768585D01*
X63337777Y-12709000D01*
X63948623Y-12709000D01*
X64248175Y-12768585D01*
X64248175Y-12768585D01*
G37*
G36*
X57390175Y-12768585D02*
G01*
X57689728Y-12828170D01*
X58254074Y-13061930D01*
X58761972Y-13401296D01*
X59193904Y-13833228D01*
X59533270Y-14341126D01*
X59767030Y-14905472D01*
X59886200Y-15504578D01*
X59886200Y-16115422D01*
X59767030Y-16714528D01*
X59533270Y-17278874D01*
X59193904Y-17786772D01*
X58761972Y-18218704D01*
X58254074Y-18558070D01*
X57689728Y-18791830D01*
X57390175Y-18851415D01*
X57090623Y-18911000D01*
X56479777Y-18911000D01*
X56180225Y-18851415D01*
X55880672Y-18791830D01*
X55316326Y-18558070D01*
X54808428Y-18218704D01*
X54376496Y-17786772D01*
X54037130Y-17278874D01*
X53803370Y-16714528D01*
X53684200Y-16115422D01*
X53684200Y-15504578D01*
X53803370Y-14905472D01*
X54037130Y-14341126D01*
X54376496Y-13833228D01*
X54808428Y-13401296D01*
X55316326Y-13061930D01*
X55880672Y-12828170D01*
X56180225Y-12768585D01*
X56479777Y-12709000D01*
X57090623Y-12709000D01*
X57390175Y-12768585D01*
X57390175Y-12768585D01*
G37*
G36*
X50532175Y-12768585D02*
G01*
X50831728Y-12828170D01*
X51396074Y-13061930D01*
X51903972Y-13401296D01*
X52335904Y-13833228D01*
X52675270Y-14341126D01*
X52909030Y-14905472D01*
X53028200Y-15504578D01*
X53028200Y-16115422D01*
X52909030Y-16714528D01*
X52675270Y-17278874D01*
X52335904Y-17786772D01*
X51903972Y-18218704D01*
X51396074Y-18558070D01*
X50831728Y-18791830D01*
X50532175Y-18851415D01*
X50232623Y-18911000D01*
X49621777Y-18911000D01*
X49322225Y-18851415D01*
X49022672Y-18791830D01*
X48458326Y-18558070D01*
X47950428Y-18218704D01*
X47518496Y-17786772D01*
X47179130Y-17278874D01*
X46945370Y-16714528D01*
X46826200Y-16115422D01*
X46826200Y-15504578D01*
X46945370Y-14905472D01*
X47179130Y-14341126D01*
X47518496Y-13833228D01*
X47950428Y-13401296D01*
X48458326Y-13061930D01*
X49022672Y-12828170D01*
X49322225Y-12768585D01*
X49621777Y-12709000D01*
X50232623Y-12709000D01*
X50532175Y-12768585D01*
X50532175Y-12768585D01*
G37*
G36*
X43674175Y-12768585D02*
G01*
X43973728Y-12828170D01*
X44538074Y-13061930D01*
X45045972Y-13401296D01*
X45477904Y-13833228D01*
X45817270Y-14341126D01*
X46051030Y-14905472D01*
X46170200Y-15504578D01*
X46170200Y-16115422D01*
X46051030Y-16714528D01*
X45817270Y-17278874D01*
X45477904Y-17786772D01*
X45045972Y-18218704D01*
X44538074Y-18558070D01*
X43973728Y-18791830D01*
X43674175Y-18851415D01*
X43374623Y-18911000D01*
X42763777Y-18911000D01*
X42464225Y-18851415D01*
X42164672Y-18791830D01*
X41600326Y-18558070D01*
X41092428Y-18218704D01*
X40660496Y-17786772D01*
X40321130Y-17278874D01*
X40087370Y-16714528D01*
X39968200Y-16115422D01*
X39968200Y-15504578D01*
X40087370Y-14905472D01*
X40321130Y-14341126D01*
X40660496Y-13833228D01*
X41092428Y-13401296D01*
X41600326Y-13061930D01*
X42164672Y-12828170D01*
X42464225Y-12768585D01*
X42763777Y-12709000D01*
X43374623Y-12709000D01*
X43674175Y-12768585D01*
X43674175Y-12768585D01*
G37*
G36*
X36816175Y-12768585D02*
G01*
X37115728Y-12828170D01*
X37680074Y-13061930D01*
X38187972Y-13401296D01*
X38619904Y-13833228D01*
X38959270Y-14341126D01*
X39193030Y-14905472D01*
X39312200Y-15504578D01*
X39312200Y-16115422D01*
X39193030Y-16714528D01*
X38959270Y-17278874D01*
X38619904Y-17786772D01*
X38187972Y-18218704D01*
X37680074Y-18558070D01*
X37115728Y-18791830D01*
X36816175Y-18851415D01*
X36516623Y-18911000D01*
X35905777Y-18911000D01*
X35606225Y-18851415D01*
X35306672Y-18791830D01*
X34742326Y-18558070D01*
X34234428Y-18218704D01*
X33802496Y-17786772D01*
X33463130Y-17278874D01*
X33229370Y-16714528D01*
X33110200Y-16115422D01*
X33110200Y-15504578D01*
X33229370Y-14905472D01*
X33463130Y-14341126D01*
X33802496Y-13833228D01*
X34234428Y-13401296D01*
X34742326Y-13061930D01*
X35306672Y-12828170D01*
X35606225Y-12768585D01*
X35905777Y-12709000D01*
X36516623Y-12709000D01*
X36816175Y-12768585D01*
X36816175Y-12768585D01*
G37*
G36*
X29958175Y-12768585D02*
G01*
X30257728Y-12828170D01*
X30822074Y-13061930D01*
X31329972Y-13401296D01*
X31761904Y-13833228D01*
X32101270Y-14341126D01*
X32335030Y-14905472D01*
X32454200Y-15504578D01*
X32454200Y-16115422D01*
X32335030Y-16714528D01*
X32101270Y-17278874D01*
X31761904Y-17786772D01*
X31329972Y-18218704D01*
X30822074Y-18558070D01*
X30257728Y-18791830D01*
X29958175Y-18851415D01*
X29658623Y-18911000D01*
X29047777Y-18911000D01*
X28748225Y-18851415D01*
X28448672Y-18791830D01*
X27884326Y-18558070D01*
X27376428Y-18218704D01*
X26944496Y-17786772D01*
X26605130Y-17278874D01*
X26371370Y-16714528D01*
X26252200Y-16115422D01*
X26252200Y-15504578D01*
X26371370Y-14905472D01*
X26605130Y-14341126D01*
X26944496Y-13833228D01*
X27376428Y-13401296D01*
X27884326Y-13061930D01*
X28448672Y-12828170D01*
X28748225Y-12768585D01*
X29047777Y-12709000D01*
X29658623Y-12709000D01*
X29958175Y-12768585D01*
X29958175Y-12768585D01*
G37*
G36*
X16242175Y-12768585D02*
G01*
X16541728Y-12828170D01*
X17106074Y-13061930D01*
X17613972Y-13401296D01*
X18045904Y-13833228D01*
X18385270Y-14341126D01*
X18619030Y-14905472D01*
X18738200Y-15504578D01*
X18738200Y-16115422D01*
X18619030Y-16714528D01*
X18385270Y-17278874D01*
X18045904Y-17786772D01*
X17613972Y-18218704D01*
X17106074Y-18558070D01*
X16541728Y-18791830D01*
X16242175Y-18851415D01*
X15942623Y-18911000D01*
X15331777Y-18911000D01*
X15032225Y-18851415D01*
X14732672Y-18791830D01*
X14168326Y-18558070D01*
X13660428Y-18218704D01*
X13228496Y-17786772D01*
X12889130Y-17278874D01*
X12655370Y-16714528D01*
X12536200Y-16115422D01*
X12536200Y-15504578D01*
X12655370Y-14905472D01*
X12889130Y-14341126D01*
X13228496Y-13833228D01*
X13660428Y-13401296D01*
X14168326Y-13061930D01*
X14732672Y-12828170D01*
X15032225Y-12768585D01*
X15331777Y-12709000D01*
X15942623Y-12709000D01*
X16242175Y-12768585D01*
X16242175Y-12768585D01*
G37*
G36*
X71106175Y-12768585D02*
G01*
X71405728Y-12828170D01*
X71970074Y-13061930D01*
X72477972Y-13401296D01*
X72909904Y-13833228D01*
X73249270Y-14341126D01*
X73483030Y-14905472D01*
X73602200Y-15504578D01*
X73602200Y-16115422D01*
X73483030Y-16714528D01*
X73249270Y-17278874D01*
X72909904Y-17786772D01*
X72477972Y-18218704D01*
X71970074Y-18558070D01*
X71405728Y-18791830D01*
X71106175Y-18851415D01*
X70806623Y-18911000D01*
X70195777Y-18911000D01*
X69896225Y-18851415D01*
X69596672Y-18791830D01*
X69032326Y-18558070D01*
X68524428Y-18218704D01*
X68092496Y-17786772D01*
X67753130Y-17278874D01*
X67519370Y-16714528D01*
X67400200Y-16115422D01*
X67400200Y-15504578D01*
X67519370Y-14905472D01*
X67753130Y-14341126D01*
X68092496Y-13833228D01*
X68524428Y-13401296D01*
X69032326Y-13061930D01*
X69596672Y-12828170D01*
X69896225Y-12768585D01*
X70195777Y-12709000D01*
X70806623Y-12709000D01*
X71106175Y-12768585D01*
X71106175Y-12768585D01*
G37*
G36*
X95214794Y-3920155D02*
G01*
X95321150Y-3941311D01*
X95421334Y-3982809D01*
X95521520Y-4024307D01*
X95701844Y-4144795D01*
X95855205Y-4298156D01*
X95975693Y-4478480D01*
X96058689Y-4678851D01*
X96101000Y-4891560D01*
X96101000Y-5108440D01*
X96058689Y-5321149D01*
X95975693Y-5521520D01*
X95855205Y-5701844D01*
X95701844Y-5855205D01*
X95521520Y-5975693D01*
X95321150Y-6058689D01*
X95214795Y-6079844D01*
X95108440Y-6101000D01*
X94891560Y-6101000D01*
X94785205Y-6079844D01*
X94678850Y-6058689D01*
X94478480Y-5975693D01*
X94298156Y-5855205D01*
X94144795Y-5701844D01*
X94024307Y-5521520D01*
X93941311Y-5321149D01*
X93899000Y-5108440D01*
X93899000Y-4891560D01*
X93941311Y-4678851D01*
X94024307Y-4478480D01*
X94144795Y-4298156D01*
X94298156Y-4144795D01*
X94478480Y-4024307D01*
X94578666Y-3982809D01*
X94678850Y-3941311D01*
X94785206Y-3920155D01*
X94891560Y-3899000D01*
X95108440Y-3899000D01*
X95214794Y-3920155D01*
X95214794Y-3920155D01*
G37*
M02*
