G04 #@! TF.GenerationSoftware,KiCad,Pcbnew,(5.1.4)-1*
G04 #@! TF.CreationDate,2019-12-11T22:02:44-05:00*
G04 #@! TF.ProjectId,spacer,73706163-6572-42e6-9b69-6361645f7063,rev?*
G04 #@! TF.SameCoordinates,Original*
G04 #@! TF.FileFunction,Copper,L2,Bot*
G04 #@! TF.FilePolarity,Positive*
%FSLAX46Y46*%
G04 Gerber Fmt 4.6, Leading zero omitted, Abs format (unit mm)*
G04 Created by KiCad (PCBNEW (5.1.4)-1) date 2019-12-11 22:02:44*
%MOMM*%
%LPD*%
G04 APERTURE LIST*
%ADD10C,6.100000*%
G04 APERTURE END LIST*
D10*
X84217200Y-84390000D03*
X77359200Y-84390000D03*
X70501200Y-84390000D03*
X63643200Y-84390000D03*
X56785200Y-84390000D03*
X49927200Y-84390000D03*
X43069200Y-84390000D03*
X36211200Y-84390000D03*
X29353200Y-84390000D03*
X22495200Y-84390000D03*
X15637200Y-84390000D03*
X84217200Y-76770000D03*
X77359200Y-76770000D03*
X70501200Y-76770000D03*
X63643200Y-76770000D03*
X56785200Y-76770000D03*
X49927200Y-76770000D03*
X43069200Y-76770000D03*
X36211200Y-76770000D03*
X29353200Y-76770000D03*
X22495200Y-76770000D03*
X15637200Y-76770000D03*
X84217200Y-69150000D03*
X77359200Y-69150000D03*
X70501200Y-69150000D03*
X63643200Y-69150000D03*
X56785200Y-69150000D03*
X49927200Y-69150000D03*
X43069200Y-69150000D03*
X36211200Y-69150000D03*
X29353200Y-69150000D03*
X22495200Y-69150000D03*
X15637200Y-69150000D03*
X84217200Y-61530000D03*
X77359200Y-61530000D03*
X70501200Y-61530000D03*
X63643200Y-61530000D03*
X56785200Y-61530000D03*
X49927200Y-61530000D03*
X43069200Y-61530000D03*
X36211200Y-61530000D03*
X29353200Y-61530000D03*
X22495200Y-61530000D03*
X15637200Y-61530000D03*
X84217200Y-53910000D03*
X77359200Y-53910000D03*
X70501200Y-53910000D03*
X63643200Y-53910000D03*
X56785200Y-53910000D03*
X49927200Y-53910000D03*
X43069200Y-53910000D03*
X36211200Y-53910000D03*
X29353200Y-53910000D03*
X22495200Y-53910000D03*
X15637200Y-53910000D03*
X84217200Y-46290000D03*
X77359200Y-46290000D03*
X70501200Y-46290000D03*
X63643200Y-46290000D03*
X56785200Y-46290000D03*
X49927200Y-46290000D03*
X43069200Y-46290000D03*
X36211200Y-46290000D03*
X29353200Y-46290000D03*
X22495200Y-46290000D03*
X15637200Y-46290000D03*
X84217200Y-38670000D03*
X77359200Y-38670000D03*
X70501200Y-38670000D03*
X63643200Y-38670000D03*
X56785200Y-38670000D03*
X49927200Y-38670000D03*
X43069200Y-38670000D03*
X36211200Y-38670000D03*
X29353200Y-38670000D03*
X22495200Y-38670000D03*
X15637200Y-38670000D03*
X84217200Y-31050000D03*
X77359200Y-31050000D03*
X70501200Y-31050000D03*
X63643200Y-31050000D03*
X56785200Y-31050000D03*
X49927200Y-31050000D03*
X43069200Y-31050000D03*
X36211200Y-31050000D03*
X29353200Y-31050000D03*
X22495200Y-31050000D03*
X15637200Y-31050000D03*
X84217200Y-23430000D03*
X77359200Y-23430000D03*
X70501200Y-23430000D03*
X63643200Y-23430000D03*
X56785200Y-23430000D03*
X49927200Y-23430000D03*
X43069200Y-23430000D03*
X36211200Y-23430000D03*
X29353200Y-23430000D03*
X22495200Y-23430000D03*
X15637200Y-23430000D03*
X84217200Y-15810000D03*
X77359200Y-15810000D03*
X70501200Y-15810000D03*
X63643200Y-15810000D03*
X56785200Y-15810000D03*
X49927200Y-15810000D03*
X43069200Y-15810000D03*
X36211200Y-15810000D03*
X29353200Y-15810000D03*
X22495200Y-15810000D03*
X15637200Y-15810000D03*
M02*
