G04 #@! TF.GenerationSoftware,KiCad,Pcbnew,(5.1.4)-1*
G04 #@! TF.CreationDate,2019-12-11T22:02:44-05:00*
G04 #@! TF.ProjectId,spacer,73706163-6572-42e6-9b69-6361645f7063,rev?*
G04 #@! TF.SameCoordinates,Original*
G04 #@! TF.FileFunction,Legend,Top*
G04 #@! TF.FilePolarity,Positive*
%FSLAX46Y46*%
G04 Gerber Fmt 4.6, Leading zero omitted, Abs format (unit mm)*
G04 Created by KiCad (PCBNEW (5.1.4)-1) date 2019-12-11 22:02:44*
%MOMM*%
%LPD*%
G04 APERTURE LIST*
%ADD10C,0.150000*%
%ADD11C,0.130000*%
G04 APERTURE END LIST*
D10*
X82883866Y-89142380D02*
X82550533Y-88666190D01*
X82312438Y-89142380D02*
X82312438Y-88142380D01*
X82693390Y-88142380D01*
X82788628Y-88190000D01*
X82836247Y-88237619D01*
X82883866Y-88332857D01*
X82883866Y-88475714D01*
X82836247Y-88570952D01*
X82788628Y-88618571D01*
X82693390Y-88666190D01*
X82312438Y-88666190D01*
X83312438Y-88618571D02*
X83645771Y-88618571D01*
X83788628Y-89142380D02*
X83312438Y-89142380D01*
X83312438Y-88142380D01*
X83788628Y-88142380D01*
X84550533Y-88618571D02*
X84217200Y-88618571D01*
X84217200Y-89142380D02*
X84217200Y-88142380D01*
X84693390Y-88142380D01*
X85217200Y-88142380D02*
X85217200Y-88380476D01*
X84979104Y-88285238D02*
X85217200Y-88380476D01*
X85455295Y-88285238D01*
X85074342Y-88570952D02*
X85217200Y-88380476D01*
X85360057Y-88570952D01*
X85979104Y-88142380D02*
X85979104Y-88380476D01*
X85741009Y-88285238D02*
X85979104Y-88380476D01*
X86217200Y-88285238D01*
X85836247Y-88570952D02*
X85979104Y-88380476D01*
X86121961Y-88570952D01*
X76025866Y-89142380D02*
X75692533Y-88666190D01*
X75454438Y-89142380D02*
X75454438Y-88142380D01*
X75835390Y-88142380D01*
X75930628Y-88190000D01*
X75978247Y-88237619D01*
X76025866Y-88332857D01*
X76025866Y-88475714D01*
X75978247Y-88570952D01*
X75930628Y-88618571D01*
X75835390Y-88666190D01*
X75454438Y-88666190D01*
X76454438Y-88618571D02*
X76787771Y-88618571D01*
X76930628Y-89142380D02*
X76454438Y-89142380D01*
X76454438Y-88142380D01*
X76930628Y-88142380D01*
X77692533Y-88618571D02*
X77359200Y-88618571D01*
X77359200Y-89142380D02*
X77359200Y-88142380D01*
X77835390Y-88142380D01*
X78359200Y-88142380D02*
X78359200Y-88380476D01*
X78121104Y-88285238D02*
X78359200Y-88380476D01*
X78597295Y-88285238D01*
X78216342Y-88570952D02*
X78359200Y-88380476D01*
X78502057Y-88570952D01*
X79121104Y-88142380D02*
X79121104Y-88380476D01*
X78883009Y-88285238D02*
X79121104Y-88380476D01*
X79359200Y-88285238D01*
X78978247Y-88570952D02*
X79121104Y-88380476D01*
X79263961Y-88570952D01*
X69167866Y-89142380D02*
X68834533Y-88666190D01*
X68596438Y-89142380D02*
X68596438Y-88142380D01*
X68977390Y-88142380D01*
X69072628Y-88190000D01*
X69120247Y-88237619D01*
X69167866Y-88332857D01*
X69167866Y-88475714D01*
X69120247Y-88570952D01*
X69072628Y-88618571D01*
X68977390Y-88666190D01*
X68596438Y-88666190D01*
X69596438Y-88618571D02*
X69929771Y-88618571D01*
X70072628Y-89142380D02*
X69596438Y-89142380D01*
X69596438Y-88142380D01*
X70072628Y-88142380D01*
X70834533Y-88618571D02*
X70501200Y-88618571D01*
X70501200Y-89142380D02*
X70501200Y-88142380D01*
X70977390Y-88142380D01*
X71501200Y-88142380D02*
X71501200Y-88380476D01*
X71263104Y-88285238D02*
X71501200Y-88380476D01*
X71739295Y-88285238D01*
X71358342Y-88570952D02*
X71501200Y-88380476D01*
X71644057Y-88570952D01*
X72263104Y-88142380D02*
X72263104Y-88380476D01*
X72025009Y-88285238D02*
X72263104Y-88380476D01*
X72501200Y-88285238D01*
X72120247Y-88570952D02*
X72263104Y-88380476D01*
X72405961Y-88570952D01*
X62309866Y-89142380D02*
X61976533Y-88666190D01*
X61738438Y-89142380D02*
X61738438Y-88142380D01*
X62119390Y-88142380D01*
X62214628Y-88190000D01*
X62262247Y-88237619D01*
X62309866Y-88332857D01*
X62309866Y-88475714D01*
X62262247Y-88570952D01*
X62214628Y-88618571D01*
X62119390Y-88666190D01*
X61738438Y-88666190D01*
X62738438Y-88618571D02*
X63071771Y-88618571D01*
X63214628Y-89142380D02*
X62738438Y-89142380D01*
X62738438Y-88142380D01*
X63214628Y-88142380D01*
X63976533Y-88618571D02*
X63643200Y-88618571D01*
X63643200Y-89142380D02*
X63643200Y-88142380D01*
X64119390Y-88142380D01*
X64643200Y-88142380D02*
X64643200Y-88380476D01*
X64405104Y-88285238D02*
X64643200Y-88380476D01*
X64881295Y-88285238D01*
X64500342Y-88570952D02*
X64643200Y-88380476D01*
X64786057Y-88570952D01*
X65405104Y-88142380D02*
X65405104Y-88380476D01*
X65167009Y-88285238D02*
X65405104Y-88380476D01*
X65643200Y-88285238D01*
X65262247Y-88570952D02*
X65405104Y-88380476D01*
X65547961Y-88570952D01*
X55451866Y-89142380D02*
X55118533Y-88666190D01*
X54880438Y-89142380D02*
X54880438Y-88142380D01*
X55261390Y-88142380D01*
X55356628Y-88190000D01*
X55404247Y-88237619D01*
X55451866Y-88332857D01*
X55451866Y-88475714D01*
X55404247Y-88570952D01*
X55356628Y-88618571D01*
X55261390Y-88666190D01*
X54880438Y-88666190D01*
X55880438Y-88618571D02*
X56213771Y-88618571D01*
X56356628Y-89142380D02*
X55880438Y-89142380D01*
X55880438Y-88142380D01*
X56356628Y-88142380D01*
X57118533Y-88618571D02*
X56785200Y-88618571D01*
X56785200Y-89142380D02*
X56785200Y-88142380D01*
X57261390Y-88142380D01*
X57785200Y-88142380D02*
X57785200Y-88380476D01*
X57547104Y-88285238D02*
X57785200Y-88380476D01*
X58023295Y-88285238D01*
X57642342Y-88570952D02*
X57785200Y-88380476D01*
X57928057Y-88570952D01*
X58547104Y-88142380D02*
X58547104Y-88380476D01*
X58309009Y-88285238D02*
X58547104Y-88380476D01*
X58785200Y-88285238D01*
X58404247Y-88570952D02*
X58547104Y-88380476D01*
X58689961Y-88570952D01*
X48593866Y-89142380D02*
X48260533Y-88666190D01*
X48022438Y-89142380D02*
X48022438Y-88142380D01*
X48403390Y-88142380D01*
X48498628Y-88190000D01*
X48546247Y-88237619D01*
X48593866Y-88332857D01*
X48593866Y-88475714D01*
X48546247Y-88570952D01*
X48498628Y-88618571D01*
X48403390Y-88666190D01*
X48022438Y-88666190D01*
X49022438Y-88618571D02*
X49355771Y-88618571D01*
X49498628Y-89142380D02*
X49022438Y-89142380D01*
X49022438Y-88142380D01*
X49498628Y-88142380D01*
X50260533Y-88618571D02*
X49927200Y-88618571D01*
X49927200Y-89142380D02*
X49927200Y-88142380D01*
X50403390Y-88142380D01*
X50927200Y-88142380D02*
X50927200Y-88380476D01*
X50689104Y-88285238D02*
X50927200Y-88380476D01*
X51165295Y-88285238D01*
X50784342Y-88570952D02*
X50927200Y-88380476D01*
X51070057Y-88570952D01*
X51689104Y-88142380D02*
X51689104Y-88380476D01*
X51451009Y-88285238D02*
X51689104Y-88380476D01*
X51927200Y-88285238D01*
X51546247Y-88570952D02*
X51689104Y-88380476D01*
X51831961Y-88570952D01*
X41735866Y-89142380D02*
X41402533Y-88666190D01*
X41164438Y-89142380D02*
X41164438Y-88142380D01*
X41545390Y-88142380D01*
X41640628Y-88190000D01*
X41688247Y-88237619D01*
X41735866Y-88332857D01*
X41735866Y-88475714D01*
X41688247Y-88570952D01*
X41640628Y-88618571D01*
X41545390Y-88666190D01*
X41164438Y-88666190D01*
X42164438Y-88618571D02*
X42497771Y-88618571D01*
X42640628Y-89142380D02*
X42164438Y-89142380D01*
X42164438Y-88142380D01*
X42640628Y-88142380D01*
X43402533Y-88618571D02*
X43069200Y-88618571D01*
X43069200Y-89142380D02*
X43069200Y-88142380D01*
X43545390Y-88142380D01*
X44069200Y-88142380D02*
X44069200Y-88380476D01*
X43831104Y-88285238D02*
X44069200Y-88380476D01*
X44307295Y-88285238D01*
X43926342Y-88570952D02*
X44069200Y-88380476D01*
X44212057Y-88570952D01*
X44831104Y-88142380D02*
X44831104Y-88380476D01*
X44593009Y-88285238D02*
X44831104Y-88380476D01*
X45069200Y-88285238D01*
X44688247Y-88570952D02*
X44831104Y-88380476D01*
X44973961Y-88570952D01*
X34877866Y-89142380D02*
X34544533Y-88666190D01*
X34306438Y-89142380D02*
X34306438Y-88142380D01*
X34687390Y-88142380D01*
X34782628Y-88190000D01*
X34830247Y-88237619D01*
X34877866Y-88332857D01*
X34877866Y-88475714D01*
X34830247Y-88570952D01*
X34782628Y-88618571D01*
X34687390Y-88666190D01*
X34306438Y-88666190D01*
X35306438Y-88618571D02*
X35639771Y-88618571D01*
X35782628Y-89142380D02*
X35306438Y-89142380D01*
X35306438Y-88142380D01*
X35782628Y-88142380D01*
X36544533Y-88618571D02*
X36211200Y-88618571D01*
X36211200Y-89142380D02*
X36211200Y-88142380D01*
X36687390Y-88142380D01*
X37211200Y-88142380D02*
X37211200Y-88380476D01*
X36973104Y-88285238D02*
X37211200Y-88380476D01*
X37449295Y-88285238D01*
X37068342Y-88570952D02*
X37211200Y-88380476D01*
X37354057Y-88570952D01*
X37973104Y-88142380D02*
X37973104Y-88380476D01*
X37735009Y-88285238D02*
X37973104Y-88380476D01*
X38211200Y-88285238D01*
X37830247Y-88570952D02*
X37973104Y-88380476D01*
X38115961Y-88570952D01*
X28019866Y-89142380D02*
X27686533Y-88666190D01*
X27448438Y-89142380D02*
X27448438Y-88142380D01*
X27829390Y-88142380D01*
X27924628Y-88190000D01*
X27972247Y-88237619D01*
X28019866Y-88332857D01*
X28019866Y-88475714D01*
X27972247Y-88570952D01*
X27924628Y-88618571D01*
X27829390Y-88666190D01*
X27448438Y-88666190D01*
X28448438Y-88618571D02*
X28781771Y-88618571D01*
X28924628Y-89142380D02*
X28448438Y-89142380D01*
X28448438Y-88142380D01*
X28924628Y-88142380D01*
X29686533Y-88618571D02*
X29353200Y-88618571D01*
X29353200Y-89142380D02*
X29353200Y-88142380D01*
X29829390Y-88142380D01*
X30353200Y-88142380D02*
X30353200Y-88380476D01*
X30115104Y-88285238D02*
X30353200Y-88380476D01*
X30591295Y-88285238D01*
X30210342Y-88570952D02*
X30353200Y-88380476D01*
X30496057Y-88570952D01*
X31115104Y-88142380D02*
X31115104Y-88380476D01*
X30877009Y-88285238D02*
X31115104Y-88380476D01*
X31353200Y-88285238D01*
X30972247Y-88570952D02*
X31115104Y-88380476D01*
X31257961Y-88570952D01*
X21161866Y-89142380D02*
X20828533Y-88666190D01*
X20590438Y-89142380D02*
X20590438Y-88142380D01*
X20971390Y-88142380D01*
X21066628Y-88190000D01*
X21114247Y-88237619D01*
X21161866Y-88332857D01*
X21161866Y-88475714D01*
X21114247Y-88570952D01*
X21066628Y-88618571D01*
X20971390Y-88666190D01*
X20590438Y-88666190D01*
X21590438Y-88618571D02*
X21923771Y-88618571D01*
X22066628Y-89142380D02*
X21590438Y-89142380D01*
X21590438Y-88142380D01*
X22066628Y-88142380D01*
X22828533Y-88618571D02*
X22495200Y-88618571D01*
X22495200Y-89142380D02*
X22495200Y-88142380D01*
X22971390Y-88142380D01*
X23495200Y-88142380D02*
X23495200Y-88380476D01*
X23257104Y-88285238D02*
X23495200Y-88380476D01*
X23733295Y-88285238D01*
X23352342Y-88570952D02*
X23495200Y-88380476D01*
X23638057Y-88570952D01*
X24257104Y-88142380D02*
X24257104Y-88380476D01*
X24019009Y-88285238D02*
X24257104Y-88380476D01*
X24495200Y-88285238D01*
X24114247Y-88570952D02*
X24257104Y-88380476D01*
X24399961Y-88570952D01*
X14303866Y-89142380D02*
X13970533Y-88666190D01*
X13732438Y-89142380D02*
X13732438Y-88142380D01*
X14113390Y-88142380D01*
X14208628Y-88190000D01*
X14256247Y-88237619D01*
X14303866Y-88332857D01*
X14303866Y-88475714D01*
X14256247Y-88570952D01*
X14208628Y-88618571D01*
X14113390Y-88666190D01*
X13732438Y-88666190D01*
X14732438Y-88618571D02*
X15065771Y-88618571D01*
X15208628Y-89142380D02*
X14732438Y-89142380D01*
X14732438Y-88142380D01*
X15208628Y-88142380D01*
X15970533Y-88618571D02*
X15637200Y-88618571D01*
X15637200Y-89142380D02*
X15637200Y-88142380D01*
X16113390Y-88142380D01*
X16637200Y-88142380D02*
X16637200Y-88380476D01*
X16399104Y-88285238D02*
X16637200Y-88380476D01*
X16875295Y-88285238D01*
X16494342Y-88570952D02*
X16637200Y-88380476D01*
X16780057Y-88570952D01*
X17399104Y-88142380D02*
X17399104Y-88380476D01*
X17161009Y-88285238D02*
X17399104Y-88380476D01*
X17637200Y-88285238D01*
X17256247Y-88570952D02*
X17399104Y-88380476D01*
X17541961Y-88570952D01*
X82883866Y-81522380D02*
X82550533Y-81046190D01*
X82312438Y-81522380D02*
X82312438Y-80522380D01*
X82693390Y-80522380D01*
X82788628Y-80570000D01*
X82836247Y-80617619D01*
X82883866Y-80712857D01*
X82883866Y-80855714D01*
X82836247Y-80950952D01*
X82788628Y-80998571D01*
X82693390Y-81046190D01*
X82312438Y-81046190D01*
X83312438Y-80998571D02*
X83645771Y-80998571D01*
X83788628Y-81522380D02*
X83312438Y-81522380D01*
X83312438Y-80522380D01*
X83788628Y-80522380D01*
X84550533Y-80998571D02*
X84217200Y-80998571D01*
X84217200Y-81522380D02*
X84217200Y-80522380D01*
X84693390Y-80522380D01*
X85217200Y-80522380D02*
X85217200Y-80760476D01*
X84979104Y-80665238D02*
X85217200Y-80760476D01*
X85455295Y-80665238D01*
X85074342Y-80950952D02*
X85217200Y-80760476D01*
X85360057Y-80950952D01*
X85979104Y-80522380D02*
X85979104Y-80760476D01*
X85741009Y-80665238D02*
X85979104Y-80760476D01*
X86217200Y-80665238D01*
X85836247Y-80950952D02*
X85979104Y-80760476D01*
X86121961Y-80950952D01*
X76025866Y-81522380D02*
X75692533Y-81046190D01*
X75454438Y-81522380D02*
X75454438Y-80522380D01*
X75835390Y-80522380D01*
X75930628Y-80570000D01*
X75978247Y-80617619D01*
X76025866Y-80712857D01*
X76025866Y-80855714D01*
X75978247Y-80950952D01*
X75930628Y-80998571D01*
X75835390Y-81046190D01*
X75454438Y-81046190D01*
X76454438Y-80998571D02*
X76787771Y-80998571D01*
X76930628Y-81522380D02*
X76454438Y-81522380D01*
X76454438Y-80522380D01*
X76930628Y-80522380D01*
X77692533Y-80998571D02*
X77359200Y-80998571D01*
X77359200Y-81522380D02*
X77359200Y-80522380D01*
X77835390Y-80522380D01*
X78359200Y-80522380D02*
X78359200Y-80760476D01*
X78121104Y-80665238D02*
X78359200Y-80760476D01*
X78597295Y-80665238D01*
X78216342Y-80950952D02*
X78359200Y-80760476D01*
X78502057Y-80950952D01*
X79121104Y-80522380D02*
X79121104Y-80760476D01*
X78883009Y-80665238D02*
X79121104Y-80760476D01*
X79359200Y-80665238D01*
X78978247Y-80950952D02*
X79121104Y-80760476D01*
X79263961Y-80950952D01*
X69167866Y-81522380D02*
X68834533Y-81046190D01*
X68596438Y-81522380D02*
X68596438Y-80522380D01*
X68977390Y-80522380D01*
X69072628Y-80570000D01*
X69120247Y-80617619D01*
X69167866Y-80712857D01*
X69167866Y-80855714D01*
X69120247Y-80950952D01*
X69072628Y-80998571D01*
X68977390Y-81046190D01*
X68596438Y-81046190D01*
X69596438Y-80998571D02*
X69929771Y-80998571D01*
X70072628Y-81522380D02*
X69596438Y-81522380D01*
X69596438Y-80522380D01*
X70072628Y-80522380D01*
X70834533Y-80998571D02*
X70501200Y-80998571D01*
X70501200Y-81522380D02*
X70501200Y-80522380D01*
X70977390Y-80522380D01*
X71501200Y-80522380D02*
X71501200Y-80760476D01*
X71263104Y-80665238D02*
X71501200Y-80760476D01*
X71739295Y-80665238D01*
X71358342Y-80950952D02*
X71501200Y-80760476D01*
X71644057Y-80950952D01*
X72263104Y-80522380D02*
X72263104Y-80760476D01*
X72025009Y-80665238D02*
X72263104Y-80760476D01*
X72501200Y-80665238D01*
X72120247Y-80950952D02*
X72263104Y-80760476D01*
X72405961Y-80950952D01*
X62309866Y-81522380D02*
X61976533Y-81046190D01*
X61738438Y-81522380D02*
X61738438Y-80522380D01*
X62119390Y-80522380D01*
X62214628Y-80570000D01*
X62262247Y-80617619D01*
X62309866Y-80712857D01*
X62309866Y-80855714D01*
X62262247Y-80950952D01*
X62214628Y-80998571D01*
X62119390Y-81046190D01*
X61738438Y-81046190D01*
X62738438Y-80998571D02*
X63071771Y-80998571D01*
X63214628Y-81522380D02*
X62738438Y-81522380D01*
X62738438Y-80522380D01*
X63214628Y-80522380D01*
X63976533Y-80998571D02*
X63643200Y-80998571D01*
X63643200Y-81522380D02*
X63643200Y-80522380D01*
X64119390Y-80522380D01*
X64643200Y-80522380D02*
X64643200Y-80760476D01*
X64405104Y-80665238D02*
X64643200Y-80760476D01*
X64881295Y-80665238D01*
X64500342Y-80950952D02*
X64643200Y-80760476D01*
X64786057Y-80950952D01*
X65405104Y-80522380D02*
X65405104Y-80760476D01*
X65167009Y-80665238D02*
X65405104Y-80760476D01*
X65643200Y-80665238D01*
X65262247Y-80950952D02*
X65405104Y-80760476D01*
X65547961Y-80950952D01*
X55451866Y-81522380D02*
X55118533Y-81046190D01*
X54880438Y-81522380D02*
X54880438Y-80522380D01*
X55261390Y-80522380D01*
X55356628Y-80570000D01*
X55404247Y-80617619D01*
X55451866Y-80712857D01*
X55451866Y-80855714D01*
X55404247Y-80950952D01*
X55356628Y-80998571D01*
X55261390Y-81046190D01*
X54880438Y-81046190D01*
X55880438Y-80998571D02*
X56213771Y-80998571D01*
X56356628Y-81522380D02*
X55880438Y-81522380D01*
X55880438Y-80522380D01*
X56356628Y-80522380D01*
X57118533Y-80998571D02*
X56785200Y-80998571D01*
X56785200Y-81522380D02*
X56785200Y-80522380D01*
X57261390Y-80522380D01*
X57785200Y-80522380D02*
X57785200Y-80760476D01*
X57547104Y-80665238D02*
X57785200Y-80760476D01*
X58023295Y-80665238D01*
X57642342Y-80950952D02*
X57785200Y-80760476D01*
X57928057Y-80950952D01*
X58547104Y-80522380D02*
X58547104Y-80760476D01*
X58309009Y-80665238D02*
X58547104Y-80760476D01*
X58785200Y-80665238D01*
X58404247Y-80950952D02*
X58547104Y-80760476D01*
X58689961Y-80950952D01*
X48593866Y-81522380D02*
X48260533Y-81046190D01*
X48022438Y-81522380D02*
X48022438Y-80522380D01*
X48403390Y-80522380D01*
X48498628Y-80570000D01*
X48546247Y-80617619D01*
X48593866Y-80712857D01*
X48593866Y-80855714D01*
X48546247Y-80950952D01*
X48498628Y-80998571D01*
X48403390Y-81046190D01*
X48022438Y-81046190D01*
X49022438Y-80998571D02*
X49355771Y-80998571D01*
X49498628Y-81522380D02*
X49022438Y-81522380D01*
X49022438Y-80522380D01*
X49498628Y-80522380D01*
X50260533Y-80998571D02*
X49927200Y-80998571D01*
X49927200Y-81522380D02*
X49927200Y-80522380D01*
X50403390Y-80522380D01*
X50927200Y-80522380D02*
X50927200Y-80760476D01*
X50689104Y-80665238D02*
X50927200Y-80760476D01*
X51165295Y-80665238D01*
X50784342Y-80950952D02*
X50927200Y-80760476D01*
X51070057Y-80950952D01*
X51689104Y-80522380D02*
X51689104Y-80760476D01*
X51451009Y-80665238D02*
X51689104Y-80760476D01*
X51927200Y-80665238D01*
X51546247Y-80950952D02*
X51689104Y-80760476D01*
X51831961Y-80950952D01*
X41735866Y-81522380D02*
X41402533Y-81046190D01*
X41164438Y-81522380D02*
X41164438Y-80522380D01*
X41545390Y-80522380D01*
X41640628Y-80570000D01*
X41688247Y-80617619D01*
X41735866Y-80712857D01*
X41735866Y-80855714D01*
X41688247Y-80950952D01*
X41640628Y-80998571D01*
X41545390Y-81046190D01*
X41164438Y-81046190D01*
X42164438Y-80998571D02*
X42497771Y-80998571D01*
X42640628Y-81522380D02*
X42164438Y-81522380D01*
X42164438Y-80522380D01*
X42640628Y-80522380D01*
X43402533Y-80998571D02*
X43069200Y-80998571D01*
X43069200Y-81522380D02*
X43069200Y-80522380D01*
X43545390Y-80522380D01*
X44069200Y-80522380D02*
X44069200Y-80760476D01*
X43831104Y-80665238D02*
X44069200Y-80760476D01*
X44307295Y-80665238D01*
X43926342Y-80950952D02*
X44069200Y-80760476D01*
X44212057Y-80950952D01*
X44831104Y-80522380D02*
X44831104Y-80760476D01*
X44593009Y-80665238D02*
X44831104Y-80760476D01*
X45069200Y-80665238D01*
X44688247Y-80950952D02*
X44831104Y-80760476D01*
X44973961Y-80950952D01*
X34877866Y-81522380D02*
X34544533Y-81046190D01*
X34306438Y-81522380D02*
X34306438Y-80522380D01*
X34687390Y-80522380D01*
X34782628Y-80570000D01*
X34830247Y-80617619D01*
X34877866Y-80712857D01*
X34877866Y-80855714D01*
X34830247Y-80950952D01*
X34782628Y-80998571D01*
X34687390Y-81046190D01*
X34306438Y-81046190D01*
X35306438Y-80998571D02*
X35639771Y-80998571D01*
X35782628Y-81522380D02*
X35306438Y-81522380D01*
X35306438Y-80522380D01*
X35782628Y-80522380D01*
X36544533Y-80998571D02*
X36211200Y-80998571D01*
X36211200Y-81522380D02*
X36211200Y-80522380D01*
X36687390Y-80522380D01*
X37211200Y-80522380D02*
X37211200Y-80760476D01*
X36973104Y-80665238D02*
X37211200Y-80760476D01*
X37449295Y-80665238D01*
X37068342Y-80950952D02*
X37211200Y-80760476D01*
X37354057Y-80950952D01*
X37973104Y-80522380D02*
X37973104Y-80760476D01*
X37735009Y-80665238D02*
X37973104Y-80760476D01*
X38211200Y-80665238D01*
X37830247Y-80950952D02*
X37973104Y-80760476D01*
X38115961Y-80950952D01*
X28019866Y-81522380D02*
X27686533Y-81046190D01*
X27448438Y-81522380D02*
X27448438Y-80522380D01*
X27829390Y-80522380D01*
X27924628Y-80570000D01*
X27972247Y-80617619D01*
X28019866Y-80712857D01*
X28019866Y-80855714D01*
X27972247Y-80950952D01*
X27924628Y-80998571D01*
X27829390Y-81046190D01*
X27448438Y-81046190D01*
X28448438Y-80998571D02*
X28781771Y-80998571D01*
X28924628Y-81522380D02*
X28448438Y-81522380D01*
X28448438Y-80522380D01*
X28924628Y-80522380D01*
X29686533Y-80998571D02*
X29353200Y-80998571D01*
X29353200Y-81522380D02*
X29353200Y-80522380D01*
X29829390Y-80522380D01*
X30353200Y-80522380D02*
X30353200Y-80760476D01*
X30115104Y-80665238D02*
X30353200Y-80760476D01*
X30591295Y-80665238D01*
X30210342Y-80950952D02*
X30353200Y-80760476D01*
X30496057Y-80950952D01*
X31115104Y-80522380D02*
X31115104Y-80760476D01*
X30877009Y-80665238D02*
X31115104Y-80760476D01*
X31353200Y-80665238D01*
X30972247Y-80950952D02*
X31115104Y-80760476D01*
X31257961Y-80950952D01*
X21161866Y-81522380D02*
X20828533Y-81046190D01*
X20590438Y-81522380D02*
X20590438Y-80522380D01*
X20971390Y-80522380D01*
X21066628Y-80570000D01*
X21114247Y-80617619D01*
X21161866Y-80712857D01*
X21161866Y-80855714D01*
X21114247Y-80950952D01*
X21066628Y-80998571D01*
X20971390Y-81046190D01*
X20590438Y-81046190D01*
X21590438Y-80998571D02*
X21923771Y-80998571D01*
X22066628Y-81522380D02*
X21590438Y-81522380D01*
X21590438Y-80522380D01*
X22066628Y-80522380D01*
X22828533Y-80998571D02*
X22495200Y-80998571D01*
X22495200Y-81522380D02*
X22495200Y-80522380D01*
X22971390Y-80522380D01*
X23495200Y-80522380D02*
X23495200Y-80760476D01*
X23257104Y-80665238D02*
X23495200Y-80760476D01*
X23733295Y-80665238D01*
X23352342Y-80950952D02*
X23495200Y-80760476D01*
X23638057Y-80950952D01*
X24257104Y-80522380D02*
X24257104Y-80760476D01*
X24019009Y-80665238D02*
X24257104Y-80760476D01*
X24495200Y-80665238D01*
X24114247Y-80950952D02*
X24257104Y-80760476D01*
X24399961Y-80950952D01*
X14303866Y-81522380D02*
X13970533Y-81046190D01*
X13732438Y-81522380D02*
X13732438Y-80522380D01*
X14113390Y-80522380D01*
X14208628Y-80570000D01*
X14256247Y-80617619D01*
X14303866Y-80712857D01*
X14303866Y-80855714D01*
X14256247Y-80950952D01*
X14208628Y-80998571D01*
X14113390Y-81046190D01*
X13732438Y-81046190D01*
X14732438Y-80998571D02*
X15065771Y-80998571D01*
X15208628Y-81522380D02*
X14732438Y-81522380D01*
X14732438Y-80522380D01*
X15208628Y-80522380D01*
X15970533Y-80998571D02*
X15637200Y-80998571D01*
X15637200Y-81522380D02*
X15637200Y-80522380D01*
X16113390Y-80522380D01*
X16637200Y-80522380D02*
X16637200Y-80760476D01*
X16399104Y-80665238D02*
X16637200Y-80760476D01*
X16875295Y-80665238D01*
X16494342Y-80950952D02*
X16637200Y-80760476D01*
X16780057Y-80950952D01*
X17399104Y-80522380D02*
X17399104Y-80760476D01*
X17161009Y-80665238D02*
X17399104Y-80760476D01*
X17637200Y-80665238D01*
X17256247Y-80950952D02*
X17399104Y-80760476D01*
X17541961Y-80950952D01*
X82883866Y-73902380D02*
X82550533Y-73426190D01*
X82312438Y-73902380D02*
X82312438Y-72902380D01*
X82693390Y-72902380D01*
X82788628Y-72950000D01*
X82836247Y-72997619D01*
X82883866Y-73092857D01*
X82883866Y-73235714D01*
X82836247Y-73330952D01*
X82788628Y-73378571D01*
X82693390Y-73426190D01*
X82312438Y-73426190D01*
X83312438Y-73378571D02*
X83645771Y-73378571D01*
X83788628Y-73902380D02*
X83312438Y-73902380D01*
X83312438Y-72902380D01*
X83788628Y-72902380D01*
X84550533Y-73378571D02*
X84217200Y-73378571D01*
X84217200Y-73902380D02*
X84217200Y-72902380D01*
X84693390Y-72902380D01*
X85217200Y-72902380D02*
X85217200Y-73140476D01*
X84979104Y-73045238D02*
X85217200Y-73140476D01*
X85455295Y-73045238D01*
X85074342Y-73330952D02*
X85217200Y-73140476D01*
X85360057Y-73330952D01*
X85979104Y-72902380D02*
X85979104Y-73140476D01*
X85741009Y-73045238D02*
X85979104Y-73140476D01*
X86217200Y-73045238D01*
X85836247Y-73330952D02*
X85979104Y-73140476D01*
X86121961Y-73330952D01*
X76025866Y-73902380D02*
X75692533Y-73426190D01*
X75454438Y-73902380D02*
X75454438Y-72902380D01*
X75835390Y-72902380D01*
X75930628Y-72950000D01*
X75978247Y-72997619D01*
X76025866Y-73092857D01*
X76025866Y-73235714D01*
X75978247Y-73330952D01*
X75930628Y-73378571D01*
X75835390Y-73426190D01*
X75454438Y-73426190D01*
X76454438Y-73378571D02*
X76787771Y-73378571D01*
X76930628Y-73902380D02*
X76454438Y-73902380D01*
X76454438Y-72902380D01*
X76930628Y-72902380D01*
X77692533Y-73378571D02*
X77359200Y-73378571D01*
X77359200Y-73902380D02*
X77359200Y-72902380D01*
X77835390Y-72902380D01*
X78359200Y-72902380D02*
X78359200Y-73140476D01*
X78121104Y-73045238D02*
X78359200Y-73140476D01*
X78597295Y-73045238D01*
X78216342Y-73330952D02*
X78359200Y-73140476D01*
X78502057Y-73330952D01*
X79121104Y-72902380D02*
X79121104Y-73140476D01*
X78883009Y-73045238D02*
X79121104Y-73140476D01*
X79359200Y-73045238D01*
X78978247Y-73330952D02*
X79121104Y-73140476D01*
X79263961Y-73330952D01*
X69167866Y-73902380D02*
X68834533Y-73426190D01*
X68596438Y-73902380D02*
X68596438Y-72902380D01*
X68977390Y-72902380D01*
X69072628Y-72950000D01*
X69120247Y-72997619D01*
X69167866Y-73092857D01*
X69167866Y-73235714D01*
X69120247Y-73330952D01*
X69072628Y-73378571D01*
X68977390Y-73426190D01*
X68596438Y-73426190D01*
X69596438Y-73378571D02*
X69929771Y-73378571D01*
X70072628Y-73902380D02*
X69596438Y-73902380D01*
X69596438Y-72902380D01*
X70072628Y-72902380D01*
X70834533Y-73378571D02*
X70501200Y-73378571D01*
X70501200Y-73902380D02*
X70501200Y-72902380D01*
X70977390Y-72902380D01*
X71501200Y-72902380D02*
X71501200Y-73140476D01*
X71263104Y-73045238D02*
X71501200Y-73140476D01*
X71739295Y-73045238D01*
X71358342Y-73330952D02*
X71501200Y-73140476D01*
X71644057Y-73330952D01*
X72263104Y-72902380D02*
X72263104Y-73140476D01*
X72025009Y-73045238D02*
X72263104Y-73140476D01*
X72501200Y-73045238D01*
X72120247Y-73330952D02*
X72263104Y-73140476D01*
X72405961Y-73330952D01*
X62309866Y-73902380D02*
X61976533Y-73426190D01*
X61738438Y-73902380D02*
X61738438Y-72902380D01*
X62119390Y-72902380D01*
X62214628Y-72950000D01*
X62262247Y-72997619D01*
X62309866Y-73092857D01*
X62309866Y-73235714D01*
X62262247Y-73330952D01*
X62214628Y-73378571D01*
X62119390Y-73426190D01*
X61738438Y-73426190D01*
X62738438Y-73378571D02*
X63071771Y-73378571D01*
X63214628Y-73902380D02*
X62738438Y-73902380D01*
X62738438Y-72902380D01*
X63214628Y-72902380D01*
X63976533Y-73378571D02*
X63643200Y-73378571D01*
X63643200Y-73902380D02*
X63643200Y-72902380D01*
X64119390Y-72902380D01*
X64643200Y-72902380D02*
X64643200Y-73140476D01*
X64405104Y-73045238D02*
X64643200Y-73140476D01*
X64881295Y-73045238D01*
X64500342Y-73330952D02*
X64643200Y-73140476D01*
X64786057Y-73330952D01*
X65405104Y-72902380D02*
X65405104Y-73140476D01*
X65167009Y-73045238D02*
X65405104Y-73140476D01*
X65643200Y-73045238D01*
X65262247Y-73330952D02*
X65405104Y-73140476D01*
X65547961Y-73330952D01*
X55451866Y-73902380D02*
X55118533Y-73426190D01*
X54880438Y-73902380D02*
X54880438Y-72902380D01*
X55261390Y-72902380D01*
X55356628Y-72950000D01*
X55404247Y-72997619D01*
X55451866Y-73092857D01*
X55451866Y-73235714D01*
X55404247Y-73330952D01*
X55356628Y-73378571D01*
X55261390Y-73426190D01*
X54880438Y-73426190D01*
X55880438Y-73378571D02*
X56213771Y-73378571D01*
X56356628Y-73902380D02*
X55880438Y-73902380D01*
X55880438Y-72902380D01*
X56356628Y-72902380D01*
X57118533Y-73378571D02*
X56785200Y-73378571D01*
X56785200Y-73902380D02*
X56785200Y-72902380D01*
X57261390Y-72902380D01*
X57785200Y-72902380D02*
X57785200Y-73140476D01*
X57547104Y-73045238D02*
X57785200Y-73140476D01*
X58023295Y-73045238D01*
X57642342Y-73330952D02*
X57785200Y-73140476D01*
X57928057Y-73330952D01*
X58547104Y-72902380D02*
X58547104Y-73140476D01*
X58309009Y-73045238D02*
X58547104Y-73140476D01*
X58785200Y-73045238D01*
X58404247Y-73330952D02*
X58547104Y-73140476D01*
X58689961Y-73330952D01*
X48593866Y-73902380D02*
X48260533Y-73426190D01*
X48022438Y-73902380D02*
X48022438Y-72902380D01*
X48403390Y-72902380D01*
X48498628Y-72950000D01*
X48546247Y-72997619D01*
X48593866Y-73092857D01*
X48593866Y-73235714D01*
X48546247Y-73330952D01*
X48498628Y-73378571D01*
X48403390Y-73426190D01*
X48022438Y-73426190D01*
X49022438Y-73378571D02*
X49355771Y-73378571D01*
X49498628Y-73902380D02*
X49022438Y-73902380D01*
X49022438Y-72902380D01*
X49498628Y-72902380D01*
X50260533Y-73378571D02*
X49927200Y-73378571D01*
X49927200Y-73902380D02*
X49927200Y-72902380D01*
X50403390Y-72902380D01*
X50927200Y-72902380D02*
X50927200Y-73140476D01*
X50689104Y-73045238D02*
X50927200Y-73140476D01*
X51165295Y-73045238D01*
X50784342Y-73330952D02*
X50927200Y-73140476D01*
X51070057Y-73330952D01*
X51689104Y-72902380D02*
X51689104Y-73140476D01*
X51451009Y-73045238D02*
X51689104Y-73140476D01*
X51927200Y-73045238D01*
X51546247Y-73330952D02*
X51689104Y-73140476D01*
X51831961Y-73330952D01*
X41735866Y-73902380D02*
X41402533Y-73426190D01*
X41164438Y-73902380D02*
X41164438Y-72902380D01*
X41545390Y-72902380D01*
X41640628Y-72950000D01*
X41688247Y-72997619D01*
X41735866Y-73092857D01*
X41735866Y-73235714D01*
X41688247Y-73330952D01*
X41640628Y-73378571D01*
X41545390Y-73426190D01*
X41164438Y-73426190D01*
X42164438Y-73378571D02*
X42497771Y-73378571D01*
X42640628Y-73902380D02*
X42164438Y-73902380D01*
X42164438Y-72902380D01*
X42640628Y-72902380D01*
X43402533Y-73378571D02*
X43069200Y-73378571D01*
X43069200Y-73902380D02*
X43069200Y-72902380D01*
X43545390Y-72902380D01*
X44069200Y-72902380D02*
X44069200Y-73140476D01*
X43831104Y-73045238D02*
X44069200Y-73140476D01*
X44307295Y-73045238D01*
X43926342Y-73330952D02*
X44069200Y-73140476D01*
X44212057Y-73330952D01*
X44831104Y-72902380D02*
X44831104Y-73140476D01*
X44593009Y-73045238D02*
X44831104Y-73140476D01*
X45069200Y-73045238D01*
X44688247Y-73330952D02*
X44831104Y-73140476D01*
X44973961Y-73330952D01*
X34877866Y-73902380D02*
X34544533Y-73426190D01*
X34306438Y-73902380D02*
X34306438Y-72902380D01*
X34687390Y-72902380D01*
X34782628Y-72950000D01*
X34830247Y-72997619D01*
X34877866Y-73092857D01*
X34877866Y-73235714D01*
X34830247Y-73330952D01*
X34782628Y-73378571D01*
X34687390Y-73426190D01*
X34306438Y-73426190D01*
X35306438Y-73378571D02*
X35639771Y-73378571D01*
X35782628Y-73902380D02*
X35306438Y-73902380D01*
X35306438Y-72902380D01*
X35782628Y-72902380D01*
X36544533Y-73378571D02*
X36211200Y-73378571D01*
X36211200Y-73902380D02*
X36211200Y-72902380D01*
X36687390Y-72902380D01*
X37211200Y-72902380D02*
X37211200Y-73140476D01*
X36973104Y-73045238D02*
X37211200Y-73140476D01*
X37449295Y-73045238D01*
X37068342Y-73330952D02*
X37211200Y-73140476D01*
X37354057Y-73330952D01*
X37973104Y-72902380D02*
X37973104Y-73140476D01*
X37735009Y-73045238D02*
X37973104Y-73140476D01*
X38211200Y-73045238D01*
X37830247Y-73330952D02*
X37973104Y-73140476D01*
X38115961Y-73330952D01*
X28019866Y-73902380D02*
X27686533Y-73426190D01*
X27448438Y-73902380D02*
X27448438Y-72902380D01*
X27829390Y-72902380D01*
X27924628Y-72950000D01*
X27972247Y-72997619D01*
X28019866Y-73092857D01*
X28019866Y-73235714D01*
X27972247Y-73330952D01*
X27924628Y-73378571D01*
X27829390Y-73426190D01*
X27448438Y-73426190D01*
X28448438Y-73378571D02*
X28781771Y-73378571D01*
X28924628Y-73902380D02*
X28448438Y-73902380D01*
X28448438Y-72902380D01*
X28924628Y-72902380D01*
X29686533Y-73378571D02*
X29353200Y-73378571D01*
X29353200Y-73902380D02*
X29353200Y-72902380D01*
X29829390Y-72902380D01*
X30353200Y-72902380D02*
X30353200Y-73140476D01*
X30115104Y-73045238D02*
X30353200Y-73140476D01*
X30591295Y-73045238D01*
X30210342Y-73330952D02*
X30353200Y-73140476D01*
X30496057Y-73330952D01*
X31115104Y-72902380D02*
X31115104Y-73140476D01*
X30877009Y-73045238D02*
X31115104Y-73140476D01*
X31353200Y-73045238D01*
X30972247Y-73330952D02*
X31115104Y-73140476D01*
X31257961Y-73330952D01*
X21161866Y-73902380D02*
X20828533Y-73426190D01*
X20590438Y-73902380D02*
X20590438Y-72902380D01*
X20971390Y-72902380D01*
X21066628Y-72950000D01*
X21114247Y-72997619D01*
X21161866Y-73092857D01*
X21161866Y-73235714D01*
X21114247Y-73330952D01*
X21066628Y-73378571D01*
X20971390Y-73426190D01*
X20590438Y-73426190D01*
X21590438Y-73378571D02*
X21923771Y-73378571D01*
X22066628Y-73902380D02*
X21590438Y-73902380D01*
X21590438Y-72902380D01*
X22066628Y-72902380D01*
X22828533Y-73378571D02*
X22495200Y-73378571D01*
X22495200Y-73902380D02*
X22495200Y-72902380D01*
X22971390Y-72902380D01*
X23495200Y-72902380D02*
X23495200Y-73140476D01*
X23257104Y-73045238D02*
X23495200Y-73140476D01*
X23733295Y-73045238D01*
X23352342Y-73330952D02*
X23495200Y-73140476D01*
X23638057Y-73330952D01*
X24257104Y-72902380D02*
X24257104Y-73140476D01*
X24019009Y-73045238D02*
X24257104Y-73140476D01*
X24495200Y-73045238D01*
X24114247Y-73330952D02*
X24257104Y-73140476D01*
X24399961Y-73330952D01*
X14303866Y-73902380D02*
X13970533Y-73426190D01*
X13732438Y-73902380D02*
X13732438Y-72902380D01*
X14113390Y-72902380D01*
X14208628Y-72950000D01*
X14256247Y-72997619D01*
X14303866Y-73092857D01*
X14303866Y-73235714D01*
X14256247Y-73330952D01*
X14208628Y-73378571D01*
X14113390Y-73426190D01*
X13732438Y-73426190D01*
X14732438Y-73378571D02*
X15065771Y-73378571D01*
X15208628Y-73902380D02*
X14732438Y-73902380D01*
X14732438Y-72902380D01*
X15208628Y-72902380D01*
X15970533Y-73378571D02*
X15637200Y-73378571D01*
X15637200Y-73902380D02*
X15637200Y-72902380D01*
X16113390Y-72902380D01*
X16637200Y-72902380D02*
X16637200Y-73140476D01*
X16399104Y-73045238D02*
X16637200Y-73140476D01*
X16875295Y-73045238D01*
X16494342Y-73330952D02*
X16637200Y-73140476D01*
X16780057Y-73330952D01*
X17399104Y-72902380D02*
X17399104Y-73140476D01*
X17161009Y-73045238D02*
X17399104Y-73140476D01*
X17637200Y-73045238D01*
X17256247Y-73330952D02*
X17399104Y-73140476D01*
X17541961Y-73330952D01*
X82883866Y-66282380D02*
X82550533Y-65806190D01*
X82312438Y-66282380D02*
X82312438Y-65282380D01*
X82693390Y-65282380D01*
X82788628Y-65330000D01*
X82836247Y-65377619D01*
X82883866Y-65472857D01*
X82883866Y-65615714D01*
X82836247Y-65710952D01*
X82788628Y-65758571D01*
X82693390Y-65806190D01*
X82312438Y-65806190D01*
X83312438Y-65758571D02*
X83645771Y-65758571D01*
X83788628Y-66282380D02*
X83312438Y-66282380D01*
X83312438Y-65282380D01*
X83788628Y-65282380D01*
X84550533Y-65758571D02*
X84217200Y-65758571D01*
X84217200Y-66282380D02*
X84217200Y-65282380D01*
X84693390Y-65282380D01*
X85217200Y-65282380D02*
X85217200Y-65520476D01*
X84979104Y-65425238D02*
X85217200Y-65520476D01*
X85455295Y-65425238D01*
X85074342Y-65710952D02*
X85217200Y-65520476D01*
X85360057Y-65710952D01*
X85979104Y-65282380D02*
X85979104Y-65520476D01*
X85741009Y-65425238D02*
X85979104Y-65520476D01*
X86217200Y-65425238D01*
X85836247Y-65710952D02*
X85979104Y-65520476D01*
X86121961Y-65710952D01*
X76025866Y-66282380D02*
X75692533Y-65806190D01*
X75454438Y-66282380D02*
X75454438Y-65282380D01*
X75835390Y-65282380D01*
X75930628Y-65330000D01*
X75978247Y-65377619D01*
X76025866Y-65472857D01*
X76025866Y-65615714D01*
X75978247Y-65710952D01*
X75930628Y-65758571D01*
X75835390Y-65806190D01*
X75454438Y-65806190D01*
X76454438Y-65758571D02*
X76787771Y-65758571D01*
X76930628Y-66282380D02*
X76454438Y-66282380D01*
X76454438Y-65282380D01*
X76930628Y-65282380D01*
X77692533Y-65758571D02*
X77359200Y-65758571D01*
X77359200Y-66282380D02*
X77359200Y-65282380D01*
X77835390Y-65282380D01*
X78359200Y-65282380D02*
X78359200Y-65520476D01*
X78121104Y-65425238D02*
X78359200Y-65520476D01*
X78597295Y-65425238D01*
X78216342Y-65710952D02*
X78359200Y-65520476D01*
X78502057Y-65710952D01*
X79121104Y-65282380D02*
X79121104Y-65520476D01*
X78883009Y-65425238D02*
X79121104Y-65520476D01*
X79359200Y-65425238D01*
X78978247Y-65710952D02*
X79121104Y-65520476D01*
X79263961Y-65710952D01*
X69167866Y-66282380D02*
X68834533Y-65806190D01*
X68596438Y-66282380D02*
X68596438Y-65282380D01*
X68977390Y-65282380D01*
X69072628Y-65330000D01*
X69120247Y-65377619D01*
X69167866Y-65472857D01*
X69167866Y-65615714D01*
X69120247Y-65710952D01*
X69072628Y-65758571D01*
X68977390Y-65806190D01*
X68596438Y-65806190D01*
X69596438Y-65758571D02*
X69929771Y-65758571D01*
X70072628Y-66282380D02*
X69596438Y-66282380D01*
X69596438Y-65282380D01*
X70072628Y-65282380D01*
X70834533Y-65758571D02*
X70501200Y-65758571D01*
X70501200Y-66282380D02*
X70501200Y-65282380D01*
X70977390Y-65282380D01*
X71501200Y-65282380D02*
X71501200Y-65520476D01*
X71263104Y-65425238D02*
X71501200Y-65520476D01*
X71739295Y-65425238D01*
X71358342Y-65710952D02*
X71501200Y-65520476D01*
X71644057Y-65710952D01*
X72263104Y-65282380D02*
X72263104Y-65520476D01*
X72025009Y-65425238D02*
X72263104Y-65520476D01*
X72501200Y-65425238D01*
X72120247Y-65710952D02*
X72263104Y-65520476D01*
X72405961Y-65710952D01*
X62309866Y-66282380D02*
X61976533Y-65806190D01*
X61738438Y-66282380D02*
X61738438Y-65282380D01*
X62119390Y-65282380D01*
X62214628Y-65330000D01*
X62262247Y-65377619D01*
X62309866Y-65472857D01*
X62309866Y-65615714D01*
X62262247Y-65710952D01*
X62214628Y-65758571D01*
X62119390Y-65806190D01*
X61738438Y-65806190D01*
X62738438Y-65758571D02*
X63071771Y-65758571D01*
X63214628Y-66282380D02*
X62738438Y-66282380D01*
X62738438Y-65282380D01*
X63214628Y-65282380D01*
X63976533Y-65758571D02*
X63643200Y-65758571D01*
X63643200Y-66282380D02*
X63643200Y-65282380D01*
X64119390Y-65282380D01*
X64643200Y-65282380D02*
X64643200Y-65520476D01*
X64405104Y-65425238D02*
X64643200Y-65520476D01*
X64881295Y-65425238D01*
X64500342Y-65710952D02*
X64643200Y-65520476D01*
X64786057Y-65710952D01*
X65405104Y-65282380D02*
X65405104Y-65520476D01*
X65167009Y-65425238D02*
X65405104Y-65520476D01*
X65643200Y-65425238D01*
X65262247Y-65710952D02*
X65405104Y-65520476D01*
X65547961Y-65710952D01*
X55451866Y-66282380D02*
X55118533Y-65806190D01*
X54880438Y-66282380D02*
X54880438Y-65282380D01*
X55261390Y-65282380D01*
X55356628Y-65330000D01*
X55404247Y-65377619D01*
X55451866Y-65472857D01*
X55451866Y-65615714D01*
X55404247Y-65710952D01*
X55356628Y-65758571D01*
X55261390Y-65806190D01*
X54880438Y-65806190D01*
X55880438Y-65758571D02*
X56213771Y-65758571D01*
X56356628Y-66282380D02*
X55880438Y-66282380D01*
X55880438Y-65282380D01*
X56356628Y-65282380D01*
X57118533Y-65758571D02*
X56785200Y-65758571D01*
X56785200Y-66282380D02*
X56785200Y-65282380D01*
X57261390Y-65282380D01*
X57785200Y-65282380D02*
X57785200Y-65520476D01*
X57547104Y-65425238D02*
X57785200Y-65520476D01*
X58023295Y-65425238D01*
X57642342Y-65710952D02*
X57785200Y-65520476D01*
X57928057Y-65710952D01*
X58547104Y-65282380D02*
X58547104Y-65520476D01*
X58309009Y-65425238D02*
X58547104Y-65520476D01*
X58785200Y-65425238D01*
X58404247Y-65710952D02*
X58547104Y-65520476D01*
X58689961Y-65710952D01*
X48593866Y-66282380D02*
X48260533Y-65806190D01*
X48022438Y-66282380D02*
X48022438Y-65282380D01*
X48403390Y-65282380D01*
X48498628Y-65330000D01*
X48546247Y-65377619D01*
X48593866Y-65472857D01*
X48593866Y-65615714D01*
X48546247Y-65710952D01*
X48498628Y-65758571D01*
X48403390Y-65806190D01*
X48022438Y-65806190D01*
X49022438Y-65758571D02*
X49355771Y-65758571D01*
X49498628Y-66282380D02*
X49022438Y-66282380D01*
X49022438Y-65282380D01*
X49498628Y-65282380D01*
X50260533Y-65758571D02*
X49927200Y-65758571D01*
X49927200Y-66282380D02*
X49927200Y-65282380D01*
X50403390Y-65282380D01*
X50927200Y-65282380D02*
X50927200Y-65520476D01*
X50689104Y-65425238D02*
X50927200Y-65520476D01*
X51165295Y-65425238D01*
X50784342Y-65710952D02*
X50927200Y-65520476D01*
X51070057Y-65710952D01*
X51689104Y-65282380D02*
X51689104Y-65520476D01*
X51451009Y-65425238D02*
X51689104Y-65520476D01*
X51927200Y-65425238D01*
X51546247Y-65710952D02*
X51689104Y-65520476D01*
X51831961Y-65710952D01*
X41735866Y-66282380D02*
X41402533Y-65806190D01*
X41164438Y-66282380D02*
X41164438Y-65282380D01*
X41545390Y-65282380D01*
X41640628Y-65330000D01*
X41688247Y-65377619D01*
X41735866Y-65472857D01*
X41735866Y-65615714D01*
X41688247Y-65710952D01*
X41640628Y-65758571D01*
X41545390Y-65806190D01*
X41164438Y-65806190D01*
X42164438Y-65758571D02*
X42497771Y-65758571D01*
X42640628Y-66282380D02*
X42164438Y-66282380D01*
X42164438Y-65282380D01*
X42640628Y-65282380D01*
X43402533Y-65758571D02*
X43069200Y-65758571D01*
X43069200Y-66282380D02*
X43069200Y-65282380D01*
X43545390Y-65282380D01*
X44069200Y-65282380D02*
X44069200Y-65520476D01*
X43831104Y-65425238D02*
X44069200Y-65520476D01*
X44307295Y-65425238D01*
X43926342Y-65710952D02*
X44069200Y-65520476D01*
X44212057Y-65710952D01*
X44831104Y-65282380D02*
X44831104Y-65520476D01*
X44593009Y-65425238D02*
X44831104Y-65520476D01*
X45069200Y-65425238D01*
X44688247Y-65710952D02*
X44831104Y-65520476D01*
X44973961Y-65710952D01*
X34877866Y-66282380D02*
X34544533Y-65806190D01*
X34306438Y-66282380D02*
X34306438Y-65282380D01*
X34687390Y-65282380D01*
X34782628Y-65330000D01*
X34830247Y-65377619D01*
X34877866Y-65472857D01*
X34877866Y-65615714D01*
X34830247Y-65710952D01*
X34782628Y-65758571D01*
X34687390Y-65806190D01*
X34306438Y-65806190D01*
X35306438Y-65758571D02*
X35639771Y-65758571D01*
X35782628Y-66282380D02*
X35306438Y-66282380D01*
X35306438Y-65282380D01*
X35782628Y-65282380D01*
X36544533Y-65758571D02*
X36211200Y-65758571D01*
X36211200Y-66282380D02*
X36211200Y-65282380D01*
X36687390Y-65282380D01*
X37211200Y-65282380D02*
X37211200Y-65520476D01*
X36973104Y-65425238D02*
X37211200Y-65520476D01*
X37449295Y-65425238D01*
X37068342Y-65710952D02*
X37211200Y-65520476D01*
X37354057Y-65710952D01*
X37973104Y-65282380D02*
X37973104Y-65520476D01*
X37735009Y-65425238D02*
X37973104Y-65520476D01*
X38211200Y-65425238D01*
X37830247Y-65710952D02*
X37973104Y-65520476D01*
X38115961Y-65710952D01*
X28019866Y-66282380D02*
X27686533Y-65806190D01*
X27448438Y-66282380D02*
X27448438Y-65282380D01*
X27829390Y-65282380D01*
X27924628Y-65330000D01*
X27972247Y-65377619D01*
X28019866Y-65472857D01*
X28019866Y-65615714D01*
X27972247Y-65710952D01*
X27924628Y-65758571D01*
X27829390Y-65806190D01*
X27448438Y-65806190D01*
X28448438Y-65758571D02*
X28781771Y-65758571D01*
X28924628Y-66282380D02*
X28448438Y-66282380D01*
X28448438Y-65282380D01*
X28924628Y-65282380D01*
X29686533Y-65758571D02*
X29353200Y-65758571D01*
X29353200Y-66282380D02*
X29353200Y-65282380D01*
X29829390Y-65282380D01*
X30353200Y-65282380D02*
X30353200Y-65520476D01*
X30115104Y-65425238D02*
X30353200Y-65520476D01*
X30591295Y-65425238D01*
X30210342Y-65710952D02*
X30353200Y-65520476D01*
X30496057Y-65710952D01*
X31115104Y-65282380D02*
X31115104Y-65520476D01*
X30877009Y-65425238D02*
X31115104Y-65520476D01*
X31353200Y-65425238D01*
X30972247Y-65710952D02*
X31115104Y-65520476D01*
X31257961Y-65710952D01*
X21161866Y-66282380D02*
X20828533Y-65806190D01*
X20590438Y-66282380D02*
X20590438Y-65282380D01*
X20971390Y-65282380D01*
X21066628Y-65330000D01*
X21114247Y-65377619D01*
X21161866Y-65472857D01*
X21161866Y-65615714D01*
X21114247Y-65710952D01*
X21066628Y-65758571D01*
X20971390Y-65806190D01*
X20590438Y-65806190D01*
X21590438Y-65758571D02*
X21923771Y-65758571D01*
X22066628Y-66282380D02*
X21590438Y-66282380D01*
X21590438Y-65282380D01*
X22066628Y-65282380D01*
X22828533Y-65758571D02*
X22495200Y-65758571D01*
X22495200Y-66282380D02*
X22495200Y-65282380D01*
X22971390Y-65282380D01*
X23495200Y-65282380D02*
X23495200Y-65520476D01*
X23257104Y-65425238D02*
X23495200Y-65520476D01*
X23733295Y-65425238D01*
X23352342Y-65710952D02*
X23495200Y-65520476D01*
X23638057Y-65710952D01*
X24257104Y-65282380D02*
X24257104Y-65520476D01*
X24019009Y-65425238D02*
X24257104Y-65520476D01*
X24495200Y-65425238D01*
X24114247Y-65710952D02*
X24257104Y-65520476D01*
X24399961Y-65710952D01*
X14303866Y-66282380D02*
X13970533Y-65806190D01*
X13732438Y-66282380D02*
X13732438Y-65282380D01*
X14113390Y-65282380D01*
X14208628Y-65330000D01*
X14256247Y-65377619D01*
X14303866Y-65472857D01*
X14303866Y-65615714D01*
X14256247Y-65710952D01*
X14208628Y-65758571D01*
X14113390Y-65806190D01*
X13732438Y-65806190D01*
X14732438Y-65758571D02*
X15065771Y-65758571D01*
X15208628Y-66282380D02*
X14732438Y-66282380D01*
X14732438Y-65282380D01*
X15208628Y-65282380D01*
X15970533Y-65758571D02*
X15637200Y-65758571D01*
X15637200Y-66282380D02*
X15637200Y-65282380D01*
X16113390Y-65282380D01*
X16637200Y-65282380D02*
X16637200Y-65520476D01*
X16399104Y-65425238D02*
X16637200Y-65520476D01*
X16875295Y-65425238D01*
X16494342Y-65710952D02*
X16637200Y-65520476D01*
X16780057Y-65710952D01*
X17399104Y-65282380D02*
X17399104Y-65520476D01*
X17161009Y-65425238D02*
X17399104Y-65520476D01*
X17637200Y-65425238D01*
X17256247Y-65710952D02*
X17399104Y-65520476D01*
X17541961Y-65710952D01*
X82883866Y-58662380D02*
X82550533Y-58186190D01*
X82312438Y-58662380D02*
X82312438Y-57662380D01*
X82693390Y-57662380D01*
X82788628Y-57710000D01*
X82836247Y-57757619D01*
X82883866Y-57852857D01*
X82883866Y-57995714D01*
X82836247Y-58090952D01*
X82788628Y-58138571D01*
X82693390Y-58186190D01*
X82312438Y-58186190D01*
X83312438Y-58138571D02*
X83645771Y-58138571D01*
X83788628Y-58662380D02*
X83312438Y-58662380D01*
X83312438Y-57662380D01*
X83788628Y-57662380D01*
X84550533Y-58138571D02*
X84217200Y-58138571D01*
X84217200Y-58662380D02*
X84217200Y-57662380D01*
X84693390Y-57662380D01*
X85217200Y-57662380D02*
X85217200Y-57900476D01*
X84979104Y-57805238D02*
X85217200Y-57900476D01*
X85455295Y-57805238D01*
X85074342Y-58090952D02*
X85217200Y-57900476D01*
X85360057Y-58090952D01*
X85979104Y-57662380D02*
X85979104Y-57900476D01*
X85741009Y-57805238D02*
X85979104Y-57900476D01*
X86217200Y-57805238D01*
X85836247Y-58090952D02*
X85979104Y-57900476D01*
X86121961Y-58090952D01*
X76025866Y-58662380D02*
X75692533Y-58186190D01*
X75454438Y-58662380D02*
X75454438Y-57662380D01*
X75835390Y-57662380D01*
X75930628Y-57710000D01*
X75978247Y-57757619D01*
X76025866Y-57852857D01*
X76025866Y-57995714D01*
X75978247Y-58090952D01*
X75930628Y-58138571D01*
X75835390Y-58186190D01*
X75454438Y-58186190D01*
X76454438Y-58138571D02*
X76787771Y-58138571D01*
X76930628Y-58662380D02*
X76454438Y-58662380D01*
X76454438Y-57662380D01*
X76930628Y-57662380D01*
X77692533Y-58138571D02*
X77359200Y-58138571D01*
X77359200Y-58662380D02*
X77359200Y-57662380D01*
X77835390Y-57662380D01*
X78359200Y-57662380D02*
X78359200Y-57900476D01*
X78121104Y-57805238D02*
X78359200Y-57900476D01*
X78597295Y-57805238D01*
X78216342Y-58090952D02*
X78359200Y-57900476D01*
X78502057Y-58090952D01*
X79121104Y-57662380D02*
X79121104Y-57900476D01*
X78883009Y-57805238D02*
X79121104Y-57900476D01*
X79359200Y-57805238D01*
X78978247Y-58090952D02*
X79121104Y-57900476D01*
X79263961Y-58090952D01*
X69167866Y-58662380D02*
X68834533Y-58186190D01*
X68596438Y-58662380D02*
X68596438Y-57662380D01*
X68977390Y-57662380D01*
X69072628Y-57710000D01*
X69120247Y-57757619D01*
X69167866Y-57852857D01*
X69167866Y-57995714D01*
X69120247Y-58090952D01*
X69072628Y-58138571D01*
X68977390Y-58186190D01*
X68596438Y-58186190D01*
X69596438Y-58138571D02*
X69929771Y-58138571D01*
X70072628Y-58662380D02*
X69596438Y-58662380D01*
X69596438Y-57662380D01*
X70072628Y-57662380D01*
X70834533Y-58138571D02*
X70501200Y-58138571D01*
X70501200Y-58662380D02*
X70501200Y-57662380D01*
X70977390Y-57662380D01*
X71501200Y-57662380D02*
X71501200Y-57900476D01*
X71263104Y-57805238D02*
X71501200Y-57900476D01*
X71739295Y-57805238D01*
X71358342Y-58090952D02*
X71501200Y-57900476D01*
X71644057Y-58090952D01*
X72263104Y-57662380D02*
X72263104Y-57900476D01*
X72025009Y-57805238D02*
X72263104Y-57900476D01*
X72501200Y-57805238D01*
X72120247Y-58090952D02*
X72263104Y-57900476D01*
X72405961Y-58090952D01*
X62309866Y-58662380D02*
X61976533Y-58186190D01*
X61738438Y-58662380D02*
X61738438Y-57662380D01*
X62119390Y-57662380D01*
X62214628Y-57710000D01*
X62262247Y-57757619D01*
X62309866Y-57852857D01*
X62309866Y-57995714D01*
X62262247Y-58090952D01*
X62214628Y-58138571D01*
X62119390Y-58186190D01*
X61738438Y-58186190D01*
X62738438Y-58138571D02*
X63071771Y-58138571D01*
X63214628Y-58662380D02*
X62738438Y-58662380D01*
X62738438Y-57662380D01*
X63214628Y-57662380D01*
X63976533Y-58138571D02*
X63643200Y-58138571D01*
X63643200Y-58662380D02*
X63643200Y-57662380D01*
X64119390Y-57662380D01*
X64643200Y-57662380D02*
X64643200Y-57900476D01*
X64405104Y-57805238D02*
X64643200Y-57900476D01*
X64881295Y-57805238D01*
X64500342Y-58090952D02*
X64643200Y-57900476D01*
X64786057Y-58090952D01*
X65405104Y-57662380D02*
X65405104Y-57900476D01*
X65167009Y-57805238D02*
X65405104Y-57900476D01*
X65643200Y-57805238D01*
X65262247Y-58090952D02*
X65405104Y-57900476D01*
X65547961Y-58090952D01*
X55451866Y-58662380D02*
X55118533Y-58186190D01*
X54880438Y-58662380D02*
X54880438Y-57662380D01*
X55261390Y-57662380D01*
X55356628Y-57710000D01*
X55404247Y-57757619D01*
X55451866Y-57852857D01*
X55451866Y-57995714D01*
X55404247Y-58090952D01*
X55356628Y-58138571D01*
X55261390Y-58186190D01*
X54880438Y-58186190D01*
X55880438Y-58138571D02*
X56213771Y-58138571D01*
X56356628Y-58662380D02*
X55880438Y-58662380D01*
X55880438Y-57662380D01*
X56356628Y-57662380D01*
X57118533Y-58138571D02*
X56785200Y-58138571D01*
X56785200Y-58662380D02*
X56785200Y-57662380D01*
X57261390Y-57662380D01*
X57785200Y-57662380D02*
X57785200Y-57900476D01*
X57547104Y-57805238D02*
X57785200Y-57900476D01*
X58023295Y-57805238D01*
X57642342Y-58090952D02*
X57785200Y-57900476D01*
X57928057Y-58090952D01*
X58547104Y-57662380D02*
X58547104Y-57900476D01*
X58309009Y-57805238D02*
X58547104Y-57900476D01*
X58785200Y-57805238D01*
X58404247Y-58090952D02*
X58547104Y-57900476D01*
X58689961Y-58090952D01*
X48593866Y-58662380D02*
X48260533Y-58186190D01*
X48022438Y-58662380D02*
X48022438Y-57662380D01*
X48403390Y-57662380D01*
X48498628Y-57710000D01*
X48546247Y-57757619D01*
X48593866Y-57852857D01*
X48593866Y-57995714D01*
X48546247Y-58090952D01*
X48498628Y-58138571D01*
X48403390Y-58186190D01*
X48022438Y-58186190D01*
X49022438Y-58138571D02*
X49355771Y-58138571D01*
X49498628Y-58662380D02*
X49022438Y-58662380D01*
X49022438Y-57662380D01*
X49498628Y-57662380D01*
X50260533Y-58138571D02*
X49927200Y-58138571D01*
X49927200Y-58662380D02*
X49927200Y-57662380D01*
X50403390Y-57662380D01*
X50927200Y-57662380D02*
X50927200Y-57900476D01*
X50689104Y-57805238D02*
X50927200Y-57900476D01*
X51165295Y-57805238D01*
X50784342Y-58090952D02*
X50927200Y-57900476D01*
X51070057Y-58090952D01*
X51689104Y-57662380D02*
X51689104Y-57900476D01*
X51451009Y-57805238D02*
X51689104Y-57900476D01*
X51927200Y-57805238D01*
X51546247Y-58090952D02*
X51689104Y-57900476D01*
X51831961Y-58090952D01*
X41735866Y-58662380D02*
X41402533Y-58186190D01*
X41164438Y-58662380D02*
X41164438Y-57662380D01*
X41545390Y-57662380D01*
X41640628Y-57710000D01*
X41688247Y-57757619D01*
X41735866Y-57852857D01*
X41735866Y-57995714D01*
X41688247Y-58090952D01*
X41640628Y-58138571D01*
X41545390Y-58186190D01*
X41164438Y-58186190D01*
X42164438Y-58138571D02*
X42497771Y-58138571D01*
X42640628Y-58662380D02*
X42164438Y-58662380D01*
X42164438Y-57662380D01*
X42640628Y-57662380D01*
X43402533Y-58138571D02*
X43069200Y-58138571D01*
X43069200Y-58662380D02*
X43069200Y-57662380D01*
X43545390Y-57662380D01*
X44069200Y-57662380D02*
X44069200Y-57900476D01*
X43831104Y-57805238D02*
X44069200Y-57900476D01*
X44307295Y-57805238D01*
X43926342Y-58090952D02*
X44069200Y-57900476D01*
X44212057Y-58090952D01*
X44831104Y-57662380D02*
X44831104Y-57900476D01*
X44593009Y-57805238D02*
X44831104Y-57900476D01*
X45069200Y-57805238D01*
X44688247Y-58090952D02*
X44831104Y-57900476D01*
X44973961Y-58090952D01*
X34877866Y-58662380D02*
X34544533Y-58186190D01*
X34306438Y-58662380D02*
X34306438Y-57662380D01*
X34687390Y-57662380D01*
X34782628Y-57710000D01*
X34830247Y-57757619D01*
X34877866Y-57852857D01*
X34877866Y-57995714D01*
X34830247Y-58090952D01*
X34782628Y-58138571D01*
X34687390Y-58186190D01*
X34306438Y-58186190D01*
X35306438Y-58138571D02*
X35639771Y-58138571D01*
X35782628Y-58662380D02*
X35306438Y-58662380D01*
X35306438Y-57662380D01*
X35782628Y-57662380D01*
X36544533Y-58138571D02*
X36211200Y-58138571D01*
X36211200Y-58662380D02*
X36211200Y-57662380D01*
X36687390Y-57662380D01*
X37211200Y-57662380D02*
X37211200Y-57900476D01*
X36973104Y-57805238D02*
X37211200Y-57900476D01*
X37449295Y-57805238D01*
X37068342Y-58090952D02*
X37211200Y-57900476D01*
X37354057Y-58090952D01*
X37973104Y-57662380D02*
X37973104Y-57900476D01*
X37735009Y-57805238D02*
X37973104Y-57900476D01*
X38211200Y-57805238D01*
X37830247Y-58090952D02*
X37973104Y-57900476D01*
X38115961Y-58090952D01*
X28019866Y-58662380D02*
X27686533Y-58186190D01*
X27448438Y-58662380D02*
X27448438Y-57662380D01*
X27829390Y-57662380D01*
X27924628Y-57710000D01*
X27972247Y-57757619D01*
X28019866Y-57852857D01*
X28019866Y-57995714D01*
X27972247Y-58090952D01*
X27924628Y-58138571D01*
X27829390Y-58186190D01*
X27448438Y-58186190D01*
X28448438Y-58138571D02*
X28781771Y-58138571D01*
X28924628Y-58662380D02*
X28448438Y-58662380D01*
X28448438Y-57662380D01*
X28924628Y-57662380D01*
X29686533Y-58138571D02*
X29353200Y-58138571D01*
X29353200Y-58662380D02*
X29353200Y-57662380D01*
X29829390Y-57662380D01*
X30353200Y-57662380D02*
X30353200Y-57900476D01*
X30115104Y-57805238D02*
X30353200Y-57900476D01*
X30591295Y-57805238D01*
X30210342Y-58090952D02*
X30353200Y-57900476D01*
X30496057Y-58090952D01*
X31115104Y-57662380D02*
X31115104Y-57900476D01*
X30877009Y-57805238D02*
X31115104Y-57900476D01*
X31353200Y-57805238D01*
X30972247Y-58090952D02*
X31115104Y-57900476D01*
X31257961Y-58090952D01*
X21161866Y-58662380D02*
X20828533Y-58186190D01*
X20590438Y-58662380D02*
X20590438Y-57662380D01*
X20971390Y-57662380D01*
X21066628Y-57710000D01*
X21114247Y-57757619D01*
X21161866Y-57852857D01*
X21161866Y-57995714D01*
X21114247Y-58090952D01*
X21066628Y-58138571D01*
X20971390Y-58186190D01*
X20590438Y-58186190D01*
X21590438Y-58138571D02*
X21923771Y-58138571D01*
X22066628Y-58662380D02*
X21590438Y-58662380D01*
X21590438Y-57662380D01*
X22066628Y-57662380D01*
X22828533Y-58138571D02*
X22495200Y-58138571D01*
X22495200Y-58662380D02*
X22495200Y-57662380D01*
X22971390Y-57662380D01*
X23495200Y-57662380D02*
X23495200Y-57900476D01*
X23257104Y-57805238D02*
X23495200Y-57900476D01*
X23733295Y-57805238D01*
X23352342Y-58090952D02*
X23495200Y-57900476D01*
X23638057Y-58090952D01*
X24257104Y-57662380D02*
X24257104Y-57900476D01*
X24019009Y-57805238D02*
X24257104Y-57900476D01*
X24495200Y-57805238D01*
X24114247Y-58090952D02*
X24257104Y-57900476D01*
X24399961Y-58090952D01*
X14303866Y-58662380D02*
X13970533Y-58186190D01*
X13732438Y-58662380D02*
X13732438Y-57662380D01*
X14113390Y-57662380D01*
X14208628Y-57710000D01*
X14256247Y-57757619D01*
X14303866Y-57852857D01*
X14303866Y-57995714D01*
X14256247Y-58090952D01*
X14208628Y-58138571D01*
X14113390Y-58186190D01*
X13732438Y-58186190D01*
X14732438Y-58138571D02*
X15065771Y-58138571D01*
X15208628Y-58662380D02*
X14732438Y-58662380D01*
X14732438Y-57662380D01*
X15208628Y-57662380D01*
X15970533Y-58138571D02*
X15637200Y-58138571D01*
X15637200Y-58662380D02*
X15637200Y-57662380D01*
X16113390Y-57662380D01*
X16637200Y-57662380D02*
X16637200Y-57900476D01*
X16399104Y-57805238D02*
X16637200Y-57900476D01*
X16875295Y-57805238D01*
X16494342Y-58090952D02*
X16637200Y-57900476D01*
X16780057Y-58090952D01*
X17399104Y-57662380D02*
X17399104Y-57900476D01*
X17161009Y-57805238D02*
X17399104Y-57900476D01*
X17637200Y-57805238D01*
X17256247Y-58090952D02*
X17399104Y-57900476D01*
X17541961Y-58090952D01*
X82883866Y-51042380D02*
X82550533Y-50566190D01*
X82312438Y-51042380D02*
X82312438Y-50042380D01*
X82693390Y-50042380D01*
X82788628Y-50090000D01*
X82836247Y-50137619D01*
X82883866Y-50232857D01*
X82883866Y-50375714D01*
X82836247Y-50470952D01*
X82788628Y-50518571D01*
X82693390Y-50566190D01*
X82312438Y-50566190D01*
X83312438Y-50518571D02*
X83645771Y-50518571D01*
X83788628Y-51042380D02*
X83312438Y-51042380D01*
X83312438Y-50042380D01*
X83788628Y-50042380D01*
X84550533Y-50518571D02*
X84217200Y-50518571D01*
X84217200Y-51042380D02*
X84217200Y-50042380D01*
X84693390Y-50042380D01*
X85217200Y-50042380D02*
X85217200Y-50280476D01*
X84979104Y-50185238D02*
X85217200Y-50280476D01*
X85455295Y-50185238D01*
X85074342Y-50470952D02*
X85217200Y-50280476D01*
X85360057Y-50470952D01*
X85979104Y-50042380D02*
X85979104Y-50280476D01*
X85741009Y-50185238D02*
X85979104Y-50280476D01*
X86217200Y-50185238D01*
X85836247Y-50470952D02*
X85979104Y-50280476D01*
X86121961Y-50470952D01*
X76025866Y-51042380D02*
X75692533Y-50566190D01*
X75454438Y-51042380D02*
X75454438Y-50042380D01*
X75835390Y-50042380D01*
X75930628Y-50090000D01*
X75978247Y-50137619D01*
X76025866Y-50232857D01*
X76025866Y-50375714D01*
X75978247Y-50470952D01*
X75930628Y-50518571D01*
X75835390Y-50566190D01*
X75454438Y-50566190D01*
X76454438Y-50518571D02*
X76787771Y-50518571D01*
X76930628Y-51042380D02*
X76454438Y-51042380D01*
X76454438Y-50042380D01*
X76930628Y-50042380D01*
X77692533Y-50518571D02*
X77359200Y-50518571D01*
X77359200Y-51042380D02*
X77359200Y-50042380D01*
X77835390Y-50042380D01*
X78359200Y-50042380D02*
X78359200Y-50280476D01*
X78121104Y-50185238D02*
X78359200Y-50280476D01*
X78597295Y-50185238D01*
X78216342Y-50470952D02*
X78359200Y-50280476D01*
X78502057Y-50470952D01*
X79121104Y-50042380D02*
X79121104Y-50280476D01*
X78883009Y-50185238D02*
X79121104Y-50280476D01*
X79359200Y-50185238D01*
X78978247Y-50470952D02*
X79121104Y-50280476D01*
X79263961Y-50470952D01*
X69167866Y-51042380D02*
X68834533Y-50566190D01*
X68596438Y-51042380D02*
X68596438Y-50042380D01*
X68977390Y-50042380D01*
X69072628Y-50090000D01*
X69120247Y-50137619D01*
X69167866Y-50232857D01*
X69167866Y-50375714D01*
X69120247Y-50470952D01*
X69072628Y-50518571D01*
X68977390Y-50566190D01*
X68596438Y-50566190D01*
X69596438Y-50518571D02*
X69929771Y-50518571D01*
X70072628Y-51042380D02*
X69596438Y-51042380D01*
X69596438Y-50042380D01*
X70072628Y-50042380D01*
X70834533Y-50518571D02*
X70501200Y-50518571D01*
X70501200Y-51042380D02*
X70501200Y-50042380D01*
X70977390Y-50042380D01*
X71501200Y-50042380D02*
X71501200Y-50280476D01*
X71263104Y-50185238D02*
X71501200Y-50280476D01*
X71739295Y-50185238D01*
X71358342Y-50470952D02*
X71501200Y-50280476D01*
X71644057Y-50470952D01*
X72263104Y-50042380D02*
X72263104Y-50280476D01*
X72025009Y-50185238D02*
X72263104Y-50280476D01*
X72501200Y-50185238D01*
X72120247Y-50470952D02*
X72263104Y-50280476D01*
X72405961Y-50470952D01*
X62309866Y-51042380D02*
X61976533Y-50566190D01*
X61738438Y-51042380D02*
X61738438Y-50042380D01*
X62119390Y-50042380D01*
X62214628Y-50090000D01*
X62262247Y-50137619D01*
X62309866Y-50232857D01*
X62309866Y-50375714D01*
X62262247Y-50470952D01*
X62214628Y-50518571D01*
X62119390Y-50566190D01*
X61738438Y-50566190D01*
X62738438Y-50518571D02*
X63071771Y-50518571D01*
X63214628Y-51042380D02*
X62738438Y-51042380D01*
X62738438Y-50042380D01*
X63214628Y-50042380D01*
X63976533Y-50518571D02*
X63643200Y-50518571D01*
X63643200Y-51042380D02*
X63643200Y-50042380D01*
X64119390Y-50042380D01*
X64643200Y-50042380D02*
X64643200Y-50280476D01*
X64405104Y-50185238D02*
X64643200Y-50280476D01*
X64881295Y-50185238D01*
X64500342Y-50470952D02*
X64643200Y-50280476D01*
X64786057Y-50470952D01*
X65405104Y-50042380D02*
X65405104Y-50280476D01*
X65167009Y-50185238D02*
X65405104Y-50280476D01*
X65643200Y-50185238D01*
X65262247Y-50470952D02*
X65405104Y-50280476D01*
X65547961Y-50470952D01*
X55451866Y-51042380D02*
X55118533Y-50566190D01*
X54880438Y-51042380D02*
X54880438Y-50042380D01*
X55261390Y-50042380D01*
X55356628Y-50090000D01*
X55404247Y-50137619D01*
X55451866Y-50232857D01*
X55451866Y-50375714D01*
X55404247Y-50470952D01*
X55356628Y-50518571D01*
X55261390Y-50566190D01*
X54880438Y-50566190D01*
X55880438Y-50518571D02*
X56213771Y-50518571D01*
X56356628Y-51042380D02*
X55880438Y-51042380D01*
X55880438Y-50042380D01*
X56356628Y-50042380D01*
X57118533Y-50518571D02*
X56785200Y-50518571D01*
X56785200Y-51042380D02*
X56785200Y-50042380D01*
X57261390Y-50042380D01*
X57785200Y-50042380D02*
X57785200Y-50280476D01*
X57547104Y-50185238D02*
X57785200Y-50280476D01*
X58023295Y-50185238D01*
X57642342Y-50470952D02*
X57785200Y-50280476D01*
X57928057Y-50470952D01*
X58547104Y-50042380D02*
X58547104Y-50280476D01*
X58309009Y-50185238D02*
X58547104Y-50280476D01*
X58785200Y-50185238D01*
X58404247Y-50470952D02*
X58547104Y-50280476D01*
X58689961Y-50470952D01*
X48593866Y-51042380D02*
X48260533Y-50566190D01*
X48022438Y-51042380D02*
X48022438Y-50042380D01*
X48403390Y-50042380D01*
X48498628Y-50090000D01*
X48546247Y-50137619D01*
X48593866Y-50232857D01*
X48593866Y-50375714D01*
X48546247Y-50470952D01*
X48498628Y-50518571D01*
X48403390Y-50566190D01*
X48022438Y-50566190D01*
X49022438Y-50518571D02*
X49355771Y-50518571D01*
X49498628Y-51042380D02*
X49022438Y-51042380D01*
X49022438Y-50042380D01*
X49498628Y-50042380D01*
X50260533Y-50518571D02*
X49927200Y-50518571D01*
X49927200Y-51042380D02*
X49927200Y-50042380D01*
X50403390Y-50042380D01*
X50927200Y-50042380D02*
X50927200Y-50280476D01*
X50689104Y-50185238D02*
X50927200Y-50280476D01*
X51165295Y-50185238D01*
X50784342Y-50470952D02*
X50927200Y-50280476D01*
X51070057Y-50470952D01*
X51689104Y-50042380D02*
X51689104Y-50280476D01*
X51451009Y-50185238D02*
X51689104Y-50280476D01*
X51927200Y-50185238D01*
X51546247Y-50470952D02*
X51689104Y-50280476D01*
X51831961Y-50470952D01*
X41735866Y-51042380D02*
X41402533Y-50566190D01*
X41164438Y-51042380D02*
X41164438Y-50042380D01*
X41545390Y-50042380D01*
X41640628Y-50090000D01*
X41688247Y-50137619D01*
X41735866Y-50232857D01*
X41735866Y-50375714D01*
X41688247Y-50470952D01*
X41640628Y-50518571D01*
X41545390Y-50566190D01*
X41164438Y-50566190D01*
X42164438Y-50518571D02*
X42497771Y-50518571D01*
X42640628Y-51042380D02*
X42164438Y-51042380D01*
X42164438Y-50042380D01*
X42640628Y-50042380D01*
X43402533Y-50518571D02*
X43069200Y-50518571D01*
X43069200Y-51042380D02*
X43069200Y-50042380D01*
X43545390Y-50042380D01*
X44069200Y-50042380D02*
X44069200Y-50280476D01*
X43831104Y-50185238D02*
X44069200Y-50280476D01*
X44307295Y-50185238D01*
X43926342Y-50470952D02*
X44069200Y-50280476D01*
X44212057Y-50470952D01*
X44831104Y-50042380D02*
X44831104Y-50280476D01*
X44593009Y-50185238D02*
X44831104Y-50280476D01*
X45069200Y-50185238D01*
X44688247Y-50470952D02*
X44831104Y-50280476D01*
X44973961Y-50470952D01*
X34877866Y-51042380D02*
X34544533Y-50566190D01*
X34306438Y-51042380D02*
X34306438Y-50042380D01*
X34687390Y-50042380D01*
X34782628Y-50090000D01*
X34830247Y-50137619D01*
X34877866Y-50232857D01*
X34877866Y-50375714D01*
X34830247Y-50470952D01*
X34782628Y-50518571D01*
X34687390Y-50566190D01*
X34306438Y-50566190D01*
X35306438Y-50518571D02*
X35639771Y-50518571D01*
X35782628Y-51042380D02*
X35306438Y-51042380D01*
X35306438Y-50042380D01*
X35782628Y-50042380D01*
X36544533Y-50518571D02*
X36211200Y-50518571D01*
X36211200Y-51042380D02*
X36211200Y-50042380D01*
X36687390Y-50042380D01*
X37211200Y-50042380D02*
X37211200Y-50280476D01*
X36973104Y-50185238D02*
X37211200Y-50280476D01*
X37449295Y-50185238D01*
X37068342Y-50470952D02*
X37211200Y-50280476D01*
X37354057Y-50470952D01*
X37973104Y-50042380D02*
X37973104Y-50280476D01*
X37735009Y-50185238D02*
X37973104Y-50280476D01*
X38211200Y-50185238D01*
X37830247Y-50470952D02*
X37973104Y-50280476D01*
X38115961Y-50470952D01*
X28019866Y-51042380D02*
X27686533Y-50566190D01*
X27448438Y-51042380D02*
X27448438Y-50042380D01*
X27829390Y-50042380D01*
X27924628Y-50090000D01*
X27972247Y-50137619D01*
X28019866Y-50232857D01*
X28019866Y-50375714D01*
X27972247Y-50470952D01*
X27924628Y-50518571D01*
X27829390Y-50566190D01*
X27448438Y-50566190D01*
X28448438Y-50518571D02*
X28781771Y-50518571D01*
X28924628Y-51042380D02*
X28448438Y-51042380D01*
X28448438Y-50042380D01*
X28924628Y-50042380D01*
X29686533Y-50518571D02*
X29353200Y-50518571D01*
X29353200Y-51042380D02*
X29353200Y-50042380D01*
X29829390Y-50042380D01*
X30353200Y-50042380D02*
X30353200Y-50280476D01*
X30115104Y-50185238D02*
X30353200Y-50280476D01*
X30591295Y-50185238D01*
X30210342Y-50470952D02*
X30353200Y-50280476D01*
X30496057Y-50470952D01*
X31115104Y-50042380D02*
X31115104Y-50280476D01*
X30877009Y-50185238D02*
X31115104Y-50280476D01*
X31353200Y-50185238D01*
X30972247Y-50470952D02*
X31115104Y-50280476D01*
X31257961Y-50470952D01*
X21161866Y-51042380D02*
X20828533Y-50566190D01*
X20590438Y-51042380D02*
X20590438Y-50042380D01*
X20971390Y-50042380D01*
X21066628Y-50090000D01*
X21114247Y-50137619D01*
X21161866Y-50232857D01*
X21161866Y-50375714D01*
X21114247Y-50470952D01*
X21066628Y-50518571D01*
X20971390Y-50566190D01*
X20590438Y-50566190D01*
X21590438Y-50518571D02*
X21923771Y-50518571D01*
X22066628Y-51042380D02*
X21590438Y-51042380D01*
X21590438Y-50042380D01*
X22066628Y-50042380D01*
X22828533Y-50518571D02*
X22495200Y-50518571D01*
X22495200Y-51042380D02*
X22495200Y-50042380D01*
X22971390Y-50042380D01*
X23495200Y-50042380D02*
X23495200Y-50280476D01*
X23257104Y-50185238D02*
X23495200Y-50280476D01*
X23733295Y-50185238D01*
X23352342Y-50470952D02*
X23495200Y-50280476D01*
X23638057Y-50470952D01*
X24257104Y-50042380D02*
X24257104Y-50280476D01*
X24019009Y-50185238D02*
X24257104Y-50280476D01*
X24495200Y-50185238D01*
X24114247Y-50470952D02*
X24257104Y-50280476D01*
X24399961Y-50470952D01*
X14303866Y-51042380D02*
X13970533Y-50566190D01*
X13732438Y-51042380D02*
X13732438Y-50042380D01*
X14113390Y-50042380D01*
X14208628Y-50090000D01*
X14256247Y-50137619D01*
X14303866Y-50232857D01*
X14303866Y-50375714D01*
X14256247Y-50470952D01*
X14208628Y-50518571D01*
X14113390Y-50566190D01*
X13732438Y-50566190D01*
X14732438Y-50518571D02*
X15065771Y-50518571D01*
X15208628Y-51042380D02*
X14732438Y-51042380D01*
X14732438Y-50042380D01*
X15208628Y-50042380D01*
X15970533Y-50518571D02*
X15637200Y-50518571D01*
X15637200Y-51042380D02*
X15637200Y-50042380D01*
X16113390Y-50042380D01*
X16637200Y-50042380D02*
X16637200Y-50280476D01*
X16399104Y-50185238D02*
X16637200Y-50280476D01*
X16875295Y-50185238D01*
X16494342Y-50470952D02*
X16637200Y-50280476D01*
X16780057Y-50470952D01*
X17399104Y-50042380D02*
X17399104Y-50280476D01*
X17161009Y-50185238D02*
X17399104Y-50280476D01*
X17637200Y-50185238D01*
X17256247Y-50470952D02*
X17399104Y-50280476D01*
X17541961Y-50470952D01*
X82883866Y-43422380D02*
X82550533Y-42946190D01*
X82312438Y-43422380D02*
X82312438Y-42422380D01*
X82693390Y-42422380D01*
X82788628Y-42470000D01*
X82836247Y-42517619D01*
X82883866Y-42612857D01*
X82883866Y-42755714D01*
X82836247Y-42850952D01*
X82788628Y-42898571D01*
X82693390Y-42946190D01*
X82312438Y-42946190D01*
X83312438Y-42898571D02*
X83645771Y-42898571D01*
X83788628Y-43422380D02*
X83312438Y-43422380D01*
X83312438Y-42422380D01*
X83788628Y-42422380D01*
X84550533Y-42898571D02*
X84217200Y-42898571D01*
X84217200Y-43422380D02*
X84217200Y-42422380D01*
X84693390Y-42422380D01*
X85217200Y-42422380D02*
X85217200Y-42660476D01*
X84979104Y-42565238D02*
X85217200Y-42660476D01*
X85455295Y-42565238D01*
X85074342Y-42850952D02*
X85217200Y-42660476D01*
X85360057Y-42850952D01*
X85979104Y-42422380D02*
X85979104Y-42660476D01*
X85741009Y-42565238D02*
X85979104Y-42660476D01*
X86217200Y-42565238D01*
X85836247Y-42850952D02*
X85979104Y-42660476D01*
X86121961Y-42850952D01*
X76025866Y-43422380D02*
X75692533Y-42946190D01*
X75454438Y-43422380D02*
X75454438Y-42422380D01*
X75835390Y-42422380D01*
X75930628Y-42470000D01*
X75978247Y-42517619D01*
X76025866Y-42612857D01*
X76025866Y-42755714D01*
X75978247Y-42850952D01*
X75930628Y-42898571D01*
X75835390Y-42946190D01*
X75454438Y-42946190D01*
X76454438Y-42898571D02*
X76787771Y-42898571D01*
X76930628Y-43422380D02*
X76454438Y-43422380D01*
X76454438Y-42422380D01*
X76930628Y-42422380D01*
X77692533Y-42898571D02*
X77359200Y-42898571D01*
X77359200Y-43422380D02*
X77359200Y-42422380D01*
X77835390Y-42422380D01*
X78359200Y-42422380D02*
X78359200Y-42660476D01*
X78121104Y-42565238D02*
X78359200Y-42660476D01*
X78597295Y-42565238D01*
X78216342Y-42850952D02*
X78359200Y-42660476D01*
X78502057Y-42850952D01*
X79121104Y-42422380D02*
X79121104Y-42660476D01*
X78883009Y-42565238D02*
X79121104Y-42660476D01*
X79359200Y-42565238D01*
X78978247Y-42850952D02*
X79121104Y-42660476D01*
X79263961Y-42850952D01*
X69167866Y-43422380D02*
X68834533Y-42946190D01*
X68596438Y-43422380D02*
X68596438Y-42422380D01*
X68977390Y-42422380D01*
X69072628Y-42470000D01*
X69120247Y-42517619D01*
X69167866Y-42612857D01*
X69167866Y-42755714D01*
X69120247Y-42850952D01*
X69072628Y-42898571D01*
X68977390Y-42946190D01*
X68596438Y-42946190D01*
X69596438Y-42898571D02*
X69929771Y-42898571D01*
X70072628Y-43422380D02*
X69596438Y-43422380D01*
X69596438Y-42422380D01*
X70072628Y-42422380D01*
X70834533Y-42898571D02*
X70501200Y-42898571D01*
X70501200Y-43422380D02*
X70501200Y-42422380D01*
X70977390Y-42422380D01*
X71501200Y-42422380D02*
X71501200Y-42660476D01*
X71263104Y-42565238D02*
X71501200Y-42660476D01*
X71739295Y-42565238D01*
X71358342Y-42850952D02*
X71501200Y-42660476D01*
X71644057Y-42850952D01*
X72263104Y-42422380D02*
X72263104Y-42660476D01*
X72025009Y-42565238D02*
X72263104Y-42660476D01*
X72501200Y-42565238D01*
X72120247Y-42850952D02*
X72263104Y-42660476D01*
X72405961Y-42850952D01*
X62309866Y-43422380D02*
X61976533Y-42946190D01*
X61738438Y-43422380D02*
X61738438Y-42422380D01*
X62119390Y-42422380D01*
X62214628Y-42470000D01*
X62262247Y-42517619D01*
X62309866Y-42612857D01*
X62309866Y-42755714D01*
X62262247Y-42850952D01*
X62214628Y-42898571D01*
X62119390Y-42946190D01*
X61738438Y-42946190D01*
X62738438Y-42898571D02*
X63071771Y-42898571D01*
X63214628Y-43422380D02*
X62738438Y-43422380D01*
X62738438Y-42422380D01*
X63214628Y-42422380D01*
X63976533Y-42898571D02*
X63643200Y-42898571D01*
X63643200Y-43422380D02*
X63643200Y-42422380D01*
X64119390Y-42422380D01*
X64643200Y-42422380D02*
X64643200Y-42660476D01*
X64405104Y-42565238D02*
X64643200Y-42660476D01*
X64881295Y-42565238D01*
X64500342Y-42850952D02*
X64643200Y-42660476D01*
X64786057Y-42850952D01*
X65405104Y-42422380D02*
X65405104Y-42660476D01*
X65167009Y-42565238D02*
X65405104Y-42660476D01*
X65643200Y-42565238D01*
X65262247Y-42850952D02*
X65405104Y-42660476D01*
X65547961Y-42850952D01*
X55451866Y-43422380D02*
X55118533Y-42946190D01*
X54880438Y-43422380D02*
X54880438Y-42422380D01*
X55261390Y-42422380D01*
X55356628Y-42470000D01*
X55404247Y-42517619D01*
X55451866Y-42612857D01*
X55451866Y-42755714D01*
X55404247Y-42850952D01*
X55356628Y-42898571D01*
X55261390Y-42946190D01*
X54880438Y-42946190D01*
X55880438Y-42898571D02*
X56213771Y-42898571D01*
X56356628Y-43422380D02*
X55880438Y-43422380D01*
X55880438Y-42422380D01*
X56356628Y-42422380D01*
X57118533Y-42898571D02*
X56785200Y-42898571D01*
X56785200Y-43422380D02*
X56785200Y-42422380D01*
X57261390Y-42422380D01*
X57785200Y-42422380D02*
X57785200Y-42660476D01*
X57547104Y-42565238D02*
X57785200Y-42660476D01*
X58023295Y-42565238D01*
X57642342Y-42850952D02*
X57785200Y-42660476D01*
X57928057Y-42850952D01*
X58547104Y-42422380D02*
X58547104Y-42660476D01*
X58309009Y-42565238D02*
X58547104Y-42660476D01*
X58785200Y-42565238D01*
X58404247Y-42850952D02*
X58547104Y-42660476D01*
X58689961Y-42850952D01*
X48593866Y-43422380D02*
X48260533Y-42946190D01*
X48022438Y-43422380D02*
X48022438Y-42422380D01*
X48403390Y-42422380D01*
X48498628Y-42470000D01*
X48546247Y-42517619D01*
X48593866Y-42612857D01*
X48593866Y-42755714D01*
X48546247Y-42850952D01*
X48498628Y-42898571D01*
X48403390Y-42946190D01*
X48022438Y-42946190D01*
X49022438Y-42898571D02*
X49355771Y-42898571D01*
X49498628Y-43422380D02*
X49022438Y-43422380D01*
X49022438Y-42422380D01*
X49498628Y-42422380D01*
X50260533Y-42898571D02*
X49927200Y-42898571D01*
X49927200Y-43422380D02*
X49927200Y-42422380D01*
X50403390Y-42422380D01*
X50927200Y-42422380D02*
X50927200Y-42660476D01*
X50689104Y-42565238D02*
X50927200Y-42660476D01*
X51165295Y-42565238D01*
X50784342Y-42850952D02*
X50927200Y-42660476D01*
X51070057Y-42850952D01*
X51689104Y-42422380D02*
X51689104Y-42660476D01*
X51451009Y-42565238D02*
X51689104Y-42660476D01*
X51927200Y-42565238D01*
X51546247Y-42850952D02*
X51689104Y-42660476D01*
X51831961Y-42850952D01*
X41735866Y-43422380D02*
X41402533Y-42946190D01*
X41164438Y-43422380D02*
X41164438Y-42422380D01*
X41545390Y-42422380D01*
X41640628Y-42470000D01*
X41688247Y-42517619D01*
X41735866Y-42612857D01*
X41735866Y-42755714D01*
X41688247Y-42850952D01*
X41640628Y-42898571D01*
X41545390Y-42946190D01*
X41164438Y-42946190D01*
X42164438Y-42898571D02*
X42497771Y-42898571D01*
X42640628Y-43422380D02*
X42164438Y-43422380D01*
X42164438Y-42422380D01*
X42640628Y-42422380D01*
X43402533Y-42898571D02*
X43069200Y-42898571D01*
X43069200Y-43422380D02*
X43069200Y-42422380D01*
X43545390Y-42422380D01*
X44069200Y-42422380D02*
X44069200Y-42660476D01*
X43831104Y-42565238D02*
X44069200Y-42660476D01*
X44307295Y-42565238D01*
X43926342Y-42850952D02*
X44069200Y-42660476D01*
X44212057Y-42850952D01*
X44831104Y-42422380D02*
X44831104Y-42660476D01*
X44593009Y-42565238D02*
X44831104Y-42660476D01*
X45069200Y-42565238D01*
X44688247Y-42850952D02*
X44831104Y-42660476D01*
X44973961Y-42850952D01*
X34877866Y-43422380D02*
X34544533Y-42946190D01*
X34306438Y-43422380D02*
X34306438Y-42422380D01*
X34687390Y-42422380D01*
X34782628Y-42470000D01*
X34830247Y-42517619D01*
X34877866Y-42612857D01*
X34877866Y-42755714D01*
X34830247Y-42850952D01*
X34782628Y-42898571D01*
X34687390Y-42946190D01*
X34306438Y-42946190D01*
X35306438Y-42898571D02*
X35639771Y-42898571D01*
X35782628Y-43422380D02*
X35306438Y-43422380D01*
X35306438Y-42422380D01*
X35782628Y-42422380D01*
X36544533Y-42898571D02*
X36211200Y-42898571D01*
X36211200Y-43422380D02*
X36211200Y-42422380D01*
X36687390Y-42422380D01*
X37211200Y-42422380D02*
X37211200Y-42660476D01*
X36973104Y-42565238D02*
X37211200Y-42660476D01*
X37449295Y-42565238D01*
X37068342Y-42850952D02*
X37211200Y-42660476D01*
X37354057Y-42850952D01*
X37973104Y-42422380D02*
X37973104Y-42660476D01*
X37735009Y-42565238D02*
X37973104Y-42660476D01*
X38211200Y-42565238D01*
X37830247Y-42850952D02*
X37973104Y-42660476D01*
X38115961Y-42850952D01*
X28019866Y-43422380D02*
X27686533Y-42946190D01*
X27448438Y-43422380D02*
X27448438Y-42422380D01*
X27829390Y-42422380D01*
X27924628Y-42470000D01*
X27972247Y-42517619D01*
X28019866Y-42612857D01*
X28019866Y-42755714D01*
X27972247Y-42850952D01*
X27924628Y-42898571D01*
X27829390Y-42946190D01*
X27448438Y-42946190D01*
X28448438Y-42898571D02*
X28781771Y-42898571D01*
X28924628Y-43422380D02*
X28448438Y-43422380D01*
X28448438Y-42422380D01*
X28924628Y-42422380D01*
X29686533Y-42898571D02*
X29353200Y-42898571D01*
X29353200Y-43422380D02*
X29353200Y-42422380D01*
X29829390Y-42422380D01*
X30353200Y-42422380D02*
X30353200Y-42660476D01*
X30115104Y-42565238D02*
X30353200Y-42660476D01*
X30591295Y-42565238D01*
X30210342Y-42850952D02*
X30353200Y-42660476D01*
X30496057Y-42850952D01*
X31115104Y-42422380D02*
X31115104Y-42660476D01*
X30877009Y-42565238D02*
X31115104Y-42660476D01*
X31353200Y-42565238D01*
X30972247Y-42850952D02*
X31115104Y-42660476D01*
X31257961Y-42850952D01*
X21161866Y-43422380D02*
X20828533Y-42946190D01*
X20590438Y-43422380D02*
X20590438Y-42422380D01*
X20971390Y-42422380D01*
X21066628Y-42470000D01*
X21114247Y-42517619D01*
X21161866Y-42612857D01*
X21161866Y-42755714D01*
X21114247Y-42850952D01*
X21066628Y-42898571D01*
X20971390Y-42946190D01*
X20590438Y-42946190D01*
X21590438Y-42898571D02*
X21923771Y-42898571D01*
X22066628Y-43422380D02*
X21590438Y-43422380D01*
X21590438Y-42422380D01*
X22066628Y-42422380D01*
X22828533Y-42898571D02*
X22495200Y-42898571D01*
X22495200Y-43422380D02*
X22495200Y-42422380D01*
X22971390Y-42422380D01*
X23495200Y-42422380D02*
X23495200Y-42660476D01*
X23257104Y-42565238D02*
X23495200Y-42660476D01*
X23733295Y-42565238D01*
X23352342Y-42850952D02*
X23495200Y-42660476D01*
X23638057Y-42850952D01*
X24257104Y-42422380D02*
X24257104Y-42660476D01*
X24019009Y-42565238D02*
X24257104Y-42660476D01*
X24495200Y-42565238D01*
X24114247Y-42850952D02*
X24257104Y-42660476D01*
X24399961Y-42850952D01*
X14303866Y-43422380D02*
X13970533Y-42946190D01*
X13732438Y-43422380D02*
X13732438Y-42422380D01*
X14113390Y-42422380D01*
X14208628Y-42470000D01*
X14256247Y-42517619D01*
X14303866Y-42612857D01*
X14303866Y-42755714D01*
X14256247Y-42850952D01*
X14208628Y-42898571D01*
X14113390Y-42946190D01*
X13732438Y-42946190D01*
X14732438Y-42898571D02*
X15065771Y-42898571D01*
X15208628Y-43422380D02*
X14732438Y-43422380D01*
X14732438Y-42422380D01*
X15208628Y-42422380D01*
X15970533Y-42898571D02*
X15637200Y-42898571D01*
X15637200Y-43422380D02*
X15637200Y-42422380D01*
X16113390Y-42422380D01*
X16637200Y-42422380D02*
X16637200Y-42660476D01*
X16399104Y-42565238D02*
X16637200Y-42660476D01*
X16875295Y-42565238D01*
X16494342Y-42850952D02*
X16637200Y-42660476D01*
X16780057Y-42850952D01*
X17399104Y-42422380D02*
X17399104Y-42660476D01*
X17161009Y-42565238D02*
X17399104Y-42660476D01*
X17637200Y-42565238D01*
X17256247Y-42850952D02*
X17399104Y-42660476D01*
X17541961Y-42850952D01*
X82883866Y-35802380D02*
X82550533Y-35326190D01*
X82312438Y-35802380D02*
X82312438Y-34802380D01*
X82693390Y-34802380D01*
X82788628Y-34850000D01*
X82836247Y-34897619D01*
X82883866Y-34992857D01*
X82883866Y-35135714D01*
X82836247Y-35230952D01*
X82788628Y-35278571D01*
X82693390Y-35326190D01*
X82312438Y-35326190D01*
X83312438Y-35278571D02*
X83645771Y-35278571D01*
X83788628Y-35802380D02*
X83312438Y-35802380D01*
X83312438Y-34802380D01*
X83788628Y-34802380D01*
X84550533Y-35278571D02*
X84217200Y-35278571D01*
X84217200Y-35802380D02*
X84217200Y-34802380D01*
X84693390Y-34802380D01*
X85217200Y-34802380D02*
X85217200Y-35040476D01*
X84979104Y-34945238D02*
X85217200Y-35040476D01*
X85455295Y-34945238D01*
X85074342Y-35230952D02*
X85217200Y-35040476D01*
X85360057Y-35230952D01*
X85979104Y-34802380D02*
X85979104Y-35040476D01*
X85741009Y-34945238D02*
X85979104Y-35040476D01*
X86217200Y-34945238D01*
X85836247Y-35230952D02*
X85979104Y-35040476D01*
X86121961Y-35230952D01*
X76025866Y-35802380D02*
X75692533Y-35326190D01*
X75454438Y-35802380D02*
X75454438Y-34802380D01*
X75835390Y-34802380D01*
X75930628Y-34850000D01*
X75978247Y-34897619D01*
X76025866Y-34992857D01*
X76025866Y-35135714D01*
X75978247Y-35230952D01*
X75930628Y-35278571D01*
X75835390Y-35326190D01*
X75454438Y-35326190D01*
X76454438Y-35278571D02*
X76787771Y-35278571D01*
X76930628Y-35802380D02*
X76454438Y-35802380D01*
X76454438Y-34802380D01*
X76930628Y-34802380D01*
X77692533Y-35278571D02*
X77359200Y-35278571D01*
X77359200Y-35802380D02*
X77359200Y-34802380D01*
X77835390Y-34802380D01*
X78359200Y-34802380D02*
X78359200Y-35040476D01*
X78121104Y-34945238D02*
X78359200Y-35040476D01*
X78597295Y-34945238D01*
X78216342Y-35230952D02*
X78359200Y-35040476D01*
X78502057Y-35230952D01*
X79121104Y-34802380D02*
X79121104Y-35040476D01*
X78883009Y-34945238D02*
X79121104Y-35040476D01*
X79359200Y-34945238D01*
X78978247Y-35230952D02*
X79121104Y-35040476D01*
X79263961Y-35230952D01*
X69167866Y-35802380D02*
X68834533Y-35326190D01*
X68596438Y-35802380D02*
X68596438Y-34802380D01*
X68977390Y-34802380D01*
X69072628Y-34850000D01*
X69120247Y-34897619D01*
X69167866Y-34992857D01*
X69167866Y-35135714D01*
X69120247Y-35230952D01*
X69072628Y-35278571D01*
X68977390Y-35326190D01*
X68596438Y-35326190D01*
X69596438Y-35278571D02*
X69929771Y-35278571D01*
X70072628Y-35802380D02*
X69596438Y-35802380D01*
X69596438Y-34802380D01*
X70072628Y-34802380D01*
X70834533Y-35278571D02*
X70501200Y-35278571D01*
X70501200Y-35802380D02*
X70501200Y-34802380D01*
X70977390Y-34802380D01*
X71501200Y-34802380D02*
X71501200Y-35040476D01*
X71263104Y-34945238D02*
X71501200Y-35040476D01*
X71739295Y-34945238D01*
X71358342Y-35230952D02*
X71501200Y-35040476D01*
X71644057Y-35230952D01*
X72263104Y-34802380D02*
X72263104Y-35040476D01*
X72025009Y-34945238D02*
X72263104Y-35040476D01*
X72501200Y-34945238D01*
X72120247Y-35230952D02*
X72263104Y-35040476D01*
X72405961Y-35230952D01*
X62309866Y-35802380D02*
X61976533Y-35326190D01*
X61738438Y-35802380D02*
X61738438Y-34802380D01*
X62119390Y-34802380D01*
X62214628Y-34850000D01*
X62262247Y-34897619D01*
X62309866Y-34992857D01*
X62309866Y-35135714D01*
X62262247Y-35230952D01*
X62214628Y-35278571D01*
X62119390Y-35326190D01*
X61738438Y-35326190D01*
X62738438Y-35278571D02*
X63071771Y-35278571D01*
X63214628Y-35802380D02*
X62738438Y-35802380D01*
X62738438Y-34802380D01*
X63214628Y-34802380D01*
X63976533Y-35278571D02*
X63643200Y-35278571D01*
X63643200Y-35802380D02*
X63643200Y-34802380D01*
X64119390Y-34802380D01*
X64643200Y-34802380D02*
X64643200Y-35040476D01*
X64405104Y-34945238D02*
X64643200Y-35040476D01*
X64881295Y-34945238D01*
X64500342Y-35230952D02*
X64643200Y-35040476D01*
X64786057Y-35230952D01*
X65405104Y-34802380D02*
X65405104Y-35040476D01*
X65167009Y-34945238D02*
X65405104Y-35040476D01*
X65643200Y-34945238D01*
X65262247Y-35230952D02*
X65405104Y-35040476D01*
X65547961Y-35230952D01*
X55451866Y-35802380D02*
X55118533Y-35326190D01*
X54880438Y-35802380D02*
X54880438Y-34802380D01*
X55261390Y-34802380D01*
X55356628Y-34850000D01*
X55404247Y-34897619D01*
X55451866Y-34992857D01*
X55451866Y-35135714D01*
X55404247Y-35230952D01*
X55356628Y-35278571D01*
X55261390Y-35326190D01*
X54880438Y-35326190D01*
X55880438Y-35278571D02*
X56213771Y-35278571D01*
X56356628Y-35802380D02*
X55880438Y-35802380D01*
X55880438Y-34802380D01*
X56356628Y-34802380D01*
X57118533Y-35278571D02*
X56785200Y-35278571D01*
X56785200Y-35802380D02*
X56785200Y-34802380D01*
X57261390Y-34802380D01*
X57785200Y-34802380D02*
X57785200Y-35040476D01*
X57547104Y-34945238D02*
X57785200Y-35040476D01*
X58023295Y-34945238D01*
X57642342Y-35230952D02*
X57785200Y-35040476D01*
X57928057Y-35230952D01*
X58547104Y-34802380D02*
X58547104Y-35040476D01*
X58309009Y-34945238D02*
X58547104Y-35040476D01*
X58785200Y-34945238D01*
X58404247Y-35230952D02*
X58547104Y-35040476D01*
X58689961Y-35230952D01*
X48593866Y-35802380D02*
X48260533Y-35326190D01*
X48022438Y-35802380D02*
X48022438Y-34802380D01*
X48403390Y-34802380D01*
X48498628Y-34850000D01*
X48546247Y-34897619D01*
X48593866Y-34992857D01*
X48593866Y-35135714D01*
X48546247Y-35230952D01*
X48498628Y-35278571D01*
X48403390Y-35326190D01*
X48022438Y-35326190D01*
X49022438Y-35278571D02*
X49355771Y-35278571D01*
X49498628Y-35802380D02*
X49022438Y-35802380D01*
X49022438Y-34802380D01*
X49498628Y-34802380D01*
X50260533Y-35278571D02*
X49927200Y-35278571D01*
X49927200Y-35802380D02*
X49927200Y-34802380D01*
X50403390Y-34802380D01*
X50927200Y-34802380D02*
X50927200Y-35040476D01*
X50689104Y-34945238D02*
X50927200Y-35040476D01*
X51165295Y-34945238D01*
X50784342Y-35230952D02*
X50927200Y-35040476D01*
X51070057Y-35230952D01*
X51689104Y-34802380D02*
X51689104Y-35040476D01*
X51451009Y-34945238D02*
X51689104Y-35040476D01*
X51927200Y-34945238D01*
X51546247Y-35230952D02*
X51689104Y-35040476D01*
X51831961Y-35230952D01*
X41735866Y-35802380D02*
X41402533Y-35326190D01*
X41164438Y-35802380D02*
X41164438Y-34802380D01*
X41545390Y-34802380D01*
X41640628Y-34850000D01*
X41688247Y-34897619D01*
X41735866Y-34992857D01*
X41735866Y-35135714D01*
X41688247Y-35230952D01*
X41640628Y-35278571D01*
X41545390Y-35326190D01*
X41164438Y-35326190D01*
X42164438Y-35278571D02*
X42497771Y-35278571D01*
X42640628Y-35802380D02*
X42164438Y-35802380D01*
X42164438Y-34802380D01*
X42640628Y-34802380D01*
X43402533Y-35278571D02*
X43069200Y-35278571D01*
X43069200Y-35802380D02*
X43069200Y-34802380D01*
X43545390Y-34802380D01*
X44069200Y-34802380D02*
X44069200Y-35040476D01*
X43831104Y-34945238D02*
X44069200Y-35040476D01*
X44307295Y-34945238D01*
X43926342Y-35230952D02*
X44069200Y-35040476D01*
X44212057Y-35230952D01*
X44831104Y-34802380D02*
X44831104Y-35040476D01*
X44593009Y-34945238D02*
X44831104Y-35040476D01*
X45069200Y-34945238D01*
X44688247Y-35230952D02*
X44831104Y-35040476D01*
X44973961Y-35230952D01*
X34877866Y-35802380D02*
X34544533Y-35326190D01*
X34306438Y-35802380D02*
X34306438Y-34802380D01*
X34687390Y-34802380D01*
X34782628Y-34850000D01*
X34830247Y-34897619D01*
X34877866Y-34992857D01*
X34877866Y-35135714D01*
X34830247Y-35230952D01*
X34782628Y-35278571D01*
X34687390Y-35326190D01*
X34306438Y-35326190D01*
X35306438Y-35278571D02*
X35639771Y-35278571D01*
X35782628Y-35802380D02*
X35306438Y-35802380D01*
X35306438Y-34802380D01*
X35782628Y-34802380D01*
X36544533Y-35278571D02*
X36211200Y-35278571D01*
X36211200Y-35802380D02*
X36211200Y-34802380D01*
X36687390Y-34802380D01*
X37211200Y-34802380D02*
X37211200Y-35040476D01*
X36973104Y-34945238D02*
X37211200Y-35040476D01*
X37449295Y-34945238D01*
X37068342Y-35230952D02*
X37211200Y-35040476D01*
X37354057Y-35230952D01*
X37973104Y-34802380D02*
X37973104Y-35040476D01*
X37735009Y-34945238D02*
X37973104Y-35040476D01*
X38211200Y-34945238D01*
X37830247Y-35230952D02*
X37973104Y-35040476D01*
X38115961Y-35230952D01*
X28019866Y-35802380D02*
X27686533Y-35326190D01*
X27448438Y-35802380D02*
X27448438Y-34802380D01*
X27829390Y-34802380D01*
X27924628Y-34850000D01*
X27972247Y-34897619D01*
X28019866Y-34992857D01*
X28019866Y-35135714D01*
X27972247Y-35230952D01*
X27924628Y-35278571D01*
X27829390Y-35326190D01*
X27448438Y-35326190D01*
X28448438Y-35278571D02*
X28781771Y-35278571D01*
X28924628Y-35802380D02*
X28448438Y-35802380D01*
X28448438Y-34802380D01*
X28924628Y-34802380D01*
X29686533Y-35278571D02*
X29353200Y-35278571D01*
X29353200Y-35802380D02*
X29353200Y-34802380D01*
X29829390Y-34802380D01*
X30353200Y-34802380D02*
X30353200Y-35040476D01*
X30115104Y-34945238D02*
X30353200Y-35040476D01*
X30591295Y-34945238D01*
X30210342Y-35230952D02*
X30353200Y-35040476D01*
X30496057Y-35230952D01*
X31115104Y-34802380D02*
X31115104Y-35040476D01*
X30877009Y-34945238D02*
X31115104Y-35040476D01*
X31353200Y-34945238D01*
X30972247Y-35230952D02*
X31115104Y-35040476D01*
X31257961Y-35230952D01*
X21161866Y-35802380D02*
X20828533Y-35326190D01*
X20590438Y-35802380D02*
X20590438Y-34802380D01*
X20971390Y-34802380D01*
X21066628Y-34850000D01*
X21114247Y-34897619D01*
X21161866Y-34992857D01*
X21161866Y-35135714D01*
X21114247Y-35230952D01*
X21066628Y-35278571D01*
X20971390Y-35326190D01*
X20590438Y-35326190D01*
X21590438Y-35278571D02*
X21923771Y-35278571D01*
X22066628Y-35802380D02*
X21590438Y-35802380D01*
X21590438Y-34802380D01*
X22066628Y-34802380D01*
X22828533Y-35278571D02*
X22495200Y-35278571D01*
X22495200Y-35802380D02*
X22495200Y-34802380D01*
X22971390Y-34802380D01*
X23495200Y-34802380D02*
X23495200Y-35040476D01*
X23257104Y-34945238D02*
X23495200Y-35040476D01*
X23733295Y-34945238D01*
X23352342Y-35230952D02*
X23495200Y-35040476D01*
X23638057Y-35230952D01*
X24257104Y-34802380D02*
X24257104Y-35040476D01*
X24019009Y-34945238D02*
X24257104Y-35040476D01*
X24495200Y-34945238D01*
X24114247Y-35230952D02*
X24257104Y-35040476D01*
X24399961Y-35230952D01*
X14303866Y-35802380D02*
X13970533Y-35326190D01*
X13732438Y-35802380D02*
X13732438Y-34802380D01*
X14113390Y-34802380D01*
X14208628Y-34850000D01*
X14256247Y-34897619D01*
X14303866Y-34992857D01*
X14303866Y-35135714D01*
X14256247Y-35230952D01*
X14208628Y-35278571D01*
X14113390Y-35326190D01*
X13732438Y-35326190D01*
X14732438Y-35278571D02*
X15065771Y-35278571D01*
X15208628Y-35802380D02*
X14732438Y-35802380D01*
X14732438Y-34802380D01*
X15208628Y-34802380D01*
X15970533Y-35278571D02*
X15637200Y-35278571D01*
X15637200Y-35802380D02*
X15637200Y-34802380D01*
X16113390Y-34802380D01*
X16637200Y-34802380D02*
X16637200Y-35040476D01*
X16399104Y-34945238D02*
X16637200Y-35040476D01*
X16875295Y-34945238D01*
X16494342Y-35230952D02*
X16637200Y-35040476D01*
X16780057Y-35230952D01*
X17399104Y-34802380D02*
X17399104Y-35040476D01*
X17161009Y-34945238D02*
X17399104Y-35040476D01*
X17637200Y-34945238D01*
X17256247Y-35230952D02*
X17399104Y-35040476D01*
X17541961Y-35230952D01*
X82883866Y-28182380D02*
X82550533Y-27706190D01*
X82312438Y-28182380D02*
X82312438Y-27182380D01*
X82693390Y-27182380D01*
X82788628Y-27230000D01*
X82836247Y-27277619D01*
X82883866Y-27372857D01*
X82883866Y-27515714D01*
X82836247Y-27610952D01*
X82788628Y-27658571D01*
X82693390Y-27706190D01*
X82312438Y-27706190D01*
X83312438Y-27658571D02*
X83645771Y-27658571D01*
X83788628Y-28182380D02*
X83312438Y-28182380D01*
X83312438Y-27182380D01*
X83788628Y-27182380D01*
X84550533Y-27658571D02*
X84217200Y-27658571D01*
X84217200Y-28182380D02*
X84217200Y-27182380D01*
X84693390Y-27182380D01*
X85217200Y-27182380D02*
X85217200Y-27420476D01*
X84979104Y-27325238D02*
X85217200Y-27420476D01*
X85455295Y-27325238D01*
X85074342Y-27610952D02*
X85217200Y-27420476D01*
X85360057Y-27610952D01*
X85979104Y-27182380D02*
X85979104Y-27420476D01*
X85741009Y-27325238D02*
X85979104Y-27420476D01*
X86217200Y-27325238D01*
X85836247Y-27610952D02*
X85979104Y-27420476D01*
X86121961Y-27610952D01*
X76025866Y-28182380D02*
X75692533Y-27706190D01*
X75454438Y-28182380D02*
X75454438Y-27182380D01*
X75835390Y-27182380D01*
X75930628Y-27230000D01*
X75978247Y-27277619D01*
X76025866Y-27372857D01*
X76025866Y-27515714D01*
X75978247Y-27610952D01*
X75930628Y-27658571D01*
X75835390Y-27706190D01*
X75454438Y-27706190D01*
X76454438Y-27658571D02*
X76787771Y-27658571D01*
X76930628Y-28182380D02*
X76454438Y-28182380D01*
X76454438Y-27182380D01*
X76930628Y-27182380D01*
X77692533Y-27658571D02*
X77359200Y-27658571D01*
X77359200Y-28182380D02*
X77359200Y-27182380D01*
X77835390Y-27182380D01*
X78359200Y-27182380D02*
X78359200Y-27420476D01*
X78121104Y-27325238D02*
X78359200Y-27420476D01*
X78597295Y-27325238D01*
X78216342Y-27610952D02*
X78359200Y-27420476D01*
X78502057Y-27610952D01*
X79121104Y-27182380D02*
X79121104Y-27420476D01*
X78883009Y-27325238D02*
X79121104Y-27420476D01*
X79359200Y-27325238D01*
X78978247Y-27610952D02*
X79121104Y-27420476D01*
X79263961Y-27610952D01*
X69167866Y-28182380D02*
X68834533Y-27706190D01*
X68596438Y-28182380D02*
X68596438Y-27182380D01*
X68977390Y-27182380D01*
X69072628Y-27230000D01*
X69120247Y-27277619D01*
X69167866Y-27372857D01*
X69167866Y-27515714D01*
X69120247Y-27610952D01*
X69072628Y-27658571D01*
X68977390Y-27706190D01*
X68596438Y-27706190D01*
X69596438Y-27658571D02*
X69929771Y-27658571D01*
X70072628Y-28182380D02*
X69596438Y-28182380D01*
X69596438Y-27182380D01*
X70072628Y-27182380D01*
X70834533Y-27658571D02*
X70501200Y-27658571D01*
X70501200Y-28182380D02*
X70501200Y-27182380D01*
X70977390Y-27182380D01*
X71501200Y-27182380D02*
X71501200Y-27420476D01*
X71263104Y-27325238D02*
X71501200Y-27420476D01*
X71739295Y-27325238D01*
X71358342Y-27610952D02*
X71501200Y-27420476D01*
X71644057Y-27610952D01*
X72263104Y-27182380D02*
X72263104Y-27420476D01*
X72025009Y-27325238D02*
X72263104Y-27420476D01*
X72501200Y-27325238D01*
X72120247Y-27610952D02*
X72263104Y-27420476D01*
X72405961Y-27610952D01*
X62309866Y-28182380D02*
X61976533Y-27706190D01*
X61738438Y-28182380D02*
X61738438Y-27182380D01*
X62119390Y-27182380D01*
X62214628Y-27230000D01*
X62262247Y-27277619D01*
X62309866Y-27372857D01*
X62309866Y-27515714D01*
X62262247Y-27610952D01*
X62214628Y-27658571D01*
X62119390Y-27706190D01*
X61738438Y-27706190D01*
X62738438Y-27658571D02*
X63071771Y-27658571D01*
X63214628Y-28182380D02*
X62738438Y-28182380D01*
X62738438Y-27182380D01*
X63214628Y-27182380D01*
X63976533Y-27658571D02*
X63643200Y-27658571D01*
X63643200Y-28182380D02*
X63643200Y-27182380D01*
X64119390Y-27182380D01*
X64643200Y-27182380D02*
X64643200Y-27420476D01*
X64405104Y-27325238D02*
X64643200Y-27420476D01*
X64881295Y-27325238D01*
X64500342Y-27610952D02*
X64643200Y-27420476D01*
X64786057Y-27610952D01*
X65405104Y-27182380D02*
X65405104Y-27420476D01*
X65167009Y-27325238D02*
X65405104Y-27420476D01*
X65643200Y-27325238D01*
X65262247Y-27610952D02*
X65405104Y-27420476D01*
X65547961Y-27610952D01*
X55451866Y-28182380D02*
X55118533Y-27706190D01*
X54880438Y-28182380D02*
X54880438Y-27182380D01*
X55261390Y-27182380D01*
X55356628Y-27230000D01*
X55404247Y-27277619D01*
X55451866Y-27372857D01*
X55451866Y-27515714D01*
X55404247Y-27610952D01*
X55356628Y-27658571D01*
X55261390Y-27706190D01*
X54880438Y-27706190D01*
X55880438Y-27658571D02*
X56213771Y-27658571D01*
X56356628Y-28182380D02*
X55880438Y-28182380D01*
X55880438Y-27182380D01*
X56356628Y-27182380D01*
X57118533Y-27658571D02*
X56785200Y-27658571D01*
X56785200Y-28182380D02*
X56785200Y-27182380D01*
X57261390Y-27182380D01*
X57785200Y-27182380D02*
X57785200Y-27420476D01*
X57547104Y-27325238D02*
X57785200Y-27420476D01*
X58023295Y-27325238D01*
X57642342Y-27610952D02*
X57785200Y-27420476D01*
X57928057Y-27610952D01*
X58547104Y-27182380D02*
X58547104Y-27420476D01*
X58309009Y-27325238D02*
X58547104Y-27420476D01*
X58785200Y-27325238D01*
X58404247Y-27610952D02*
X58547104Y-27420476D01*
X58689961Y-27610952D01*
X48593866Y-28182380D02*
X48260533Y-27706190D01*
X48022438Y-28182380D02*
X48022438Y-27182380D01*
X48403390Y-27182380D01*
X48498628Y-27230000D01*
X48546247Y-27277619D01*
X48593866Y-27372857D01*
X48593866Y-27515714D01*
X48546247Y-27610952D01*
X48498628Y-27658571D01*
X48403390Y-27706190D01*
X48022438Y-27706190D01*
X49022438Y-27658571D02*
X49355771Y-27658571D01*
X49498628Y-28182380D02*
X49022438Y-28182380D01*
X49022438Y-27182380D01*
X49498628Y-27182380D01*
X50260533Y-27658571D02*
X49927200Y-27658571D01*
X49927200Y-28182380D02*
X49927200Y-27182380D01*
X50403390Y-27182380D01*
X50927200Y-27182380D02*
X50927200Y-27420476D01*
X50689104Y-27325238D02*
X50927200Y-27420476D01*
X51165295Y-27325238D01*
X50784342Y-27610952D02*
X50927200Y-27420476D01*
X51070057Y-27610952D01*
X51689104Y-27182380D02*
X51689104Y-27420476D01*
X51451009Y-27325238D02*
X51689104Y-27420476D01*
X51927200Y-27325238D01*
X51546247Y-27610952D02*
X51689104Y-27420476D01*
X51831961Y-27610952D01*
X41735866Y-28182380D02*
X41402533Y-27706190D01*
X41164438Y-28182380D02*
X41164438Y-27182380D01*
X41545390Y-27182380D01*
X41640628Y-27230000D01*
X41688247Y-27277619D01*
X41735866Y-27372857D01*
X41735866Y-27515714D01*
X41688247Y-27610952D01*
X41640628Y-27658571D01*
X41545390Y-27706190D01*
X41164438Y-27706190D01*
X42164438Y-27658571D02*
X42497771Y-27658571D01*
X42640628Y-28182380D02*
X42164438Y-28182380D01*
X42164438Y-27182380D01*
X42640628Y-27182380D01*
X43402533Y-27658571D02*
X43069200Y-27658571D01*
X43069200Y-28182380D02*
X43069200Y-27182380D01*
X43545390Y-27182380D01*
X44069200Y-27182380D02*
X44069200Y-27420476D01*
X43831104Y-27325238D02*
X44069200Y-27420476D01*
X44307295Y-27325238D01*
X43926342Y-27610952D02*
X44069200Y-27420476D01*
X44212057Y-27610952D01*
X44831104Y-27182380D02*
X44831104Y-27420476D01*
X44593009Y-27325238D02*
X44831104Y-27420476D01*
X45069200Y-27325238D01*
X44688247Y-27610952D02*
X44831104Y-27420476D01*
X44973961Y-27610952D01*
X34877866Y-28182380D02*
X34544533Y-27706190D01*
X34306438Y-28182380D02*
X34306438Y-27182380D01*
X34687390Y-27182380D01*
X34782628Y-27230000D01*
X34830247Y-27277619D01*
X34877866Y-27372857D01*
X34877866Y-27515714D01*
X34830247Y-27610952D01*
X34782628Y-27658571D01*
X34687390Y-27706190D01*
X34306438Y-27706190D01*
X35306438Y-27658571D02*
X35639771Y-27658571D01*
X35782628Y-28182380D02*
X35306438Y-28182380D01*
X35306438Y-27182380D01*
X35782628Y-27182380D01*
X36544533Y-27658571D02*
X36211200Y-27658571D01*
X36211200Y-28182380D02*
X36211200Y-27182380D01*
X36687390Y-27182380D01*
X37211200Y-27182380D02*
X37211200Y-27420476D01*
X36973104Y-27325238D02*
X37211200Y-27420476D01*
X37449295Y-27325238D01*
X37068342Y-27610952D02*
X37211200Y-27420476D01*
X37354057Y-27610952D01*
X37973104Y-27182380D02*
X37973104Y-27420476D01*
X37735009Y-27325238D02*
X37973104Y-27420476D01*
X38211200Y-27325238D01*
X37830247Y-27610952D02*
X37973104Y-27420476D01*
X38115961Y-27610952D01*
X28019866Y-28182380D02*
X27686533Y-27706190D01*
X27448438Y-28182380D02*
X27448438Y-27182380D01*
X27829390Y-27182380D01*
X27924628Y-27230000D01*
X27972247Y-27277619D01*
X28019866Y-27372857D01*
X28019866Y-27515714D01*
X27972247Y-27610952D01*
X27924628Y-27658571D01*
X27829390Y-27706190D01*
X27448438Y-27706190D01*
X28448438Y-27658571D02*
X28781771Y-27658571D01*
X28924628Y-28182380D02*
X28448438Y-28182380D01*
X28448438Y-27182380D01*
X28924628Y-27182380D01*
X29686533Y-27658571D02*
X29353200Y-27658571D01*
X29353200Y-28182380D02*
X29353200Y-27182380D01*
X29829390Y-27182380D01*
X30353200Y-27182380D02*
X30353200Y-27420476D01*
X30115104Y-27325238D02*
X30353200Y-27420476D01*
X30591295Y-27325238D01*
X30210342Y-27610952D02*
X30353200Y-27420476D01*
X30496057Y-27610952D01*
X31115104Y-27182380D02*
X31115104Y-27420476D01*
X30877009Y-27325238D02*
X31115104Y-27420476D01*
X31353200Y-27325238D01*
X30972247Y-27610952D02*
X31115104Y-27420476D01*
X31257961Y-27610952D01*
X21161866Y-28182380D02*
X20828533Y-27706190D01*
X20590438Y-28182380D02*
X20590438Y-27182380D01*
X20971390Y-27182380D01*
X21066628Y-27230000D01*
X21114247Y-27277619D01*
X21161866Y-27372857D01*
X21161866Y-27515714D01*
X21114247Y-27610952D01*
X21066628Y-27658571D01*
X20971390Y-27706190D01*
X20590438Y-27706190D01*
X21590438Y-27658571D02*
X21923771Y-27658571D01*
X22066628Y-28182380D02*
X21590438Y-28182380D01*
X21590438Y-27182380D01*
X22066628Y-27182380D01*
X22828533Y-27658571D02*
X22495200Y-27658571D01*
X22495200Y-28182380D02*
X22495200Y-27182380D01*
X22971390Y-27182380D01*
X23495200Y-27182380D02*
X23495200Y-27420476D01*
X23257104Y-27325238D02*
X23495200Y-27420476D01*
X23733295Y-27325238D01*
X23352342Y-27610952D02*
X23495200Y-27420476D01*
X23638057Y-27610952D01*
X24257104Y-27182380D02*
X24257104Y-27420476D01*
X24019009Y-27325238D02*
X24257104Y-27420476D01*
X24495200Y-27325238D01*
X24114247Y-27610952D02*
X24257104Y-27420476D01*
X24399961Y-27610952D01*
X14303866Y-28182380D02*
X13970533Y-27706190D01*
X13732438Y-28182380D02*
X13732438Y-27182380D01*
X14113390Y-27182380D01*
X14208628Y-27230000D01*
X14256247Y-27277619D01*
X14303866Y-27372857D01*
X14303866Y-27515714D01*
X14256247Y-27610952D01*
X14208628Y-27658571D01*
X14113390Y-27706190D01*
X13732438Y-27706190D01*
X14732438Y-27658571D02*
X15065771Y-27658571D01*
X15208628Y-28182380D02*
X14732438Y-28182380D01*
X14732438Y-27182380D01*
X15208628Y-27182380D01*
X15970533Y-27658571D02*
X15637200Y-27658571D01*
X15637200Y-28182380D02*
X15637200Y-27182380D01*
X16113390Y-27182380D01*
X16637200Y-27182380D02*
X16637200Y-27420476D01*
X16399104Y-27325238D02*
X16637200Y-27420476D01*
X16875295Y-27325238D01*
X16494342Y-27610952D02*
X16637200Y-27420476D01*
X16780057Y-27610952D01*
X17399104Y-27182380D02*
X17399104Y-27420476D01*
X17161009Y-27325238D02*
X17399104Y-27420476D01*
X17637200Y-27325238D01*
X17256247Y-27610952D02*
X17399104Y-27420476D01*
X17541961Y-27610952D01*
X82883866Y-20562380D02*
X82550533Y-20086190D01*
X82312438Y-20562380D02*
X82312438Y-19562380D01*
X82693390Y-19562380D01*
X82788628Y-19610000D01*
X82836247Y-19657619D01*
X82883866Y-19752857D01*
X82883866Y-19895714D01*
X82836247Y-19990952D01*
X82788628Y-20038571D01*
X82693390Y-20086190D01*
X82312438Y-20086190D01*
X83312438Y-20038571D02*
X83645771Y-20038571D01*
X83788628Y-20562380D02*
X83312438Y-20562380D01*
X83312438Y-19562380D01*
X83788628Y-19562380D01*
X84550533Y-20038571D02*
X84217200Y-20038571D01*
X84217200Y-20562380D02*
X84217200Y-19562380D01*
X84693390Y-19562380D01*
X85217200Y-19562380D02*
X85217200Y-19800476D01*
X84979104Y-19705238D02*
X85217200Y-19800476D01*
X85455295Y-19705238D01*
X85074342Y-19990952D02*
X85217200Y-19800476D01*
X85360057Y-19990952D01*
X85979104Y-19562380D02*
X85979104Y-19800476D01*
X85741009Y-19705238D02*
X85979104Y-19800476D01*
X86217200Y-19705238D01*
X85836247Y-19990952D02*
X85979104Y-19800476D01*
X86121961Y-19990952D01*
X76025866Y-20562380D02*
X75692533Y-20086190D01*
X75454438Y-20562380D02*
X75454438Y-19562380D01*
X75835390Y-19562380D01*
X75930628Y-19610000D01*
X75978247Y-19657619D01*
X76025866Y-19752857D01*
X76025866Y-19895714D01*
X75978247Y-19990952D01*
X75930628Y-20038571D01*
X75835390Y-20086190D01*
X75454438Y-20086190D01*
X76454438Y-20038571D02*
X76787771Y-20038571D01*
X76930628Y-20562380D02*
X76454438Y-20562380D01*
X76454438Y-19562380D01*
X76930628Y-19562380D01*
X77692533Y-20038571D02*
X77359200Y-20038571D01*
X77359200Y-20562380D02*
X77359200Y-19562380D01*
X77835390Y-19562380D01*
X78359200Y-19562380D02*
X78359200Y-19800476D01*
X78121104Y-19705238D02*
X78359200Y-19800476D01*
X78597295Y-19705238D01*
X78216342Y-19990952D02*
X78359200Y-19800476D01*
X78502057Y-19990952D01*
X79121104Y-19562380D02*
X79121104Y-19800476D01*
X78883009Y-19705238D02*
X79121104Y-19800476D01*
X79359200Y-19705238D01*
X78978247Y-19990952D02*
X79121104Y-19800476D01*
X79263961Y-19990952D01*
X69167866Y-20562380D02*
X68834533Y-20086190D01*
X68596438Y-20562380D02*
X68596438Y-19562380D01*
X68977390Y-19562380D01*
X69072628Y-19610000D01*
X69120247Y-19657619D01*
X69167866Y-19752857D01*
X69167866Y-19895714D01*
X69120247Y-19990952D01*
X69072628Y-20038571D01*
X68977390Y-20086190D01*
X68596438Y-20086190D01*
X69596438Y-20038571D02*
X69929771Y-20038571D01*
X70072628Y-20562380D02*
X69596438Y-20562380D01*
X69596438Y-19562380D01*
X70072628Y-19562380D01*
X70834533Y-20038571D02*
X70501200Y-20038571D01*
X70501200Y-20562380D02*
X70501200Y-19562380D01*
X70977390Y-19562380D01*
X71501200Y-19562380D02*
X71501200Y-19800476D01*
X71263104Y-19705238D02*
X71501200Y-19800476D01*
X71739295Y-19705238D01*
X71358342Y-19990952D02*
X71501200Y-19800476D01*
X71644057Y-19990952D01*
X72263104Y-19562380D02*
X72263104Y-19800476D01*
X72025009Y-19705238D02*
X72263104Y-19800476D01*
X72501200Y-19705238D01*
X72120247Y-19990952D02*
X72263104Y-19800476D01*
X72405961Y-19990952D01*
X62309866Y-20562380D02*
X61976533Y-20086190D01*
X61738438Y-20562380D02*
X61738438Y-19562380D01*
X62119390Y-19562380D01*
X62214628Y-19610000D01*
X62262247Y-19657619D01*
X62309866Y-19752857D01*
X62309866Y-19895714D01*
X62262247Y-19990952D01*
X62214628Y-20038571D01*
X62119390Y-20086190D01*
X61738438Y-20086190D01*
X62738438Y-20038571D02*
X63071771Y-20038571D01*
X63214628Y-20562380D02*
X62738438Y-20562380D01*
X62738438Y-19562380D01*
X63214628Y-19562380D01*
X63976533Y-20038571D02*
X63643200Y-20038571D01*
X63643200Y-20562380D02*
X63643200Y-19562380D01*
X64119390Y-19562380D01*
X64643200Y-19562380D02*
X64643200Y-19800476D01*
X64405104Y-19705238D02*
X64643200Y-19800476D01*
X64881295Y-19705238D01*
X64500342Y-19990952D02*
X64643200Y-19800476D01*
X64786057Y-19990952D01*
X65405104Y-19562380D02*
X65405104Y-19800476D01*
X65167009Y-19705238D02*
X65405104Y-19800476D01*
X65643200Y-19705238D01*
X65262247Y-19990952D02*
X65405104Y-19800476D01*
X65547961Y-19990952D01*
X55451866Y-20562380D02*
X55118533Y-20086190D01*
X54880438Y-20562380D02*
X54880438Y-19562380D01*
X55261390Y-19562380D01*
X55356628Y-19610000D01*
X55404247Y-19657619D01*
X55451866Y-19752857D01*
X55451866Y-19895714D01*
X55404247Y-19990952D01*
X55356628Y-20038571D01*
X55261390Y-20086190D01*
X54880438Y-20086190D01*
X55880438Y-20038571D02*
X56213771Y-20038571D01*
X56356628Y-20562380D02*
X55880438Y-20562380D01*
X55880438Y-19562380D01*
X56356628Y-19562380D01*
X57118533Y-20038571D02*
X56785200Y-20038571D01*
X56785200Y-20562380D02*
X56785200Y-19562380D01*
X57261390Y-19562380D01*
X57785200Y-19562380D02*
X57785200Y-19800476D01*
X57547104Y-19705238D02*
X57785200Y-19800476D01*
X58023295Y-19705238D01*
X57642342Y-19990952D02*
X57785200Y-19800476D01*
X57928057Y-19990952D01*
X58547104Y-19562380D02*
X58547104Y-19800476D01*
X58309009Y-19705238D02*
X58547104Y-19800476D01*
X58785200Y-19705238D01*
X58404247Y-19990952D02*
X58547104Y-19800476D01*
X58689961Y-19990952D01*
X48593866Y-20562380D02*
X48260533Y-20086190D01*
X48022438Y-20562380D02*
X48022438Y-19562380D01*
X48403390Y-19562380D01*
X48498628Y-19610000D01*
X48546247Y-19657619D01*
X48593866Y-19752857D01*
X48593866Y-19895714D01*
X48546247Y-19990952D01*
X48498628Y-20038571D01*
X48403390Y-20086190D01*
X48022438Y-20086190D01*
X49022438Y-20038571D02*
X49355771Y-20038571D01*
X49498628Y-20562380D02*
X49022438Y-20562380D01*
X49022438Y-19562380D01*
X49498628Y-19562380D01*
X50260533Y-20038571D02*
X49927200Y-20038571D01*
X49927200Y-20562380D02*
X49927200Y-19562380D01*
X50403390Y-19562380D01*
X50927200Y-19562380D02*
X50927200Y-19800476D01*
X50689104Y-19705238D02*
X50927200Y-19800476D01*
X51165295Y-19705238D01*
X50784342Y-19990952D02*
X50927200Y-19800476D01*
X51070057Y-19990952D01*
X51689104Y-19562380D02*
X51689104Y-19800476D01*
X51451009Y-19705238D02*
X51689104Y-19800476D01*
X51927200Y-19705238D01*
X51546247Y-19990952D02*
X51689104Y-19800476D01*
X51831961Y-19990952D01*
X41735866Y-20562380D02*
X41402533Y-20086190D01*
X41164438Y-20562380D02*
X41164438Y-19562380D01*
X41545390Y-19562380D01*
X41640628Y-19610000D01*
X41688247Y-19657619D01*
X41735866Y-19752857D01*
X41735866Y-19895714D01*
X41688247Y-19990952D01*
X41640628Y-20038571D01*
X41545390Y-20086190D01*
X41164438Y-20086190D01*
X42164438Y-20038571D02*
X42497771Y-20038571D01*
X42640628Y-20562380D02*
X42164438Y-20562380D01*
X42164438Y-19562380D01*
X42640628Y-19562380D01*
X43402533Y-20038571D02*
X43069200Y-20038571D01*
X43069200Y-20562380D02*
X43069200Y-19562380D01*
X43545390Y-19562380D01*
X44069200Y-19562380D02*
X44069200Y-19800476D01*
X43831104Y-19705238D02*
X44069200Y-19800476D01*
X44307295Y-19705238D01*
X43926342Y-19990952D02*
X44069200Y-19800476D01*
X44212057Y-19990952D01*
X44831104Y-19562380D02*
X44831104Y-19800476D01*
X44593009Y-19705238D02*
X44831104Y-19800476D01*
X45069200Y-19705238D01*
X44688247Y-19990952D02*
X44831104Y-19800476D01*
X44973961Y-19990952D01*
X34877866Y-20562380D02*
X34544533Y-20086190D01*
X34306438Y-20562380D02*
X34306438Y-19562380D01*
X34687390Y-19562380D01*
X34782628Y-19610000D01*
X34830247Y-19657619D01*
X34877866Y-19752857D01*
X34877866Y-19895714D01*
X34830247Y-19990952D01*
X34782628Y-20038571D01*
X34687390Y-20086190D01*
X34306438Y-20086190D01*
X35306438Y-20038571D02*
X35639771Y-20038571D01*
X35782628Y-20562380D02*
X35306438Y-20562380D01*
X35306438Y-19562380D01*
X35782628Y-19562380D01*
X36544533Y-20038571D02*
X36211200Y-20038571D01*
X36211200Y-20562380D02*
X36211200Y-19562380D01*
X36687390Y-19562380D01*
X37211200Y-19562380D02*
X37211200Y-19800476D01*
X36973104Y-19705238D02*
X37211200Y-19800476D01*
X37449295Y-19705238D01*
X37068342Y-19990952D02*
X37211200Y-19800476D01*
X37354057Y-19990952D01*
X37973104Y-19562380D02*
X37973104Y-19800476D01*
X37735009Y-19705238D02*
X37973104Y-19800476D01*
X38211200Y-19705238D01*
X37830247Y-19990952D02*
X37973104Y-19800476D01*
X38115961Y-19990952D01*
X28019866Y-20562380D02*
X27686533Y-20086190D01*
X27448438Y-20562380D02*
X27448438Y-19562380D01*
X27829390Y-19562380D01*
X27924628Y-19610000D01*
X27972247Y-19657619D01*
X28019866Y-19752857D01*
X28019866Y-19895714D01*
X27972247Y-19990952D01*
X27924628Y-20038571D01*
X27829390Y-20086190D01*
X27448438Y-20086190D01*
X28448438Y-20038571D02*
X28781771Y-20038571D01*
X28924628Y-20562380D02*
X28448438Y-20562380D01*
X28448438Y-19562380D01*
X28924628Y-19562380D01*
X29686533Y-20038571D02*
X29353200Y-20038571D01*
X29353200Y-20562380D02*
X29353200Y-19562380D01*
X29829390Y-19562380D01*
X30353200Y-19562380D02*
X30353200Y-19800476D01*
X30115104Y-19705238D02*
X30353200Y-19800476D01*
X30591295Y-19705238D01*
X30210342Y-19990952D02*
X30353200Y-19800476D01*
X30496057Y-19990952D01*
X31115104Y-19562380D02*
X31115104Y-19800476D01*
X30877009Y-19705238D02*
X31115104Y-19800476D01*
X31353200Y-19705238D01*
X30972247Y-19990952D02*
X31115104Y-19800476D01*
X31257961Y-19990952D01*
X21161866Y-20562380D02*
X20828533Y-20086190D01*
X20590438Y-20562380D02*
X20590438Y-19562380D01*
X20971390Y-19562380D01*
X21066628Y-19610000D01*
X21114247Y-19657619D01*
X21161866Y-19752857D01*
X21161866Y-19895714D01*
X21114247Y-19990952D01*
X21066628Y-20038571D01*
X20971390Y-20086190D01*
X20590438Y-20086190D01*
X21590438Y-20038571D02*
X21923771Y-20038571D01*
X22066628Y-20562380D02*
X21590438Y-20562380D01*
X21590438Y-19562380D01*
X22066628Y-19562380D01*
X22828533Y-20038571D02*
X22495200Y-20038571D01*
X22495200Y-20562380D02*
X22495200Y-19562380D01*
X22971390Y-19562380D01*
X23495200Y-19562380D02*
X23495200Y-19800476D01*
X23257104Y-19705238D02*
X23495200Y-19800476D01*
X23733295Y-19705238D01*
X23352342Y-19990952D02*
X23495200Y-19800476D01*
X23638057Y-19990952D01*
X24257104Y-19562380D02*
X24257104Y-19800476D01*
X24019009Y-19705238D02*
X24257104Y-19800476D01*
X24495200Y-19705238D01*
X24114247Y-19990952D02*
X24257104Y-19800476D01*
X24399961Y-19990952D01*
X14303866Y-20562380D02*
X13970533Y-20086190D01*
X13732438Y-20562380D02*
X13732438Y-19562380D01*
X14113390Y-19562380D01*
X14208628Y-19610000D01*
X14256247Y-19657619D01*
X14303866Y-19752857D01*
X14303866Y-19895714D01*
X14256247Y-19990952D01*
X14208628Y-20038571D01*
X14113390Y-20086190D01*
X13732438Y-20086190D01*
X14732438Y-20038571D02*
X15065771Y-20038571D01*
X15208628Y-20562380D02*
X14732438Y-20562380D01*
X14732438Y-19562380D01*
X15208628Y-19562380D01*
X15970533Y-20038571D02*
X15637200Y-20038571D01*
X15637200Y-20562380D02*
X15637200Y-19562380D01*
X16113390Y-19562380D01*
X16637200Y-19562380D02*
X16637200Y-19800476D01*
X16399104Y-19705238D02*
X16637200Y-19800476D01*
X16875295Y-19705238D01*
X16494342Y-19990952D02*
X16637200Y-19800476D01*
X16780057Y-19990952D01*
X17399104Y-19562380D02*
X17399104Y-19800476D01*
X17161009Y-19705238D02*
X17399104Y-19800476D01*
X17637200Y-19705238D01*
X17256247Y-19990952D02*
X17399104Y-19800476D01*
X17541961Y-19990952D01*
D11*
X94542857Y-2071428D02*
X94542857Y-1471428D01*
X94542857Y-1757142D02*
X94885714Y-1757142D01*
X94885714Y-2071428D02*
X94885714Y-1471428D01*
X95428571Y-1671428D02*
X95428571Y-2071428D01*
X95285714Y-1442857D02*
X95142857Y-1871428D01*
X95514285Y-1871428D01*
X94542857Y-92071428D02*
X94542857Y-91471428D01*
X94542857Y-91757142D02*
X94885714Y-91757142D01*
X94885714Y-92071428D02*
X94885714Y-91471428D01*
X95114285Y-91471428D02*
X95485714Y-91471428D01*
X95285714Y-91700000D01*
X95371428Y-91700000D01*
X95428571Y-91728571D01*
X95457142Y-91757142D01*
X95485714Y-91814285D01*
X95485714Y-91957142D01*
X95457142Y-92014285D01*
X95428571Y-92042857D01*
X95371428Y-92071428D01*
X95200000Y-92071428D01*
X95142857Y-92042857D01*
X95114285Y-92014285D01*
X4542857Y-92071428D02*
X4542857Y-91471428D01*
X4542857Y-91757142D02*
X4885714Y-91757142D01*
X4885714Y-92071428D02*
X4885714Y-91471428D01*
X5142857Y-91528571D02*
X5171428Y-91500000D01*
X5228571Y-91471428D01*
X5371428Y-91471428D01*
X5428571Y-91500000D01*
X5457142Y-91528571D01*
X5485714Y-91585714D01*
X5485714Y-91642857D01*
X5457142Y-91728571D01*
X5114285Y-92071428D01*
X5485714Y-92071428D01*
X10756857Y-22685428D02*
X10756857Y-22085428D01*
X10756857Y-22371142D02*
X11099714Y-22371142D01*
X11099714Y-22685428D02*
X11099714Y-22085428D01*
X11699714Y-22685428D02*
X11356857Y-22685428D01*
X11528285Y-22685428D02*
X11528285Y-22085428D01*
X11471142Y-22171142D01*
X11414000Y-22228285D01*
X11356857Y-22256857D01*
M02*
