M48
; DRILL file {KiCad (5.1.5)-2} date 12/12/2019 1:13:46 PM
; FORMAT={-:-/ absolute / inch / decimal}
; #@! TF.CreationDate,2019-12-12T13:13:46-05:00
; #@! TF.GenerationSoftware,Kicad,Pcbnew,(5.1.5)-2
; #@! TF.FileFunction,Plated,1,2,PTH
FMAT,2
INCH
T1C0.0157
T2C0.0236
T3C0.0394
%
G90
G05
T1
X0.0551Y-0.1417
X0.0647Y-0.1035
X0.1213Y-0.4567
X0.1249Y-0.5077
X0.1457Y-0.1417
X0.2362Y-0.6299
X0.3285Y-0.5604
X0.3713Y-0.4738
X0.4626Y-0.4374
X0.4646Y-0.1535
X0.4876Y-0.4851
X0.5076Y-0.9824
X0.5076Y-1.5824
X0.5076Y-2.1824
X0.5076Y-2.7824
X0.5103Y-0.5452
X0.5176Y-1.2324
X0.5176Y-1.8324
X0.5176Y-2.4324
X0.5176Y-3.0324
X0.5236Y-0.1772
X0.5236Y-3.3784
X0.5676Y-0.2153
X0.6126Y-0.6424
X0.6126Y-1.2424
X0.6126Y-1.8424
X0.6126Y-2.4424
X0.6126Y-3.0424
X0.6176Y-0.2824
X0.6876Y-1.0274
X0.6876Y-1.6274
X0.6876Y-2.2274
X0.6876Y-2.8274
X0.6876Y-3.4274
X0.7476Y-0.4999
X0.7476Y-0.5749
X0.8016Y-3.6824
X0.878Y-0.2008
X0.8826Y-0.6424
X0.8826Y-1.2424
X0.8826Y-1.8424
X0.8826Y-2.4424
X0.8826Y-3.0424
X0.9335Y-3.655
X0.9576Y-1.0274
X0.9576Y-1.6274
X0.9576Y-2.2274
X0.9576Y-2.8274
X0.9576Y-3.4274
X0.9803Y-0.4094
X1.0136Y-3.7604
X1.0566Y-3.6064
X1.1526Y-0.6424
X1.1526Y-1.2424
X1.1526Y-1.8424
X1.1526Y-2.4424
X1.1526Y-3.0424
X1.2276Y-1.0274
X1.2276Y-1.6274
X1.2276Y-2.2274
X1.2276Y-2.8274
X1.2276Y-3.4274
X1.4226Y-0.6424
X1.4226Y-1.2424
X1.4226Y-1.8424
X1.4226Y-2.4424
X1.4226Y-3.0424
X1.4976Y-1.0274
X1.4976Y-1.6274
X1.4976Y-2.2274
X1.4976Y-2.8274
X1.4976Y-3.4274
X1.5106Y-3.6834
X1.6176Y-3.6529
X1.6926Y-0.6424
X1.6926Y-1.2424
X1.6926Y-1.8424
X1.6926Y-2.4424
X1.6926Y-3.0424
X1.7016Y-3.7504
X1.7216Y-3.5694
X1.7676Y-1.0274
X1.7676Y-1.6274
X1.7676Y-2.2274
X1.7676Y-2.8274
X1.7676Y-3.4274
X1.8001Y-3.6549
X1.8176Y-3.6224
X1.8706Y-3.4864
X1.9186Y-3.5474
X1.9626Y-0.6424
X1.9626Y-1.2424
X1.9626Y-1.8424
X1.9626Y-2.4424
X1.9626Y-3.0424
X2.0246Y-3.5424
X2.0376Y-1.0274
X2.0376Y-1.6274
X2.0376Y-2.2274
X2.0376Y-2.8274
X2.0376Y-3.4274
X2.0396Y-3.4884
X2.1186Y-3.6214
X2.1376Y-3.6549
X2.2036Y-3.5854
X2.2326Y-0.6424
X2.2326Y-1.2424
X2.2326Y-1.8424
X2.2326Y-2.4424
X2.2326Y-3.0424
X2.2976Y-3.6524
X2.3076Y-1.0274
X2.3076Y-1.6274
X2.3076Y-2.2274
X2.3076Y-2.8274
X2.3076Y-3.4274
X2.3816Y-3.7574
X2.4166Y-3.6154
X2.5026Y-0.6424
X2.5026Y-1.2424
X2.5026Y-1.8424
X2.5026Y-2.4424
X2.5026Y-3.0424
X2.5776Y-1.0274
X2.5776Y-1.6274
X2.5776Y-2.2274
X2.5776Y-2.8274
X2.5776Y-3.4274
X2.7726Y-0.6424
X2.7726Y-1.2424
X2.7726Y-1.8424
X2.7726Y-2.4424
X2.7726Y-3.0424
X2.8476Y-1.0274
X2.8476Y-1.6274
X2.8476Y-2.2274
X2.8476Y-2.8274
X2.8476Y-3.4274
X2.8836Y-3.6834
X2.9926Y-3.6624
X3.0426Y-0.6424
X3.0426Y-1.2424
X3.0426Y-1.8424
X3.0426Y-2.4424
X3.0426Y-3.0424
X3.0526Y-3.7544
X3.1176Y-1.0274
X3.1176Y-1.6274
X3.1176Y-2.2274
X3.1176Y-2.8274
X3.1176Y-3.4274
X3.3126Y-0.6424
X3.3126Y-1.2424
X3.3126Y-1.8424
X3.3126Y-2.4424
X3.3126Y-3.0424
X3.3876Y-1.0274
X3.3876Y-1.6274
X3.3876Y-2.2274
X3.3876Y-2.8274
X3.3876Y-3.4274
X3.4176Y-0.6124
X3.4176Y-1.2124
X3.4176Y-1.8124
X3.4176Y-2.4124
X3.4176Y-3.0124
X3.4276Y-0.8624
X3.4276Y-1.4624
X3.4276Y-2.0624
X3.4276Y-2.6624
X3.4276Y-3.2624
T3
X0.0428Y-2.0376
X0.1176Y-1.9785
X0.1176Y-2.0966
X0.0428Y-1.4268
X0.1176Y-1.3677
X0.1176Y-1.4858
X0.6319Y-0.0984
X0.7319Y-0.0984
X0.8319Y-0.0984
X0.9319Y-0.0984
X1.0319Y-0.0984
X1.1319Y-0.0984
X0.0428Y-2.92
X0.1176Y-2.8609
X0.1176Y-2.9791
X0.0428Y-1.8076
X0.1176Y-1.7485
X0.1176Y-1.8666
X0.0428Y-1.2068
X0.1176Y-1.1477
X0.1176Y-1.2658
X0.0428Y-3.4449
X0.1176Y-3.3858
X0.1176Y-3.5039
T2
G00X1.749Y-3.6806
M15
G01X1.749Y-3.712
M16
G05
G00X1.749Y-3.8302
M15
G01X1.749Y-3.8774
M16
G05
G00X2.188Y-3.6806
M15
G01X2.188Y-3.712
M16
G05
G00X2.188Y-3.8302
M15
G01X2.188Y-3.8774
M16
G05
T0
M30
