M48
; DRILL file {KiCad (5.1.5)-2} date 12/11/2019 2:56:18 PM
; FORMAT={-:-/ absolute / inch / decimal}
; #@! TF.CreationDate,2019-12-11T14:56:18-05:00
; #@! TF.GenerationSoftware,Kicad,Pcbnew,(5.1.5)-2
; #@! TF.FileFunction,Plated,1,2,PTH
FMAT,2
INCH
T1C0.0157
T2C0.0236
T3C0.0394
%
G90
G05
T1
X0.0551Y-0.1417
X0.0647Y-0.1035
X0.1213Y-0.4567
X0.1249Y-0.5077
X0.1457Y-0.1417
X0.2362Y-0.6299
X0.3285Y-0.5604
X0.3713Y-0.4738
X0.4626Y-0.4374
X0.4646Y-0.1535
X0.4876Y-0.4851
X0.5076Y-1.8124
X0.5076Y-2.1824
X0.5076Y-2.3724
X0.5076Y-2.7824
X0.5076Y-2.9724
X0.5103Y-0.5452
X0.5176Y-0.9824
X0.5176Y-1.1824
X0.5176Y-1.5724
X0.5236Y-0.1772
X0.5676Y-0.2153
X0.6142Y-0.622
X0.6142Y-1.222
X0.6142Y-1.822
X0.6142Y-2.422
X0.6142Y-3.022
X0.6176Y-0.2824
X0.6176Y-0.9224
X0.6176Y-1.5224
X0.6176Y-2.1224
X0.6176Y-2.7224
X0.6176Y-3.3224
X0.7451Y-0.6224
X0.7476Y-0.4999
X0.878Y-0.2008
X0.8842Y-0.622
X0.8842Y-1.222
X0.8842Y-1.822
X0.8842Y-2.422
X0.8842Y-3.022
X0.8876Y-0.9224
X0.8876Y-1.5224
X0.8876Y-2.1224
X0.8876Y-2.7224
X0.8876Y-3.3224
X0.9803Y-0.4094
X1.1496Y-0.622
X1.1542Y-1.222
X1.1542Y-1.822
X1.1542Y-2.422
X1.1542Y-3.022
X1.1576Y-0.9224
X1.1576Y-1.5224
X1.1576Y-2.1224
X1.1576Y-2.7224
X1.1576Y-3.3224
X1.4242Y-0.622
X1.4242Y-1.222
X1.4242Y-1.822
X1.4242Y-2.422
X1.4242Y-3.022
X1.4276Y-0.9224
X1.4276Y-1.5224
X1.4276Y-2.1224
X1.4276Y-2.7224
X1.4276Y-3.3224
X1.6942Y-0.622
X1.6942Y-1.222
X1.6942Y-1.822
X1.6942Y-2.422
X1.6942Y-3.022
X1.6976Y-0.9224
X1.6976Y-1.5224
X1.6976Y-2.1224
X1.6976Y-2.7224
X1.6976Y-3.3224
X1.8001Y-3.6549
X1.8076Y-3.6124
X1.9301Y-3.4899
X1.9642Y-0.622
X1.9642Y-1.222
X1.9642Y-1.822
X1.9642Y-2.422
X1.9642Y-3.022
X1.9676Y-0.9224
X1.9676Y-1.5224
X1.9676Y-2.1224
X1.9676Y-2.7224
X1.9676Y-3.3224
X2.0076Y-3.4924
X2.1301Y-3.6024
X2.1451Y-3.6449
X2.2342Y-0.622
X2.2342Y-1.222
X2.2342Y-1.822
X2.2342Y-2.422
X2.2342Y-3.022
X2.2376Y-0.9224
X2.2376Y-1.5224
X2.2376Y-2.1224
X2.2376Y-2.7224
X2.2376Y-3.3224
X2.5042Y-0.622
X2.5042Y-1.222
X2.5042Y-1.822
X2.5042Y-2.422
X2.5042Y-3.022
X2.5076Y-0.9224
X2.5076Y-1.5224
X2.5076Y-2.1224
X2.5076Y-2.7224
X2.5076Y-3.3224
X2.7742Y-0.622
X2.7742Y-1.222
X2.7742Y-1.822
X2.7742Y-2.422
X2.7742Y-3.022
X2.7776Y-0.9224
X2.7776Y-1.5224
X2.7776Y-2.1224
X2.7776Y-2.7224
X2.7776Y-3.3224
X3.0442Y-0.622
X3.0442Y-1.222
X3.0442Y-1.822
X3.0442Y-2.422
X3.0442Y-3.022
X3.0476Y-0.9224
X3.0476Y-1.5224
X3.0476Y-2.1224
X3.0476Y-2.7224
X3.0476Y-3.3224
X3.3142Y-0.622
X3.3142Y-1.222
X3.3142Y-1.822
X3.3142Y-2.422
X3.3142Y-3.022
X3.3176Y-0.9224
X3.3176Y-1.5224
X3.3176Y-2.1224
X3.3176Y-2.7224
X3.3176Y-3.3224
X3.4176Y-2.6524
X3.4198Y-2.3857
X3.4276Y-1.7824
X3.4276Y-2.0424
X3.4276Y-3.2624
X3.4376Y-1.1824
X3.4376Y-1.4624
X3.4476Y-0.5924
X3.4476Y-0.8324
X3.4476Y-2.9924
T3
X0.0428Y-1.2068
X0.1176Y-1.1477
X0.1176Y-1.2658
X0.0428Y-3.4449
X0.1176Y-3.3858
X0.1176Y-3.5039
X0.0428Y-1.8076
X0.1176Y-1.7485
X0.1176Y-1.8666
X0.0428Y-2.92
X0.1176Y-2.8609
X0.1176Y-2.9791
X0.6319Y-0.0984
X0.7319Y-0.0984
X0.8319Y-0.0984
X0.9319Y-0.0984
X1.0319Y-0.0984
X1.1319Y-0.0984
X0.0428Y-1.4268
X0.1176Y-1.3677
X0.1176Y-1.4858
X0.0428Y-2.0376
X0.1176Y-1.9785
X0.1176Y-2.0966
T2
G00X1.749Y-3.6806
M15
G01X1.749Y-3.712
M16
G05
G00X1.749Y-3.8302
M15
G01X1.749Y-3.8774
M16
G05
G00X2.188Y-3.6806
M15
G01X2.188Y-3.712
M16
G05
G00X2.188Y-3.8302
M15
G01X2.188Y-3.8774
M16
G05
T0
M30
