G04 #@! TF.GenerationSoftware,KiCad,Pcbnew,(5.1.5)-2*
G04 #@! TF.CreationDate,2019-12-12T13:33:21-05:00*
G04 #@! TF.ProjectId,face,66616365-2e6b-4696-9361-645f70636258,rev?*
G04 #@! TF.SameCoordinates,Original*
G04 #@! TF.FileFunction,Soldermask,Top*
G04 #@! TF.FilePolarity,Negative*
%FSLAX46Y46*%
G04 Gerber Fmt 4.6, Leading zero omitted, Abs format (unit mm)*
G04 Created by KiCad (PCBNEW (5.1.5)-2) date 2019-12-12 13:33:21*
%MOMM*%
%LPD*%
G04 APERTURE LIST*
%ADD10C,0.010000*%
%ADD11C,3.000000*%
G04 APERTURE END LIST*
D10*
G36*
X35917919Y-82467039D02*
G01*
X36227010Y-82546558D01*
X36446591Y-82688491D01*
X36585749Y-82880455D01*
X36664206Y-83042121D01*
X36667644Y-83121855D01*
X36580415Y-83161214D01*
X36471416Y-83184076D01*
X36299509Y-83195103D01*
X36175542Y-83121438D01*
X36112527Y-83048595D01*
X35957943Y-82914283D01*
X35735926Y-82844391D01*
X35654778Y-82833146D01*
X35291789Y-82827522D01*
X35019594Y-82899689D01*
X34848093Y-83044746D01*
X34787188Y-83257794D01*
X34787166Y-83262499D01*
X34828676Y-83430640D01*
X34962061Y-83572830D01*
X35200601Y-83697665D01*
X35557579Y-83813742D01*
X35693358Y-83849041D01*
X36022353Y-83939051D01*
X36252794Y-84025556D01*
X36420569Y-84124606D01*
X36535963Y-84225846D01*
X36675058Y-84387635D01*
X36739821Y-84545518D01*
X36756623Y-84766745D01*
X36756685Y-84788742D01*
X36704242Y-85133675D01*
X36541687Y-85401332D01*
X36270193Y-85600121D01*
X36065273Y-85667760D01*
X35776718Y-85715369D01*
X35455793Y-85738954D01*
X35153762Y-85734523D01*
X34941675Y-85703598D01*
X34576618Y-85545217D01*
X34300397Y-85284917D01*
X34240749Y-85195864D01*
X34108304Y-84976486D01*
X34341677Y-84919181D01*
X34500676Y-84894071D01*
X34615812Y-84931766D01*
X34744930Y-85054316D01*
X34770035Y-85082460D01*
X34925627Y-85227230D01*
X35100389Y-85303636D01*
X35313853Y-85336926D01*
X35671572Y-85346188D01*
X35935442Y-85289195D01*
X36133908Y-85159443D01*
X36147182Y-85146362D01*
X36269972Y-84947494D01*
X36269225Y-84743972D01*
X36155079Y-84555513D01*
X35937669Y-84401836D01*
X35724572Y-84324233D01*
X35248156Y-84192924D01*
X34889840Y-84072644D01*
X34633715Y-83952028D01*
X34463871Y-83819714D01*
X34364399Y-83664337D01*
X34319388Y-83474535D01*
X34311765Y-83315150D01*
X34354192Y-82984800D01*
X34486790Y-82738193D01*
X34717535Y-82569469D01*
X35054402Y-82472772D01*
X35500268Y-82442241D01*
X35917919Y-82467039D01*
G37*
X35917919Y-82467039D02*
X36227010Y-82546558D01*
X36446591Y-82688491D01*
X36585749Y-82880455D01*
X36664206Y-83042121D01*
X36667644Y-83121855D01*
X36580415Y-83161214D01*
X36471416Y-83184076D01*
X36299509Y-83195103D01*
X36175542Y-83121438D01*
X36112527Y-83048595D01*
X35957943Y-82914283D01*
X35735926Y-82844391D01*
X35654778Y-82833146D01*
X35291789Y-82827522D01*
X35019594Y-82899689D01*
X34848093Y-83044746D01*
X34787188Y-83257794D01*
X34787166Y-83262499D01*
X34828676Y-83430640D01*
X34962061Y-83572830D01*
X35200601Y-83697665D01*
X35557579Y-83813742D01*
X35693358Y-83849041D01*
X36022353Y-83939051D01*
X36252794Y-84025556D01*
X36420569Y-84124606D01*
X36535963Y-84225846D01*
X36675058Y-84387635D01*
X36739821Y-84545518D01*
X36756623Y-84766745D01*
X36756685Y-84788742D01*
X36704242Y-85133675D01*
X36541687Y-85401332D01*
X36270193Y-85600121D01*
X36065273Y-85667760D01*
X35776718Y-85715369D01*
X35455793Y-85738954D01*
X35153762Y-85734523D01*
X34941675Y-85703598D01*
X34576618Y-85545217D01*
X34300397Y-85284917D01*
X34240749Y-85195864D01*
X34108304Y-84976486D01*
X34341677Y-84919181D01*
X34500676Y-84894071D01*
X34615812Y-84931766D01*
X34744930Y-85054316D01*
X34770035Y-85082460D01*
X34925627Y-85227230D01*
X35100389Y-85303636D01*
X35313853Y-85336926D01*
X35671572Y-85346188D01*
X35935442Y-85289195D01*
X36133908Y-85159443D01*
X36147182Y-85146362D01*
X36269972Y-84947494D01*
X36269225Y-84743972D01*
X36155079Y-84555513D01*
X35937669Y-84401836D01*
X35724572Y-84324233D01*
X35248156Y-84192924D01*
X34889840Y-84072644D01*
X34633715Y-83952028D01*
X34463871Y-83819714D01*
X34364399Y-83664337D01*
X34319388Y-83474535D01*
X34311765Y-83315150D01*
X34354192Y-82984800D01*
X34486790Y-82738193D01*
X34717535Y-82569469D01*
X35054402Y-82472772D01*
X35500268Y-82442241D01*
X35917919Y-82467039D01*
G36*
X48697278Y-82489247D02*
G01*
X49061049Y-82646436D01*
X49341901Y-82877295D01*
X49538356Y-83148171D01*
X49659885Y-83453132D01*
X49717707Y-83828386D01*
X49726472Y-84118378D01*
X49679877Y-84557397D01*
X49551779Y-84959922D01*
X49356391Y-85282833D01*
X49334100Y-85308638D01*
X49094607Y-85492839D01*
X48766520Y-85634323D01*
X48393341Y-85722341D01*
X48018571Y-85746147D01*
X47724867Y-85706205D01*
X47324976Y-85552231D01*
X47026692Y-85319441D01*
X46809801Y-84989739D01*
X46740801Y-84825307D01*
X46623058Y-84342213D01*
X46618019Y-84050800D01*
X47147848Y-84050800D01*
X47176463Y-84472488D01*
X47270276Y-84795113D01*
X47440532Y-85045611D01*
X47629896Y-85205670D01*
X47791653Y-85299753D01*
X47957697Y-85341420D01*
X48185239Y-85342656D01*
X48261046Y-85337867D01*
X48502275Y-85311357D01*
X48663088Y-85258003D01*
X48798876Y-85153383D01*
X48885167Y-85062713D01*
X49097271Y-84733756D01*
X49215642Y-84342112D01*
X49236045Y-83928376D01*
X49154245Y-83533141D01*
X49064928Y-83339689D01*
X48834995Y-83061561D01*
X48544683Y-82886645D01*
X48221935Y-82815390D01*
X47894692Y-82848244D01*
X47590899Y-82985653D01*
X47338497Y-83228066D01*
X47283056Y-83311129D01*
X47204348Y-83484583D01*
X47161932Y-83703700D01*
X47147980Y-84011297D01*
X47147848Y-84050800D01*
X46618019Y-84050800D01*
X46614583Y-83852107D01*
X46712478Y-83388809D01*
X46896253Y-83011924D01*
X47155644Y-82738325D01*
X47494973Y-82547631D01*
X47884709Y-82441470D01*
X48295321Y-82421467D01*
X48697278Y-82489247D01*
G37*
X48697278Y-82489247D02*
X49061049Y-82646436D01*
X49341901Y-82877295D01*
X49538356Y-83148171D01*
X49659885Y-83453132D01*
X49717707Y-83828386D01*
X49726472Y-84118378D01*
X49679877Y-84557397D01*
X49551779Y-84959922D01*
X49356391Y-85282833D01*
X49334100Y-85308638D01*
X49094607Y-85492839D01*
X48766520Y-85634323D01*
X48393341Y-85722341D01*
X48018571Y-85746147D01*
X47724867Y-85706205D01*
X47324976Y-85552231D01*
X47026692Y-85319441D01*
X46809801Y-84989739D01*
X46740801Y-84825307D01*
X46623058Y-84342213D01*
X46618019Y-84050800D01*
X47147848Y-84050800D01*
X47176463Y-84472488D01*
X47270276Y-84795113D01*
X47440532Y-85045611D01*
X47629896Y-85205670D01*
X47791653Y-85299753D01*
X47957697Y-85341420D01*
X48185239Y-85342656D01*
X48261046Y-85337867D01*
X48502275Y-85311357D01*
X48663088Y-85258003D01*
X48798876Y-85153383D01*
X48885167Y-85062713D01*
X49097271Y-84733756D01*
X49215642Y-84342112D01*
X49236045Y-83928376D01*
X49154245Y-83533141D01*
X49064928Y-83339689D01*
X48834995Y-83061561D01*
X48544683Y-82886645D01*
X48221935Y-82815390D01*
X47894692Y-82848244D01*
X47590899Y-82985653D01*
X47338497Y-83228066D01*
X47283056Y-83311129D01*
X47204348Y-83484583D01*
X47161932Y-83703700D01*
X47147980Y-84011297D01*
X47147848Y-84050800D01*
X46618019Y-84050800D01*
X46614583Y-83852107D01*
X46712478Y-83388809D01*
X46896253Y-83011924D01*
X47155644Y-82738325D01*
X47494973Y-82547631D01*
X47884709Y-82441470D01*
X48295321Y-82421467D01*
X48697278Y-82489247D01*
G36*
X56563248Y-82457695D02*
G01*
X56937561Y-82602552D01*
X57253708Y-82843632D01*
X57358892Y-82968700D01*
X57443976Y-83127539D01*
X57413439Y-83235118D01*
X57258441Y-83310886D01*
X57195543Y-83328055D01*
X57048400Y-83332849D01*
X56950094Y-83233501D01*
X56935542Y-83207239D01*
X56755080Y-83001056D01*
X56493414Y-82867515D01*
X56189186Y-82814639D01*
X55881036Y-82850452D01*
X55665420Y-82943503D01*
X55449034Y-83138214D01*
X55309143Y-83416174D01*
X55239782Y-83792662D01*
X55229518Y-84060104D01*
X55259422Y-84485783D01*
X55355515Y-84810514D01*
X55527671Y-85058291D01*
X55697878Y-85198226D01*
X55990834Y-85323594D01*
X56306889Y-85341402D01*
X56609690Y-85259730D01*
X56862880Y-85086658D01*
X56993945Y-84910184D01*
X57123344Y-84765100D01*
X57288161Y-84752449D01*
X57440208Y-84833343D01*
X57513386Y-84897376D01*
X57522376Y-84963223D01*
X57458857Y-85068790D01*
X57361095Y-85193749D01*
X57186019Y-85382699D01*
X56997461Y-85543208D01*
X56936669Y-85583707D01*
X56673680Y-85683455D01*
X56337241Y-85733896D01*
X55981966Y-85731478D01*
X55662468Y-85672651D01*
X55646623Y-85667578D01*
X55276565Y-85478876D01*
X54994821Y-85187573D01*
X54804002Y-84797586D01*
X54706722Y-84312834D01*
X54701603Y-84250529D01*
X54709050Y-83809557D01*
X54787878Y-83397237D01*
X54928455Y-83050813D01*
X55059643Y-82866167D01*
X55378968Y-82613299D01*
X55755187Y-82461786D01*
X56159535Y-82410346D01*
X56563248Y-82457695D01*
G37*
X56563248Y-82457695D02*
X56937561Y-82602552D01*
X57253708Y-82843632D01*
X57358892Y-82968700D01*
X57443976Y-83127539D01*
X57413439Y-83235118D01*
X57258441Y-83310886D01*
X57195543Y-83328055D01*
X57048400Y-83332849D01*
X56950094Y-83233501D01*
X56935542Y-83207239D01*
X56755080Y-83001056D01*
X56493414Y-82867515D01*
X56189186Y-82814639D01*
X55881036Y-82850452D01*
X55665420Y-82943503D01*
X55449034Y-83138214D01*
X55309143Y-83416174D01*
X55239782Y-83792662D01*
X55229518Y-84060104D01*
X55259422Y-84485783D01*
X55355515Y-84810514D01*
X55527671Y-85058291D01*
X55697878Y-85198226D01*
X55990834Y-85323594D01*
X56306889Y-85341402D01*
X56609690Y-85259730D01*
X56862880Y-85086658D01*
X56993945Y-84910184D01*
X57123344Y-84765100D01*
X57288161Y-84752449D01*
X57440208Y-84833343D01*
X57513386Y-84897376D01*
X57522376Y-84963223D01*
X57458857Y-85068790D01*
X57361095Y-85193749D01*
X57186019Y-85382699D01*
X56997461Y-85543208D01*
X56936669Y-85583707D01*
X56673680Y-85683455D01*
X56337241Y-85733896D01*
X55981966Y-85731478D01*
X55662468Y-85672651D01*
X55646623Y-85667578D01*
X55276565Y-85478876D01*
X54994821Y-85187573D01*
X54804002Y-84797586D01*
X54706722Y-84312834D01*
X54701603Y-84250529D01*
X54709050Y-83809557D01*
X54787878Y-83397237D01*
X54928455Y-83050813D01*
X55059643Y-82866167D01*
X55378968Y-82613299D01*
X55755187Y-82461786D01*
X56159535Y-82410346D01*
X56563248Y-82457695D01*
G36*
X70158241Y-82489247D02*
G01*
X70522012Y-82646436D01*
X70802863Y-82877295D01*
X70999319Y-83148171D01*
X71120848Y-83453132D01*
X71178669Y-83828386D01*
X71187435Y-84118378D01*
X71140840Y-84557397D01*
X71012741Y-84959922D01*
X70817354Y-85282833D01*
X70795063Y-85308638D01*
X70555570Y-85492839D01*
X70227483Y-85634323D01*
X69854304Y-85722341D01*
X69479534Y-85746147D01*
X69185829Y-85706205D01*
X68785938Y-85552231D01*
X68487655Y-85319441D01*
X68270764Y-84989739D01*
X68201764Y-84825307D01*
X68084020Y-84342213D01*
X68078982Y-84050800D01*
X68608810Y-84050800D01*
X68637425Y-84472488D01*
X68731239Y-84795113D01*
X68901494Y-85045611D01*
X69090858Y-85205670D01*
X69252615Y-85299753D01*
X69418660Y-85341420D01*
X69646201Y-85342656D01*
X69722008Y-85337867D01*
X69963238Y-85311357D01*
X70124051Y-85258003D01*
X70259839Y-85153383D01*
X70346130Y-85062713D01*
X70558234Y-84733756D01*
X70676604Y-84342112D01*
X70697007Y-83928376D01*
X70615207Y-83533141D01*
X70525891Y-83339689D01*
X70295958Y-83061561D01*
X70005646Y-82886645D01*
X69682897Y-82815390D01*
X69355655Y-82848244D01*
X69051862Y-82985653D01*
X68799460Y-83228066D01*
X68744018Y-83311129D01*
X68665311Y-83484583D01*
X68622894Y-83703700D01*
X68608943Y-84011297D01*
X68608810Y-84050800D01*
X68078982Y-84050800D01*
X68075546Y-83852107D01*
X68173441Y-83388809D01*
X68357216Y-83011924D01*
X68616607Y-82738325D01*
X68955935Y-82547631D01*
X69345671Y-82441470D01*
X69756283Y-82421467D01*
X70158241Y-82489247D01*
G37*
X70158241Y-82489247D02*
X70522012Y-82646436D01*
X70802863Y-82877295D01*
X70999319Y-83148171D01*
X71120848Y-83453132D01*
X71178669Y-83828386D01*
X71187435Y-84118378D01*
X71140840Y-84557397D01*
X71012741Y-84959922D01*
X70817354Y-85282833D01*
X70795063Y-85308638D01*
X70555570Y-85492839D01*
X70227483Y-85634323D01*
X69854304Y-85722341D01*
X69479534Y-85746147D01*
X69185829Y-85706205D01*
X68785938Y-85552231D01*
X68487655Y-85319441D01*
X68270764Y-84989739D01*
X68201764Y-84825307D01*
X68084020Y-84342213D01*
X68078982Y-84050800D01*
X68608810Y-84050800D01*
X68637425Y-84472488D01*
X68731239Y-84795113D01*
X68901494Y-85045611D01*
X69090858Y-85205670D01*
X69252615Y-85299753D01*
X69418660Y-85341420D01*
X69646201Y-85342656D01*
X69722008Y-85337867D01*
X69963238Y-85311357D01*
X70124051Y-85258003D01*
X70259839Y-85153383D01*
X70346130Y-85062713D01*
X70558234Y-84733756D01*
X70676604Y-84342112D01*
X70697007Y-83928376D01*
X70615207Y-83533141D01*
X70525891Y-83339689D01*
X70295958Y-83061561D01*
X70005646Y-82886645D01*
X69682897Y-82815390D01*
X69355655Y-82848244D01*
X69051862Y-82985653D01*
X68799460Y-83228066D01*
X68744018Y-83311129D01*
X68665311Y-83484583D01*
X68622894Y-83703700D01*
X68608943Y-84011297D01*
X68608810Y-84050800D01*
X68078982Y-84050800D01*
X68075546Y-83852107D01*
X68173441Y-83388809D01*
X68357216Y-83011924D01*
X68616607Y-82738325D01*
X68955935Y-82547631D01*
X69345671Y-82441470D01*
X69756283Y-82421467D01*
X70158241Y-82489247D01*
G36*
X77345066Y-82457695D02*
G01*
X77719379Y-82602552D01*
X78035527Y-82843632D01*
X78140710Y-82968700D01*
X78225794Y-83127539D01*
X78195257Y-83235118D01*
X78040259Y-83310886D01*
X77977361Y-83328055D01*
X77830218Y-83332849D01*
X77731912Y-83233501D01*
X77717360Y-83207239D01*
X77536898Y-83001056D01*
X77275232Y-82867515D01*
X76971004Y-82814639D01*
X76662855Y-82850452D01*
X76447238Y-82943503D01*
X76230852Y-83138214D01*
X76090961Y-83416174D01*
X76021600Y-83792662D01*
X76011336Y-84060104D01*
X76041240Y-84485783D01*
X76137333Y-84810514D01*
X76309489Y-85058291D01*
X76479696Y-85198226D01*
X76772652Y-85323594D01*
X77088708Y-85341402D01*
X77391508Y-85259730D01*
X77644699Y-85086658D01*
X77775763Y-84910184D01*
X77905162Y-84765100D01*
X78069979Y-84752449D01*
X78222026Y-84833343D01*
X78295204Y-84897376D01*
X78304194Y-84963223D01*
X78240675Y-85068790D01*
X78142913Y-85193749D01*
X77967837Y-85382699D01*
X77779279Y-85543208D01*
X77718487Y-85583707D01*
X77455498Y-85683455D01*
X77119059Y-85733896D01*
X76763784Y-85731478D01*
X76444286Y-85672651D01*
X76428441Y-85667578D01*
X76058384Y-85478876D01*
X75776639Y-85187573D01*
X75585820Y-84797586D01*
X75488540Y-84312834D01*
X75483421Y-84250529D01*
X75490868Y-83809557D01*
X75569696Y-83397237D01*
X75710273Y-83050813D01*
X75841461Y-82866167D01*
X76160786Y-82613299D01*
X76537005Y-82461786D01*
X76941353Y-82410346D01*
X77345066Y-82457695D01*
G37*
X77345066Y-82457695D02*
X77719379Y-82602552D01*
X78035527Y-82843632D01*
X78140710Y-82968700D01*
X78225794Y-83127539D01*
X78195257Y-83235118D01*
X78040259Y-83310886D01*
X77977361Y-83328055D01*
X77830218Y-83332849D01*
X77731912Y-83233501D01*
X77717360Y-83207239D01*
X77536898Y-83001056D01*
X77275232Y-82867515D01*
X76971004Y-82814639D01*
X76662855Y-82850452D01*
X76447238Y-82943503D01*
X76230852Y-83138214D01*
X76090961Y-83416174D01*
X76021600Y-83792662D01*
X76011336Y-84060104D01*
X76041240Y-84485783D01*
X76137333Y-84810514D01*
X76309489Y-85058291D01*
X76479696Y-85198226D01*
X76772652Y-85323594D01*
X77088708Y-85341402D01*
X77391508Y-85259730D01*
X77644699Y-85086658D01*
X77775763Y-84910184D01*
X77905162Y-84765100D01*
X78069979Y-84752449D01*
X78222026Y-84833343D01*
X78295204Y-84897376D01*
X78304194Y-84963223D01*
X78240675Y-85068790D01*
X78142913Y-85193749D01*
X77967837Y-85382699D01*
X77779279Y-85543208D01*
X77718487Y-85583707D01*
X77455498Y-85683455D01*
X77119059Y-85733896D01*
X76763784Y-85731478D01*
X76444286Y-85672651D01*
X76428441Y-85667578D01*
X76058384Y-85478876D01*
X75776639Y-85187573D01*
X75585820Y-84797586D01*
X75488540Y-84312834D01*
X75483421Y-84250529D01*
X75490868Y-83809557D01*
X75569696Y-83397237D01*
X75710273Y-83050813D01*
X75841461Y-82866167D01*
X76160786Y-82613299D01*
X76537005Y-82461786D01*
X76941353Y-82410346D01*
X77345066Y-82457695D01*
G36*
X16721925Y-82814054D02*
G01*
X15567380Y-82814054D01*
X15567380Y-85697297D01*
X15091979Y-85697297D01*
X15091979Y-82814054D01*
X14005348Y-82814054D01*
X14005348Y-82402162D01*
X16721925Y-82402162D01*
X16721925Y-82814054D01*
G37*
X16721925Y-82814054D02*
X15567380Y-82814054D01*
X15567380Y-85697297D01*
X15091979Y-85697297D01*
X15091979Y-82814054D01*
X14005348Y-82814054D01*
X14005348Y-82402162D01*
X16721925Y-82402162D01*
X16721925Y-82814054D01*
G36*
X23377540Y-82814054D02*
G01*
X21679679Y-82814054D01*
X21679679Y-83775135D01*
X23241711Y-83775135D01*
X23241711Y-84187027D01*
X21679679Y-84187027D01*
X21679679Y-85285405D01*
X23513369Y-85285405D01*
X23513369Y-85697297D01*
X21136364Y-85697297D01*
X21136364Y-82402162D01*
X23377540Y-82402162D01*
X23377540Y-82814054D01*
G37*
X23377540Y-82814054D02*
X21679679Y-82814054D01*
X21679679Y-83775135D01*
X23241711Y-83775135D01*
X23241711Y-84187027D01*
X21679679Y-84187027D01*
X21679679Y-85285405D01*
X23513369Y-85285405D01*
X23513369Y-85697297D01*
X21136364Y-85697297D01*
X21136364Y-82402162D01*
X23377540Y-82402162D01*
X23377540Y-82814054D01*
G36*
X27908999Y-82415563D02*
G01*
X28229761Y-82436486D01*
X29089562Y-83695029D01*
X29341822Y-84063130D01*
X29570161Y-84394150D01*
X29762669Y-84671000D01*
X29907435Y-84876589D01*
X29992550Y-84993829D01*
X30008238Y-85013230D01*
X30025898Y-84967499D01*
X30039239Y-84802484D01*
X30047709Y-84536142D01*
X30050758Y-84186434D01*
X30047835Y-83771319D01*
X30047352Y-83737525D01*
X30027591Y-82402162D01*
X30508556Y-82402162D01*
X30508556Y-85704820D01*
X30188907Y-85683896D01*
X29869258Y-85662973D01*
X28966447Y-84329875D01*
X28063637Y-82996778D01*
X28063637Y-85697297D01*
X27588236Y-85697297D01*
X27588236Y-82394639D01*
X27908999Y-82415563D01*
G37*
X27908999Y-82415563D02*
X28229761Y-82436486D01*
X29089562Y-83695029D01*
X29341822Y-84063130D01*
X29570161Y-84394150D01*
X29762669Y-84671000D01*
X29907435Y-84876589D01*
X29992550Y-84993829D01*
X30008238Y-85013230D01*
X30025898Y-84967499D01*
X30039239Y-84802484D01*
X30047709Y-84536142D01*
X30050758Y-84186434D01*
X30047835Y-83771319D01*
X30047352Y-83737525D01*
X30027591Y-82402162D01*
X30508556Y-82402162D01*
X30508556Y-85704820D01*
X30188907Y-85683896D01*
X29869258Y-85662973D01*
X28966447Y-84329875D01*
X28063637Y-82996778D01*
X28063637Y-85697297D01*
X27588236Y-85697297D01*
X27588236Y-82394639D01*
X27908999Y-82415563D01*
G36*
X43004813Y-82814054D02*
G01*
X41306952Y-82814054D01*
X41306952Y-83775135D01*
X42868984Y-83775135D01*
X42868984Y-84187027D01*
X41306952Y-84187027D01*
X41306952Y-85285405D01*
X43140642Y-85285405D01*
X43140642Y-85697297D01*
X40763637Y-85697297D01*
X40763637Y-82402162D01*
X43004813Y-82402162D01*
X43004813Y-82814054D01*
G37*
X43004813Y-82814054D02*
X41306952Y-82814054D01*
X41306952Y-83775135D01*
X42868984Y-83775135D01*
X42868984Y-84187027D01*
X41306952Y-84187027D01*
X41306952Y-85285405D01*
X43140642Y-85285405D01*
X43140642Y-85697297D01*
X40763637Y-85697297D01*
X40763637Y-82402162D01*
X43004813Y-82402162D01*
X43004813Y-82814054D01*
G36*
X62632086Y-85285405D02*
G01*
X64126203Y-85285405D01*
X64126203Y-85697297D01*
X62088770Y-85697297D01*
X62088770Y-82402162D01*
X62632086Y-82402162D01*
X62632086Y-85285405D01*
G37*
X62632086Y-85285405D02*
X64126203Y-85285405D01*
X64126203Y-85697297D01*
X62088770Y-85697297D01*
X62088770Y-82402162D01*
X62632086Y-82402162D01*
X62632086Y-85285405D01*
G36*
X83515776Y-83921216D02*
G01*
X84188195Y-83161689D01*
X84448703Y-82868734D01*
X84638582Y-82662850D01*
X84777652Y-82528683D01*
X84885737Y-82450876D01*
X84982658Y-82414076D01*
X85088238Y-82402927D01*
X85168688Y-82402162D01*
X85476762Y-82402162D01*
X84818863Y-83079032D01*
X84579586Y-83330456D01*
X84379205Y-83551008D01*
X84235190Y-83720691D01*
X84165010Y-83819508D01*
X84160963Y-83832123D01*
X84202407Y-83908915D01*
X84316652Y-84070225D01*
X84488566Y-84295926D01*
X84703017Y-84565892D01*
X84826256Y-84717009D01*
X85111027Y-85062858D01*
X85317112Y-85316342D01*
X85451441Y-85491681D01*
X85520947Y-85603096D01*
X85532563Y-85664807D01*
X85493220Y-85691034D01*
X85409851Y-85695999D01*
X85302538Y-85694035D01*
X85184402Y-85689392D01*
X85087325Y-85667447D01*
X84991715Y-85611663D01*
X84877976Y-85505499D01*
X84726516Y-85332416D01*
X84517740Y-85075874D01*
X84407961Y-84938900D01*
X84187643Y-84668441D01*
X83995273Y-84441165D01*
X83847721Y-84276342D01*
X83761861Y-84193241D01*
X83749646Y-84187027D01*
X83672994Y-84237374D01*
X83587541Y-84339599D01*
X83528361Y-84479439D01*
X83494287Y-84704559D01*
X83481991Y-85038724D01*
X83481818Y-85094734D01*
X83481818Y-85697297D01*
X82938503Y-85697297D01*
X82938503Y-82402162D01*
X83477370Y-82402162D01*
X83515776Y-83921216D01*
G37*
X83515776Y-83921216D02*
X84188195Y-83161689D01*
X84448703Y-82868734D01*
X84638582Y-82662850D01*
X84777652Y-82528683D01*
X84885737Y-82450876D01*
X84982658Y-82414076D01*
X85088238Y-82402927D01*
X85168688Y-82402162D01*
X85476762Y-82402162D01*
X84818863Y-83079032D01*
X84579586Y-83330456D01*
X84379205Y-83551008D01*
X84235190Y-83720691D01*
X84165010Y-83819508D01*
X84160963Y-83832123D01*
X84202407Y-83908915D01*
X84316652Y-84070225D01*
X84488566Y-84295926D01*
X84703017Y-84565892D01*
X84826256Y-84717009D01*
X85111027Y-85062858D01*
X85317112Y-85316342D01*
X85451441Y-85491681D01*
X85520947Y-85603096D01*
X85532563Y-85664807D01*
X85493220Y-85691034D01*
X85409851Y-85695999D01*
X85302538Y-85694035D01*
X85184402Y-85689392D01*
X85087325Y-85667447D01*
X84991715Y-85611663D01*
X84877976Y-85505499D01*
X84726516Y-85332416D01*
X84517740Y-85075874D01*
X84407961Y-84938900D01*
X84187643Y-84668441D01*
X83995273Y-84441165D01*
X83847721Y-84276342D01*
X83761861Y-84193241D01*
X83749646Y-84187027D01*
X83672994Y-84237374D01*
X83587541Y-84339599D01*
X83528361Y-84479439D01*
X83494287Y-84704559D01*
X83481991Y-85038724D01*
X83481818Y-85094734D01*
X83481818Y-85697297D01*
X82938503Y-85697297D01*
X82938503Y-82402162D01*
X83477370Y-82402162D01*
X83515776Y-83921216D01*
G36*
X50814974Y-83363243D02*
G01*
X50611230Y-83363243D01*
X50488329Y-83355010D01*
X50428399Y-83306106D01*
X50408652Y-83180222D01*
X50406560Y-83037162D01*
X50397404Y-82805532D01*
X50375477Y-82608715D01*
X50364681Y-82556621D01*
X50352157Y-82454369D01*
X50410447Y-82411063D01*
X50569352Y-82402162D01*
X50814974Y-82402162D01*
X50814974Y-83363243D01*
G37*
X50814974Y-83363243D02*
X50611230Y-83363243D01*
X50488329Y-83355010D01*
X50428399Y-83306106D01*
X50408652Y-83180222D01*
X50406560Y-83037162D01*
X50397404Y-82805532D01*
X50375477Y-82608715D01*
X50364681Y-82556621D01*
X50352157Y-82454369D01*
X50410447Y-82411063D01*
X50569352Y-82402162D01*
X50814974Y-82402162D01*
X50814974Y-83363243D01*
G36*
X15747331Y-74847039D02*
G01*
X16056422Y-74926558D01*
X16276003Y-75068491D01*
X16415161Y-75260455D01*
X16493618Y-75422121D01*
X16497056Y-75501855D01*
X16409827Y-75541214D01*
X16300828Y-75564076D01*
X16128921Y-75575103D01*
X16004953Y-75501438D01*
X15941938Y-75428595D01*
X15787355Y-75294283D01*
X15565338Y-75224391D01*
X15484190Y-75213146D01*
X15121201Y-75207522D01*
X14849005Y-75279689D01*
X14677505Y-75424746D01*
X14616600Y-75637794D01*
X14616578Y-75642499D01*
X14658088Y-75810640D01*
X14791473Y-75952830D01*
X15030013Y-76077665D01*
X15386991Y-76193742D01*
X15522770Y-76229041D01*
X15851765Y-76319051D01*
X16082206Y-76405556D01*
X16249981Y-76504606D01*
X16365375Y-76605846D01*
X16504469Y-76767635D01*
X16569232Y-76925518D01*
X16586034Y-77146745D01*
X16586096Y-77168742D01*
X16533654Y-77513675D01*
X16371099Y-77781332D01*
X16099604Y-77980121D01*
X15894684Y-78047760D01*
X15606130Y-78095369D01*
X15285205Y-78118954D01*
X14983174Y-78114523D01*
X14771086Y-78083598D01*
X14406029Y-77925217D01*
X14129809Y-77664917D01*
X14070161Y-77575864D01*
X13937716Y-77356486D01*
X14171089Y-77299181D01*
X14330087Y-77274071D01*
X14445223Y-77311766D01*
X14574342Y-77434316D01*
X14599446Y-77462460D01*
X14755039Y-77607230D01*
X14929800Y-77683636D01*
X15143265Y-77716926D01*
X15500983Y-77726188D01*
X15764854Y-77669195D01*
X15963320Y-77539443D01*
X15976594Y-77526362D01*
X16099383Y-77327494D01*
X16098637Y-77123972D01*
X15984491Y-76935513D01*
X15767081Y-76781836D01*
X15553984Y-76704233D01*
X15077567Y-76572924D01*
X14719252Y-76452644D01*
X14463127Y-76332028D01*
X14293283Y-76199714D01*
X14193810Y-76044337D01*
X14148799Y-75854535D01*
X14141177Y-75695150D01*
X14183604Y-75364800D01*
X14316202Y-75118193D01*
X14546946Y-74949469D01*
X14883814Y-74852772D01*
X15329679Y-74822241D01*
X15747331Y-74847039D01*
G37*
X15747331Y-74847039D02*
X16056422Y-74926558D01*
X16276003Y-75068491D01*
X16415161Y-75260455D01*
X16493618Y-75422121D01*
X16497056Y-75501855D01*
X16409827Y-75541214D01*
X16300828Y-75564076D01*
X16128921Y-75575103D01*
X16004953Y-75501438D01*
X15941938Y-75428595D01*
X15787355Y-75294283D01*
X15565338Y-75224391D01*
X15484190Y-75213146D01*
X15121201Y-75207522D01*
X14849005Y-75279689D01*
X14677505Y-75424746D01*
X14616600Y-75637794D01*
X14616578Y-75642499D01*
X14658088Y-75810640D01*
X14791473Y-75952830D01*
X15030013Y-76077665D01*
X15386991Y-76193742D01*
X15522770Y-76229041D01*
X15851765Y-76319051D01*
X16082206Y-76405556D01*
X16249981Y-76504606D01*
X16365375Y-76605846D01*
X16504469Y-76767635D01*
X16569232Y-76925518D01*
X16586034Y-77146745D01*
X16586096Y-77168742D01*
X16533654Y-77513675D01*
X16371099Y-77781332D01*
X16099604Y-77980121D01*
X15894684Y-78047760D01*
X15606130Y-78095369D01*
X15285205Y-78118954D01*
X14983174Y-78114523D01*
X14771086Y-78083598D01*
X14406029Y-77925217D01*
X14129809Y-77664917D01*
X14070161Y-77575864D01*
X13937716Y-77356486D01*
X14171089Y-77299181D01*
X14330087Y-77274071D01*
X14445223Y-77311766D01*
X14574342Y-77434316D01*
X14599446Y-77462460D01*
X14755039Y-77607230D01*
X14929800Y-77683636D01*
X15143265Y-77716926D01*
X15500983Y-77726188D01*
X15764854Y-77669195D01*
X15963320Y-77539443D01*
X15976594Y-77526362D01*
X16099383Y-77327494D01*
X16098637Y-77123972D01*
X15984491Y-76935513D01*
X15767081Y-76781836D01*
X15553984Y-76704233D01*
X15077567Y-76572924D01*
X14719252Y-76452644D01*
X14463127Y-76332028D01*
X14293283Y-76199714D01*
X14193810Y-76044337D01*
X14148799Y-75854535D01*
X14141177Y-75695150D01*
X14183604Y-75364800D01*
X14316202Y-75118193D01*
X14546946Y-74949469D01*
X14883814Y-74852772D01*
X15329679Y-74822241D01*
X15747331Y-74847039D01*
G36*
X23377540Y-75194054D02*
G01*
X21679679Y-75194054D01*
X21679679Y-76155135D01*
X23241711Y-76155135D01*
X23241711Y-76567027D01*
X21679679Y-76567027D01*
X21679679Y-77665405D01*
X23513369Y-77665405D01*
X23513369Y-78077297D01*
X21136364Y-78077297D01*
X21136364Y-74782162D01*
X23377540Y-74782162D01*
X23377540Y-75194054D01*
G37*
X23377540Y-75194054D02*
X21679679Y-75194054D01*
X21679679Y-76155135D01*
X23241711Y-76155135D01*
X23241711Y-76567027D01*
X21679679Y-76567027D01*
X21679679Y-77665405D01*
X23513369Y-77665405D01*
X23513369Y-78077297D01*
X21136364Y-78077297D01*
X21136364Y-74782162D01*
X23377540Y-74782162D01*
X23377540Y-75194054D01*
G36*
X30504441Y-74806216D02*
G01*
X30508556Y-74812872D01*
X30486056Y-74885392D01*
X30422768Y-75068904D01*
X30325009Y-75345624D01*
X30199098Y-75697767D01*
X30051351Y-76107549D01*
X29921802Y-76464584D01*
X29335047Y-78077297D01*
X29077751Y-78077297D01*
X28933734Y-78070589D01*
X28841826Y-78030361D01*
X28771155Y-77926456D01*
X28690846Y-77728719D01*
X28673629Y-77682567D01*
X28551286Y-77350902D01*
X28413799Y-76973632D01*
X28268672Y-76571866D01*
X28123411Y-76166712D01*
X27985521Y-75779280D01*
X27862507Y-75430679D01*
X27761874Y-75142017D01*
X27691128Y-74934403D01*
X27657772Y-74828947D01*
X27656150Y-74820796D01*
X27715796Y-74795661D01*
X27863721Y-74792094D01*
X27909728Y-74795180D01*
X28163306Y-74816486D01*
X28605851Y-76206537D01*
X28738098Y-76617126D01*
X28857765Y-76979567D01*
X28958335Y-77274858D01*
X29033290Y-77483993D01*
X29076112Y-77587968D01*
X29082353Y-77595999D01*
X29112244Y-77533546D01*
X29176631Y-77359233D01*
X29268988Y-77092086D01*
X29382785Y-76751130D01*
X29511494Y-76355389D01*
X29559338Y-76205948D01*
X30002365Y-74816486D01*
X30255461Y-74795180D01*
X30418251Y-74790672D01*
X30504441Y-74806216D01*
G37*
X30504441Y-74806216D02*
X30508556Y-74812872D01*
X30486056Y-74885392D01*
X30422768Y-75068904D01*
X30325009Y-75345624D01*
X30199098Y-75697767D01*
X30051351Y-76107549D01*
X29921802Y-76464584D01*
X29335047Y-78077297D01*
X29077751Y-78077297D01*
X28933734Y-78070589D01*
X28841826Y-78030361D01*
X28771155Y-77926456D01*
X28690846Y-77728719D01*
X28673629Y-77682567D01*
X28551286Y-77350902D01*
X28413799Y-76973632D01*
X28268672Y-76571866D01*
X28123411Y-76166712D01*
X27985521Y-75779280D01*
X27862507Y-75430679D01*
X27761874Y-75142017D01*
X27691128Y-74934403D01*
X27657772Y-74828947D01*
X27656150Y-74820796D01*
X27715796Y-74795661D01*
X27863721Y-74792094D01*
X27909728Y-74795180D01*
X28163306Y-74816486D01*
X28605851Y-76206537D01*
X28738098Y-76617126D01*
X28857765Y-76979567D01*
X28958335Y-77274858D01*
X29033290Y-77483993D01*
X29076112Y-77587968D01*
X29082353Y-77595999D01*
X29112244Y-77533546D01*
X29176631Y-77359233D01*
X29268988Y-77092086D01*
X29382785Y-76751130D01*
X29511494Y-76355389D01*
X29559338Y-76205948D01*
X30002365Y-74816486D01*
X30255461Y-74795180D01*
X30418251Y-74790672D01*
X30504441Y-74806216D01*
G36*
X36620856Y-75194054D02*
G01*
X34922995Y-75194054D01*
X34922995Y-76155135D01*
X36485027Y-76155135D01*
X36485027Y-76567027D01*
X34922995Y-76567027D01*
X34922995Y-77665405D01*
X36756685Y-77665405D01*
X36756685Y-78077297D01*
X34379679Y-78077297D01*
X34379679Y-74782162D01*
X36620856Y-74782162D01*
X36620856Y-75194054D01*
G37*
X36620856Y-75194054D02*
X34922995Y-75194054D01*
X34922995Y-76155135D01*
X36485027Y-76155135D01*
X36485027Y-76567027D01*
X34922995Y-76567027D01*
X34922995Y-77665405D01*
X36756685Y-77665405D01*
X36756685Y-78077297D01*
X34379679Y-78077297D01*
X34379679Y-74782162D01*
X36620856Y-74782162D01*
X36620856Y-75194054D01*
G36*
X40676913Y-74795563D02*
G01*
X40997676Y-74816486D01*
X41857476Y-76075029D01*
X42109737Y-76443130D01*
X42338076Y-76774150D01*
X42530583Y-77051000D01*
X42675350Y-77256589D01*
X42760464Y-77373829D01*
X42776152Y-77393230D01*
X42793813Y-77347499D01*
X42807153Y-77182484D01*
X42815623Y-76916142D01*
X42818672Y-76566434D01*
X42815749Y-76151319D01*
X42815266Y-76117525D01*
X42795505Y-74782162D01*
X43276471Y-74782162D01*
X43276471Y-78084820D01*
X42956822Y-78063896D01*
X42637173Y-78042973D01*
X41734362Y-76709875D01*
X40831551Y-75376778D01*
X40831551Y-78077297D01*
X40356150Y-78077297D01*
X40356150Y-74774639D01*
X40676913Y-74795563D01*
G37*
X40676913Y-74795563D02*
X40997676Y-74816486D01*
X41857476Y-76075029D01*
X42109737Y-76443130D01*
X42338076Y-76774150D01*
X42530583Y-77051000D01*
X42675350Y-77256589D01*
X42760464Y-77373829D01*
X42776152Y-77393230D01*
X42793813Y-77347499D01*
X42807153Y-77182484D01*
X42815623Y-76916142D01*
X42818672Y-76566434D01*
X42815749Y-76151319D01*
X42815266Y-76117525D01*
X42795505Y-74782162D01*
X43276471Y-74782162D01*
X43276471Y-78084820D01*
X42956822Y-78063896D01*
X42637173Y-78042973D01*
X41734362Y-76709875D01*
X40831551Y-75376778D01*
X40831551Y-78077297D01*
X40356150Y-78077297D01*
X40356150Y-74774639D01*
X40676913Y-74795563D01*
G36*
X50067915Y-75194054D02*
G01*
X48913369Y-75194054D01*
X48913369Y-78077297D01*
X48437968Y-78077297D01*
X48437968Y-75194054D01*
X47351337Y-75194054D01*
X47351337Y-74782162D01*
X50067915Y-74782162D01*
X50067915Y-75194054D01*
G37*
X50067915Y-75194054D02*
X48913369Y-75194054D01*
X48913369Y-78077297D01*
X48437968Y-78077297D01*
X48437968Y-75194054D01*
X47351337Y-75194054D01*
X47351337Y-74782162D01*
X50067915Y-74782162D01*
X50067915Y-75194054D01*
G36*
X56716571Y-76153813D02*
G01*
X56827291Y-76562687D01*
X56927679Y-76920167D01*
X57012126Y-77207343D01*
X57075022Y-77405305D01*
X57110757Y-77495143D01*
X57115392Y-77498135D01*
X57142641Y-77424937D01*
X57199776Y-77239871D01*
X57280790Y-76963488D01*
X57379677Y-76616339D01*
X57490430Y-76218973D01*
X57509354Y-76150274D01*
X57621388Y-75746762D01*
X57722410Y-75390208D01*
X57806441Y-75101130D01*
X57867501Y-74900042D01*
X57899611Y-74807459D01*
X57901714Y-74804033D01*
X57983308Y-74788868D01*
X58142164Y-74792822D01*
X58164680Y-74794769D01*
X58396996Y-74816486D01*
X57914293Y-76429729D01*
X57431591Y-78042973D01*
X57111517Y-78063896D01*
X56924200Y-78065641D01*
X56808060Y-78046535D01*
X56789681Y-78029572D01*
X56772018Y-77942233D01*
X56725191Y-77750430D01*
X56655875Y-77479097D01*
X56570744Y-77153173D01*
X56476474Y-76797593D01*
X56379739Y-76437295D01*
X56287215Y-76097216D01*
X56205577Y-75802291D01*
X56141499Y-75577458D01*
X56101657Y-75447653D01*
X56092767Y-75426022D01*
X56067314Y-75479580D01*
X56013784Y-75645955D01*
X55938060Y-75905027D01*
X55846025Y-76236674D01*
X55744534Y-76617071D01*
X55640556Y-77013334D01*
X55546871Y-77369268D01*
X55469694Y-77661340D01*
X55415245Y-77866014D01*
X55390493Y-77957162D01*
X55330249Y-78036885D01*
X55188360Y-78072395D01*
X55052918Y-78077297D01*
X54846714Y-78058790D01*
X54732289Y-78009062D01*
X54721508Y-77991486D01*
X54664748Y-77812042D01*
X54582979Y-77544305D01*
X54482761Y-77210668D01*
X54370652Y-76833520D01*
X54253212Y-76435252D01*
X54136999Y-76038255D01*
X54028573Y-75664920D01*
X53934492Y-75337636D01*
X53861315Y-75078796D01*
X53815601Y-74910790D01*
X53803209Y-74856629D01*
X53860101Y-74805028D01*
X53994182Y-74784224D01*
X54150558Y-74792991D01*
X54274336Y-74830102D01*
X54311032Y-74867973D01*
X54337182Y-74958323D01*
X54393338Y-75159148D01*
X54473441Y-75448551D01*
X54571433Y-75804638D01*
X54681255Y-76205513D01*
X54691548Y-76243171D01*
X54801130Y-76637984D01*
X54899610Y-76981118D01*
X54981106Y-77253027D01*
X55039739Y-77434163D01*
X55069629Y-77504983D01*
X55071161Y-77505007D01*
X55096495Y-77433354D01*
X55151324Y-77249478D01*
X55229865Y-76973739D01*
X55326334Y-76626501D01*
X55434949Y-76228125D01*
X55456848Y-76146971D01*
X55815280Y-74816486D01*
X56350000Y-74776892D01*
X56716571Y-76153813D01*
G37*
X56716571Y-76153813D02*
X56827291Y-76562687D01*
X56927679Y-76920167D01*
X57012126Y-77207343D01*
X57075022Y-77405305D01*
X57110757Y-77495143D01*
X57115392Y-77498135D01*
X57142641Y-77424937D01*
X57199776Y-77239871D01*
X57280790Y-76963488D01*
X57379677Y-76616339D01*
X57490430Y-76218973D01*
X57509354Y-76150274D01*
X57621388Y-75746762D01*
X57722410Y-75390208D01*
X57806441Y-75101130D01*
X57867501Y-74900042D01*
X57899611Y-74807459D01*
X57901714Y-74804033D01*
X57983308Y-74788868D01*
X58142164Y-74792822D01*
X58164680Y-74794769D01*
X58396996Y-74816486D01*
X57914293Y-76429729D01*
X57431591Y-78042973D01*
X57111517Y-78063896D01*
X56924200Y-78065641D01*
X56808060Y-78046535D01*
X56789681Y-78029572D01*
X56772018Y-77942233D01*
X56725191Y-77750430D01*
X56655875Y-77479097D01*
X56570744Y-77153173D01*
X56476474Y-76797593D01*
X56379739Y-76437295D01*
X56287215Y-76097216D01*
X56205577Y-75802291D01*
X56141499Y-75577458D01*
X56101657Y-75447653D01*
X56092767Y-75426022D01*
X56067314Y-75479580D01*
X56013784Y-75645955D01*
X55938060Y-75905027D01*
X55846025Y-76236674D01*
X55744534Y-76617071D01*
X55640556Y-77013334D01*
X55546871Y-77369268D01*
X55469694Y-77661340D01*
X55415245Y-77866014D01*
X55390493Y-77957162D01*
X55330249Y-78036885D01*
X55188360Y-78072395D01*
X55052918Y-78077297D01*
X54846714Y-78058790D01*
X54732289Y-78009062D01*
X54721508Y-77991486D01*
X54664748Y-77812042D01*
X54582979Y-77544305D01*
X54482761Y-77210668D01*
X54370652Y-76833520D01*
X54253212Y-76435252D01*
X54136999Y-76038255D01*
X54028573Y-75664920D01*
X53934492Y-75337636D01*
X53861315Y-75078796D01*
X53815601Y-74910790D01*
X53803209Y-74856629D01*
X53860101Y-74805028D01*
X53994182Y-74784224D01*
X54150558Y-74792991D01*
X54274336Y-74830102D01*
X54311032Y-74867973D01*
X54337182Y-74958323D01*
X54393338Y-75159148D01*
X54473441Y-75448551D01*
X54571433Y-75804638D01*
X54681255Y-76205513D01*
X54691548Y-76243171D01*
X54801130Y-76637984D01*
X54899610Y-76981118D01*
X54981106Y-77253027D01*
X55039739Y-77434163D01*
X55069629Y-77504983D01*
X55071161Y-77505007D01*
X55096495Y-77433354D01*
X55151324Y-77249478D01*
X55229865Y-76973739D01*
X55326334Y-76626501D01*
X55434949Y-76228125D01*
X55456848Y-76146971D01*
X55815280Y-74816486D01*
X56350000Y-74776892D01*
X56716571Y-76153813D01*
G36*
X64126203Y-75194054D02*
G01*
X62428342Y-75194054D01*
X62428342Y-76155135D01*
X63990375Y-76155135D01*
X63990375Y-76567027D01*
X62428342Y-76567027D01*
X62428342Y-77665405D01*
X64262032Y-77665405D01*
X64262032Y-78077297D01*
X61885027Y-78077297D01*
X61885027Y-74782162D01*
X64126203Y-74782162D01*
X64126203Y-75194054D01*
G37*
X64126203Y-75194054D02*
X62428342Y-75194054D01*
X62428342Y-76155135D01*
X63990375Y-76155135D01*
X63990375Y-76567027D01*
X62428342Y-76567027D01*
X62428342Y-77665405D01*
X64262032Y-77665405D01*
X64262032Y-78077297D01*
X61885027Y-78077297D01*
X61885027Y-74782162D01*
X64126203Y-74782162D01*
X64126203Y-75194054D01*
G36*
X69287701Y-77665405D02*
G01*
X70781818Y-77665405D01*
X70781818Y-78077297D01*
X68744385Y-78077297D01*
X68744385Y-74782162D01*
X69287701Y-74782162D01*
X69287701Y-77665405D01*
G37*
X69287701Y-77665405D02*
X70781818Y-77665405D01*
X70781818Y-78077297D01*
X68744385Y-78077297D01*
X68744385Y-74782162D01*
X69287701Y-74782162D01*
X69287701Y-77665405D01*
G36*
X78316206Y-74806216D02*
G01*
X78320321Y-74812872D01*
X78297821Y-74885392D01*
X78234533Y-75068904D01*
X78136774Y-75345624D01*
X78010862Y-75697767D01*
X77863116Y-76107549D01*
X77733566Y-76464584D01*
X77146812Y-78077297D01*
X76889516Y-78077297D01*
X76745498Y-78070589D01*
X76653591Y-78030361D01*
X76582920Y-77926456D01*
X76502610Y-77728719D01*
X76485393Y-77682567D01*
X76363051Y-77350902D01*
X76225563Y-76973632D01*
X76080437Y-76571866D01*
X75935176Y-76166712D01*
X75797286Y-75779280D01*
X75674272Y-75430679D01*
X75573639Y-75142017D01*
X75502892Y-74934403D01*
X75469537Y-74828947D01*
X75467915Y-74820796D01*
X75527561Y-74795661D01*
X75675486Y-74792094D01*
X75721493Y-74795180D01*
X75975071Y-74816486D01*
X76417616Y-76206537D01*
X76549863Y-76617126D01*
X76669530Y-76979567D01*
X76770100Y-77274858D01*
X76845054Y-77483993D01*
X76887877Y-77587968D01*
X76894118Y-77595999D01*
X76924008Y-77533546D01*
X76988396Y-77359233D01*
X77080753Y-77092086D01*
X77194549Y-76751130D01*
X77323258Y-76355389D01*
X77371103Y-76205948D01*
X77814130Y-74816486D01*
X78067226Y-74795180D01*
X78230016Y-74790672D01*
X78316206Y-74806216D01*
G37*
X78316206Y-74806216D02*
X78320321Y-74812872D01*
X78297821Y-74885392D01*
X78234533Y-75068904D01*
X78136774Y-75345624D01*
X78010862Y-75697767D01*
X77863116Y-76107549D01*
X77733566Y-76464584D01*
X77146812Y-78077297D01*
X76889516Y-78077297D01*
X76745498Y-78070589D01*
X76653591Y-78030361D01*
X76582920Y-77926456D01*
X76502610Y-77728719D01*
X76485393Y-77682567D01*
X76363051Y-77350902D01*
X76225563Y-76973632D01*
X76080437Y-76571866D01*
X75935176Y-76166712D01*
X75797286Y-75779280D01*
X75674272Y-75430679D01*
X75573639Y-75142017D01*
X75502892Y-74934403D01*
X75469537Y-74828947D01*
X75467915Y-74820796D01*
X75527561Y-74795661D01*
X75675486Y-74792094D01*
X75721493Y-74795180D01*
X75975071Y-74816486D01*
X76417616Y-76206537D01*
X76549863Y-76617126D01*
X76669530Y-76979567D01*
X76770100Y-77274858D01*
X76845054Y-77483993D01*
X76887877Y-77587968D01*
X76894118Y-77595999D01*
X76924008Y-77533546D01*
X76988396Y-77359233D01*
X77080753Y-77092086D01*
X77194549Y-76751130D01*
X77323258Y-76355389D01*
X77371103Y-76205948D01*
X77814130Y-74816486D01*
X78067226Y-74795180D01*
X78230016Y-74790672D01*
X78316206Y-74806216D01*
G36*
X85179679Y-75194054D02*
G01*
X83481818Y-75194054D01*
X83481818Y-76155135D01*
X85043851Y-76155135D01*
X85043851Y-76567027D01*
X83481818Y-76567027D01*
X83481818Y-77665405D01*
X85315508Y-77665405D01*
X85315508Y-78077297D01*
X82938503Y-78077297D01*
X82938503Y-74782162D01*
X85179679Y-74782162D01*
X85179679Y-75194054D01*
G37*
X85179679Y-75194054D02*
X83481818Y-75194054D01*
X83481818Y-76155135D01*
X85043851Y-76155135D01*
X85043851Y-76567027D01*
X83481818Y-76567027D01*
X83481818Y-77665405D01*
X85315508Y-77665405D01*
X85315508Y-78077297D01*
X82938503Y-78077297D01*
X82938503Y-74782162D01*
X85179679Y-74782162D01*
X85179679Y-75194054D01*
G36*
X29610363Y-67237367D02*
G01*
X29849788Y-67306297D01*
X29872258Y-67317538D01*
X30026231Y-67424560D01*
X30193476Y-67575600D01*
X30339096Y-67734433D01*
X30428192Y-67864835D01*
X30440642Y-67907514D01*
X30384006Y-67961754D01*
X30245686Y-68030027D01*
X30226080Y-68037709D01*
X30068705Y-68083844D01*
X29975504Y-68059000D01*
X29922624Y-68001273D01*
X29849946Y-67887745D01*
X29831572Y-67839308D01*
X29774985Y-67784590D01*
X29637653Y-67704283D01*
X29598426Y-67684849D01*
X29255629Y-67583421D01*
X28921641Y-67597661D01*
X28624367Y-67719122D01*
X28391709Y-67939355D01*
X28312880Y-68074027D01*
X28236515Y-68334866D01*
X28200509Y-68670234D01*
X28204664Y-69026780D01*
X28248781Y-69351159D01*
X28318421Y-69563496D01*
X28528934Y-69846893D01*
X28814774Y-70031287D01*
X29150130Y-70109326D01*
X29509195Y-70073658D01*
X29764203Y-69975361D01*
X29931836Y-69877642D01*
X30009830Y-69777686D01*
X30032181Y-69619093D01*
X30033155Y-69529145D01*
X30033155Y-69221621D01*
X29218182Y-69221621D01*
X29218182Y-68809729D01*
X30513653Y-68809729D01*
X30474599Y-70063717D01*
X30126530Y-70262289D01*
X29724452Y-70425960D01*
X29276422Y-70500707D01*
X28835449Y-70480720D01*
X28616676Y-70427755D01*
X28247933Y-70238615D01*
X27965175Y-69946193D01*
X27772851Y-69557016D01*
X27675414Y-69077615D01*
X27672419Y-69042826D01*
X27681731Y-68519828D01*
X27793568Y-68062382D01*
X28002381Y-67683131D01*
X28302619Y-67394716D01*
X28430269Y-67316497D01*
X28656369Y-67243413D01*
X28962512Y-67205888D01*
X29297558Y-67203885D01*
X29610363Y-67237367D01*
G37*
X29610363Y-67237367D02*
X29849788Y-67306297D01*
X29872258Y-67317538D01*
X30026231Y-67424560D01*
X30193476Y-67575600D01*
X30339096Y-67734433D01*
X30428192Y-67864835D01*
X30440642Y-67907514D01*
X30384006Y-67961754D01*
X30245686Y-68030027D01*
X30226080Y-68037709D01*
X30068705Y-68083844D01*
X29975504Y-68059000D01*
X29922624Y-68001273D01*
X29849946Y-67887745D01*
X29831572Y-67839308D01*
X29774985Y-67784590D01*
X29637653Y-67704283D01*
X29598426Y-67684849D01*
X29255629Y-67583421D01*
X28921641Y-67597661D01*
X28624367Y-67719122D01*
X28391709Y-67939355D01*
X28312880Y-68074027D01*
X28236515Y-68334866D01*
X28200509Y-68670234D01*
X28204664Y-69026780D01*
X28248781Y-69351159D01*
X28318421Y-69563496D01*
X28528934Y-69846893D01*
X28814774Y-70031287D01*
X29150130Y-70109326D01*
X29509195Y-70073658D01*
X29764203Y-69975361D01*
X29931836Y-69877642D01*
X30009830Y-69777686D01*
X30032181Y-69619093D01*
X30033155Y-69529145D01*
X30033155Y-69221621D01*
X29218182Y-69221621D01*
X29218182Y-68809729D01*
X30513653Y-68809729D01*
X30474599Y-70063717D01*
X30126530Y-70262289D01*
X29724452Y-70425960D01*
X29276422Y-70500707D01*
X28835449Y-70480720D01*
X28616676Y-70427755D01*
X28247933Y-70238615D01*
X27965175Y-69946193D01*
X27772851Y-69557016D01*
X27675414Y-69077615D01*
X27672419Y-69042826D01*
X27681731Y-68519828D01*
X27793568Y-68062382D01*
X28002381Y-67683131D01*
X28302619Y-67394716D01*
X28430269Y-67316497D01*
X28656369Y-67243413D01*
X28962512Y-67205888D01*
X29297558Y-67203885D01*
X29610363Y-67237367D01*
G36*
X16518182Y-67574054D02*
G01*
X14820321Y-67574054D01*
X14820321Y-68535135D01*
X16382353Y-68535135D01*
X16382353Y-68947027D01*
X14820321Y-68947027D01*
X14820321Y-70045405D01*
X16654011Y-70045405D01*
X16654011Y-70457297D01*
X14277006Y-70457297D01*
X14277006Y-67162162D01*
X16518182Y-67162162D01*
X16518182Y-67574054D01*
G37*
X16518182Y-67574054D02*
X14820321Y-67574054D01*
X14820321Y-68535135D01*
X16382353Y-68535135D01*
X16382353Y-68947027D01*
X14820321Y-68947027D01*
X14820321Y-70045405D01*
X16654011Y-70045405D01*
X16654011Y-70457297D01*
X14277006Y-70457297D01*
X14277006Y-67162162D01*
X16518182Y-67162162D01*
X16518182Y-67574054D01*
G36*
X22494653Y-70457297D02*
G01*
X21951337Y-70457297D01*
X21951337Y-67162162D01*
X22494653Y-67162162D01*
X22494653Y-70457297D01*
G37*
X22494653Y-70457297D02*
X21951337Y-70457297D01*
X21951337Y-67162162D01*
X22494653Y-67162162D01*
X22494653Y-70457297D01*
G36*
X34583423Y-68535135D02*
G01*
X36349198Y-68535135D01*
X36349198Y-67162162D01*
X36824599Y-67162162D01*
X36824599Y-70457297D01*
X36349198Y-70457297D01*
X36349198Y-68947027D01*
X34583423Y-68947027D01*
X34583423Y-70457297D01*
X34040107Y-70457297D01*
X34040107Y-67162162D01*
X34583423Y-67162162D01*
X34583423Y-68535135D01*
G37*
X34583423Y-68535135D02*
X36349198Y-68535135D01*
X36349198Y-67162162D01*
X36824599Y-67162162D01*
X36824599Y-70457297D01*
X36349198Y-70457297D01*
X36349198Y-68947027D01*
X34583423Y-68947027D01*
X34583423Y-70457297D01*
X34040107Y-70457297D01*
X34040107Y-67162162D01*
X34583423Y-67162162D01*
X34583423Y-68535135D01*
G36*
X43208556Y-67574054D02*
G01*
X42054011Y-67574054D01*
X42054011Y-70457297D01*
X41578610Y-70457297D01*
X41578610Y-67574054D01*
X40491979Y-67574054D01*
X40491979Y-67162162D01*
X43208556Y-67162162D01*
X43208556Y-67574054D01*
G37*
X43208556Y-67574054D02*
X42054011Y-67574054D01*
X42054011Y-70457297D01*
X41578610Y-70457297D01*
X41578610Y-67574054D01*
X40491979Y-67574054D01*
X40491979Y-67162162D01*
X43208556Y-67162162D01*
X43208556Y-67574054D01*
G36*
X49864171Y-67574054D02*
G01*
X48166310Y-67574054D01*
X48166310Y-68535135D01*
X49728342Y-68535135D01*
X49728342Y-68947027D01*
X48166310Y-68947027D01*
X48166310Y-70045405D01*
X50000000Y-70045405D01*
X50000000Y-70457297D01*
X47622995Y-70457297D01*
X47622995Y-67162162D01*
X49864171Y-67162162D01*
X49864171Y-67574054D01*
G37*
X49864171Y-67574054D02*
X48166310Y-67574054D01*
X48166310Y-68535135D01*
X49728342Y-68535135D01*
X49728342Y-68947027D01*
X48166310Y-68947027D01*
X48166310Y-70045405D01*
X50000000Y-70045405D01*
X50000000Y-70457297D01*
X47622995Y-70457297D01*
X47622995Y-67162162D01*
X49864171Y-67162162D01*
X49864171Y-67574054D01*
G36*
X55772728Y-70045405D02*
G01*
X57266845Y-70045405D01*
X57266845Y-70457297D01*
X55229412Y-70457297D01*
X55229412Y-67162162D01*
X55772728Y-67162162D01*
X55772728Y-70045405D01*
G37*
X55772728Y-70045405D02*
X57266845Y-70045405D01*
X57266845Y-70457297D01*
X55229412Y-70457297D01*
X55229412Y-67162162D01*
X55772728Y-67162162D01*
X55772728Y-70045405D01*
G36*
X64126203Y-67574054D02*
G01*
X62428342Y-67574054D01*
X62428342Y-68535135D01*
X63990375Y-68535135D01*
X63990375Y-68947027D01*
X62428342Y-68947027D01*
X62428342Y-70045405D01*
X64262032Y-70045405D01*
X64262032Y-70457297D01*
X61885027Y-70457297D01*
X61885027Y-67162162D01*
X64126203Y-67162162D01*
X64126203Y-67574054D01*
G37*
X64126203Y-67574054D02*
X62428342Y-67574054D01*
X62428342Y-68535135D01*
X63990375Y-68535135D01*
X63990375Y-68947027D01*
X62428342Y-68947027D01*
X62428342Y-70045405D01*
X64262032Y-70045405D01*
X64262032Y-70457297D01*
X61885027Y-70457297D01*
X61885027Y-67162162D01*
X64126203Y-67162162D01*
X64126203Y-67574054D01*
G36*
X71049361Y-67186216D02*
G01*
X71053476Y-67192872D01*
X71030976Y-67265392D01*
X70967688Y-67448904D01*
X70869929Y-67725624D01*
X70744018Y-68077767D01*
X70596271Y-68487549D01*
X70466722Y-68844584D01*
X69879967Y-70457297D01*
X69622671Y-70457297D01*
X69478653Y-70450589D01*
X69386746Y-70410361D01*
X69316075Y-70306456D01*
X69235766Y-70108719D01*
X69218548Y-70062567D01*
X69096206Y-69730902D01*
X68958718Y-69353632D01*
X68813592Y-68951866D01*
X68668331Y-68546712D01*
X68530441Y-68159280D01*
X68407427Y-67810679D01*
X68306794Y-67522017D01*
X68236047Y-67314403D01*
X68202692Y-67208947D01*
X68201070Y-67200796D01*
X68260716Y-67175661D01*
X68408641Y-67172094D01*
X68454648Y-67175180D01*
X68708226Y-67196486D01*
X69150771Y-68586537D01*
X69283018Y-68997126D01*
X69402685Y-69359567D01*
X69503255Y-69654858D01*
X69578209Y-69863993D01*
X69621032Y-69967968D01*
X69627273Y-69975999D01*
X69657164Y-69913546D01*
X69721551Y-69739233D01*
X69813908Y-69472086D01*
X69927704Y-69131130D01*
X70056413Y-68735389D01*
X70104258Y-68585948D01*
X70547285Y-67196486D01*
X70800381Y-67175180D01*
X70963171Y-67170672D01*
X71049361Y-67186216D01*
G37*
X71049361Y-67186216D02*
X71053476Y-67192872D01*
X71030976Y-67265392D01*
X70967688Y-67448904D01*
X70869929Y-67725624D01*
X70744018Y-68077767D01*
X70596271Y-68487549D01*
X70466722Y-68844584D01*
X69879967Y-70457297D01*
X69622671Y-70457297D01*
X69478653Y-70450589D01*
X69386746Y-70410361D01*
X69316075Y-70306456D01*
X69235766Y-70108719D01*
X69218548Y-70062567D01*
X69096206Y-69730902D01*
X68958718Y-69353632D01*
X68813592Y-68951866D01*
X68668331Y-68546712D01*
X68530441Y-68159280D01*
X68407427Y-67810679D01*
X68306794Y-67522017D01*
X68236047Y-67314403D01*
X68202692Y-67208947D01*
X68201070Y-67200796D01*
X68260716Y-67175661D01*
X68408641Y-67172094D01*
X68454648Y-67175180D01*
X68708226Y-67196486D01*
X69150771Y-68586537D01*
X69283018Y-68997126D01*
X69402685Y-69359567D01*
X69503255Y-69654858D01*
X69578209Y-69863993D01*
X69621032Y-69967968D01*
X69627273Y-69975999D01*
X69657164Y-69913546D01*
X69721551Y-69739233D01*
X69813908Y-69472086D01*
X69927704Y-69131130D01*
X70056413Y-68735389D01*
X70104258Y-68585948D01*
X70547285Y-67196486D01*
X70800381Y-67175180D01*
X70963171Y-67170672D01*
X71049361Y-67186216D01*
G36*
X78048663Y-67574054D02*
G01*
X76350802Y-67574054D01*
X76350802Y-68535135D01*
X77912834Y-68535135D01*
X77912834Y-68947027D01*
X76350802Y-68947027D01*
X76350802Y-70045405D01*
X78184492Y-70045405D01*
X78184492Y-70457297D01*
X75807487Y-70457297D01*
X75807487Y-67162162D01*
X78048663Y-67162162D01*
X78048663Y-67574054D01*
G37*
X78048663Y-67574054D02*
X76350802Y-67574054D01*
X76350802Y-68535135D01*
X77912834Y-68535135D01*
X77912834Y-68947027D01*
X76350802Y-68947027D01*
X76350802Y-70045405D01*
X78184492Y-70045405D01*
X78184492Y-70457297D01*
X75807487Y-70457297D01*
X75807487Y-67162162D01*
X78048663Y-67162162D01*
X78048663Y-67574054D01*
G36*
X82919694Y-67175563D02*
G01*
X83240457Y-67196486D01*
X84100257Y-68455029D01*
X84352518Y-68823130D01*
X84580857Y-69154150D01*
X84773364Y-69431000D01*
X84918130Y-69636589D01*
X85003245Y-69753829D01*
X85018933Y-69773230D01*
X85036593Y-69727499D01*
X85049934Y-69562484D01*
X85058404Y-69296142D01*
X85061453Y-68946434D01*
X85058530Y-68531319D01*
X85058047Y-68497525D01*
X85038286Y-67162162D01*
X85519252Y-67162162D01*
X85519252Y-70464820D01*
X85199602Y-70443896D01*
X84879953Y-70422973D01*
X83977143Y-69089875D01*
X83074332Y-67756778D01*
X83074332Y-70457297D01*
X82598931Y-70457297D01*
X82598931Y-67154639D01*
X82919694Y-67175563D01*
G37*
X82919694Y-67175563D02*
X83240457Y-67196486D01*
X84100257Y-68455029D01*
X84352518Y-68823130D01*
X84580857Y-69154150D01*
X84773364Y-69431000D01*
X84918130Y-69636589D01*
X85003245Y-69753829D01*
X85018933Y-69773230D01*
X85036593Y-69727499D01*
X85049934Y-69562484D01*
X85058404Y-69296142D01*
X85061453Y-68946434D01*
X85058530Y-68531319D01*
X85058047Y-68497525D01*
X85038286Y-67162162D01*
X85519252Y-67162162D01*
X85519252Y-70464820D01*
X85199602Y-70443896D01*
X84879953Y-70422973D01*
X83977143Y-69089875D01*
X83074332Y-67756778D01*
X83074332Y-70457297D01*
X82598931Y-70457297D01*
X82598931Y-67154639D01*
X82919694Y-67175563D01*
G36*
X22686048Y-59697896D02*
G01*
X23049820Y-59855085D01*
X23330671Y-60085944D01*
X23527126Y-60356820D01*
X23648655Y-60661780D01*
X23706477Y-61037035D01*
X23715242Y-61327027D01*
X23668647Y-61766045D01*
X23540549Y-62168571D01*
X23345162Y-62491482D01*
X23322870Y-62517286D01*
X23083377Y-62701488D01*
X22755290Y-62842972D01*
X22382111Y-62930990D01*
X22007341Y-62954796D01*
X21713637Y-62914853D01*
X21313746Y-62760880D01*
X21015463Y-62528090D01*
X20798571Y-62198387D01*
X20729572Y-62033955D01*
X20611828Y-61550862D01*
X20606789Y-61259449D01*
X21136618Y-61259449D01*
X21165233Y-61681137D01*
X21259046Y-62003761D01*
X21429302Y-62254260D01*
X21618666Y-62414318D01*
X21780423Y-62508401D01*
X21946467Y-62550069D01*
X22174009Y-62551304D01*
X22249816Y-62546516D01*
X22491045Y-62520006D01*
X22651858Y-62466651D01*
X22787646Y-62362032D01*
X22873937Y-62271362D01*
X23086041Y-61942404D01*
X23204412Y-61550761D01*
X23224815Y-61137025D01*
X23143015Y-60741789D01*
X23053698Y-60548337D01*
X22823765Y-60270209D01*
X22533453Y-60095294D01*
X22210705Y-60024039D01*
X21883463Y-60056892D01*
X21579669Y-60194302D01*
X21327267Y-60436715D01*
X21271826Y-60519778D01*
X21193118Y-60693232D01*
X21150702Y-60912349D01*
X21136750Y-61219946D01*
X21136618Y-61259449D01*
X20606789Y-61259449D01*
X20603353Y-61060756D01*
X20701248Y-60597458D01*
X20885023Y-60220573D01*
X21144414Y-59946973D01*
X21483743Y-59756280D01*
X21873479Y-59650119D01*
X22284091Y-59630116D01*
X22686048Y-59697896D01*
G37*
X22686048Y-59697896D02*
X23049820Y-59855085D01*
X23330671Y-60085944D01*
X23527126Y-60356820D01*
X23648655Y-60661780D01*
X23706477Y-61037035D01*
X23715242Y-61327027D01*
X23668647Y-61766045D01*
X23540549Y-62168571D01*
X23345162Y-62491482D01*
X23322870Y-62517286D01*
X23083377Y-62701488D01*
X22755290Y-62842972D01*
X22382111Y-62930990D01*
X22007341Y-62954796D01*
X21713637Y-62914853D01*
X21313746Y-62760880D01*
X21015463Y-62528090D01*
X20798571Y-62198387D01*
X20729572Y-62033955D01*
X20611828Y-61550862D01*
X20606789Y-61259449D01*
X21136618Y-61259449D01*
X21165233Y-61681137D01*
X21259046Y-62003761D01*
X21429302Y-62254260D01*
X21618666Y-62414318D01*
X21780423Y-62508401D01*
X21946467Y-62550069D01*
X22174009Y-62551304D01*
X22249816Y-62546516D01*
X22491045Y-62520006D01*
X22651858Y-62466651D01*
X22787646Y-62362032D01*
X22873937Y-62271362D01*
X23086041Y-61942404D01*
X23204412Y-61550761D01*
X23224815Y-61137025D01*
X23143015Y-60741789D01*
X23053698Y-60548337D01*
X22823765Y-60270209D01*
X22533453Y-60095294D01*
X22210705Y-60024039D01*
X21883463Y-60056892D01*
X21579669Y-60194302D01*
X21327267Y-60436715D01*
X21271826Y-60519778D01*
X21193118Y-60693232D01*
X21150702Y-60912349D01*
X21136750Y-61219946D01*
X21136618Y-61259449D01*
X20606789Y-61259449D01*
X20603353Y-61060756D01*
X20701248Y-60597458D01*
X20885023Y-60220573D01*
X21144414Y-59946973D01*
X21483743Y-59756280D01*
X21873479Y-59650119D01*
X22284091Y-59630116D01*
X22686048Y-59697896D01*
G36*
X28267380Y-60818732D02*
G01*
X28269378Y-61273748D01*
X28276521Y-61612865D01*
X28290531Y-61857436D01*
X28313133Y-62028816D01*
X28346050Y-62148358D01*
X28380476Y-62220180D01*
X28571377Y-62424948D01*
X28827739Y-62538786D01*
X29114724Y-62563348D01*
X29397492Y-62500287D01*
X29641206Y-62351257D01*
X29794305Y-62153058D01*
X29834742Y-62042020D01*
X29863738Y-61877858D01*
X29882812Y-61640364D01*
X29893479Y-61309329D01*
X29897259Y-60864545D01*
X29897326Y-60781247D01*
X29897326Y-59610811D01*
X30440642Y-59610811D01*
X30440642Y-60678790D01*
X30435598Y-61076073D01*
X30421721Y-61450416D01*
X30400890Y-61768500D01*
X30374987Y-61997005D01*
X30362714Y-62059597D01*
X30211775Y-62404725D01*
X29961269Y-62675780D01*
X29631358Y-62863524D01*
X29242204Y-62958721D01*
X28813970Y-62952131D01*
X28541519Y-62893994D01*
X28291695Y-62805266D01*
X28097357Y-62690099D01*
X27951876Y-62531598D01*
X27848623Y-62312870D01*
X27780968Y-62017020D01*
X27742282Y-61627156D01*
X27725936Y-61126383D01*
X27724064Y-60810773D01*
X27724064Y-59610811D01*
X28267380Y-59610811D01*
X28267380Y-60818732D01*
G37*
X28267380Y-60818732D02*
X28269378Y-61273748D01*
X28276521Y-61612865D01*
X28290531Y-61857436D01*
X28313133Y-62028816D01*
X28346050Y-62148358D01*
X28380476Y-62220180D01*
X28571377Y-62424948D01*
X28827739Y-62538786D01*
X29114724Y-62563348D01*
X29397492Y-62500287D01*
X29641206Y-62351257D01*
X29794305Y-62153058D01*
X29834742Y-62042020D01*
X29863738Y-61877858D01*
X29882812Y-61640364D01*
X29893479Y-61309329D01*
X29897259Y-60864545D01*
X29897326Y-60781247D01*
X29897326Y-59610811D01*
X30440642Y-59610811D01*
X30440642Y-60678790D01*
X30435598Y-61076073D01*
X30421721Y-61450416D01*
X30400890Y-61768500D01*
X30374987Y-61997005D01*
X30362714Y-62059597D01*
X30211775Y-62404725D01*
X29961269Y-62675780D01*
X29631358Y-62863524D01*
X29242204Y-62958721D01*
X28813970Y-62952131D01*
X28541519Y-62893994D01*
X28291695Y-62805266D01*
X28097357Y-62690099D01*
X27951876Y-62531598D01*
X27848623Y-62312870D01*
X27780968Y-62017020D01*
X27742282Y-61627156D01*
X27725936Y-61126383D01*
X27724064Y-60810773D01*
X27724064Y-59610811D01*
X28267380Y-59610811D01*
X28267380Y-60818732D01*
G36*
X84556102Y-59697896D02*
G01*
X84919873Y-59855085D01*
X85200724Y-60085944D01*
X85397180Y-60356820D01*
X85518708Y-60661780D01*
X85576530Y-61037035D01*
X85585296Y-61327027D01*
X85538701Y-61766045D01*
X85410602Y-62168571D01*
X85215215Y-62491482D01*
X85192924Y-62517286D01*
X84953431Y-62701488D01*
X84625344Y-62842972D01*
X84252165Y-62930990D01*
X83877395Y-62954796D01*
X83583690Y-62914853D01*
X83183799Y-62760880D01*
X82885516Y-62528090D01*
X82668625Y-62198387D01*
X82599625Y-62033955D01*
X82481881Y-61550862D01*
X82476843Y-61259449D01*
X83006671Y-61259449D01*
X83035286Y-61681137D01*
X83129100Y-62003761D01*
X83299355Y-62254260D01*
X83488719Y-62414318D01*
X83650476Y-62508401D01*
X83816521Y-62550069D01*
X84044062Y-62551304D01*
X84119869Y-62546516D01*
X84361099Y-62520006D01*
X84521912Y-62466651D01*
X84657700Y-62362032D01*
X84743991Y-62271362D01*
X84956095Y-61942404D01*
X85074465Y-61550761D01*
X85094868Y-61137025D01*
X85013068Y-60741789D01*
X84923752Y-60548337D01*
X84693819Y-60270209D01*
X84403507Y-60095294D01*
X84080758Y-60024039D01*
X83753516Y-60056892D01*
X83449723Y-60194302D01*
X83197321Y-60436715D01*
X83141879Y-60519778D01*
X83063172Y-60693232D01*
X83020755Y-60912349D01*
X83006804Y-61219946D01*
X83006671Y-61259449D01*
X82476843Y-61259449D01*
X82473407Y-61060756D01*
X82571302Y-60597458D01*
X82755077Y-60220573D01*
X83014468Y-59946973D01*
X83353796Y-59756280D01*
X83743532Y-59650119D01*
X84154144Y-59630116D01*
X84556102Y-59697896D01*
G37*
X84556102Y-59697896D02*
X84919873Y-59855085D01*
X85200724Y-60085944D01*
X85397180Y-60356820D01*
X85518708Y-60661780D01*
X85576530Y-61037035D01*
X85585296Y-61327027D01*
X85538701Y-61766045D01*
X85410602Y-62168571D01*
X85215215Y-62491482D01*
X85192924Y-62517286D01*
X84953431Y-62701488D01*
X84625344Y-62842972D01*
X84252165Y-62930990D01*
X83877395Y-62954796D01*
X83583690Y-62914853D01*
X83183799Y-62760880D01*
X82885516Y-62528090D01*
X82668625Y-62198387D01*
X82599625Y-62033955D01*
X82481881Y-61550862D01*
X82476843Y-61259449D01*
X83006671Y-61259449D01*
X83035286Y-61681137D01*
X83129100Y-62003761D01*
X83299355Y-62254260D01*
X83488719Y-62414318D01*
X83650476Y-62508401D01*
X83816521Y-62550069D01*
X84044062Y-62551304D01*
X84119869Y-62546516D01*
X84361099Y-62520006D01*
X84521912Y-62466651D01*
X84657700Y-62362032D01*
X84743991Y-62271362D01*
X84956095Y-61942404D01*
X85074465Y-61550761D01*
X85094868Y-61137025D01*
X85013068Y-60741789D01*
X84923752Y-60548337D01*
X84693819Y-60270209D01*
X84403507Y-60095294D01*
X84080758Y-60024039D01*
X83753516Y-60056892D01*
X83449723Y-60194302D01*
X83197321Y-60436715D01*
X83141879Y-60519778D01*
X83063172Y-60693232D01*
X83020755Y-60912349D01*
X83006804Y-61219946D01*
X83006671Y-61259449D01*
X82476843Y-61259449D01*
X82473407Y-61060756D01*
X82571302Y-60597458D01*
X82755077Y-60220573D01*
X83014468Y-59946973D01*
X83353796Y-59756280D01*
X83743532Y-59650119D01*
X84154144Y-59630116D01*
X84556102Y-59697896D01*
G36*
X16450268Y-60022702D02*
G01*
X14888236Y-60022702D01*
X14888236Y-61189729D01*
X16382353Y-61189729D01*
X16382353Y-61601621D01*
X14888236Y-61601621D01*
X14888236Y-62905946D01*
X14344920Y-62905946D01*
X14344920Y-59610811D01*
X16450268Y-59610811D01*
X16450268Y-60022702D01*
G37*
X16450268Y-60022702D02*
X14888236Y-60022702D01*
X14888236Y-61189729D01*
X16382353Y-61189729D01*
X16382353Y-61601621D01*
X14888236Y-61601621D01*
X14888236Y-62905946D01*
X14344920Y-62905946D01*
X14344920Y-59610811D01*
X16450268Y-59610811D01*
X16450268Y-60022702D01*
G36*
X35177674Y-59623100D02*
G01*
X35629353Y-59645170D01*
X35968513Y-59685062D01*
X36218047Y-59749884D01*
X36400851Y-59846744D01*
X36539820Y-59982748D01*
X36597578Y-60063867D01*
X36686588Y-60304670D01*
X36704506Y-60603547D01*
X36651252Y-60901532D01*
X36598899Y-61029843D01*
X36435145Y-61229106D01*
X36222558Y-61365498D01*
X35958024Y-61483472D01*
X36391312Y-62158385D01*
X36561079Y-62425745D01*
X36699635Y-62649512D01*
X36792336Y-62805650D01*
X36824599Y-62869622D01*
X36764352Y-62892537D01*
X36614155Y-62905118D01*
X36557514Y-62905946D01*
X36440229Y-62902183D01*
X36349374Y-62877457D01*
X36264885Y-62811615D01*
X36166700Y-62684502D01*
X36034753Y-62475962D01*
X35891204Y-62236621D01*
X35491978Y-61567297D01*
X35173529Y-61546374D01*
X34855080Y-61525450D01*
X34855080Y-62905946D01*
X34311765Y-62905946D01*
X34311765Y-61121081D01*
X34855080Y-61121081D01*
X35299897Y-61121081D01*
X35605252Y-61102480D01*
X35854581Y-61052268D01*
X35944100Y-61016859D01*
X36119541Y-60858374D01*
X36199749Y-60643944D01*
X36184888Y-60415244D01*
X36075118Y-60213946D01*
X35940584Y-60110984D01*
X35785626Y-60065991D01*
X35549295Y-60034413D01*
X35313503Y-60023714D01*
X34855080Y-60022702D01*
X34855080Y-61121081D01*
X34311765Y-61121081D01*
X34311765Y-59597023D01*
X35177674Y-59623100D01*
G37*
X35177674Y-59623100D02*
X35629353Y-59645170D01*
X35968513Y-59685062D01*
X36218047Y-59749884D01*
X36400851Y-59846744D01*
X36539820Y-59982748D01*
X36597578Y-60063867D01*
X36686588Y-60304670D01*
X36704506Y-60603547D01*
X36651252Y-60901532D01*
X36598899Y-61029843D01*
X36435145Y-61229106D01*
X36222558Y-61365498D01*
X35958024Y-61483472D01*
X36391312Y-62158385D01*
X36561079Y-62425745D01*
X36699635Y-62649512D01*
X36792336Y-62805650D01*
X36824599Y-62869622D01*
X36764352Y-62892537D01*
X36614155Y-62905118D01*
X36557514Y-62905946D01*
X36440229Y-62902183D01*
X36349374Y-62877457D01*
X36264885Y-62811615D01*
X36166700Y-62684502D01*
X36034753Y-62475962D01*
X35891204Y-62236621D01*
X35491978Y-61567297D01*
X35173529Y-61546374D01*
X34855080Y-61525450D01*
X34855080Y-62905946D01*
X34311765Y-62905946D01*
X34311765Y-61121081D01*
X34855080Y-61121081D01*
X35299897Y-61121081D01*
X35605252Y-61102480D01*
X35854581Y-61052268D01*
X35944100Y-61016859D01*
X36119541Y-60858374D01*
X36199749Y-60643944D01*
X36184888Y-60415244D01*
X36075118Y-60213946D01*
X35940584Y-60110984D01*
X35785626Y-60065991D01*
X35549295Y-60034413D01*
X35313503Y-60023714D01*
X34855080Y-60022702D01*
X34855080Y-61121081D01*
X34311765Y-61121081D01*
X34311765Y-59597023D01*
X35177674Y-59623100D01*
G36*
X43004813Y-60022702D02*
G01*
X41442781Y-60022702D01*
X41442781Y-61189729D01*
X42936899Y-61189729D01*
X42936899Y-61601621D01*
X41442781Y-61601621D01*
X41442781Y-62905946D01*
X40899465Y-62905946D01*
X40899465Y-59610811D01*
X43004813Y-59610811D01*
X43004813Y-60022702D01*
G37*
X43004813Y-60022702D02*
X41442781Y-60022702D01*
X41442781Y-61189729D01*
X42936899Y-61189729D01*
X42936899Y-61601621D01*
X41442781Y-61601621D01*
X41442781Y-62905946D01*
X40899465Y-62905946D01*
X40899465Y-59610811D01*
X43004813Y-59610811D01*
X43004813Y-60022702D01*
G36*
X48981284Y-62905946D02*
G01*
X48437968Y-62905946D01*
X48437968Y-59610811D01*
X48981284Y-59610811D01*
X48981284Y-62905946D01*
G37*
X48981284Y-62905946D02*
X48437968Y-62905946D01*
X48437968Y-59610811D01*
X48981284Y-59610811D01*
X48981284Y-62905946D01*
G36*
X57534387Y-59634865D02*
G01*
X57538503Y-59641521D01*
X57516003Y-59714041D01*
X57452715Y-59897553D01*
X57354956Y-60174272D01*
X57229044Y-60526416D01*
X57081298Y-60936198D01*
X56951748Y-61293232D01*
X56364994Y-62905946D01*
X56107697Y-62905946D01*
X55963680Y-62899238D01*
X55871773Y-62859010D01*
X55801102Y-62755105D01*
X55720792Y-62557367D01*
X55703575Y-62511216D01*
X55581232Y-62179551D01*
X55443745Y-61802281D01*
X55298618Y-61400514D01*
X55153358Y-60995361D01*
X55015468Y-60607929D01*
X54892454Y-60259328D01*
X54791821Y-59970666D01*
X54721074Y-59763052D01*
X54687719Y-59657596D01*
X54686096Y-59649445D01*
X54745743Y-59624309D01*
X54893668Y-59620742D01*
X54939674Y-59623829D01*
X55193252Y-59645135D01*
X55635797Y-61035186D01*
X55768045Y-61445774D01*
X55887712Y-61808216D01*
X55988281Y-62103506D01*
X56063236Y-62312641D01*
X56106059Y-62416617D01*
X56112300Y-62424648D01*
X56142190Y-62362195D01*
X56206578Y-62187882D01*
X56298934Y-61920735D01*
X56412731Y-61579778D01*
X56541440Y-61184038D01*
X56589284Y-61034597D01*
X57032312Y-59645135D01*
X57285407Y-59623829D01*
X57448197Y-59619321D01*
X57534387Y-59634865D01*
G37*
X57534387Y-59634865D02*
X57538503Y-59641521D01*
X57516003Y-59714041D01*
X57452715Y-59897553D01*
X57354956Y-60174272D01*
X57229044Y-60526416D01*
X57081298Y-60936198D01*
X56951748Y-61293232D01*
X56364994Y-62905946D01*
X56107697Y-62905946D01*
X55963680Y-62899238D01*
X55871773Y-62859010D01*
X55801102Y-62755105D01*
X55720792Y-62557367D01*
X55703575Y-62511216D01*
X55581232Y-62179551D01*
X55443745Y-61802281D01*
X55298618Y-61400514D01*
X55153358Y-60995361D01*
X55015468Y-60607929D01*
X54892454Y-60259328D01*
X54791821Y-59970666D01*
X54721074Y-59763052D01*
X54687719Y-59657596D01*
X54686096Y-59649445D01*
X54745743Y-59624309D01*
X54893668Y-59620742D01*
X54939674Y-59623829D01*
X55193252Y-59645135D01*
X55635797Y-61035186D01*
X55768045Y-61445774D01*
X55887712Y-61808216D01*
X55988281Y-62103506D01*
X56063236Y-62312641D01*
X56106059Y-62416617D01*
X56112300Y-62424648D01*
X56142190Y-62362195D01*
X56206578Y-62187882D01*
X56298934Y-61920735D01*
X56412731Y-61579778D01*
X56541440Y-61184038D01*
X56589284Y-61034597D01*
X57032312Y-59645135D01*
X57285407Y-59623829D01*
X57448197Y-59619321D01*
X57534387Y-59634865D01*
G36*
X64126203Y-60022702D02*
G01*
X62428342Y-60022702D01*
X62428342Y-60983784D01*
X63990375Y-60983784D01*
X63990375Y-61395675D01*
X62428342Y-61395675D01*
X62428342Y-62494054D01*
X64262032Y-62494054D01*
X64262032Y-62905946D01*
X61885027Y-62905946D01*
X61885027Y-59610811D01*
X64126203Y-59610811D01*
X64126203Y-60022702D01*
G37*
X64126203Y-60022702D02*
X62428342Y-60022702D01*
X62428342Y-60983784D01*
X63990375Y-60983784D01*
X63990375Y-61395675D01*
X62428342Y-61395675D01*
X62428342Y-62494054D01*
X64262032Y-62494054D01*
X64262032Y-62905946D01*
X61885027Y-62905946D01*
X61885027Y-59610811D01*
X64126203Y-59610811D01*
X64126203Y-60022702D01*
G36*
X71053476Y-60022702D02*
G01*
X69898931Y-60022702D01*
X69898931Y-62905946D01*
X69423530Y-62905946D01*
X69423530Y-60022702D01*
X68336899Y-60022702D01*
X68336899Y-59610811D01*
X71053476Y-59610811D01*
X71053476Y-60022702D01*
G37*
X71053476Y-60022702D02*
X69898931Y-60022702D01*
X69898931Y-62905946D01*
X69423530Y-62905946D01*
X69423530Y-60022702D01*
X68336899Y-60022702D01*
X68336899Y-59610811D01*
X71053476Y-59610811D01*
X71053476Y-60022702D01*
G36*
X77498389Y-60982462D02*
G01*
X77609109Y-61391336D01*
X77709497Y-61748816D01*
X77793945Y-62035992D01*
X77856840Y-62233954D01*
X77892575Y-62323792D01*
X77897210Y-62326784D01*
X77924459Y-62253585D01*
X77981594Y-62068519D01*
X78062608Y-61792137D01*
X78161495Y-61444987D01*
X78272248Y-61047621D01*
X78291172Y-60978923D01*
X78403206Y-60575410D01*
X78504228Y-60218857D01*
X78588259Y-59929778D01*
X78649319Y-59728690D01*
X78681430Y-59636108D01*
X78683533Y-59632681D01*
X78765126Y-59617516D01*
X78923983Y-59621470D01*
X78946498Y-59623418D01*
X79178814Y-59645135D01*
X78696112Y-61258378D01*
X78213409Y-62871621D01*
X77893335Y-62892545D01*
X77706018Y-62894290D01*
X77589878Y-62875183D01*
X77571499Y-62858221D01*
X77553836Y-62770882D01*
X77507009Y-62579078D01*
X77437693Y-62307746D01*
X77352562Y-61981821D01*
X77258292Y-61626242D01*
X77161557Y-61265944D01*
X77069033Y-60925864D01*
X76987395Y-60630939D01*
X76923317Y-60406106D01*
X76883475Y-60276302D01*
X76874586Y-60254671D01*
X76849132Y-60308229D01*
X76795602Y-60474604D01*
X76719878Y-60733675D01*
X76627844Y-61065323D01*
X76526352Y-61445719D01*
X76422374Y-61841982D01*
X76328689Y-62197917D01*
X76251513Y-62489988D01*
X76197064Y-62694662D01*
X76172311Y-62785811D01*
X76112067Y-62865534D01*
X75970178Y-62901044D01*
X75834736Y-62905946D01*
X75628532Y-62887439D01*
X75514107Y-62837711D01*
X75503326Y-62820135D01*
X75446566Y-62640690D01*
X75364797Y-62372954D01*
X75264579Y-62039317D01*
X75152470Y-61662168D01*
X75035030Y-61263901D01*
X74918817Y-60866904D01*
X74810391Y-60493568D01*
X74716310Y-60166285D01*
X74643133Y-59907445D01*
X74597420Y-59739439D01*
X74585027Y-59685278D01*
X74641919Y-59633677D01*
X74776000Y-59612873D01*
X74932377Y-59621639D01*
X75056154Y-59658751D01*
X75092850Y-59696621D01*
X75119001Y-59786972D01*
X75175156Y-59987797D01*
X75255259Y-60277200D01*
X75353251Y-60633287D01*
X75463074Y-61034162D01*
X75473366Y-61071819D01*
X75582949Y-61466633D01*
X75681428Y-61809767D01*
X75762924Y-62081675D01*
X75821558Y-62262812D01*
X75851447Y-62333631D01*
X75852979Y-62333656D01*
X75878313Y-62262003D01*
X75933142Y-62078127D01*
X76011683Y-61802388D01*
X76108152Y-61455150D01*
X76216767Y-61056774D01*
X76238666Y-60975620D01*
X76597098Y-59645135D01*
X76864458Y-59625338D01*
X77131818Y-59605540D01*
X77498389Y-60982462D01*
G37*
X77498389Y-60982462D02*
X77609109Y-61391336D01*
X77709497Y-61748816D01*
X77793945Y-62035992D01*
X77856840Y-62233954D01*
X77892575Y-62323792D01*
X77897210Y-62326784D01*
X77924459Y-62253585D01*
X77981594Y-62068519D01*
X78062608Y-61792137D01*
X78161495Y-61444987D01*
X78272248Y-61047621D01*
X78291172Y-60978923D01*
X78403206Y-60575410D01*
X78504228Y-60218857D01*
X78588259Y-59929778D01*
X78649319Y-59728690D01*
X78681430Y-59636108D01*
X78683533Y-59632681D01*
X78765126Y-59617516D01*
X78923983Y-59621470D01*
X78946498Y-59623418D01*
X79178814Y-59645135D01*
X78696112Y-61258378D01*
X78213409Y-62871621D01*
X77893335Y-62892545D01*
X77706018Y-62894290D01*
X77589878Y-62875183D01*
X77571499Y-62858221D01*
X77553836Y-62770882D01*
X77507009Y-62579078D01*
X77437693Y-62307746D01*
X77352562Y-61981821D01*
X77258292Y-61626242D01*
X77161557Y-61265944D01*
X77069033Y-60925864D01*
X76987395Y-60630939D01*
X76923317Y-60406106D01*
X76883475Y-60276302D01*
X76874586Y-60254671D01*
X76849132Y-60308229D01*
X76795602Y-60474604D01*
X76719878Y-60733675D01*
X76627844Y-61065323D01*
X76526352Y-61445719D01*
X76422374Y-61841982D01*
X76328689Y-62197917D01*
X76251513Y-62489988D01*
X76197064Y-62694662D01*
X76172311Y-62785811D01*
X76112067Y-62865534D01*
X75970178Y-62901044D01*
X75834736Y-62905946D01*
X75628532Y-62887439D01*
X75514107Y-62837711D01*
X75503326Y-62820135D01*
X75446566Y-62640690D01*
X75364797Y-62372954D01*
X75264579Y-62039317D01*
X75152470Y-61662168D01*
X75035030Y-61263901D01*
X74918817Y-60866904D01*
X74810391Y-60493568D01*
X74716310Y-60166285D01*
X74643133Y-59907445D01*
X74597420Y-59739439D01*
X74585027Y-59685278D01*
X74641919Y-59633677D01*
X74776000Y-59612873D01*
X74932377Y-59621639D01*
X75056154Y-59658751D01*
X75092850Y-59696621D01*
X75119001Y-59786972D01*
X75175156Y-59987797D01*
X75255259Y-60277200D01*
X75353251Y-60633287D01*
X75463074Y-61034162D01*
X75473366Y-61071819D01*
X75582949Y-61466633D01*
X75681428Y-61809767D01*
X75762924Y-62081675D01*
X75821558Y-62262812D01*
X75851447Y-62333631D01*
X75852979Y-62333656D01*
X75878313Y-62262003D01*
X75933142Y-62078127D01*
X76011683Y-61802388D01*
X76108152Y-61455150D01*
X76216767Y-61056774D01*
X76238666Y-60975620D01*
X76597098Y-59645135D01*
X76864458Y-59625338D01*
X77131818Y-59605540D01*
X77498389Y-60982462D01*
G36*
X15826690Y-52077896D02*
G01*
X16190461Y-52235085D01*
X16471312Y-52465944D01*
X16667768Y-52736820D01*
X16789297Y-53041780D01*
X16847119Y-53417035D01*
X16855884Y-53707027D01*
X16809289Y-54146045D01*
X16681191Y-54548571D01*
X16485803Y-54871482D01*
X16463512Y-54897286D01*
X16224019Y-55081488D01*
X15895932Y-55222972D01*
X15522753Y-55310990D01*
X15147983Y-55334796D01*
X14854278Y-55294853D01*
X14454387Y-55140880D01*
X14156104Y-54908090D01*
X13939213Y-54578387D01*
X13870213Y-54413955D01*
X13752470Y-53930862D01*
X13747431Y-53639449D01*
X14277259Y-53639449D01*
X14305874Y-54061137D01*
X14399688Y-54383761D01*
X14569943Y-54634260D01*
X14759308Y-54794318D01*
X14921065Y-54888401D01*
X15087109Y-54930069D01*
X15314651Y-54931304D01*
X15390458Y-54926516D01*
X15631687Y-54900006D01*
X15792500Y-54846651D01*
X15928288Y-54742032D01*
X16014579Y-54651362D01*
X16226683Y-54322404D01*
X16345054Y-53930761D01*
X16365457Y-53517025D01*
X16283656Y-53121789D01*
X16194340Y-52928337D01*
X15964407Y-52650209D01*
X15674095Y-52475294D01*
X15351347Y-52404039D01*
X15024104Y-52436892D01*
X14720311Y-52574302D01*
X14467909Y-52816715D01*
X14412468Y-52899778D01*
X14333760Y-53073232D01*
X14291343Y-53292349D01*
X14277392Y-53599946D01*
X14277259Y-53639449D01*
X13747431Y-53639449D01*
X13743995Y-53440756D01*
X13841890Y-52977458D01*
X14025665Y-52600573D01*
X14285056Y-52326973D01*
X14624385Y-52136280D01*
X15014121Y-52030119D01*
X15424733Y-52010116D01*
X15826690Y-52077896D01*
G37*
X15826690Y-52077896D02*
X16190461Y-52235085D01*
X16471312Y-52465944D01*
X16667768Y-52736820D01*
X16789297Y-53041780D01*
X16847119Y-53417035D01*
X16855884Y-53707027D01*
X16809289Y-54146045D01*
X16681191Y-54548571D01*
X16485803Y-54871482D01*
X16463512Y-54897286D01*
X16224019Y-55081488D01*
X15895932Y-55222972D01*
X15522753Y-55310990D01*
X15147983Y-55334796D01*
X14854278Y-55294853D01*
X14454387Y-55140880D01*
X14156104Y-54908090D01*
X13939213Y-54578387D01*
X13870213Y-54413955D01*
X13752470Y-53930862D01*
X13747431Y-53639449D01*
X14277259Y-53639449D01*
X14305874Y-54061137D01*
X14399688Y-54383761D01*
X14569943Y-54634260D01*
X14759308Y-54794318D01*
X14921065Y-54888401D01*
X15087109Y-54930069D01*
X15314651Y-54931304D01*
X15390458Y-54926516D01*
X15631687Y-54900006D01*
X15792500Y-54846651D01*
X15928288Y-54742032D01*
X16014579Y-54651362D01*
X16226683Y-54322404D01*
X16345054Y-53930761D01*
X16365457Y-53517025D01*
X16283656Y-53121789D01*
X16194340Y-52928337D01*
X15964407Y-52650209D01*
X15674095Y-52475294D01*
X15351347Y-52404039D01*
X15024104Y-52436892D01*
X14720311Y-52574302D01*
X14467909Y-52816715D01*
X14412468Y-52899778D01*
X14333760Y-53073232D01*
X14291343Y-53292349D01*
X14277392Y-53599946D01*
X14277259Y-53639449D01*
X13747431Y-53639449D01*
X13743995Y-53440756D01*
X13841890Y-52977458D01*
X14025665Y-52600573D01*
X14285056Y-52326973D01*
X14624385Y-52136280D01*
X15014121Y-52030119D01*
X15424733Y-52010116D01*
X15826690Y-52077896D01*
G36*
X35917919Y-52055687D02*
G01*
X36227010Y-52135207D01*
X36446591Y-52277140D01*
X36585749Y-52469104D01*
X36664206Y-52630770D01*
X36667644Y-52710504D01*
X36580415Y-52749863D01*
X36471416Y-52772724D01*
X36299509Y-52783752D01*
X36175542Y-52710087D01*
X36112527Y-52637243D01*
X35957943Y-52502932D01*
X35735926Y-52433039D01*
X35654778Y-52421795D01*
X35291789Y-52416171D01*
X35019594Y-52488337D01*
X34848093Y-52633394D01*
X34787188Y-52846443D01*
X34787166Y-52851148D01*
X34828676Y-53019289D01*
X34962061Y-53161478D01*
X35200601Y-53286313D01*
X35557579Y-53402391D01*
X35693358Y-53437689D01*
X36022353Y-53527699D01*
X36252794Y-53614205D01*
X36420569Y-53713255D01*
X36535963Y-53814494D01*
X36675058Y-53976284D01*
X36739821Y-54134166D01*
X36756623Y-54355394D01*
X36756685Y-54377390D01*
X36704242Y-54722323D01*
X36541687Y-54989981D01*
X36270193Y-55188770D01*
X36065273Y-55256409D01*
X35776718Y-55304018D01*
X35455793Y-55327603D01*
X35153762Y-55323172D01*
X34941675Y-55292247D01*
X34576618Y-55133866D01*
X34300397Y-54873565D01*
X34240749Y-54784513D01*
X34108304Y-54565135D01*
X34341677Y-54507830D01*
X34500676Y-54482720D01*
X34615812Y-54520415D01*
X34744930Y-54642964D01*
X34770035Y-54671109D01*
X34925627Y-54815879D01*
X35100389Y-54892284D01*
X35313853Y-54925574D01*
X35671572Y-54934837D01*
X35935442Y-54877844D01*
X36133908Y-54748091D01*
X36147182Y-54735010D01*
X36269972Y-54536143D01*
X36269225Y-54332621D01*
X36155079Y-54144162D01*
X35937669Y-53990485D01*
X35724572Y-53912881D01*
X35248156Y-53781573D01*
X34889840Y-53661293D01*
X34633715Y-53540677D01*
X34463871Y-53408362D01*
X34364399Y-53252986D01*
X34319388Y-53063184D01*
X34311765Y-52903798D01*
X34354192Y-52573449D01*
X34486790Y-52326841D01*
X34717535Y-52158118D01*
X35054402Y-52061421D01*
X35500268Y-52030890D01*
X35917919Y-52055687D01*
G37*
X35917919Y-52055687D02*
X36227010Y-52135207D01*
X36446591Y-52277140D01*
X36585749Y-52469104D01*
X36664206Y-52630770D01*
X36667644Y-52710504D01*
X36580415Y-52749863D01*
X36471416Y-52772724D01*
X36299509Y-52783752D01*
X36175542Y-52710087D01*
X36112527Y-52637243D01*
X35957943Y-52502932D01*
X35735926Y-52433039D01*
X35654778Y-52421795D01*
X35291789Y-52416171D01*
X35019594Y-52488337D01*
X34848093Y-52633394D01*
X34787188Y-52846443D01*
X34787166Y-52851148D01*
X34828676Y-53019289D01*
X34962061Y-53161478D01*
X35200601Y-53286313D01*
X35557579Y-53402391D01*
X35693358Y-53437689D01*
X36022353Y-53527699D01*
X36252794Y-53614205D01*
X36420569Y-53713255D01*
X36535963Y-53814494D01*
X36675058Y-53976284D01*
X36739821Y-54134166D01*
X36756623Y-54355394D01*
X36756685Y-54377390D01*
X36704242Y-54722323D01*
X36541687Y-54989981D01*
X36270193Y-55188770D01*
X36065273Y-55256409D01*
X35776718Y-55304018D01*
X35455793Y-55327603D01*
X35153762Y-55323172D01*
X34941675Y-55292247D01*
X34576618Y-55133866D01*
X34300397Y-54873565D01*
X34240749Y-54784513D01*
X34108304Y-54565135D01*
X34341677Y-54507830D01*
X34500676Y-54482720D01*
X34615812Y-54520415D01*
X34744930Y-54642964D01*
X34770035Y-54671109D01*
X34925627Y-54815879D01*
X35100389Y-54892284D01*
X35313853Y-54925574D01*
X35671572Y-54934837D01*
X35935442Y-54877844D01*
X36133908Y-54748091D01*
X36147182Y-54735010D01*
X36269972Y-54536143D01*
X36269225Y-54332621D01*
X36155079Y-54144162D01*
X35937669Y-53990485D01*
X35724572Y-53912881D01*
X35248156Y-53781573D01*
X34889840Y-53661293D01*
X34633715Y-53540677D01*
X34463871Y-53408362D01*
X34364399Y-53252986D01*
X34319388Y-53063184D01*
X34311765Y-52903798D01*
X34354192Y-52573449D01*
X34486790Y-52326841D01*
X34717535Y-52158118D01*
X35054402Y-52061421D01*
X35500268Y-52030890D01*
X35917919Y-52055687D01*
G36*
X21049640Y-52004211D02*
G01*
X21370403Y-52025135D01*
X22230204Y-53283677D01*
X22482464Y-53651779D01*
X22710803Y-53982799D01*
X22903311Y-54259649D01*
X23048077Y-54465238D01*
X23133191Y-54582477D01*
X23148879Y-54601879D01*
X23166540Y-54556148D01*
X23179881Y-54391132D01*
X23188351Y-54124791D01*
X23191399Y-53775083D01*
X23188476Y-53359968D01*
X23187993Y-53326174D01*
X23168232Y-51990811D01*
X23649198Y-51990811D01*
X23649198Y-55293468D01*
X23329549Y-55272545D01*
X23009900Y-55251621D01*
X21204278Y-52585427D01*
X21204278Y-55285946D01*
X20728877Y-55285946D01*
X20728877Y-51983288D01*
X21049640Y-52004211D01*
G37*
X21049640Y-52004211D02*
X21370403Y-52025135D01*
X22230204Y-53283677D01*
X22482464Y-53651779D01*
X22710803Y-53982799D01*
X22903311Y-54259649D01*
X23048077Y-54465238D01*
X23133191Y-54582477D01*
X23148879Y-54601879D01*
X23166540Y-54556148D01*
X23179881Y-54391132D01*
X23188351Y-54124791D01*
X23191399Y-53775083D01*
X23188476Y-53359968D01*
X23187993Y-53326174D01*
X23168232Y-51990811D01*
X23649198Y-51990811D01*
X23649198Y-55293468D01*
X23329549Y-55272545D01*
X23009900Y-55251621D01*
X21204278Y-52585427D01*
X21204278Y-55285946D01*
X20728877Y-55285946D01*
X20728877Y-51983288D01*
X21049640Y-52004211D01*
G36*
X30236899Y-52402702D02*
G01*
X28539038Y-52402702D01*
X28539038Y-53363784D01*
X30101070Y-53363784D01*
X30101070Y-53775675D01*
X28539038Y-53775675D01*
X28539038Y-54874054D01*
X30372728Y-54874054D01*
X30372728Y-55285946D01*
X27995722Y-55285946D01*
X27995722Y-51990811D01*
X30236899Y-51990811D01*
X30236899Y-52402702D01*
G37*
X30236899Y-52402702D02*
X28539038Y-52402702D01*
X28539038Y-53363784D01*
X30101070Y-53363784D01*
X30101070Y-53775675D01*
X28539038Y-53775675D01*
X28539038Y-54874054D01*
X30372728Y-54874054D01*
X30372728Y-55285946D01*
X27995722Y-55285946D01*
X27995722Y-51990811D01*
X30236899Y-51990811D01*
X30236899Y-52402702D01*
G36*
X42121925Y-55285946D02*
G01*
X41578610Y-55285946D01*
X41578610Y-51990811D01*
X42121925Y-51990811D01*
X42121925Y-55285946D01*
G37*
X42121925Y-55285946D02*
X41578610Y-55285946D01*
X41578610Y-51990811D01*
X42121925Y-51990811D01*
X42121925Y-55285946D01*
G36*
X47739823Y-51995970D02*
G01*
X47837487Y-52024960D01*
X47932315Y-52098047D01*
X48047481Y-52235495D01*
X48206156Y-52457573D01*
X48291970Y-52581858D01*
X48698818Y-53172906D01*
X49087946Y-52581858D01*
X49264995Y-52316459D01*
X49390774Y-52145389D01*
X49488191Y-52047960D01*
X49580158Y-52003489D01*
X49689583Y-51991288D01*
X49742545Y-51990811D01*
X49914504Y-52003489D01*
X49968771Y-52045802D01*
X49958878Y-52076621D01*
X49903211Y-52164139D01*
X49787507Y-52339774D01*
X49628465Y-52578354D01*
X49442786Y-52854708D01*
X49435553Y-52865432D01*
X48961367Y-53568432D01*
X49514641Y-54387029D01*
X49711312Y-54680651D01*
X49877180Y-54933311D01*
X49998597Y-55123824D01*
X50061913Y-55231006D01*
X50067915Y-55245786D01*
X50008150Y-55272372D01*
X49861265Y-55285614D01*
X49830840Y-55285946D01*
X49712635Y-55277112D01*
X49614746Y-55236074D01*
X49512458Y-55141025D01*
X49381057Y-54970159D01*
X49236589Y-54761612D01*
X49019121Y-54438477D01*
X48864633Y-54219589D01*
X48751155Y-54102062D01*
X48656717Y-54083009D01*
X48559349Y-54159545D01*
X48437082Y-54328785D01*
X48267944Y-54587842D01*
X48239579Y-54630656D01*
X48050353Y-54912180D01*
X47915317Y-55098766D01*
X47813629Y-55209924D01*
X47724445Y-55265161D01*
X47626921Y-55283986D01*
X47539448Y-55285946D01*
X47368169Y-55273176D01*
X47314618Y-55230578D01*
X47324536Y-55200135D01*
X47380058Y-55113426D01*
X47496454Y-54938177D01*
X47657381Y-54698804D01*
X47846496Y-54419721D01*
X47871859Y-54382444D01*
X48059054Y-54101385D01*
X48214148Y-53856989D01*
X48322444Y-53673271D01*
X48369245Y-53574248D01*
X48370054Y-53568366D01*
X48333211Y-53483952D01*
X48232396Y-53311162D01*
X48082177Y-53073636D01*
X47897124Y-52795014D01*
X47858618Y-52738490D01*
X47347183Y-51990811D01*
X47616152Y-51990811D01*
X47739823Y-51995970D01*
G37*
X47739823Y-51995970D02*
X47837487Y-52024960D01*
X47932315Y-52098047D01*
X48047481Y-52235495D01*
X48206156Y-52457573D01*
X48291970Y-52581858D01*
X48698818Y-53172906D01*
X49087946Y-52581858D01*
X49264995Y-52316459D01*
X49390774Y-52145389D01*
X49488191Y-52047960D01*
X49580158Y-52003489D01*
X49689583Y-51991288D01*
X49742545Y-51990811D01*
X49914504Y-52003489D01*
X49968771Y-52045802D01*
X49958878Y-52076621D01*
X49903211Y-52164139D01*
X49787507Y-52339774D01*
X49628465Y-52578354D01*
X49442786Y-52854708D01*
X49435553Y-52865432D01*
X48961367Y-53568432D01*
X49514641Y-54387029D01*
X49711312Y-54680651D01*
X49877180Y-54933311D01*
X49998597Y-55123824D01*
X50061913Y-55231006D01*
X50067915Y-55245786D01*
X50008150Y-55272372D01*
X49861265Y-55285614D01*
X49830840Y-55285946D01*
X49712635Y-55277112D01*
X49614746Y-55236074D01*
X49512458Y-55141025D01*
X49381057Y-54970159D01*
X49236589Y-54761612D01*
X49019121Y-54438477D01*
X48864633Y-54219589D01*
X48751155Y-54102062D01*
X48656717Y-54083009D01*
X48559349Y-54159545D01*
X48437082Y-54328785D01*
X48267944Y-54587842D01*
X48239579Y-54630656D01*
X48050353Y-54912180D01*
X47915317Y-55098766D01*
X47813629Y-55209924D01*
X47724445Y-55265161D01*
X47626921Y-55283986D01*
X47539448Y-55285946D01*
X47368169Y-55273176D01*
X47314618Y-55230578D01*
X47324536Y-55200135D01*
X47380058Y-55113426D01*
X47496454Y-54938177D01*
X47657381Y-54698804D01*
X47846496Y-54419721D01*
X47871859Y-54382444D01*
X48059054Y-54101385D01*
X48214148Y-53856989D01*
X48322444Y-53673271D01*
X48369245Y-53574248D01*
X48370054Y-53568366D01*
X48333211Y-53483952D01*
X48232396Y-53311162D01*
X48082177Y-53073636D01*
X47897124Y-52795014D01*
X47858618Y-52738490D01*
X47347183Y-51990811D01*
X47616152Y-51990811D01*
X47739823Y-51995970D01*
G36*
X57470588Y-52402702D02*
G01*
X56316043Y-52402702D01*
X56316043Y-55285946D01*
X55840642Y-55285946D01*
X55840642Y-52402702D01*
X54754011Y-52402702D01*
X54754011Y-51990811D01*
X57470588Y-51990811D01*
X57470588Y-52402702D01*
G37*
X57470588Y-52402702D02*
X56316043Y-52402702D01*
X56316043Y-55285946D01*
X55840642Y-55285946D01*
X55840642Y-52402702D01*
X54754011Y-52402702D01*
X54754011Y-51990811D01*
X57470588Y-51990811D01*
X57470588Y-52402702D01*
G36*
X62088770Y-53363784D02*
G01*
X63854546Y-53363784D01*
X63854546Y-51990811D01*
X64329947Y-51990811D01*
X64329947Y-55285946D01*
X63854546Y-55285946D01*
X63854546Y-53775675D01*
X62088770Y-53775675D01*
X62088770Y-55285946D01*
X61545455Y-55285946D01*
X61545455Y-51990811D01*
X62088770Y-51990811D01*
X62088770Y-53363784D01*
G37*
X62088770Y-53363784D02*
X63854546Y-53363784D01*
X63854546Y-51990811D01*
X64329947Y-51990811D01*
X64329947Y-55285946D01*
X63854546Y-55285946D01*
X63854546Y-53775675D01*
X62088770Y-53775675D01*
X62088770Y-55285946D01*
X61545455Y-55285946D01*
X61545455Y-51990811D01*
X62088770Y-51990811D01*
X62088770Y-53363784D01*
G36*
X69406551Y-52003100D02*
G01*
X69858230Y-52025170D01*
X70197390Y-52065062D01*
X70446924Y-52129884D01*
X70629728Y-52226744D01*
X70768697Y-52362748D01*
X70826455Y-52443867D01*
X70915465Y-52684670D01*
X70933383Y-52983547D01*
X70880129Y-53281532D01*
X70827776Y-53409843D01*
X70664022Y-53609106D01*
X70451435Y-53745498D01*
X70186901Y-53863472D01*
X70620189Y-54538385D01*
X70789956Y-54805745D01*
X70928512Y-55029512D01*
X71021213Y-55185650D01*
X71053476Y-55249622D01*
X70993229Y-55272537D01*
X70843032Y-55285118D01*
X70786391Y-55285946D01*
X70669106Y-55282183D01*
X70578251Y-55257457D01*
X70493762Y-55191615D01*
X70395577Y-55064502D01*
X70263630Y-54855962D01*
X70120081Y-54616621D01*
X69720855Y-53947297D01*
X69402406Y-53926374D01*
X69083957Y-53905450D01*
X69083957Y-55285946D01*
X68540642Y-55285946D01*
X68540642Y-53501081D01*
X69083957Y-53501081D01*
X69528774Y-53501081D01*
X69834129Y-53482480D01*
X70083458Y-53432268D01*
X70172977Y-53396859D01*
X70348418Y-53238374D01*
X70428626Y-53023944D01*
X70413765Y-52795244D01*
X70303995Y-52593946D01*
X70169461Y-52490984D01*
X70014503Y-52445991D01*
X69778172Y-52414413D01*
X69542380Y-52403714D01*
X69083957Y-52402702D01*
X69083957Y-53501081D01*
X68540642Y-53501081D01*
X68540642Y-51977023D01*
X69406551Y-52003100D01*
G37*
X69406551Y-52003100D02*
X69858230Y-52025170D01*
X70197390Y-52065062D01*
X70446924Y-52129884D01*
X70629728Y-52226744D01*
X70768697Y-52362748D01*
X70826455Y-52443867D01*
X70915465Y-52684670D01*
X70933383Y-52983547D01*
X70880129Y-53281532D01*
X70827776Y-53409843D01*
X70664022Y-53609106D01*
X70451435Y-53745498D01*
X70186901Y-53863472D01*
X70620189Y-54538385D01*
X70789956Y-54805745D01*
X70928512Y-55029512D01*
X71021213Y-55185650D01*
X71053476Y-55249622D01*
X70993229Y-55272537D01*
X70843032Y-55285118D01*
X70786391Y-55285946D01*
X70669106Y-55282183D01*
X70578251Y-55257457D01*
X70493762Y-55191615D01*
X70395577Y-55064502D01*
X70263630Y-54855962D01*
X70120081Y-54616621D01*
X69720855Y-53947297D01*
X69402406Y-53926374D01*
X69083957Y-53905450D01*
X69083957Y-55285946D01*
X68540642Y-55285946D01*
X68540642Y-53501081D01*
X69083957Y-53501081D01*
X69528774Y-53501081D01*
X69834129Y-53482480D01*
X70083458Y-53432268D01*
X70172977Y-53396859D01*
X70348418Y-53238374D01*
X70428626Y-53023944D01*
X70413765Y-52795244D01*
X70303995Y-52593946D01*
X70169461Y-52490984D01*
X70014503Y-52445991D01*
X69778172Y-52414413D01*
X69542380Y-52403714D01*
X69083957Y-52402702D01*
X69083957Y-53501081D01*
X68540642Y-53501081D01*
X68540642Y-51977023D01*
X69406551Y-52003100D01*
G36*
X78048663Y-52402702D02*
G01*
X76350802Y-52402702D01*
X76350802Y-53363784D01*
X77912834Y-53363784D01*
X77912834Y-53775675D01*
X76350802Y-53775675D01*
X76350802Y-54874054D01*
X78184492Y-54874054D01*
X78184492Y-55285946D01*
X75807487Y-55285946D01*
X75807487Y-51990811D01*
X78048663Y-51990811D01*
X78048663Y-52402702D01*
G37*
X78048663Y-52402702D02*
X76350802Y-52402702D01*
X76350802Y-53363784D01*
X77912834Y-53363784D01*
X77912834Y-53775675D01*
X76350802Y-53775675D01*
X76350802Y-54874054D01*
X78184492Y-54874054D01*
X78184492Y-55285946D01*
X75807487Y-55285946D01*
X75807487Y-51990811D01*
X78048663Y-51990811D01*
X78048663Y-52402702D01*
G36*
X85179679Y-52402702D02*
G01*
X83481818Y-52402702D01*
X83481818Y-53363784D01*
X85043851Y-53363784D01*
X85043851Y-53775675D01*
X83481818Y-53775675D01*
X83481818Y-54874054D01*
X85315508Y-54874054D01*
X85315508Y-55285946D01*
X82938503Y-55285946D01*
X82938503Y-51990811D01*
X85179679Y-51990811D01*
X85179679Y-52402702D01*
G37*
X85179679Y-52402702D02*
X83481818Y-52402702D01*
X83481818Y-53363784D01*
X85043851Y-53363784D01*
X85043851Y-53775675D01*
X83481818Y-53775675D01*
X83481818Y-54874054D01*
X85315508Y-54874054D01*
X85315508Y-55285946D01*
X82938503Y-55285946D01*
X82938503Y-51990811D01*
X85179679Y-51990811D01*
X85179679Y-52402702D01*
G36*
X29533962Y-44435687D02*
G01*
X29843053Y-44515207D01*
X30062634Y-44657140D01*
X30201792Y-44849104D01*
X30280249Y-45010770D01*
X30283687Y-45090504D01*
X30196458Y-45129863D01*
X30087459Y-45152724D01*
X29915552Y-45163752D01*
X29791584Y-45090087D01*
X29728569Y-45017243D01*
X29573986Y-44882932D01*
X29351969Y-44813039D01*
X29270821Y-44801795D01*
X28907832Y-44796171D01*
X28635636Y-44868337D01*
X28464136Y-45013394D01*
X28403231Y-45226443D01*
X28403209Y-45231148D01*
X28444719Y-45399289D01*
X28578104Y-45541478D01*
X28816644Y-45666313D01*
X29173622Y-45782391D01*
X29309401Y-45817689D01*
X29638396Y-45907699D01*
X29868837Y-45994205D01*
X30036612Y-46093255D01*
X30152006Y-46194494D01*
X30291100Y-46356284D01*
X30355863Y-46514166D01*
X30372665Y-46735394D01*
X30372728Y-46757390D01*
X30320285Y-47102323D01*
X30157730Y-47369981D01*
X29886235Y-47568770D01*
X29681315Y-47636409D01*
X29392761Y-47684018D01*
X29071836Y-47707603D01*
X28769805Y-47703172D01*
X28557717Y-47672247D01*
X28192660Y-47513866D01*
X27916440Y-47253565D01*
X27856792Y-47164513D01*
X27724347Y-46945135D01*
X27957720Y-46887830D01*
X28116718Y-46862720D01*
X28231854Y-46900415D01*
X28360973Y-47022964D01*
X28386078Y-47051109D01*
X28541670Y-47195879D01*
X28716431Y-47272284D01*
X28929896Y-47305574D01*
X29287614Y-47314837D01*
X29551485Y-47257844D01*
X29749951Y-47128091D01*
X29763225Y-47115010D01*
X29886014Y-46916143D01*
X29885268Y-46712621D01*
X29771122Y-46524162D01*
X29553712Y-46370485D01*
X29340615Y-46292881D01*
X28864198Y-46161573D01*
X28505883Y-46041293D01*
X28249758Y-45920677D01*
X28079914Y-45788362D01*
X27980441Y-45632986D01*
X27935430Y-45443184D01*
X27927808Y-45283798D01*
X27970235Y-44953449D01*
X28102833Y-44706841D01*
X28333577Y-44538118D01*
X28670445Y-44441421D01*
X29116310Y-44410890D01*
X29533962Y-44435687D01*
G37*
X29533962Y-44435687D02*
X29843053Y-44515207D01*
X30062634Y-44657140D01*
X30201792Y-44849104D01*
X30280249Y-45010770D01*
X30283687Y-45090504D01*
X30196458Y-45129863D01*
X30087459Y-45152724D01*
X29915552Y-45163752D01*
X29791584Y-45090087D01*
X29728569Y-45017243D01*
X29573986Y-44882932D01*
X29351969Y-44813039D01*
X29270821Y-44801795D01*
X28907832Y-44796171D01*
X28635636Y-44868337D01*
X28464136Y-45013394D01*
X28403231Y-45226443D01*
X28403209Y-45231148D01*
X28444719Y-45399289D01*
X28578104Y-45541478D01*
X28816644Y-45666313D01*
X29173622Y-45782391D01*
X29309401Y-45817689D01*
X29638396Y-45907699D01*
X29868837Y-45994205D01*
X30036612Y-46093255D01*
X30152006Y-46194494D01*
X30291100Y-46356284D01*
X30355863Y-46514166D01*
X30372665Y-46735394D01*
X30372728Y-46757390D01*
X30320285Y-47102323D01*
X30157730Y-47369981D01*
X29886235Y-47568770D01*
X29681315Y-47636409D01*
X29392761Y-47684018D01*
X29071836Y-47707603D01*
X28769805Y-47703172D01*
X28557717Y-47672247D01*
X28192660Y-47513866D01*
X27916440Y-47253565D01*
X27856792Y-47164513D01*
X27724347Y-46945135D01*
X27957720Y-46887830D01*
X28116718Y-46862720D01*
X28231854Y-46900415D01*
X28360973Y-47022964D01*
X28386078Y-47051109D01*
X28541670Y-47195879D01*
X28716431Y-47272284D01*
X28929896Y-47305574D01*
X29287614Y-47314837D01*
X29551485Y-47257844D01*
X29749951Y-47128091D01*
X29763225Y-47115010D01*
X29886014Y-46916143D01*
X29885268Y-46712621D01*
X29771122Y-46524162D01*
X29553712Y-46370485D01*
X29340615Y-46292881D01*
X28864198Y-46161573D01*
X28505883Y-46041293D01*
X28249758Y-45920677D01*
X28079914Y-45788362D01*
X27980441Y-45632986D01*
X27935430Y-45443184D01*
X27927808Y-45283798D01*
X27970235Y-44953449D01*
X28102833Y-44706841D01*
X28333577Y-44538118D01*
X28670445Y-44441421D01*
X29116310Y-44410890D01*
X29533962Y-44435687D01*
G36*
X55229412Y-45578732D02*
G01*
X55231410Y-46033748D01*
X55238553Y-46372865D01*
X55252563Y-46617436D01*
X55275165Y-46788816D01*
X55308082Y-46908358D01*
X55342508Y-46980180D01*
X55533409Y-47184948D01*
X55789771Y-47298786D01*
X56076756Y-47323348D01*
X56359524Y-47260287D01*
X56603238Y-47111257D01*
X56756337Y-46913058D01*
X56796774Y-46802020D01*
X56825770Y-46637858D01*
X56844844Y-46400364D01*
X56855511Y-46069329D01*
X56859292Y-45624545D01*
X56859359Y-45541247D01*
X56859359Y-44370811D01*
X57402674Y-44370811D01*
X57402674Y-45438790D01*
X57397630Y-45836073D01*
X57383753Y-46210416D01*
X57362922Y-46528500D01*
X57337019Y-46757005D01*
X57324746Y-46819597D01*
X57173807Y-47164725D01*
X56923301Y-47435780D01*
X56593390Y-47623524D01*
X56204236Y-47718721D01*
X55776002Y-47712131D01*
X55503551Y-47653994D01*
X55253727Y-47565266D01*
X55059389Y-47450099D01*
X54913908Y-47291598D01*
X54810655Y-47072870D01*
X54743000Y-46777020D01*
X54704314Y-46387156D01*
X54687969Y-45886383D01*
X54686096Y-45570773D01*
X54686096Y-44370811D01*
X55229412Y-44370811D01*
X55229412Y-45578732D01*
G37*
X55229412Y-45578732D02*
X55231410Y-46033748D01*
X55238553Y-46372865D01*
X55252563Y-46617436D01*
X55275165Y-46788816D01*
X55308082Y-46908358D01*
X55342508Y-46980180D01*
X55533409Y-47184948D01*
X55789771Y-47298786D01*
X56076756Y-47323348D01*
X56359524Y-47260287D01*
X56603238Y-47111257D01*
X56756337Y-46913058D01*
X56796774Y-46802020D01*
X56825770Y-46637858D01*
X56844844Y-46400364D01*
X56855511Y-46069329D01*
X56859292Y-45624545D01*
X56859359Y-45541247D01*
X56859359Y-44370811D01*
X57402674Y-44370811D01*
X57402674Y-45438790D01*
X57397630Y-45836073D01*
X57383753Y-46210416D01*
X57362922Y-46528500D01*
X57337019Y-46757005D01*
X57324746Y-46819597D01*
X57173807Y-47164725D01*
X56923301Y-47435780D01*
X56593390Y-47623524D01*
X56204236Y-47718721D01*
X55776002Y-47712131D01*
X55503551Y-47653994D01*
X55253727Y-47565266D01*
X55059389Y-47450099D01*
X54913908Y-47291598D01*
X54810655Y-47072870D01*
X54743000Y-46777020D01*
X54704314Y-46387156D01*
X54687969Y-45886383D01*
X54686096Y-45570773D01*
X54686096Y-44370811D01*
X55229412Y-44370811D01*
X55229412Y-45578732D01*
G36*
X15075000Y-44383100D02*
G01*
X15527457Y-44405124D01*
X15866437Y-44445103D01*
X16113901Y-44510563D01*
X16291809Y-44609029D01*
X16422121Y-44748027D01*
X16494823Y-44869675D01*
X16581703Y-45138677D01*
X16603672Y-45445653D01*
X16561976Y-45735298D01*
X16470786Y-45935805D01*
X16298027Y-46140255D01*
X16116478Y-46276017D01*
X15890695Y-46358514D01*
X15585235Y-46403172D01*
X15363950Y-46417510D01*
X14752407Y-46447064D01*
X14752407Y-47665946D01*
X14209091Y-47665946D01*
X14209091Y-44782702D01*
X14752407Y-44782702D01*
X14752407Y-46018378D01*
X15190655Y-46018378D01*
X15448664Y-46006678D01*
X15673531Y-45976303D01*
X15794396Y-45942159D01*
X15976786Y-45787638D01*
X16086224Y-45545210D01*
X16108536Y-45345824D01*
X16054731Y-45099551D01*
X15896388Y-44925850D01*
X15628203Y-44821439D01*
X15244875Y-44783039D01*
X15198315Y-44782702D01*
X14752407Y-44782702D01*
X14209091Y-44782702D01*
X14209091Y-44357023D01*
X15075000Y-44383100D01*
G37*
X15075000Y-44383100D02*
X15527457Y-44405124D01*
X15866437Y-44445103D01*
X16113901Y-44510563D01*
X16291809Y-44609029D01*
X16422121Y-44748027D01*
X16494823Y-44869675D01*
X16581703Y-45138677D01*
X16603672Y-45445653D01*
X16561976Y-45735298D01*
X16470786Y-45935805D01*
X16298027Y-46140255D01*
X16116478Y-46276017D01*
X15890695Y-46358514D01*
X15585235Y-46403172D01*
X15363950Y-46417510D01*
X14752407Y-46447064D01*
X14752407Y-47665946D01*
X14209091Y-47665946D01*
X14209091Y-44782702D01*
X14752407Y-44782702D01*
X14752407Y-46018378D01*
X15190655Y-46018378D01*
X15448664Y-46006678D01*
X15673531Y-45976303D01*
X15794396Y-45942159D01*
X15976786Y-45787638D01*
X16086224Y-45545210D01*
X16108536Y-45345824D01*
X16054731Y-45099551D01*
X15896388Y-44925850D01*
X15628203Y-44821439D01*
X15244875Y-44783039D01*
X15198315Y-44782702D01*
X14752407Y-44782702D01*
X14209091Y-44782702D01*
X14209091Y-44357023D01*
X15075000Y-44383100D01*
G36*
X23064413Y-45966892D02*
G01*
X23225587Y-46408180D01*
X23369757Y-46806829D01*
X23490520Y-47144804D01*
X23581469Y-47404075D01*
X23636200Y-47566609D01*
X23649632Y-47614459D01*
X23589677Y-47648864D01*
X23443330Y-47665628D01*
X23417616Y-47665946D01*
X23293121Y-47658743D01*
X23209394Y-47618072D01*
X23141446Y-47515334D01*
X23064290Y-47321934D01*
X23027716Y-47219729D01*
X22869397Y-46773513D01*
X21501055Y-46773513D01*
X21345212Y-47219729D01*
X21260234Y-47454273D01*
X21193560Y-47587673D01*
X21118883Y-47648467D01*
X21009893Y-47665191D01*
X20933847Y-47665946D01*
X20678324Y-47665946D01*
X21113101Y-46481756D01*
X21157266Y-46361621D01*
X21630179Y-46361621D01*
X22713121Y-46361621D01*
X22670486Y-46189914D01*
X22616227Y-46001862D01*
X22536894Y-45762963D01*
X22444138Y-45503944D01*
X22349611Y-45255531D01*
X22264965Y-45048452D01*
X22201853Y-44913433D01*
X22173270Y-44878731D01*
X22138048Y-44953754D01*
X22068682Y-45130786D01*
X21975692Y-45382172D01*
X21884586Y-45637500D01*
X21630179Y-46361621D01*
X21157266Y-46361621D01*
X21266374Y-46064839D01*
X21416992Y-45656125D01*
X21553120Y-45287659D01*
X21662922Y-44991488D01*
X21721587Y-44834189D01*
X21895297Y-44370811D01*
X22478761Y-44370811D01*
X23064413Y-45966892D01*
G37*
X23064413Y-45966892D02*
X23225587Y-46408180D01*
X23369757Y-46806829D01*
X23490520Y-47144804D01*
X23581469Y-47404075D01*
X23636200Y-47566609D01*
X23649632Y-47614459D01*
X23589677Y-47648864D01*
X23443330Y-47665628D01*
X23417616Y-47665946D01*
X23293121Y-47658743D01*
X23209394Y-47618072D01*
X23141446Y-47515334D01*
X23064290Y-47321934D01*
X23027716Y-47219729D01*
X22869397Y-46773513D01*
X21501055Y-46773513D01*
X21345212Y-47219729D01*
X21260234Y-47454273D01*
X21193560Y-47587673D01*
X21118883Y-47648467D01*
X21009893Y-47665191D01*
X20933847Y-47665946D01*
X20678324Y-47665946D01*
X21113101Y-46481756D01*
X21157266Y-46361621D01*
X21630179Y-46361621D01*
X22713121Y-46361621D01*
X22670486Y-46189914D01*
X22616227Y-46001862D01*
X22536894Y-45762963D01*
X22444138Y-45503944D01*
X22349611Y-45255531D01*
X22264965Y-45048452D01*
X22201853Y-44913433D01*
X22173270Y-44878731D01*
X22138048Y-44953754D01*
X22068682Y-45130786D01*
X21975692Y-45382172D01*
X21884586Y-45637500D01*
X21630179Y-46361621D01*
X21157266Y-46361621D01*
X21266374Y-46064839D01*
X21416992Y-45656125D01*
X21553120Y-45287659D01*
X21662922Y-44991488D01*
X21721587Y-44834189D01*
X21895297Y-44370811D01*
X22478761Y-44370811D01*
X23064413Y-45966892D01*
G36*
X36824599Y-44782702D02*
G01*
X35670054Y-44782702D01*
X35670054Y-47665946D01*
X35194653Y-47665946D01*
X35194653Y-44782702D01*
X34108022Y-44782702D01*
X34108022Y-44370811D01*
X36824599Y-44370811D01*
X36824599Y-44782702D01*
G37*
X36824599Y-44782702D02*
X35670054Y-44782702D01*
X35670054Y-47665946D01*
X35194653Y-47665946D01*
X35194653Y-44782702D01*
X34108022Y-44782702D01*
X34108022Y-44370811D01*
X36824599Y-44370811D01*
X36824599Y-44782702D01*
G36*
X43004813Y-44782702D02*
G01*
X41306952Y-44782702D01*
X41306952Y-45743784D01*
X42868984Y-45743784D01*
X42868984Y-46155675D01*
X41306952Y-46155675D01*
X41306952Y-47254054D01*
X43140642Y-47254054D01*
X43140642Y-47665946D01*
X40763637Y-47665946D01*
X40763637Y-44370811D01*
X43004813Y-44370811D01*
X43004813Y-44782702D01*
G37*
X43004813Y-44782702D02*
X41306952Y-44782702D01*
X41306952Y-45743784D01*
X42868984Y-45743784D01*
X42868984Y-46155675D01*
X41306952Y-46155675D01*
X41306952Y-47254054D01*
X43140642Y-47254054D01*
X43140642Y-47665946D01*
X40763637Y-47665946D01*
X40763637Y-44370811D01*
X43004813Y-44370811D01*
X43004813Y-44782702D01*
G36*
X48420990Y-44383100D02*
G01*
X48872669Y-44405170D01*
X49211828Y-44445062D01*
X49461363Y-44509884D01*
X49644167Y-44606744D01*
X49783135Y-44742748D01*
X49840894Y-44823867D01*
X49929904Y-45064670D01*
X49947822Y-45363547D01*
X49894567Y-45661532D01*
X49842215Y-45789843D01*
X49678461Y-45989106D01*
X49465873Y-46125498D01*
X49201340Y-46243472D01*
X49634627Y-46918385D01*
X49804395Y-47185745D01*
X49942950Y-47409512D01*
X50035652Y-47565650D01*
X50067915Y-47629622D01*
X50007667Y-47652537D01*
X49857470Y-47665118D01*
X49800830Y-47665946D01*
X49683544Y-47662183D01*
X49592689Y-47637457D01*
X49508201Y-47571615D01*
X49410015Y-47444502D01*
X49278069Y-47235962D01*
X49134519Y-46996621D01*
X48735293Y-46327297D01*
X48416845Y-46306374D01*
X48098396Y-46285450D01*
X48098396Y-47665946D01*
X47555080Y-47665946D01*
X47555080Y-45881081D01*
X48098396Y-45881081D01*
X48543212Y-45881081D01*
X48848567Y-45862480D01*
X49097897Y-45812268D01*
X49187416Y-45776859D01*
X49362856Y-45618374D01*
X49443065Y-45403944D01*
X49428203Y-45175244D01*
X49318434Y-44973946D01*
X49183899Y-44870984D01*
X49028941Y-44825991D01*
X48792610Y-44794413D01*
X48556818Y-44783714D01*
X48098396Y-44782702D01*
X48098396Y-45881081D01*
X47555080Y-45881081D01*
X47555080Y-44357023D01*
X48420990Y-44383100D01*
G37*
X48420990Y-44383100D02*
X48872669Y-44405170D01*
X49211828Y-44445062D01*
X49461363Y-44509884D01*
X49644167Y-44606744D01*
X49783135Y-44742748D01*
X49840894Y-44823867D01*
X49929904Y-45064670D01*
X49947822Y-45363547D01*
X49894567Y-45661532D01*
X49842215Y-45789843D01*
X49678461Y-45989106D01*
X49465873Y-46125498D01*
X49201340Y-46243472D01*
X49634627Y-46918385D01*
X49804395Y-47185745D01*
X49942950Y-47409512D01*
X50035652Y-47565650D01*
X50067915Y-47629622D01*
X50007667Y-47652537D01*
X49857470Y-47665118D01*
X49800830Y-47665946D01*
X49683544Y-47662183D01*
X49592689Y-47637457D01*
X49508201Y-47571615D01*
X49410015Y-47444502D01*
X49278069Y-47235962D01*
X49134519Y-46996621D01*
X48735293Y-46327297D01*
X48416845Y-46306374D01*
X48098396Y-46285450D01*
X48098396Y-47665946D01*
X47555080Y-47665946D01*
X47555080Y-45881081D01*
X48098396Y-45881081D01*
X48543212Y-45881081D01*
X48848567Y-45862480D01*
X49097897Y-45812268D01*
X49187416Y-45776859D01*
X49362856Y-45618374D01*
X49443065Y-45403944D01*
X49428203Y-45175244D01*
X49318434Y-44973946D01*
X49183899Y-44870984D01*
X49028941Y-44825991D01*
X48792610Y-44794413D01*
X48556818Y-44783714D01*
X48098396Y-44782702D01*
X48098396Y-45881081D01*
X47555080Y-45881081D01*
X47555080Y-44357023D01*
X48420990Y-44383100D01*
G36*
X61798303Y-44384211D02*
G01*
X62119066Y-44405135D01*
X62978867Y-45663677D01*
X63231127Y-46031779D01*
X63459466Y-46362799D01*
X63651974Y-46639649D01*
X63796740Y-46845238D01*
X63881855Y-46962477D01*
X63897542Y-46981879D01*
X63915203Y-46936148D01*
X63928544Y-46771132D01*
X63937014Y-46504791D01*
X63940063Y-46155083D01*
X63937140Y-45739968D01*
X63936656Y-45706174D01*
X63916896Y-44370811D01*
X64397861Y-44370811D01*
X64397861Y-47673468D01*
X64078212Y-47652545D01*
X63758563Y-47631621D01*
X61952941Y-44965427D01*
X61952941Y-47665946D01*
X61477540Y-47665946D01*
X61477540Y-44363288D01*
X61798303Y-44384211D01*
G37*
X61798303Y-44384211D02*
X62119066Y-44405135D01*
X62978867Y-45663677D01*
X63231127Y-46031779D01*
X63459466Y-46362799D01*
X63651974Y-46639649D01*
X63796740Y-46845238D01*
X63881855Y-46962477D01*
X63897542Y-46981879D01*
X63915203Y-46936148D01*
X63928544Y-46771132D01*
X63937014Y-46504791D01*
X63940063Y-46155083D01*
X63937140Y-45739968D01*
X63936656Y-45706174D01*
X63916896Y-44370811D01*
X64397861Y-44370811D01*
X64397861Y-47673468D01*
X64078212Y-47652545D01*
X63758563Y-47631621D01*
X61952941Y-44965427D01*
X61952941Y-47665946D01*
X61477540Y-47665946D01*
X61477540Y-44363288D01*
X61798303Y-44384211D01*
G36*
X69966845Y-47665946D02*
G01*
X69423530Y-47665946D01*
X69423530Y-44370811D01*
X69966845Y-44370811D01*
X69966845Y-47665946D01*
G37*
X69966845Y-47665946D02*
X69423530Y-47665946D01*
X69423530Y-44370811D01*
X69966845Y-44370811D01*
X69966845Y-47665946D01*
G36*
X75720763Y-44384211D02*
G01*
X76041526Y-44405135D01*
X76901327Y-45663677D01*
X77153587Y-46031779D01*
X77381926Y-46362799D01*
X77574434Y-46639649D01*
X77719200Y-46845238D01*
X77804314Y-46962477D01*
X77820002Y-46981879D01*
X77837663Y-46936148D01*
X77851004Y-46771132D01*
X77859474Y-46504791D01*
X77862522Y-46155083D01*
X77859599Y-45739968D01*
X77859116Y-45706174D01*
X77839355Y-44370811D01*
X78320321Y-44370811D01*
X78320321Y-47673468D01*
X78000672Y-47652545D01*
X77681023Y-47631621D01*
X75875401Y-44965427D01*
X75875401Y-47665946D01*
X75400000Y-47665946D01*
X75400000Y-44363288D01*
X75720763Y-44384211D01*
G37*
X75720763Y-44384211D02*
X76041526Y-44405135D01*
X76901327Y-45663677D01*
X77153587Y-46031779D01*
X77381926Y-46362799D01*
X77574434Y-46639649D01*
X77719200Y-46845238D01*
X77804314Y-46962477D01*
X77820002Y-46981879D01*
X77837663Y-46936148D01*
X77851004Y-46771132D01*
X77859474Y-46504791D01*
X77862522Y-46155083D01*
X77859599Y-45739968D01*
X77859116Y-45706174D01*
X77839355Y-44370811D01*
X78320321Y-44370811D01*
X78320321Y-47673468D01*
X78000672Y-47652545D01*
X77681023Y-47631621D01*
X75875401Y-44965427D01*
X75875401Y-47665946D01*
X75400000Y-47665946D01*
X75400000Y-44363288D01*
X75720763Y-44384211D01*
G36*
X85179679Y-44782702D02*
G01*
X83481818Y-44782702D01*
X83481818Y-45743784D01*
X85043851Y-45743784D01*
X85043851Y-46155675D01*
X83481818Y-46155675D01*
X83481818Y-47254054D01*
X85315508Y-47254054D01*
X85315508Y-47665946D01*
X82938503Y-47665946D01*
X82938503Y-44370811D01*
X85179679Y-44370811D01*
X85179679Y-44782702D01*
G37*
X85179679Y-44782702D02*
X83481818Y-44782702D01*
X83481818Y-45743784D01*
X85043851Y-45743784D01*
X85043851Y-46155675D01*
X83481818Y-46155675D01*
X83481818Y-47254054D01*
X85315508Y-47254054D01*
X85315508Y-47665946D01*
X82938503Y-47665946D01*
X82938503Y-44370811D01*
X85179679Y-44370811D01*
X85179679Y-44782702D01*
G36*
X42301876Y-36815687D02*
G01*
X42610967Y-36895207D01*
X42830548Y-37037140D01*
X42969706Y-37229104D01*
X43048163Y-37390770D01*
X43051602Y-37470504D01*
X42964372Y-37509863D01*
X42855373Y-37532724D01*
X42683467Y-37543752D01*
X42559499Y-37470087D01*
X42496484Y-37397243D01*
X42341900Y-37262932D01*
X42119883Y-37193039D01*
X42038735Y-37181795D01*
X41675746Y-37176171D01*
X41403551Y-37248337D01*
X41232050Y-37393394D01*
X41171145Y-37606443D01*
X41171123Y-37611148D01*
X41212633Y-37779289D01*
X41346018Y-37921478D01*
X41584559Y-38046313D01*
X41941536Y-38162391D01*
X42077315Y-38197689D01*
X42406311Y-38287699D01*
X42636751Y-38374205D01*
X42804526Y-38473255D01*
X42919920Y-38574494D01*
X43059015Y-38736284D01*
X43123778Y-38894166D01*
X43140580Y-39115394D01*
X43140642Y-39137390D01*
X43088200Y-39482323D01*
X42925645Y-39749981D01*
X42654150Y-39948770D01*
X42449230Y-40016409D01*
X42160675Y-40064018D01*
X41839750Y-40087603D01*
X41537719Y-40083172D01*
X41325632Y-40052247D01*
X40960575Y-39893866D01*
X40684354Y-39633565D01*
X40624707Y-39544513D01*
X40492261Y-39325135D01*
X40725634Y-39267830D01*
X40884633Y-39242720D01*
X40999769Y-39280415D01*
X41128887Y-39402964D01*
X41153992Y-39431109D01*
X41309584Y-39575879D01*
X41484346Y-39652284D01*
X41697811Y-39685574D01*
X42055529Y-39694837D01*
X42319399Y-39637844D01*
X42517865Y-39508091D01*
X42531139Y-39495010D01*
X42653929Y-39296143D01*
X42653183Y-39092621D01*
X42539036Y-38904162D01*
X42321627Y-38750485D01*
X42108529Y-38672881D01*
X41632113Y-38541573D01*
X41273797Y-38421293D01*
X41017672Y-38300677D01*
X40847828Y-38168362D01*
X40748356Y-38012986D01*
X40703345Y-37823184D01*
X40695722Y-37663798D01*
X40738149Y-37333449D01*
X40870747Y-37086841D01*
X41101492Y-36918118D01*
X41438359Y-36821421D01*
X41884225Y-36790890D01*
X42301876Y-36815687D01*
G37*
X42301876Y-36815687D02*
X42610967Y-36895207D01*
X42830548Y-37037140D01*
X42969706Y-37229104D01*
X43048163Y-37390770D01*
X43051602Y-37470504D01*
X42964372Y-37509863D01*
X42855373Y-37532724D01*
X42683467Y-37543752D01*
X42559499Y-37470087D01*
X42496484Y-37397243D01*
X42341900Y-37262932D01*
X42119883Y-37193039D01*
X42038735Y-37181795D01*
X41675746Y-37176171D01*
X41403551Y-37248337D01*
X41232050Y-37393394D01*
X41171145Y-37606443D01*
X41171123Y-37611148D01*
X41212633Y-37779289D01*
X41346018Y-37921478D01*
X41584559Y-38046313D01*
X41941536Y-38162391D01*
X42077315Y-38197689D01*
X42406311Y-38287699D01*
X42636751Y-38374205D01*
X42804526Y-38473255D01*
X42919920Y-38574494D01*
X43059015Y-38736284D01*
X43123778Y-38894166D01*
X43140580Y-39115394D01*
X43140642Y-39137390D01*
X43088200Y-39482323D01*
X42925645Y-39749981D01*
X42654150Y-39948770D01*
X42449230Y-40016409D01*
X42160675Y-40064018D01*
X41839750Y-40087603D01*
X41537719Y-40083172D01*
X41325632Y-40052247D01*
X40960575Y-39893866D01*
X40684354Y-39633565D01*
X40624707Y-39544513D01*
X40492261Y-39325135D01*
X40725634Y-39267830D01*
X40884633Y-39242720D01*
X40999769Y-39280415D01*
X41128887Y-39402964D01*
X41153992Y-39431109D01*
X41309584Y-39575879D01*
X41484346Y-39652284D01*
X41697811Y-39685574D01*
X42055529Y-39694837D01*
X42319399Y-39637844D01*
X42517865Y-39508091D01*
X42531139Y-39495010D01*
X42653929Y-39296143D01*
X42653183Y-39092621D01*
X42539036Y-38904162D01*
X42321627Y-38750485D01*
X42108529Y-38672881D01*
X41632113Y-38541573D01*
X41273797Y-38421293D01*
X41017672Y-38300677D01*
X40847828Y-38168362D01*
X40748356Y-38012986D01*
X40703345Y-37823184D01*
X40695722Y-37663798D01*
X40738149Y-37333449D01*
X40870747Y-37086841D01*
X41101492Y-36918118D01*
X41438359Y-36821421D01*
X41884225Y-36790890D01*
X42301876Y-36815687D01*
G36*
X84556102Y-36837896D02*
G01*
X84919873Y-36995085D01*
X85200724Y-37225944D01*
X85397180Y-37496820D01*
X85518708Y-37801780D01*
X85576530Y-38177035D01*
X85585296Y-38467027D01*
X85538701Y-38906045D01*
X85410602Y-39308571D01*
X85215215Y-39631482D01*
X85192924Y-39657286D01*
X84953431Y-39841488D01*
X84625344Y-39982972D01*
X84252165Y-40070990D01*
X83877395Y-40094796D01*
X83583690Y-40054853D01*
X83183799Y-39900880D01*
X82885516Y-39668090D01*
X82668625Y-39338387D01*
X82599625Y-39173955D01*
X82481881Y-38690862D01*
X82476843Y-38399449D01*
X83006671Y-38399449D01*
X83035286Y-38821137D01*
X83129100Y-39143761D01*
X83299355Y-39394260D01*
X83488719Y-39554318D01*
X83650476Y-39648401D01*
X83816521Y-39690069D01*
X84044062Y-39691304D01*
X84119869Y-39686516D01*
X84361099Y-39660006D01*
X84521912Y-39606651D01*
X84657700Y-39502032D01*
X84743991Y-39411362D01*
X84956095Y-39082404D01*
X85074465Y-38690761D01*
X85094868Y-38277025D01*
X85013068Y-37881789D01*
X84923752Y-37688337D01*
X84693819Y-37410209D01*
X84403507Y-37235294D01*
X84080758Y-37164039D01*
X83753516Y-37196892D01*
X83449723Y-37334302D01*
X83197321Y-37576715D01*
X83141879Y-37659778D01*
X83063172Y-37833232D01*
X83020755Y-38052349D01*
X83006804Y-38359946D01*
X83006671Y-38399449D01*
X82476843Y-38399449D01*
X82473407Y-38200756D01*
X82571302Y-37737458D01*
X82755077Y-37360573D01*
X83014468Y-37086973D01*
X83353796Y-36896280D01*
X83743532Y-36790119D01*
X84154144Y-36770116D01*
X84556102Y-36837896D01*
G37*
X84556102Y-36837896D02*
X84919873Y-36995085D01*
X85200724Y-37225944D01*
X85397180Y-37496820D01*
X85518708Y-37801780D01*
X85576530Y-38177035D01*
X85585296Y-38467027D01*
X85538701Y-38906045D01*
X85410602Y-39308571D01*
X85215215Y-39631482D01*
X85192924Y-39657286D01*
X84953431Y-39841488D01*
X84625344Y-39982972D01*
X84252165Y-40070990D01*
X83877395Y-40094796D01*
X83583690Y-40054853D01*
X83183799Y-39900880D01*
X82885516Y-39668090D01*
X82668625Y-39338387D01*
X82599625Y-39173955D01*
X82481881Y-38690862D01*
X82476843Y-38399449D01*
X83006671Y-38399449D01*
X83035286Y-38821137D01*
X83129100Y-39143761D01*
X83299355Y-39394260D01*
X83488719Y-39554318D01*
X83650476Y-39648401D01*
X83816521Y-39690069D01*
X84044062Y-39691304D01*
X84119869Y-39686516D01*
X84361099Y-39660006D01*
X84521912Y-39606651D01*
X84657700Y-39502032D01*
X84743991Y-39411362D01*
X84956095Y-39082404D01*
X85074465Y-38690761D01*
X85094868Y-38277025D01*
X85013068Y-37881789D01*
X84923752Y-37688337D01*
X84693819Y-37410209D01*
X84403507Y-37235294D01*
X84080758Y-37164039D01*
X83753516Y-37196892D01*
X83449723Y-37334302D01*
X83197321Y-37576715D01*
X83141879Y-37659778D01*
X83063172Y-37833232D01*
X83020755Y-38052349D01*
X83006804Y-38359946D01*
X83006671Y-38399449D01*
X82476843Y-38399449D01*
X82473407Y-38200756D01*
X82571302Y-37737458D01*
X82755077Y-37360573D01*
X83014468Y-37086973D01*
X83353796Y-36896280D01*
X83743532Y-36790119D01*
X84154144Y-36770116D01*
X84556102Y-36837896D01*
G36*
X14480749Y-38123784D02*
G01*
X16246524Y-38123784D01*
X16246524Y-36750811D01*
X16721925Y-36750811D01*
X16721925Y-40045946D01*
X16246524Y-40045946D01*
X16246524Y-38535675D01*
X14480749Y-38535675D01*
X14480749Y-40045946D01*
X13937433Y-40045946D01*
X13937433Y-36750811D01*
X14480749Y-36750811D01*
X14480749Y-38123784D01*
G37*
X14480749Y-38123784D02*
X16246524Y-38123784D01*
X16246524Y-36750811D01*
X16721925Y-36750811D01*
X16721925Y-40045946D01*
X16246524Y-40045946D01*
X16246524Y-38535675D01*
X14480749Y-38535675D01*
X14480749Y-40045946D01*
X13937433Y-40045946D01*
X13937433Y-36750811D01*
X14480749Y-36750811D01*
X14480749Y-38123784D01*
G36*
X23064413Y-38346892D02*
G01*
X23225587Y-38788180D01*
X23369757Y-39186829D01*
X23490520Y-39524804D01*
X23581469Y-39784075D01*
X23636200Y-39946609D01*
X23649632Y-39994459D01*
X23589677Y-40028864D01*
X23443330Y-40045628D01*
X23417616Y-40045946D01*
X23293121Y-40038743D01*
X23209394Y-39998072D01*
X23141446Y-39895334D01*
X23064290Y-39701934D01*
X23027716Y-39599729D01*
X22869397Y-39153513D01*
X21501055Y-39153513D01*
X21345212Y-39599729D01*
X21260234Y-39834273D01*
X21193560Y-39967673D01*
X21118883Y-40028467D01*
X21009893Y-40045191D01*
X20933847Y-40045946D01*
X20678324Y-40045946D01*
X21113101Y-38861756D01*
X21157266Y-38741621D01*
X21630179Y-38741621D01*
X22713121Y-38741621D01*
X22670486Y-38569914D01*
X22616227Y-38381862D01*
X22536894Y-38142963D01*
X22444138Y-37883944D01*
X22349611Y-37635531D01*
X22264965Y-37428452D01*
X22201853Y-37293433D01*
X22173270Y-37258731D01*
X22138048Y-37333754D01*
X22068682Y-37510786D01*
X21975692Y-37762172D01*
X21884586Y-38017500D01*
X21630179Y-38741621D01*
X21157266Y-38741621D01*
X21266374Y-38444839D01*
X21416992Y-38036125D01*
X21553120Y-37667659D01*
X21662922Y-37371488D01*
X21721587Y-37214189D01*
X21895297Y-36750811D01*
X22478761Y-36750811D01*
X23064413Y-38346892D01*
G37*
X23064413Y-38346892D02*
X23225587Y-38788180D01*
X23369757Y-39186829D01*
X23490520Y-39524804D01*
X23581469Y-39784075D01*
X23636200Y-39946609D01*
X23649632Y-39994459D01*
X23589677Y-40028864D01*
X23443330Y-40045628D01*
X23417616Y-40045946D01*
X23293121Y-40038743D01*
X23209394Y-39998072D01*
X23141446Y-39895334D01*
X23064290Y-39701934D01*
X23027716Y-39599729D01*
X22869397Y-39153513D01*
X21501055Y-39153513D01*
X21345212Y-39599729D01*
X21260234Y-39834273D01*
X21193560Y-39967673D01*
X21118883Y-40028467D01*
X21009893Y-40045191D01*
X20933847Y-40045946D01*
X20678324Y-40045946D01*
X21113101Y-38861756D01*
X21157266Y-38741621D01*
X21630179Y-38741621D01*
X22713121Y-38741621D01*
X22670486Y-38569914D01*
X22616227Y-38381862D01*
X22536894Y-38142963D01*
X22444138Y-37883944D01*
X22349611Y-37635531D01*
X22264965Y-37428452D01*
X22201853Y-37293433D01*
X22173270Y-37258731D01*
X22138048Y-37333754D01*
X22068682Y-37510786D01*
X21975692Y-37762172D01*
X21884586Y-38017500D01*
X21630179Y-38741621D01*
X21157266Y-38741621D01*
X21266374Y-38444839D01*
X21416992Y-38036125D01*
X21553120Y-37667659D01*
X21662922Y-37371488D01*
X21721587Y-37214189D01*
X21895297Y-36750811D01*
X22478761Y-36750811D01*
X23064413Y-38346892D01*
G36*
X28742781Y-39634054D02*
G01*
X30236899Y-39634054D01*
X30236899Y-40045946D01*
X28199465Y-40045946D01*
X28199465Y-36750811D01*
X28742781Y-36750811D01*
X28742781Y-39634054D01*
G37*
X28742781Y-39634054D02*
X30236899Y-39634054D01*
X30236899Y-40045946D01*
X28199465Y-40045946D01*
X28199465Y-36750811D01*
X28742781Y-36750811D01*
X28742781Y-39634054D01*
G36*
X36620856Y-37162702D02*
G01*
X35058824Y-37162702D01*
X35058824Y-38329729D01*
X36552941Y-38329729D01*
X36552941Y-38741621D01*
X35058824Y-38741621D01*
X35058824Y-40045946D01*
X34515508Y-40045946D01*
X34515508Y-36750811D01*
X36620856Y-36750811D01*
X36620856Y-37162702D01*
G37*
X36620856Y-37162702D02*
X35058824Y-37162702D01*
X35058824Y-38329729D01*
X36552941Y-38329729D01*
X36552941Y-38741621D01*
X35058824Y-38741621D01*
X35058824Y-40045946D01*
X34515508Y-40045946D01*
X34515508Y-36750811D01*
X36620856Y-36750811D01*
X36620856Y-37162702D01*
G36*
X50067915Y-37162702D02*
G01*
X48913369Y-37162702D01*
X48913369Y-40045946D01*
X48437968Y-40045946D01*
X48437968Y-37162702D01*
X47351337Y-37162702D01*
X47351337Y-36750811D01*
X50067915Y-36750811D01*
X50067915Y-37162702D01*
G37*
X50067915Y-37162702D02*
X48913369Y-37162702D01*
X48913369Y-40045946D01*
X48437968Y-40045946D01*
X48437968Y-37162702D01*
X47351337Y-37162702D01*
X47351337Y-36750811D01*
X50067915Y-36750811D01*
X50067915Y-37162702D01*
G36*
X57266845Y-37162702D02*
G01*
X55568984Y-37162702D01*
X55568984Y-38123784D01*
X57131016Y-38123784D01*
X57131016Y-38535675D01*
X55568984Y-38535675D01*
X55568984Y-39634054D01*
X57402674Y-39634054D01*
X57402674Y-40045946D01*
X55025669Y-40045946D01*
X55025669Y-36750811D01*
X57266845Y-36750811D01*
X57266845Y-37162702D01*
G37*
X57266845Y-37162702D02*
X55568984Y-37162702D01*
X55568984Y-38123784D01*
X57131016Y-38123784D01*
X57131016Y-38535675D01*
X55568984Y-38535675D01*
X55568984Y-39634054D01*
X57402674Y-39634054D01*
X57402674Y-40045946D01*
X55025669Y-40045946D01*
X55025669Y-36750811D01*
X57266845Y-36750811D01*
X57266845Y-37162702D01*
G36*
X61798303Y-36764211D02*
G01*
X62119066Y-36785135D01*
X62978867Y-38043677D01*
X63231127Y-38411779D01*
X63459466Y-38742799D01*
X63651974Y-39019649D01*
X63796740Y-39225238D01*
X63881855Y-39342477D01*
X63897542Y-39361879D01*
X63915203Y-39316148D01*
X63928544Y-39151132D01*
X63937014Y-38884791D01*
X63940063Y-38535083D01*
X63937140Y-38119968D01*
X63936656Y-38086174D01*
X63916896Y-36750811D01*
X64397861Y-36750811D01*
X64397861Y-40053468D01*
X64078212Y-40032545D01*
X63758563Y-40011621D01*
X61952941Y-37345427D01*
X61952941Y-40045946D01*
X61477540Y-40045946D01*
X61477540Y-36743288D01*
X61798303Y-36764211D01*
G37*
X61798303Y-36764211D02*
X62119066Y-36785135D01*
X62978867Y-38043677D01*
X63231127Y-38411779D01*
X63459466Y-38742799D01*
X63651974Y-39019649D01*
X63796740Y-39225238D01*
X63881855Y-39342477D01*
X63897542Y-39361879D01*
X63915203Y-39316148D01*
X63928544Y-39151132D01*
X63937014Y-38884791D01*
X63940063Y-38535083D01*
X63937140Y-38119968D01*
X63936656Y-38086174D01*
X63916896Y-36750811D01*
X64397861Y-36750811D01*
X64397861Y-40053468D01*
X64078212Y-40032545D01*
X63758563Y-40011621D01*
X61952941Y-37345427D01*
X61952941Y-40045946D01*
X61477540Y-40045946D01*
X61477540Y-36743288D01*
X61798303Y-36764211D01*
G36*
X70781818Y-37162702D02*
G01*
X69219786Y-37162702D01*
X69219786Y-38329729D01*
X70713904Y-38329729D01*
X70713904Y-38741621D01*
X69219786Y-38741621D01*
X69219786Y-40045946D01*
X68676471Y-40045946D01*
X68676471Y-36750811D01*
X70781818Y-36750811D01*
X70781818Y-37162702D01*
G37*
X70781818Y-37162702D02*
X69219786Y-37162702D01*
X69219786Y-38329729D01*
X70713904Y-38329729D01*
X70713904Y-38741621D01*
X69219786Y-38741621D01*
X69219786Y-40045946D01*
X68676471Y-40045946D01*
X68676471Y-36750811D01*
X70781818Y-36750811D01*
X70781818Y-37162702D01*
G36*
X78252407Y-37162702D02*
G01*
X77097861Y-37162702D01*
X77097861Y-40045946D01*
X76622460Y-40045946D01*
X76622460Y-37162702D01*
X75535829Y-37162702D01*
X75535829Y-36750811D01*
X78252407Y-36750811D01*
X78252407Y-37162702D01*
G37*
X78252407Y-37162702D02*
X77097861Y-37162702D01*
X77097861Y-40045946D01*
X76622460Y-40045946D01*
X76622460Y-37162702D01*
X75535829Y-37162702D01*
X75535829Y-36750811D01*
X78252407Y-36750811D01*
X78252407Y-37162702D01*
G36*
X16721925Y-29611351D02*
G01*
X15567380Y-29611351D01*
X15567380Y-32494594D01*
X15091979Y-32494594D01*
X15091979Y-29611351D01*
X14005348Y-29611351D01*
X14005348Y-29199459D01*
X16721925Y-29199459D01*
X16721925Y-29611351D01*
G37*
X16721925Y-29611351D02*
X15567380Y-29611351D01*
X15567380Y-32494594D01*
X15091979Y-32494594D01*
X15091979Y-29611351D01*
X14005348Y-29611351D01*
X14005348Y-29199459D01*
X16721925Y-29199459D01*
X16721925Y-29611351D01*
G36*
X22827266Y-30571110D02*
G01*
X22937986Y-30979984D01*
X23038374Y-31337464D01*
X23122822Y-31624640D01*
X23185717Y-31822602D01*
X23221452Y-31912441D01*
X23226087Y-31915433D01*
X23253336Y-31842234D01*
X23310471Y-31657168D01*
X23391485Y-31380785D01*
X23490372Y-31033636D01*
X23601125Y-30636270D01*
X23620049Y-30567572D01*
X23732083Y-30164059D01*
X23833105Y-29807505D01*
X23917136Y-29518427D01*
X23978196Y-29317339D01*
X24010307Y-29224756D01*
X24012410Y-29221330D01*
X24094003Y-29206165D01*
X24252860Y-29210119D01*
X24275375Y-29212067D01*
X24507691Y-29233784D01*
X24024989Y-30847027D01*
X23542286Y-32460270D01*
X23222212Y-32481193D01*
X23034895Y-32482939D01*
X22918755Y-32463832D01*
X22900376Y-32446869D01*
X22882713Y-32359531D01*
X22835886Y-32167727D01*
X22766570Y-31896394D01*
X22681439Y-31570470D01*
X22587169Y-31214891D01*
X22490434Y-30854593D01*
X22397910Y-30514513D01*
X22316272Y-30219588D01*
X22252194Y-29994755D01*
X22212352Y-29864950D01*
X22203463Y-29843319D01*
X22178009Y-29896877D01*
X22124479Y-30063252D01*
X22048755Y-30322324D01*
X21956721Y-30653971D01*
X21855229Y-31034368D01*
X21751251Y-31430631D01*
X21657566Y-31786565D01*
X21580390Y-32078637D01*
X21525941Y-32283311D01*
X21501188Y-32374459D01*
X21440944Y-32454182D01*
X21299055Y-32489692D01*
X21163613Y-32494594D01*
X20957409Y-32476088D01*
X20842984Y-32426359D01*
X20832203Y-32408784D01*
X20775443Y-32229339D01*
X20693674Y-31961603D01*
X20593456Y-31627965D01*
X20481347Y-31250817D01*
X20363907Y-30852549D01*
X20247694Y-30455552D01*
X20139268Y-30082217D01*
X20045187Y-29754934D01*
X19972010Y-29496094D01*
X19926297Y-29328087D01*
X19913904Y-29273927D01*
X19970796Y-29222326D01*
X20104877Y-29201522D01*
X20261254Y-29210288D01*
X20385031Y-29247399D01*
X20421727Y-29285270D01*
X20447878Y-29375621D01*
X20504033Y-29576445D01*
X20584136Y-29865849D01*
X20682128Y-30221936D01*
X20791951Y-30622810D01*
X20802243Y-30660468D01*
X20911826Y-31055282D01*
X21010305Y-31398416D01*
X21091801Y-31670324D01*
X21150435Y-31851461D01*
X21180324Y-31922280D01*
X21181856Y-31922304D01*
X21207190Y-31850652D01*
X21262019Y-31666775D01*
X21340560Y-31391037D01*
X21437029Y-31043798D01*
X21545644Y-30645422D01*
X21567543Y-30564269D01*
X21925975Y-29233784D01*
X22193335Y-29213986D01*
X22460695Y-29194189D01*
X22827266Y-30571110D01*
G37*
X22827266Y-30571110D02*
X22937986Y-30979984D01*
X23038374Y-31337464D01*
X23122822Y-31624640D01*
X23185717Y-31822602D01*
X23221452Y-31912441D01*
X23226087Y-31915433D01*
X23253336Y-31842234D01*
X23310471Y-31657168D01*
X23391485Y-31380785D01*
X23490372Y-31033636D01*
X23601125Y-30636270D01*
X23620049Y-30567572D01*
X23732083Y-30164059D01*
X23833105Y-29807505D01*
X23917136Y-29518427D01*
X23978196Y-29317339D01*
X24010307Y-29224756D01*
X24012410Y-29221330D01*
X24094003Y-29206165D01*
X24252860Y-29210119D01*
X24275375Y-29212067D01*
X24507691Y-29233784D01*
X24024989Y-30847027D01*
X23542286Y-32460270D01*
X23222212Y-32481193D01*
X23034895Y-32482939D01*
X22918755Y-32463832D01*
X22900376Y-32446869D01*
X22882713Y-32359531D01*
X22835886Y-32167727D01*
X22766570Y-31896394D01*
X22681439Y-31570470D01*
X22587169Y-31214891D01*
X22490434Y-30854593D01*
X22397910Y-30514513D01*
X22316272Y-30219588D01*
X22252194Y-29994755D01*
X22212352Y-29864950D01*
X22203463Y-29843319D01*
X22178009Y-29896877D01*
X22124479Y-30063252D01*
X22048755Y-30322324D01*
X21956721Y-30653971D01*
X21855229Y-31034368D01*
X21751251Y-31430631D01*
X21657566Y-31786565D01*
X21580390Y-32078637D01*
X21525941Y-32283311D01*
X21501188Y-32374459D01*
X21440944Y-32454182D01*
X21299055Y-32489692D01*
X21163613Y-32494594D01*
X20957409Y-32476088D01*
X20842984Y-32426359D01*
X20832203Y-32408784D01*
X20775443Y-32229339D01*
X20693674Y-31961603D01*
X20593456Y-31627965D01*
X20481347Y-31250817D01*
X20363907Y-30852549D01*
X20247694Y-30455552D01*
X20139268Y-30082217D01*
X20045187Y-29754934D01*
X19972010Y-29496094D01*
X19926297Y-29328087D01*
X19913904Y-29273927D01*
X19970796Y-29222326D01*
X20104877Y-29201522D01*
X20261254Y-29210288D01*
X20385031Y-29247399D01*
X20421727Y-29285270D01*
X20447878Y-29375621D01*
X20504033Y-29576445D01*
X20584136Y-29865849D01*
X20682128Y-30221936D01*
X20791951Y-30622810D01*
X20802243Y-30660468D01*
X20911826Y-31055282D01*
X21010305Y-31398416D01*
X21091801Y-31670324D01*
X21150435Y-31851461D01*
X21180324Y-31922280D01*
X21181856Y-31922304D01*
X21207190Y-31850652D01*
X21262019Y-31666775D01*
X21340560Y-31391037D01*
X21437029Y-31043798D01*
X21545644Y-30645422D01*
X21567543Y-30564269D01*
X21925975Y-29233784D01*
X22193335Y-29213986D01*
X22460695Y-29194189D01*
X22827266Y-30571110D01*
G36*
X30236899Y-29611351D02*
G01*
X28539038Y-29611351D01*
X28539038Y-30572432D01*
X30101070Y-30572432D01*
X30101070Y-30984324D01*
X28539038Y-30984324D01*
X28539038Y-32082702D01*
X30372728Y-32082702D01*
X30372728Y-32494594D01*
X27995722Y-32494594D01*
X27995722Y-29199459D01*
X30236899Y-29199459D01*
X30236899Y-29611351D01*
G37*
X30236899Y-29611351D02*
X28539038Y-29611351D01*
X28539038Y-30572432D01*
X30101070Y-30572432D01*
X30101070Y-30984324D01*
X28539038Y-30984324D01*
X28539038Y-32082702D01*
X30372728Y-32082702D01*
X30372728Y-32494594D01*
X27995722Y-32494594D01*
X27995722Y-29199459D01*
X30236899Y-29199459D01*
X30236899Y-29611351D01*
G36*
X34613719Y-29233784D02*
G01*
X35473519Y-30492326D01*
X35725780Y-30860427D01*
X35954119Y-31191448D01*
X36146626Y-31468297D01*
X36291392Y-31673887D01*
X36376507Y-31791126D01*
X36392195Y-31810527D01*
X36409855Y-31764797D01*
X36423196Y-31599781D01*
X36431666Y-31333440D01*
X36434715Y-30983732D01*
X36431792Y-30568617D01*
X36431309Y-30534822D01*
X36411548Y-29199459D01*
X36892514Y-29199459D01*
X36892514Y-32502117D01*
X36572865Y-32481193D01*
X36253215Y-32460270D01*
X35350405Y-31127173D01*
X34447594Y-29794076D01*
X34447594Y-32494594D01*
X33972193Y-32494594D01*
X33972193Y-29191936D01*
X34613719Y-29233784D01*
G37*
X34613719Y-29233784D02*
X35473519Y-30492326D01*
X35725780Y-30860427D01*
X35954119Y-31191448D01*
X36146626Y-31468297D01*
X36291392Y-31673887D01*
X36376507Y-31791126D01*
X36392195Y-31810527D01*
X36409855Y-31764797D01*
X36423196Y-31599781D01*
X36431666Y-31333440D01*
X36434715Y-30983732D01*
X36431792Y-30568617D01*
X36431309Y-30534822D01*
X36411548Y-29199459D01*
X36892514Y-29199459D01*
X36892514Y-32502117D01*
X36572865Y-32481193D01*
X36253215Y-32460270D01*
X35350405Y-31127173D01*
X34447594Y-29794076D01*
X34447594Y-32494594D01*
X33972193Y-32494594D01*
X33972193Y-29191936D01*
X34613719Y-29233784D01*
G36*
X43208556Y-29611351D02*
G01*
X42054011Y-29611351D01*
X42054011Y-32494594D01*
X41578610Y-32494594D01*
X41578610Y-29611351D01*
X40491979Y-29611351D01*
X40491979Y-29199459D01*
X43208556Y-29199459D01*
X43208556Y-29611351D01*
G37*
X43208556Y-29611351D02*
X42054011Y-29611351D01*
X42054011Y-32494594D01*
X41578610Y-32494594D01*
X41578610Y-29611351D01*
X40491979Y-29611351D01*
X40491979Y-29199459D01*
X43208556Y-29199459D01*
X43208556Y-29611351D01*
G36*
X49977058Y-29206579D02*
G01*
X50063780Y-29223747D01*
X50067915Y-29229050D01*
X50034759Y-29295010D01*
X49943272Y-29457646D01*
X49805426Y-29696157D01*
X49633190Y-29989742D01*
X49524684Y-30172969D01*
X48981454Y-31087297D01*
X48981369Y-31790946D01*
X48981284Y-32494594D01*
X48437968Y-32494594D01*
X48437968Y-31107572D01*
X47894653Y-30194865D01*
X47707899Y-29878608D01*
X47548858Y-29604451D01*
X47429561Y-29393524D01*
X47362044Y-29266958D01*
X47351337Y-29240808D01*
X47411381Y-29214487D01*
X47560247Y-29201078D01*
X47606016Y-29200611D01*
X47715491Y-29204932D01*
X47801127Y-29230118D01*
X47881045Y-29296232D01*
X47973366Y-29423337D01*
X48096210Y-29631497D01*
X48257041Y-29921422D01*
X48414349Y-30200099D01*
X48550591Y-30428538D01*
X48651286Y-30583332D01*
X48701956Y-30641073D01*
X48702196Y-30641081D01*
X48752573Y-30584838D01*
X48853923Y-30431611D01*
X48991639Y-30204649D01*
X49151114Y-29927203D01*
X49154780Y-29920664D01*
X49326008Y-29617599D01*
X49448766Y-29414251D01*
X49541240Y-29290712D01*
X49621620Y-29227071D01*
X49708091Y-29203418D01*
X49813236Y-29199853D01*
X49977058Y-29206579D01*
G37*
X49977058Y-29206579D02*
X50063780Y-29223747D01*
X50067915Y-29229050D01*
X50034759Y-29295010D01*
X49943272Y-29457646D01*
X49805426Y-29696157D01*
X49633190Y-29989742D01*
X49524684Y-30172969D01*
X48981454Y-31087297D01*
X48981369Y-31790946D01*
X48981284Y-32494594D01*
X48437968Y-32494594D01*
X48437968Y-31107572D01*
X47894653Y-30194865D01*
X47707899Y-29878608D01*
X47548858Y-29604451D01*
X47429561Y-29393524D01*
X47362044Y-29266958D01*
X47351337Y-29240808D01*
X47411381Y-29214487D01*
X47560247Y-29201078D01*
X47606016Y-29200611D01*
X47715491Y-29204932D01*
X47801127Y-29230118D01*
X47881045Y-29296232D01*
X47973366Y-29423337D01*
X48096210Y-29631497D01*
X48257041Y-29921422D01*
X48414349Y-30200099D01*
X48550591Y-30428538D01*
X48651286Y-30583332D01*
X48701956Y-30641073D01*
X48702196Y-30641081D01*
X48752573Y-30584838D01*
X48853923Y-30431611D01*
X48991639Y-30204649D01*
X49151114Y-29927203D01*
X49154780Y-29920664D01*
X49326008Y-29617599D01*
X49448766Y-29414251D01*
X49541240Y-29290712D01*
X49621620Y-29227071D01*
X49708091Y-29203418D01*
X49813236Y-29199853D01*
X49977058Y-29206579D01*
G36*
X57198931Y-29611351D02*
G01*
X55636899Y-29611351D01*
X55636899Y-30778378D01*
X57131016Y-30778378D01*
X57131016Y-31190270D01*
X55636899Y-31190270D01*
X55636899Y-32494594D01*
X55093583Y-32494594D01*
X55093583Y-29199459D01*
X57198931Y-29199459D01*
X57198931Y-29611351D01*
G37*
X57198931Y-29611351D02*
X55636899Y-29611351D01*
X55636899Y-30778378D01*
X57131016Y-30778378D01*
X57131016Y-31190270D01*
X55636899Y-31190270D01*
X55636899Y-32494594D01*
X55093583Y-32494594D01*
X55093583Y-29199459D01*
X57198931Y-29199459D01*
X57198931Y-29611351D01*
G36*
X63243316Y-32494594D02*
G01*
X62700000Y-32494594D01*
X62700000Y-29199459D01*
X63243316Y-29199459D01*
X63243316Y-32494594D01*
G37*
X63243316Y-32494594D02*
X62700000Y-32494594D01*
X62700000Y-29199459D01*
X63243316Y-29199459D01*
X63243316Y-32494594D01*
G36*
X71049361Y-29223514D02*
G01*
X71053476Y-29230170D01*
X71030976Y-29302689D01*
X70967688Y-29486201D01*
X70869929Y-29762921D01*
X70744018Y-30115064D01*
X70596271Y-30524847D01*
X70466722Y-30881881D01*
X69879967Y-32494594D01*
X69622671Y-32494594D01*
X69478653Y-32487886D01*
X69386746Y-32447658D01*
X69316075Y-32343754D01*
X69235766Y-32146016D01*
X69218548Y-32099865D01*
X69096206Y-31768200D01*
X68958718Y-31390929D01*
X68813592Y-30989163D01*
X68668331Y-30584010D01*
X68530441Y-30196578D01*
X68407427Y-29847976D01*
X68306794Y-29559314D01*
X68236047Y-29351701D01*
X68202692Y-29246245D01*
X68201070Y-29238094D01*
X68260716Y-29212958D01*
X68408641Y-29209391D01*
X68454648Y-29212477D01*
X68708226Y-29233784D01*
X69150771Y-30623834D01*
X69283018Y-31034423D01*
X69402685Y-31396865D01*
X69503255Y-31692155D01*
X69578209Y-31901290D01*
X69621032Y-32005265D01*
X69627273Y-32013296D01*
X69657164Y-31950843D01*
X69721551Y-31776531D01*
X69813908Y-31509383D01*
X69927704Y-31168427D01*
X70056413Y-30772686D01*
X70104258Y-30623246D01*
X70547285Y-29233784D01*
X70800381Y-29212477D01*
X70963171Y-29207970D01*
X71049361Y-29223514D01*
G37*
X71049361Y-29223514D02*
X71053476Y-29230170D01*
X71030976Y-29302689D01*
X70967688Y-29486201D01*
X70869929Y-29762921D01*
X70744018Y-30115064D01*
X70596271Y-30524847D01*
X70466722Y-30881881D01*
X69879967Y-32494594D01*
X69622671Y-32494594D01*
X69478653Y-32487886D01*
X69386746Y-32447658D01*
X69316075Y-32343754D01*
X69235766Y-32146016D01*
X69218548Y-32099865D01*
X69096206Y-31768200D01*
X68958718Y-31390929D01*
X68813592Y-30989163D01*
X68668331Y-30584010D01*
X68530441Y-30196578D01*
X68407427Y-29847976D01*
X68306794Y-29559314D01*
X68236047Y-29351701D01*
X68202692Y-29246245D01*
X68201070Y-29238094D01*
X68260716Y-29212958D01*
X68408641Y-29209391D01*
X68454648Y-29212477D01*
X68708226Y-29233784D01*
X69150771Y-30623834D01*
X69283018Y-31034423D01*
X69402685Y-31396865D01*
X69503255Y-31692155D01*
X69578209Y-31901290D01*
X69621032Y-32005265D01*
X69627273Y-32013296D01*
X69657164Y-31950843D01*
X69721551Y-31776531D01*
X69813908Y-31509383D01*
X69927704Y-31168427D01*
X70056413Y-30772686D01*
X70104258Y-30623246D01*
X70547285Y-29233784D01*
X70800381Y-29212477D01*
X70963171Y-29207970D01*
X71049361Y-29223514D01*
G36*
X78048663Y-29611351D02*
G01*
X76350802Y-29611351D01*
X76350802Y-30572432D01*
X77912834Y-30572432D01*
X77912834Y-30984324D01*
X76350802Y-30984324D01*
X76350802Y-32082702D01*
X78184492Y-32082702D01*
X78184492Y-32494594D01*
X75807487Y-32494594D01*
X75807487Y-29199459D01*
X78048663Y-29199459D01*
X78048663Y-29611351D01*
G37*
X78048663Y-29611351D02*
X76350802Y-29611351D01*
X76350802Y-30572432D01*
X77912834Y-30572432D01*
X77912834Y-30984324D01*
X76350802Y-30984324D01*
X76350802Y-32082702D01*
X78184492Y-32082702D01*
X78184492Y-32494594D01*
X75807487Y-32494594D01*
X75807487Y-29199459D01*
X78048663Y-29199459D01*
X78048663Y-29611351D01*
G36*
X83123246Y-29204619D02*
G01*
X83220909Y-29233609D01*
X83315737Y-29306695D01*
X83430903Y-29444144D01*
X83589579Y-29666221D01*
X83675392Y-29790507D01*
X84082241Y-30381554D01*
X84471368Y-29790507D01*
X84648418Y-29525108D01*
X84774196Y-29354037D01*
X84871614Y-29256609D01*
X84963580Y-29212137D01*
X85073005Y-29199937D01*
X85125967Y-29199459D01*
X85297927Y-29212137D01*
X85352194Y-29254451D01*
X85342301Y-29285270D01*
X85286634Y-29372788D01*
X85170930Y-29548423D01*
X85011888Y-29787003D01*
X84826208Y-30063357D01*
X84818976Y-30074081D01*
X84344789Y-30777081D01*
X84898063Y-31595678D01*
X85094734Y-31889300D01*
X85260603Y-32141959D01*
X85382019Y-32332472D01*
X85445336Y-32439654D01*
X85451337Y-32454435D01*
X85391572Y-32481021D01*
X85244687Y-32494263D01*
X85214262Y-32494594D01*
X85096058Y-32485761D01*
X84998168Y-32444722D01*
X84895880Y-32349673D01*
X84764480Y-32178807D01*
X84620011Y-31970260D01*
X84402544Y-31647126D01*
X84248056Y-31428238D01*
X84134578Y-31310710D01*
X84040140Y-31291657D01*
X83942772Y-31368194D01*
X83820504Y-31537433D01*
X83651367Y-31796491D01*
X83623001Y-31839304D01*
X83433775Y-32120829D01*
X83298740Y-32307415D01*
X83197052Y-32418572D01*
X83107868Y-32473809D01*
X83010344Y-32492634D01*
X82922870Y-32494594D01*
X82751592Y-32481825D01*
X82698041Y-32439226D01*
X82707958Y-32408784D01*
X82763481Y-32322074D01*
X82879877Y-32146826D01*
X83040803Y-31907452D01*
X83229919Y-31628370D01*
X83255282Y-31591092D01*
X83442477Y-31310034D01*
X83597571Y-31065638D01*
X83705867Y-30881920D01*
X83752667Y-30782896D01*
X83753476Y-30777015D01*
X83716634Y-30692601D01*
X83615818Y-30519811D01*
X83465600Y-30282285D01*
X83280546Y-30003662D01*
X83242041Y-29947138D01*
X82730605Y-29199459D01*
X82999574Y-29199459D01*
X83123246Y-29204619D01*
G37*
X83123246Y-29204619D02*
X83220909Y-29233609D01*
X83315737Y-29306695D01*
X83430903Y-29444144D01*
X83589579Y-29666221D01*
X83675392Y-29790507D01*
X84082241Y-30381554D01*
X84471368Y-29790507D01*
X84648418Y-29525108D01*
X84774196Y-29354037D01*
X84871614Y-29256609D01*
X84963580Y-29212137D01*
X85073005Y-29199937D01*
X85125967Y-29199459D01*
X85297927Y-29212137D01*
X85352194Y-29254451D01*
X85342301Y-29285270D01*
X85286634Y-29372788D01*
X85170930Y-29548423D01*
X85011888Y-29787003D01*
X84826208Y-30063357D01*
X84818976Y-30074081D01*
X84344789Y-30777081D01*
X84898063Y-31595678D01*
X85094734Y-31889300D01*
X85260603Y-32141959D01*
X85382019Y-32332472D01*
X85445336Y-32439654D01*
X85451337Y-32454435D01*
X85391572Y-32481021D01*
X85244687Y-32494263D01*
X85214262Y-32494594D01*
X85096058Y-32485761D01*
X84998168Y-32444722D01*
X84895880Y-32349673D01*
X84764480Y-32178807D01*
X84620011Y-31970260D01*
X84402544Y-31647126D01*
X84248056Y-31428238D01*
X84134578Y-31310710D01*
X84040140Y-31291657D01*
X83942772Y-31368194D01*
X83820504Y-31537433D01*
X83651367Y-31796491D01*
X83623001Y-31839304D01*
X83433775Y-32120829D01*
X83298740Y-32307415D01*
X83197052Y-32418572D01*
X83107868Y-32473809D01*
X83010344Y-32492634D01*
X82922870Y-32494594D01*
X82751592Y-32481825D01*
X82698041Y-32439226D01*
X82707958Y-32408784D01*
X82763481Y-32322074D01*
X82879877Y-32146826D01*
X83040803Y-31907452D01*
X83229919Y-31628370D01*
X83255282Y-31591092D01*
X83442477Y-31310034D01*
X83597571Y-31065638D01*
X83705867Y-30881920D01*
X83752667Y-30782896D01*
X83753476Y-30777015D01*
X83716634Y-30692601D01*
X83615818Y-30519811D01*
X83465600Y-30282285D01*
X83280546Y-30003662D01*
X83242041Y-29947138D01*
X82730605Y-29199459D01*
X82999574Y-29199459D01*
X83123246Y-29204619D01*
G36*
X29688349Y-21716415D02*
G01*
X30053020Y-21928090D01*
X30335642Y-22232205D01*
X30449812Y-22436978D01*
X30548453Y-22781965D01*
X30580681Y-23193072D01*
X30547726Y-23617357D01*
X30450821Y-24001881D01*
X30411171Y-24097878D01*
X30187488Y-24439437D01*
X29881974Y-24698159D01*
X29542602Y-24843070D01*
X29419921Y-24882560D01*
X29396327Y-24945403D01*
X29455251Y-25079302D01*
X29458412Y-25085484D01*
X29627139Y-25303770D01*
X29862293Y-25409227D01*
X30028691Y-25423784D01*
X30176813Y-25441786D01*
X30231763Y-25516999D01*
X30236899Y-25588060D01*
X30196830Y-25731338D01*
X30129472Y-25794006D01*
X29935732Y-25828075D01*
X29691175Y-25821797D01*
X29473913Y-25778030D01*
X29450343Y-25769165D01*
X29285665Y-25655668D01*
X29110214Y-25468365D01*
X28967368Y-25259365D01*
X28906848Y-25116273D01*
X28842447Y-25001370D01*
X28696081Y-24919710D01*
X28550317Y-24876131D01*
X28144462Y-24710727D01*
X27831133Y-24445554D01*
X27612146Y-24083036D01*
X27489322Y-23625599D01*
X27468626Y-23432973D01*
X27474030Y-23228098D01*
X27995976Y-23228098D01*
X28024591Y-23649785D01*
X28118404Y-23972410D01*
X28288660Y-24222909D01*
X28478024Y-24382967D01*
X28643047Y-24478319D01*
X28813313Y-24519562D01*
X29047619Y-24519254D01*
X29100087Y-24515829D01*
X29349215Y-24485737D01*
X29522902Y-24422384D01*
X29681274Y-24301034D01*
X29725883Y-24258380D01*
X29918653Y-23985676D01*
X30039178Y-23640485D01*
X30085695Y-23261167D01*
X30056438Y-22886087D01*
X29949643Y-22553605D01*
X29813647Y-22350964D01*
X29520537Y-22121153D01*
X29190856Y-22005348D01*
X28852065Y-22001306D01*
X28531623Y-22106783D01*
X28256991Y-22319535D01*
X28131184Y-22488426D01*
X28052476Y-22661880D01*
X28010060Y-22880998D01*
X27996108Y-23188594D01*
X27995976Y-23228098D01*
X27474030Y-23228098D01*
X27482535Y-22905676D01*
X27600743Y-22458452D01*
X27818847Y-22097378D01*
X28132446Y-21828527D01*
X28537136Y-21657974D01*
X28790423Y-21609085D01*
X29261020Y-21606856D01*
X29688349Y-21716415D01*
G37*
X29688349Y-21716415D02*
X30053020Y-21928090D01*
X30335642Y-22232205D01*
X30449812Y-22436978D01*
X30548453Y-22781965D01*
X30580681Y-23193072D01*
X30547726Y-23617357D01*
X30450821Y-24001881D01*
X30411171Y-24097878D01*
X30187488Y-24439437D01*
X29881974Y-24698159D01*
X29542602Y-24843070D01*
X29419921Y-24882560D01*
X29396327Y-24945403D01*
X29455251Y-25079302D01*
X29458412Y-25085484D01*
X29627139Y-25303770D01*
X29862293Y-25409227D01*
X30028691Y-25423784D01*
X30176813Y-25441786D01*
X30231763Y-25516999D01*
X30236899Y-25588060D01*
X30196830Y-25731338D01*
X30129472Y-25794006D01*
X29935732Y-25828075D01*
X29691175Y-25821797D01*
X29473913Y-25778030D01*
X29450343Y-25769165D01*
X29285665Y-25655668D01*
X29110214Y-25468365D01*
X28967368Y-25259365D01*
X28906848Y-25116273D01*
X28842447Y-25001370D01*
X28696081Y-24919710D01*
X28550317Y-24876131D01*
X28144462Y-24710727D01*
X27831133Y-24445554D01*
X27612146Y-24083036D01*
X27489322Y-23625599D01*
X27468626Y-23432973D01*
X27474030Y-23228098D01*
X27995976Y-23228098D01*
X28024591Y-23649785D01*
X28118404Y-23972410D01*
X28288660Y-24222909D01*
X28478024Y-24382967D01*
X28643047Y-24478319D01*
X28813313Y-24519562D01*
X29047619Y-24519254D01*
X29100087Y-24515829D01*
X29349215Y-24485737D01*
X29522902Y-24422384D01*
X29681274Y-24301034D01*
X29725883Y-24258380D01*
X29918653Y-23985676D01*
X30039178Y-23640485D01*
X30085695Y-23261167D01*
X30056438Y-22886087D01*
X29949643Y-22553605D01*
X29813647Y-22350964D01*
X29520537Y-22121153D01*
X29190856Y-22005348D01*
X28852065Y-22001306D01*
X28531623Y-22106783D01*
X28256991Y-22319535D01*
X28131184Y-22488426D01*
X28052476Y-22661880D01*
X28010060Y-22880998D01*
X27996108Y-23188594D01*
X27995976Y-23228098D01*
X27474030Y-23228098D01*
X27482535Y-22905676D01*
X27600743Y-22458452D01*
X27818847Y-22097378D01*
X28132446Y-21828527D01*
X28537136Y-21657974D01*
X28790423Y-21609085D01*
X29261020Y-21606856D01*
X29688349Y-21716415D01*
G36*
X22673943Y-21634992D02*
G01*
X23048256Y-21779849D01*
X23364404Y-22020930D01*
X23469587Y-22145997D01*
X23554671Y-22304837D01*
X23524134Y-22412415D01*
X23369136Y-22488183D01*
X23306238Y-22505352D01*
X23159095Y-22510146D01*
X23060789Y-22410799D01*
X23046237Y-22384536D01*
X22865775Y-22178354D01*
X22604109Y-22044813D01*
X22299881Y-21991937D01*
X21991732Y-22027750D01*
X21776115Y-22120800D01*
X21559729Y-22315511D01*
X21419838Y-22593471D01*
X21350477Y-22969959D01*
X21340213Y-23237402D01*
X21370117Y-23663080D01*
X21466210Y-23987811D01*
X21638366Y-24235589D01*
X21808573Y-24375523D01*
X22101529Y-24500891D01*
X22417585Y-24518699D01*
X22720385Y-24437028D01*
X22973576Y-24263956D01*
X23104640Y-24087481D01*
X23234039Y-23942397D01*
X23398856Y-23929746D01*
X23550903Y-24010641D01*
X23624081Y-24074673D01*
X23633071Y-24140521D01*
X23569552Y-24246088D01*
X23471790Y-24371046D01*
X23296714Y-24559996D01*
X23108156Y-24720505D01*
X23047364Y-24761004D01*
X22784375Y-24860752D01*
X22447936Y-24911193D01*
X22092661Y-24908775D01*
X21773163Y-24849948D01*
X21757318Y-24844875D01*
X21387261Y-24656173D01*
X21105516Y-24364870D01*
X20914697Y-23974884D01*
X20817417Y-23490131D01*
X20812298Y-23427827D01*
X20819745Y-22986854D01*
X20898573Y-22574534D01*
X21039150Y-22228110D01*
X21170338Y-22043464D01*
X21489663Y-21790596D01*
X21865882Y-21639083D01*
X22270230Y-21587643D01*
X22673943Y-21634992D01*
G37*
X22673943Y-21634992D02*
X23048256Y-21779849D01*
X23364404Y-22020930D01*
X23469587Y-22145997D01*
X23554671Y-22304837D01*
X23524134Y-22412415D01*
X23369136Y-22488183D01*
X23306238Y-22505352D01*
X23159095Y-22510146D01*
X23060789Y-22410799D01*
X23046237Y-22384536D01*
X22865775Y-22178354D01*
X22604109Y-22044813D01*
X22299881Y-21991937D01*
X21991732Y-22027750D01*
X21776115Y-22120800D01*
X21559729Y-22315511D01*
X21419838Y-22593471D01*
X21350477Y-22969959D01*
X21340213Y-23237402D01*
X21370117Y-23663080D01*
X21466210Y-23987811D01*
X21638366Y-24235589D01*
X21808573Y-24375523D01*
X22101529Y-24500891D01*
X22417585Y-24518699D01*
X22720385Y-24437028D01*
X22973576Y-24263956D01*
X23104640Y-24087481D01*
X23234039Y-23942397D01*
X23398856Y-23929746D01*
X23550903Y-24010641D01*
X23624081Y-24074673D01*
X23633071Y-24140521D01*
X23569552Y-24246088D01*
X23471790Y-24371046D01*
X23296714Y-24559996D01*
X23108156Y-24720505D01*
X23047364Y-24761004D01*
X22784375Y-24860752D01*
X22447936Y-24911193D01*
X22092661Y-24908775D01*
X21773163Y-24849948D01*
X21757318Y-24844875D01*
X21387261Y-24656173D01*
X21105516Y-24364870D01*
X20914697Y-23974884D01*
X20817417Y-23490131D01*
X20812298Y-23427827D01*
X20819745Y-22986854D01*
X20898573Y-22574534D01*
X21039150Y-22228110D01*
X21170338Y-22043464D01*
X21489663Y-21790596D01*
X21865882Y-21639083D01*
X22270230Y-21587643D01*
X22673943Y-21634992D01*
G36*
X34651337Y-22787381D02*
G01*
X34653335Y-23242397D01*
X34660478Y-23581514D01*
X34674489Y-23826085D01*
X34697091Y-23997465D01*
X34730007Y-24117007D01*
X34764433Y-24188828D01*
X34955334Y-24393597D01*
X35211696Y-24507435D01*
X35498681Y-24531996D01*
X35781449Y-24468935D01*
X36025163Y-24319906D01*
X36178262Y-24121706D01*
X36218699Y-24010668D01*
X36247696Y-23846507D01*
X36266769Y-23609013D01*
X36277437Y-23277978D01*
X36281217Y-22833194D01*
X36281284Y-22749895D01*
X36281284Y-21579459D01*
X36824599Y-21579459D01*
X36824599Y-22647439D01*
X36819555Y-23044721D01*
X36805678Y-23419065D01*
X36784847Y-23737149D01*
X36758944Y-23965653D01*
X36746671Y-24028245D01*
X36595732Y-24373373D01*
X36345226Y-24644428D01*
X36015315Y-24832173D01*
X35626161Y-24927369D01*
X35197927Y-24920780D01*
X34925476Y-24862643D01*
X34675652Y-24773915D01*
X34481315Y-24658747D01*
X34335834Y-24500246D01*
X34232580Y-24281518D01*
X34164925Y-23985669D01*
X34126239Y-23595805D01*
X34109894Y-23095031D01*
X34108022Y-22779421D01*
X34108022Y-21579459D01*
X34651337Y-21579459D01*
X34651337Y-22787381D01*
G37*
X34651337Y-22787381D02*
X34653335Y-23242397D01*
X34660478Y-23581514D01*
X34674489Y-23826085D01*
X34697091Y-23997465D01*
X34730007Y-24117007D01*
X34764433Y-24188828D01*
X34955334Y-24393597D01*
X35211696Y-24507435D01*
X35498681Y-24531996D01*
X35781449Y-24468935D01*
X36025163Y-24319906D01*
X36178262Y-24121706D01*
X36218699Y-24010668D01*
X36247696Y-23846507D01*
X36266769Y-23609013D01*
X36277437Y-23277978D01*
X36281217Y-22833194D01*
X36281284Y-22749895D01*
X36281284Y-21579459D01*
X36824599Y-21579459D01*
X36824599Y-22647439D01*
X36819555Y-23044721D01*
X36805678Y-23419065D01*
X36784847Y-23737149D01*
X36758944Y-23965653D01*
X36746671Y-24028245D01*
X36595732Y-24373373D01*
X36345226Y-24644428D01*
X36015315Y-24832173D01*
X35626161Y-24927369D01*
X35197927Y-24920780D01*
X34925476Y-24862643D01*
X34675652Y-24773915D01*
X34481315Y-24658747D01*
X34335834Y-24500246D01*
X34232580Y-24281518D01*
X34164925Y-23985669D01*
X34126239Y-23595805D01*
X34109894Y-23095031D01*
X34108022Y-22779421D01*
X34108022Y-21579459D01*
X34651337Y-21579459D01*
X34651337Y-22787381D01*
G36*
X84476082Y-21634992D02*
G01*
X84850395Y-21779849D01*
X85166543Y-22020930D01*
X85271726Y-22145997D01*
X85356810Y-22304837D01*
X85326273Y-22412415D01*
X85171275Y-22488183D01*
X85108377Y-22505352D01*
X84961234Y-22510146D01*
X84862928Y-22410799D01*
X84848376Y-22384536D01*
X84667914Y-22178354D01*
X84406248Y-22044813D01*
X84102020Y-21991937D01*
X83793871Y-22027750D01*
X83578255Y-22120800D01*
X83361868Y-22315511D01*
X83221977Y-22593471D01*
X83152616Y-22969959D01*
X83142352Y-23237402D01*
X83172256Y-23663080D01*
X83268349Y-23987811D01*
X83440505Y-24235589D01*
X83610712Y-24375523D01*
X83903668Y-24500891D01*
X84219724Y-24518699D01*
X84522524Y-24437028D01*
X84775715Y-24263956D01*
X84906779Y-24087481D01*
X85036178Y-23942397D01*
X85200995Y-23929746D01*
X85353042Y-24010641D01*
X85426220Y-24074673D01*
X85435210Y-24140521D01*
X85371691Y-24246088D01*
X85273929Y-24371046D01*
X85098853Y-24559996D01*
X84910295Y-24720505D01*
X84849503Y-24761004D01*
X84586514Y-24860752D01*
X84250075Y-24911193D01*
X83894800Y-24908775D01*
X83575302Y-24849948D01*
X83559457Y-24844875D01*
X83189400Y-24656173D01*
X82907655Y-24364870D01*
X82716836Y-23974884D01*
X82619556Y-23490131D01*
X82614437Y-23427827D01*
X82621884Y-22986854D01*
X82700712Y-22574534D01*
X82841289Y-22228110D01*
X82972477Y-22043464D01*
X83291802Y-21790596D01*
X83668021Y-21639083D01*
X84072369Y-21587643D01*
X84476082Y-21634992D01*
G37*
X84476082Y-21634992D02*
X84850395Y-21779849D01*
X85166543Y-22020930D01*
X85271726Y-22145997D01*
X85356810Y-22304837D01*
X85326273Y-22412415D01*
X85171275Y-22488183D01*
X85108377Y-22505352D01*
X84961234Y-22510146D01*
X84862928Y-22410799D01*
X84848376Y-22384536D01*
X84667914Y-22178354D01*
X84406248Y-22044813D01*
X84102020Y-21991937D01*
X83793871Y-22027750D01*
X83578255Y-22120800D01*
X83361868Y-22315511D01*
X83221977Y-22593471D01*
X83152616Y-22969959D01*
X83142352Y-23237402D01*
X83172256Y-23663080D01*
X83268349Y-23987811D01*
X83440505Y-24235589D01*
X83610712Y-24375523D01*
X83903668Y-24500891D01*
X84219724Y-24518699D01*
X84522524Y-24437028D01*
X84775715Y-24263956D01*
X84906779Y-24087481D01*
X85036178Y-23942397D01*
X85200995Y-23929746D01*
X85353042Y-24010641D01*
X85426220Y-24074673D01*
X85435210Y-24140521D01*
X85371691Y-24246088D01*
X85273929Y-24371046D01*
X85098853Y-24559996D01*
X84910295Y-24720505D01*
X84849503Y-24761004D01*
X84586514Y-24860752D01*
X84250075Y-24911193D01*
X83894800Y-24908775D01*
X83575302Y-24849948D01*
X83559457Y-24844875D01*
X83189400Y-24656173D01*
X82907655Y-24364870D01*
X82716836Y-23974884D01*
X82619556Y-23490131D01*
X82614437Y-23427827D01*
X82621884Y-22986854D01*
X82700712Y-22574534D01*
X82841289Y-22228110D01*
X82972477Y-22043464D01*
X83291802Y-21790596D01*
X83668021Y-21639083D01*
X84072369Y-21587643D01*
X84476082Y-21634992D01*
G36*
X16205055Y-23175540D02*
G01*
X16366228Y-23616829D01*
X16510399Y-24015477D01*
X16631161Y-24353453D01*
X16722110Y-24612724D01*
X16776841Y-24775257D01*
X16790273Y-24823108D01*
X16730319Y-24857512D01*
X16583972Y-24874277D01*
X16558258Y-24874594D01*
X16433763Y-24867392D01*
X16350036Y-24826721D01*
X16282088Y-24723983D01*
X16204931Y-24530582D01*
X16168358Y-24428378D01*
X16010038Y-23982162D01*
X14641697Y-23982162D01*
X14485854Y-24428378D01*
X14400876Y-24662922D01*
X14334202Y-24796322D01*
X14259525Y-24857116D01*
X14150535Y-24873840D01*
X14074489Y-24874594D01*
X13818966Y-24874594D01*
X14253742Y-23690405D01*
X14297908Y-23570270D01*
X14770821Y-23570270D01*
X15853763Y-23570270D01*
X15811128Y-23398563D01*
X15756869Y-23210511D01*
X15677536Y-22971612D01*
X15584779Y-22712592D01*
X15490253Y-22464180D01*
X15405607Y-22257100D01*
X15342495Y-22122081D01*
X15313912Y-22087379D01*
X15278690Y-22162403D01*
X15209323Y-22339434D01*
X15116334Y-22590821D01*
X15025228Y-22846148D01*
X14770821Y-23570270D01*
X14297908Y-23570270D01*
X14407016Y-23273488D01*
X14557634Y-22864773D01*
X14693762Y-22496308D01*
X14803564Y-22200137D01*
X14862229Y-22042838D01*
X15035939Y-21579459D01*
X15619403Y-21579459D01*
X16205055Y-23175540D01*
G37*
X16205055Y-23175540D02*
X16366228Y-23616829D01*
X16510399Y-24015477D01*
X16631161Y-24353453D01*
X16722110Y-24612724D01*
X16776841Y-24775257D01*
X16790273Y-24823108D01*
X16730319Y-24857512D01*
X16583972Y-24874277D01*
X16558258Y-24874594D01*
X16433763Y-24867392D01*
X16350036Y-24826721D01*
X16282088Y-24723983D01*
X16204931Y-24530582D01*
X16168358Y-24428378D01*
X16010038Y-23982162D01*
X14641697Y-23982162D01*
X14485854Y-24428378D01*
X14400876Y-24662922D01*
X14334202Y-24796322D01*
X14259525Y-24857116D01*
X14150535Y-24873840D01*
X14074489Y-24874594D01*
X13818966Y-24874594D01*
X14253742Y-23690405D01*
X14297908Y-23570270D01*
X14770821Y-23570270D01*
X15853763Y-23570270D01*
X15811128Y-23398563D01*
X15756869Y-23210511D01*
X15677536Y-22971612D01*
X15584779Y-22712592D01*
X15490253Y-22464180D01*
X15405607Y-22257100D01*
X15342495Y-22122081D01*
X15313912Y-22087379D01*
X15278690Y-22162403D01*
X15209323Y-22339434D01*
X15116334Y-22590821D01*
X15025228Y-22846148D01*
X14770821Y-23570270D01*
X14297908Y-23570270D01*
X14407016Y-23273488D01*
X14557634Y-22864773D01*
X14693762Y-22496308D01*
X14803564Y-22200137D01*
X14862229Y-22042838D01*
X15035939Y-21579459D01*
X15619403Y-21579459D01*
X16205055Y-23175540D01*
G36*
X42691686Y-23175540D02*
G01*
X42852859Y-23616829D01*
X42997030Y-24015477D01*
X43117792Y-24353453D01*
X43208741Y-24612724D01*
X43263472Y-24775257D01*
X43276904Y-24823108D01*
X43216950Y-24857512D01*
X43070603Y-24874277D01*
X43044889Y-24874594D01*
X42920394Y-24867392D01*
X42836667Y-24826721D01*
X42768719Y-24723983D01*
X42691562Y-24530582D01*
X42654989Y-24428378D01*
X42496669Y-23982162D01*
X41128328Y-23982162D01*
X40972485Y-24428378D01*
X40887507Y-24662922D01*
X40820833Y-24796322D01*
X40746156Y-24857116D01*
X40637166Y-24873840D01*
X40561120Y-24874594D01*
X40305597Y-24874594D01*
X40740373Y-23690405D01*
X40784539Y-23570270D01*
X41257452Y-23570270D01*
X42340394Y-23570270D01*
X42297759Y-23398563D01*
X42243500Y-23210511D01*
X42164167Y-22971612D01*
X42071410Y-22712592D01*
X41976884Y-22464180D01*
X41892238Y-22257100D01*
X41829126Y-22122081D01*
X41800543Y-22087379D01*
X41765321Y-22162403D01*
X41695954Y-22339434D01*
X41602965Y-22590821D01*
X41511859Y-22846148D01*
X41257452Y-23570270D01*
X40784539Y-23570270D01*
X40893647Y-23273488D01*
X41044265Y-22864773D01*
X41180393Y-22496308D01*
X41290195Y-22200137D01*
X41348860Y-22042838D01*
X41522570Y-21579459D01*
X42106034Y-21579459D01*
X42691686Y-23175540D01*
G37*
X42691686Y-23175540D02*
X42852859Y-23616829D01*
X42997030Y-24015477D01*
X43117792Y-24353453D01*
X43208741Y-24612724D01*
X43263472Y-24775257D01*
X43276904Y-24823108D01*
X43216950Y-24857512D01*
X43070603Y-24874277D01*
X43044889Y-24874594D01*
X42920394Y-24867392D01*
X42836667Y-24826721D01*
X42768719Y-24723983D01*
X42691562Y-24530582D01*
X42654989Y-24428378D01*
X42496669Y-23982162D01*
X41128328Y-23982162D01*
X40972485Y-24428378D01*
X40887507Y-24662922D01*
X40820833Y-24796322D01*
X40746156Y-24857116D01*
X40637166Y-24873840D01*
X40561120Y-24874594D01*
X40305597Y-24874594D01*
X40740373Y-23690405D01*
X40784539Y-23570270D01*
X41257452Y-23570270D01*
X42340394Y-23570270D01*
X42297759Y-23398563D01*
X42243500Y-23210511D01*
X42164167Y-22971612D01*
X42071410Y-22712592D01*
X41976884Y-22464180D01*
X41892238Y-22257100D01*
X41829126Y-22122081D01*
X41800543Y-22087379D01*
X41765321Y-22162403D01*
X41695954Y-22339434D01*
X41602965Y-22590821D01*
X41511859Y-22846148D01*
X41257452Y-23570270D01*
X40784539Y-23570270D01*
X40893647Y-23273488D01*
X41044265Y-22864773D01*
X41180393Y-22496308D01*
X41290195Y-22200137D01*
X41348860Y-22042838D01*
X41522570Y-21579459D01*
X42106034Y-21579459D01*
X42691686Y-23175540D01*
G36*
X48420990Y-21591749D02*
G01*
X48872669Y-21613818D01*
X49211828Y-21653711D01*
X49461363Y-21718533D01*
X49644167Y-21815393D01*
X49783135Y-21951396D01*
X49840894Y-22032516D01*
X49929904Y-22273319D01*
X49947822Y-22572195D01*
X49894567Y-22870180D01*
X49842215Y-22998492D01*
X49678461Y-23197755D01*
X49465873Y-23334147D01*
X49201340Y-23452120D01*
X49634627Y-24127033D01*
X49804395Y-24394394D01*
X49942950Y-24618160D01*
X50035652Y-24774298D01*
X50067915Y-24838270D01*
X50007667Y-24861186D01*
X49857470Y-24873767D01*
X49800830Y-24874594D01*
X49683544Y-24870831D01*
X49592689Y-24846106D01*
X49508201Y-24780264D01*
X49410015Y-24653150D01*
X49278069Y-24444611D01*
X49134519Y-24205270D01*
X48735293Y-23535946D01*
X48416845Y-23515022D01*
X48098396Y-23494099D01*
X48098396Y-24874594D01*
X47555080Y-24874594D01*
X47555080Y-23089729D01*
X48098396Y-23089729D01*
X48543212Y-23089729D01*
X48848567Y-23071128D01*
X49097897Y-23020916D01*
X49187416Y-22985508D01*
X49362856Y-22827023D01*
X49443065Y-22612593D01*
X49428203Y-22383893D01*
X49318434Y-22182595D01*
X49183899Y-22079633D01*
X49028941Y-22034640D01*
X48792610Y-22003062D01*
X48556818Y-21992363D01*
X48098396Y-21991351D01*
X48098396Y-23089729D01*
X47555080Y-23089729D01*
X47555080Y-21565671D01*
X48420990Y-21591749D01*
G37*
X48420990Y-21591749D02*
X48872669Y-21613818D01*
X49211828Y-21653711D01*
X49461363Y-21718533D01*
X49644167Y-21815393D01*
X49783135Y-21951396D01*
X49840894Y-22032516D01*
X49929904Y-22273319D01*
X49947822Y-22572195D01*
X49894567Y-22870180D01*
X49842215Y-22998492D01*
X49678461Y-23197755D01*
X49465873Y-23334147D01*
X49201340Y-23452120D01*
X49634627Y-24127033D01*
X49804395Y-24394394D01*
X49942950Y-24618160D01*
X50035652Y-24774298D01*
X50067915Y-24838270D01*
X50007667Y-24861186D01*
X49857470Y-24873767D01*
X49800830Y-24874594D01*
X49683544Y-24870831D01*
X49592689Y-24846106D01*
X49508201Y-24780264D01*
X49410015Y-24653150D01*
X49278069Y-24444611D01*
X49134519Y-24205270D01*
X48735293Y-23535946D01*
X48416845Y-23515022D01*
X48098396Y-23494099D01*
X48098396Y-24874594D01*
X47555080Y-24874594D01*
X47555080Y-23089729D01*
X48098396Y-23089729D01*
X48543212Y-23089729D01*
X48848567Y-23071128D01*
X49097897Y-23020916D01*
X49187416Y-22985508D01*
X49362856Y-22827023D01*
X49443065Y-22612593D01*
X49428203Y-22383893D01*
X49318434Y-22182595D01*
X49183899Y-22079633D01*
X49028941Y-22034640D01*
X48792610Y-22003062D01*
X48556818Y-21992363D01*
X48098396Y-21991351D01*
X48098396Y-23089729D01*
X47555080Y-23089729D01*
X47555080Y-21565671D01*
X48420990Y-21591749D01*
G36*
X57470588Y-21991351D02*
G01*
X56316043Y-21991351D01*
X56316043Y-24874594D01*
X55840642Y-24874594D01*
X55840642Y-21991351D01*
X54754011Y-21991351D01*
X54754011Y-21579459D01*
X57470588Y-21579459D01*
X57470588Y-21991351D01*
G37*
X57470588Y-21991351D02*
X56316043Y-21991351D01*
X56316043Y-24874594D01*
X55840642Y-24874594D01*
X55840642Y-21991351D01*
X54754011Y-21991351D01*
X54754011Y-21579459D01*
X57470588Y-21579459D01*
X57470588Y-21991351D01*
G36*
X64126203Y-21991351D02*
G01*
X62428342Y-21991351D01*
X62428342Y-22952432D01*
X63990375Y-22952432D01*
X63990375Y-23364324D01*
X62428342Y-23364324D01*
X62428342Y-24462702D01*
X64262032Y-24462702D01*
X64262032Y-24874594D01*
X61885027Y-24874594D01*
X61885027Y-21579459D01*
X64126203Y-21579459D01*
X64126203Y-21991351D01*
G37*
X64126203Y-21991351D02*
X62428342Y-21991351D01*
X62428342Y-22952432D01*
X63990375Y-22952432D01*
X63990375Y-23364324D01*
X62428342Y-23364324D01*
X62428342Y-24462702D01*
X64262032Y-24462702D01*
X64262032Y-24874594D01*
X61885027Y-24874594D01*
X61885027Y-21579459D01*
X64126203Y-21579459D01*
X64126203Y-21991351D01*
G36*
X69406551Y-21591749D02*
G01*
X69858230Y-21613818D01*
X70197390Y-21653711D01*
X70446924Y-21718533D01*
X70629728Y-21815393D01*
X70768697Y-21951396D01*
X70826455Y-22032516D01*
X70915465Y-22273319D01*
X70933383Y-22572195D01*
X70880129Y-22870180D01*
X70827776Y-22998492D01*
X70664022Y-23197755D01*
X70451435Y-23334147D01*
X70186901Y-23452120D01*
X70620189Y-24127033D01*
X70789956Y-24394394D01*
X70928512Y-24618160D01*
X71021213Y-24774298D01*
X71053476Y-24838270D01*
X70993229Y-24861186D01*
X70843032Y-24873767D01*
X70786391Y-24874594D01*
X70669106Y-24870831D01*
X70578251Y-24846106D01*
X70493762Y-24780264D01*
X70395577Y-24653150D01*
X70263630Y-24444611D01*
X70120081Y-24205270D01*
X69720855Y-23535946D01*
X69402406Y-23515022D01*
X69083957Y-23494099D01*
X69083957Y-24874594D01*
X68540642Y-24874594D01*
X68540642Y-23089729D01*
X69083957Y-23089729D01*
X69528774Y-23089729D01*
X69834129Y-23071128D01*
X70083458Y-23020916D01*
X70172977Y-22985508D01*
X70348418Y-22827023D01*
X70428626Y-22612593D01*
X70413765Y-22383893D01*
X70303995Y-22182595D01*
X70169461Y-22079633D01*
X70014503Y-22034640D01*
X69778172Y-22003062D01*
X69542380Y-21992363D01*
X69083957Y-21991351D01*
X69083957Y-23089729D01*
X68540642Y-23089729D01*
X68540642Y-21565671D01*
X69406551Y-21591749D01*
G37*
X69406551Y-21591749D02*
X69858230Y-21613818D01*
X70197390Y-21653711D01*
X70446924Y-21718533D01*
X70629728Y-21815393D01*
X70768697Y-21951396D01*
X70826455Y-22032516D01*
X70915465Y-22273319D01*
X70933383Y-22572195D01*
X70880129Y-22870180D01*
X70827776Y-22998492D01*
X70664022Y-23197755D01*
X70451435Y-23334147D01*
X70186901Y-23452120D01*
X70620189Y-24127033D01*
X70789956Y-24394394D01*
X70928512Y-24618160D01*
X71021213Y-24774298D01*
X71053476Y-24838270D01*
X70993229Y-24861186D01*
X70843032Y-24873767D01*
X70786391Y-24874594D01*
X70669106Y-24870831D01*
X70578251Y-24846106D01*
X70493762Y-24780264D01*
X70395577Y-24653150D01*
X70263630Y-24444611D01*
X70120081Y-24205270D01*
X69720855Y-23535946D01*
X69402406Y-23515022D01*
X69083957Y-23494099D01*
X69083957Y-24874594D01*
X68540642Y-24874594D01*
X68540642Y-23089729D01*
X69083957Y-23089729D01*
X69528774Y-23089729D01*
X69834129Y-23071128D01*
X70083458Y-23020916D01*
X70172977Y-22985508D01*
X70348418Y-22827023D01*
X70428626Y-22612593D01*
X70413765Y-22383893D01*
X70303995Y-22182595D01*
X70169461Y-22079633D01*
X70014503Y-22034640D01*
X69778172Y-22003062D01*
X69542380Y-21992363D01*
X69083957Y-21991351D01*
X69083957Y-23089729D01*
X68540642Y-23089729D01*
X68540642Y-21565671D01*
X69406551Y-21591749D01*
G36*
X76333824Y-21593752D02*
G01*
X76867509Y-21628272D01*
X77286759Y-21695554D01*
X77610876Y-21804366D01*
X77859161Y-21963473D01*
X78050918Y-22181640D01*
X78191960Y-22437567D01*
X78286446Y-22763289D01*
X78320152Y-23155258D01*
X78293543Y-23557168D01*
X78207081Y-23912718D01*
X78179266Y-23980927D01*
X78028121Y-24271788D01*
X77856813Y-24490572D01*
X77643742Y-24647778D01*
X77367308Y-24753906D01*
X77005909Y-24819457D01*
X76537944Y-24854929D01*
X76367781Y-24861463D01*
X75467915Y-24890497D01*
X75467915Y-24476791D01*
X76011230Y-24476791D01*
X76583573Y-24452585D01*
X76904874Y-24430576D01*
X77126456Y-24391781D01*
X77284134Y-24328442D01*
X77347611Y-24287062D01*
X77496378Y-24138505D01*
X77646413Y-23929923D01*
X77697068Y-23840846D01*
X77788424Y-23633827D01*
X77828697Y-23436216D01*
X77828651Y-23184605D01*
X77823083Y-23098640D01*
X77769296Y-22745177D01*
X77652267Y-22477966D01*
X77448861Y-22252082D01*
X77343415Y-22167214D01*
X77207764Y-22089696D01*
X77026488Y-22040273D01*
X76763885Y-22011158D01*
X76583573Y-22001469D01*
X76011230Y-21977262D01*
X76011230Y-24476791D01*
X75467915Y-24476791D01*
X75467915Y-21563225D01*
X76333824Y-21593752D01*
G37*
X76333824Y-21593752D02*
X76867509Y-21628272D01*
X77286759Y-21695554D01*
X77610876Y-21804366D01*
X77859161Y-21963473D01*
X78050918Y-22181640D01*
X78191960Y-22437567D01*
X78286446Y-22763289D01*
X78320152Y-23155258D01*
X78293543Y-23557168D01*
X78207081Y-23912718D01*
X78179266Y-23980927D01*
X78028121Y-24271788D01*
X77856813Y-24490572D01*
X77643742Y-24647778D01*
X77367308Y-24753906D01*
X77005909Y-24819457D01*
X76537944Y-24854929D01*
X76367781Y-24861463D01*
X75467915Y-24890497D01*
X75467915Y-24476791D01*
X76011230Y-24476791D01*
X76583573Y-24452585D01*
X76904874Y-24430576D01*
X77126456Y-24391781D01*
X77284134Y-24328442D01*
X77347611Y-24287062D01*
X77496378Y-24138505D01*
X77646413Y-23929923D01*
X77697068Y-23840846D01*
X77788424Y-23633827D01*
X77828697Y-23436216D01*
X77828651Y-23184605D01*
X77823083Y-23098640D01*
X77769296Y-22745177D01*
X77652267Y-22477966D01*
X77448861Y-22252082D01*
X77343415Y-22167214D01*
X77207764Y-22089696D01*
X77026488Y-22040273D01*
X76763885Y-22011158D01*
X76583573Y-22001469D01*
X76011230Y-21977262D01*
X76011230Y-24476791D01*
X75467915Y-24476791D01*
X75467915Y-21563225D01*
X76333824Y-21593752D01*
G36*
X42301876Y-14024336D02*
G01*
X42610967Y-14103856D01*
X42830548Y-14245788D01*
X42969706Y-14437753D01*
X43048163Y-14599418D01*
X43051602Y-14679153D01*
X42964372Y-14718512D01*
X42855373Y-14741373D01*
X42683467Y-14752400D01*
X42559499Y-14678736D01*
X42496484Y-14605892D01*
X42341900Y-14471580D01*
X42119883Y-14401688D01*
X42038735Y-14390443D01*
X41675746Y-14384819D01*
X41403551Y-14456986D01*
X41232050Y-14602043D01*
X41171145Y-14815091D01*
X41171123Y-14819797D01*
X41212633Y-14987937D01*
X41346018Y-15130127D01*
X41584559Y-15254962D01*
X41941536Y-15371039D01*
X42077315Y-15406338D01*
X42406311Y-15496348D01*
X42636751Y-15582853D01*
X42804526Y-15681903D01*
X42919920Y-15783143D01*
X43059015Y-15944933D01*
X43123778Y-16102815D01*
X43140580Y-16324042D01*
X43140642Y-16346039D01*
X43088200Y-16690972D01*
X42925645Y-16958629D01*
X42654150Y-17157419D01*
X42449230Y-17225058D01*
X42160675Y-17272666D01*
X41839750Y-17296251D01*
X41537719Y-17291820D01*
X41325632Y-17260895D01*
X40960575Y-17102515D01*
X40684354Y-16842214D01*
X40624707Y-16753162D01*
X40492261Y-16533784D01*
X40725634Y-16476478D01*
X40884633Y-16451369D01*
X40999769Y-16489064D01*
X41128887Y-16611613D01*
X41153992Y-16639757D01*
X41309584Y-16784527D01*
X41484346Y-16860933D01*
X41697811Y-16894223D01*
X42055529Y-16903486D01*
X42319399Y-16846493D01*
X42517865Y-16716740D01*
X42531139Y-16703659D01*
X42653929Y-16504791D01*
X42653183Y-16301269D01*
X42539036Y-16112811D01*
X42321627Y-15959133D01*
X42108529Y-15881530D01*
X41632113Y-15750222D01*
X41273797Y-15629941D01*
X41017672Y-15509326D01*
X40847828Y-15377011D01*
X40748356Y-15221634D01*
X40703345Y-15031832D01*
X40695722Y-14872447D01*
X40738149Y-14542097D01*
X40870747Y-14295490D01*
X41101492Y-14126767D01*
X41438359Y-14030070D01*
X41884225Y-13999538D01*
X42301876Y-14024336D01*
G37*
X42301876Y-14024336D02*
X42610967Y-14103856D01*
X42830548Y-14245788D01*
X42969706Y-14437753D01*
X43048163Y-14599418D01*
X43051602Y-14679153D01*
X42964372Y-14718512D01*
X42855373Y-14741373D01*
X42683467Y-14752400D01*
X42559499Y-14678736D01*
X42496484Y-14605892D01*
X42341900Y-14471580D01*
X42119883Y-14401688D01*
X42038735Y-14390443D01*
X41675746Y-14384819D01*
X41403551Y-14456986D01*
X41232050Y-14602043D01*
X41171145Y-14815091D01*
X41171123Y-14819797D01*
X41212633Y-14987937D01*
X41346018Y-15130127D01*
X41584559Y-15254962D01*
X41941536Y-15371039D01*
X42077315Y-15406338D01*
X42406311Y-15496348D01*
X42636751Y-15582853D01*
X42804526Y-15681903D01*
X42919920Y-15783143D01*
X43059015Y-15944933D01*
X43123778Y-16102815D01*
X43140580Y-16324042D01*
X43140642Y-16346039D01*
X43088200Y-16690972D01*
X42925645Y-16958629D01*
X42654150Y-17157419D01*
X42449230Y-17225058D01*
X42160675Y-17272666D01*
X41839750Y-17296251D01*
X41537719Y-17291820D01*
X41325632Y-17260895D01*
X40960575Y-17102515D01*
X40684354Y-16842214D01*
X40624707Y-16753162D01*
X40492261Y-16533784D01*
X40725634Y-16476478D01*
X40884633Y-16451369D01*
X40999769Y-16489064D01*
X41128887Y-16611613D01*
X41153992Y-16639757D01*
X41309584Y-16784527D01*
X41484346Y-16860933D01*
X41697811Y-16894223D01*
X42055529Y-16903486D01*
X42319399Y-16846493D01*
X42517865Y-16716740D01*
X42531139Y-16703659D01*
X42653929Y-16504791D01*
X42653183Y-16301269D01*
X42539036Y-16112811D01*
X42321627Y-15959133D01*
X42108529Y-15881530D01*
X41632113Y-15750222D01*
X41273797Y-15629941D01*
X41017672Y-15509326D01*
X40847828Y-15377011D01*
X40748356Y-15221634D01*
X40703345Y-15031832D01*
X40695722Y-14872447D01*
X40738149Y-14542097D01*
X40870747Y-14295490D01*
X41101492Y-14126767D01*
X41438359Y-14030070D01*
X41884225Y-13999538D01*
X42301876Y-14024336D01*
G36*
X56495994Y-14024336D02*
G01*
X56805085Y-14103856D01*
X57024666Y-14245788D01*
X57163824Y-14437753D01*
X57242281Y-14599418D01*
X57245719Y-14679153D01*
X57158490Y-14718512D01*
X57049491Y-14741373D01*
X56877584Y-14752400D01*
X56753616Y-14678736D01*
X56690601Y-14605892D01*
X56536018Y-14471580D01*
X56314001Y-14401688D01*
X56232853Y-14390443D01*
X55869864Y-14384819D01*
X55597668Y-14456986D01*
X55426168Y-14602043D01*
X55365263Y-14815091D01*
X55365241Y-14819797D01*
X55406751Y-14987937D01*
X55540136Y-15130127D01*
X55778676Y-15254962D01*
X56135654Y-15371039D01*
X56271433Y-15406338D01*
X56600428Y-15496348D01*
X56830869Y-15582853D01*
X56998644Y-15681903D01*
X57114038Y-15783143D01*
X57253133Y-15944933D01*
X57317895Y-16102815D01*
X57334697Y-16324042D01*
X57334760Y-16346039D01*
X57282317Y-16690972D01*
X57119762Y-16958629D01*
X56848267Y-17157419D01*
X56643348Y-17225058D01*
X56354793Y-17272666D01*
X56033868Y-17296251D01*
X55731837Y-17291820D01*
X55519750Y-17260895D01*
X55154693Y-17102515D01*
X54878472Y-16842214D01*
X54818824Y-16753162D01*
X54686379Y-16533784D01*
X54919752Y-16476478D01*
X55078751Y-16451369D01*
X55193886Y-16489064D01*
X55323005Y-16611613D01*
X55348110Y-16639757D01*
X55503702Y-16784527D01*
X55678463Y-16860933D01*
X55891928Y-16894223D01*
X56249646Y-16903486D01*
X56513517Y-16846493D01*
X56711983Y-16716740D01*
X56725257Y-16703659D01*
X56848046Y-16504791D01*
X56847300Y-16301269D01*
X56733154Y-16112811D01*
X56515744Y-15959133D01*
X56302647Y-15881530D01*
X55826230Y-15750222D01*
X55467915Y-15629941D01*
X55211790Y-15509326D01*
X55041946Y-15377011D01*
X54942473Y-15221634D01*
X54897463Y-15031832D01*
X54889840Y-14872447D01*
X54932267Y-14542097D01*
X55064865Y-14295490D01*
X55295610Y-14126767D01*
X55632477Y-14030070D01*
X56078342Y-13999538D01*
X56495994Y-14024336D01*
G37*
X56495994Y-14024336D02*
X56805085Y-14103856D01*
X57024666Y-14245788D01*
X57163824Y-14437753D01*
X57242281Y-14599418D01*
X57245719Y-14679153D01*
X57158490Y-14718512D01*
X57049491Y-14741373D01*
X56877584Y-14752400D01*
X56753616Y-14678736D01*
X56690601Y-14605892D01*
X56536018Y-14471580D01*
X56314001Y-14401688D01*
X56232853Y-14390443D01*
X55869864Y-14384819D01*
X55597668Y-14456986D01*
X55426168Y-14602043D01*
X55365263Y-14815091D01*
X55365241Y-14819797D01*
X55406751Y-14987937D01*
X55540136Y-15130127D01*
X55778676Y-15254962D01*
X56135654Y-15371039D01*
X56271433Y-15406338D01*
X56600428Y-15496348D01*
X56830869Y-15582853D01*
X56998644Y-15681903D01*
X57114038Y-15783143D01*
X57253133Y-15944933D01*
X57317895Y-16102815D01*
X57334697Y-16324042D01*
X57334760Y-16346039D01*
X57282317Y-16690972D01*
X57119762Y-16958629D01*
X56848267Y-17157419D01*
X56643348Y-17225058D01*
X56354793Y-17272666D01*
X56033868Y-17296251D01*
X55731837Y-17291820D01*
X55519750Y-17260895D01*
X55154693Y-17102515D01*
X54878472Y-16842214D01*
X54818824Y-16753162D01*
X54686379Y-16533784D01*
X54919752Y-16476478D01*
X55078751Y-16451369D01*
X55193886Y-16489064D01*
X55323005Y-16611613D01*
X55348110Y-16639757D01*
X55503702Y-16784527D01*
X55678463Y-16860933D01*
X55891928Y-16894223D01*
X56249646Y-16903486D01*
X56513517Y-16846493D01*
X56711983Y-16716740D01*
X56725257Y-16703659D01*
X56848046Y-16504791D01*
X56847300Y-16301269D01*
X56733154Y-16112811D01*
X56515744Y-15959133D01*
X56302647Y-15881530D01*
X55826230Y-15750222D01*
X55467915Y-15629941D01*
X55211790Y-15509326D01*
X55041946Y-15377011D01*
X54942473Y-15221634D01*
X54897463Y-15031832D01*
X54889840Y-14872447D01*
X54932267Y-14542097D01*
X55064865Y-14295490D01*
X55295610Y-14126767D01*
X55632477Y-14030070D01*
X56078342Y-13999538D01*
X56495994Y-14024336D01*
G36*
X15635294Y-17254594D02*
G01*
X15091979Y-17254594D01*
X15091979Y-13959459D01*
X15635294Y-13959459D01*
X15635294Y-17254594D01*
G37*
X15635294Y-17254594D02*
X15091979Y-17254594D01*
X15091979Y-13959459D01*
X15635294Y-13959459D01*
X15635294Y-17254594D01*
G36*
X23581284Y-14371351D02*
G01*
X22426738Y-14371351D01*
X22426738Y-17254594D01*
X21951337Y-17254594D01*
X21951337Y-14371351D01*
X20864706Y-14371351D01*
X20864706Y-13959459D01*
X23581284Y-13959459D01*
X23581284Y-14371351D01*
G37*
X23581284Y-14371351D02*
X22426738Y-14371351D01*
X22426738Y-17254594D01*
X21951337Y-17254594D01*
X21951337Y-14371351D01*
X20864706Y-14371351D01*
X20864706Y-13959459D01*
X23581284Y-13959459D01*
X23581284Y-14371351D01*
G36*
X28742781Y-16842702D02*
G01*
X30236899Y-16842702D01*
X30236899Y-17254594D01*
X28199465Y-17254594D01*
X28199465Y-13959459D01*
X28742781Y-13959459D01*
X28742781Y-16842702D01*
G37*
X28742781Y-16842702D02*
X30236899Y-16842702D01*
X30236899Y-17254594D01*
X28199465Y-17254594D01*
X28199465Y-13959459D01*
X28742781Y-13959459D01*
X28742781Y-16842702D01*
G36*
X35737968Y-17254594D02*
G01*
X35194653Y-17254594D01*
X35194653Y-13959459D01*
X35737968Y-13959459D01*
X35737968Y-17254594D01*
G37*
X35737968Y-17254594D02*
X35194653Y-17254594D01*
X35194653Y-13959459D01*
X35737968Y-13959459D01*
X35737968Y-17254594D01*
G36*
X49618959Y-15555540D02*
G01*
X49780132Y-15996829D01*
X49924303Y-16395477D01*
X50045065Y-16733453D01*
X50136014Y-16992724D01*
X50190745Y-17155257D01*
X50204177Y-17203108D01*
X50144223Y-17237512D01*
X49997875Y-17254277D01*
X49972162Y-17254594D01*
X49847667Y-17247392D01*
X49763939Y-17206721D01*
X49695991Y-17103983D01*
X49618835Y-16910582D01*
X49582261Y-16808378D01*
X49423942Y-16362162D01*
X48055601Y-16362162D01*
X47899758Y-16808378D01*
X47814779Y-17042922D01*
X47748106Y-17176322D01*
X47673428Y-17237116D01*
X47564439Y-17253840D01*
X47488392Y-17254594D01*
X47232870Y-17254594D01*
X47667646Y-16070405D01*
X47711811Y-15950270D01*
X48184724Y-15950270D01*
X49267666Y-15950270D01*
X49225031Y-15778563D01*
X49170773Y-15590511D01*
X49091439Y-15351612D01*
X48998683Y-15092592D01*
X48904156Y-14844180D01*
X48819511Y-14637100D01*
X48756398Y-14502081D01*
X48727816Y-14467379D01*
X48692593Y-14542403D01*
X48623227Y-14719434D01*
X48530238Y-14970821D01*
X48439131Y-15226148D01*
X48184724Y-15950270D01*
X47711811Y-15950270D01*
X47820919Y-15653488D01*
X47971538Y-15244773D01*
X48107665Y-14876308D01*
X48217468Y-14580137D01*
X48276133Y-14422838D01*
X48449843Y-13959459D01*
X49033306Y-13959459D01*
X49618959Y-15555540D01*
G37*
X49618959Y-15555540D02*
X49780132Y-15996829D01*
X49924303Y-16395477D01*
X50045065Y-16733453D01*
X50136014Y-16992724D01*
X50190745Y-17155257D01*
X50204177Y-17203108D01*
X50144223Y-17237512D01*
X49997875Y-17254277D01*
X49972162Y-17254594D01*
X49847667Y-17247392D01*
X49763939Y-17206721D01*
X49695991Y-17103983D01*
X49618835Y-16910582D01*
X49582261Y-16808378D01*
X49423942Y-16362162D01*
X48055601Y-16362162D01*
X47899758Y-16808378D01*
X47814779Y-17042922D01*
X47748106Y-17176322D01*
X47673428Y-17237116D01*
X47564439Y-17253840D01*
X47488392Y-17254594D01*
X47232870Y-17254594D01*
X47667646Y-16070405D01*
X47711811Y-15950270D01*
X48184724Y-15950270D01*
X49267666Y-15950270D01*
X49225031Y-15778563D01*
X49170773Y-15590511D01*
X49091439Y-15351612D01*
X48998683Y-15092592D01*
X48904156Y-14844180D01*
X48819511Y-14637100D01*
X48756398Y-14502081D01*
X48727816Y-14467379D01*
X48692593Y-14542403D01*
X48623227Y-14719434D01*
X48530238Y-14970821D01*
X48439131Y-15226148D01*
X48184724Y-15950270D01*
X47711811Y-15950270D01*
X47820919Y-15653488D01*
X47971538Y-15244773D01*
X48107665Y-14876308D01*
X48217468Y-14580137D01*
X48276133Y-14422838D01*
X48449843Y-13959459D01*
X49033306Y-13959459D01*
X49618959Y-15555540D01*
G36*
X63813076Y-15555540D02*
G01*
X63974250Y-15996829D01*
X64118420Y-16395477D01*
X64239183Y-16733453D01*
X64330132Y-16992724D01*
X64384863Y-17155257D01*
X64398295Y-17203108D01*
X64338340Y-17237512D01*
X64191993Y-17254277D01*
X64166280Y-17254594D01*
X64041785Y-17247392D01*
X63958057Y-17206721D01*
X63890109Y-17103983D01*
X63812953Y-16910582D01*
X63776379Y-16808378D01*
X63618060Y-16362162D01*
X62249718Y-16362162D01*
X62093875Y-16808378D01*
X62008897Y-17042922D01*
X61942223Y-17176322D01*
X61867546Y-17237116D01*
X61758557Y-17253840D01*
X61682510Y-17254594D01*
X61426987Y-17254594D01*
X61861764Y-16070405D01*
X61905929Y-15950270D01*
X62378842Y-15950270D01*
X63461784Y-15950270D01*
X63419149Y-15778563D01*
X63364890Y-15590511D01*
X63285557Y-15351612D01*
X63192801Y-15092592D01*
X63098274Y-14844180D01*
X63013628Y-14637100D01*
X62950516Y-14502081D01*
X62921933Y-14467379D01*
X62886711Y-14542403D01*
X62817345Y-14719434D01*
X62724355Y-14970821D01*
X62633249Y-15226148D01*
X62378842Y-15950270D01*
X61905929Y-15950270D01*
X62015037Y-15653488D01*
X62165655Y-15244773D01*
X62301783Y-14876308D01*
X62411585Y-14580137D01*
X62470250Y-14422838D01*
X62643961Y-13959459D01*
X63227424Y-13959459D01*
X63813076Y-15555540D01*
G37*
X63813076Y-15555540D02*
X63974250Y-15996829D01*
X64118420Y-16395477D01*
X64239183Y-16733453D01*
X64330132Y-16992724D01*
X64384863Y-17155257D01*
X64398295Y-17203108D01*
X64338340Y-17237512D01*
X64191993Y-17254277D01*
X64166280Y-17254594D01*
X64041785Y-17247392D01*
X63958057Y-17206721D01*
X63890109Y-17103983D01*
X63812953Y-16910582D01*
X63776379Y-16808378D01*
X63618060Y-16362162D01*
X62249718Y-16362162D01*
X62093875Y-16808378D01*
X62008897Y-17042922D01*
X61942223Y-17176322D01*
X61867546Y-17237116D01*
X61758557Y-17253840D01*
X61682510Y-17254594D01*
X61426987Y-17254594D01*
X61861764Y-16070405D01*
X61905929Y-15950270D01*
X62378842Y-15950270D01*
X63461784Y-15950270D01*
X63419149Y-15778563D01*
X63364890Y-15590511D01*
X63285557Y-15351612D01*
X63192801Y-15092592D01*
X63098274Y-14844180D01*
X63013628Y-14637100D01*
X62950516Y-14502081D01*
X62921933Y-14467379D01*
X62886711Y-14542403D01*
X62817345Y-14719434D01*
X62724355Y-14970821D01*
X62633249Y-15226148D01*
X62378842Y-15950270D01*
X61905929Y-15950270D01*
X62015037Y-15653488D01*
X62165655Y-15244773D01*
X62301783Y-14876308D01*
X62411585Y-14580137D01*
X62470250Y-14422838D01*
X62643961Y-13959459D01*
X63227424Y-13959459D01*
X63813076Y-15555540D01*
G36*
X71393048Y-17254594D02*
G01*
X70917647Y-17254594D01*
X70914359Y-15898784D01*
X70911071Y-14542973D01*
X70378620Y-15881621D01*
X70200647Y-16327232D01*
X70063943Y-16661536D01*
X69959698Y-16900850D01*
X69879105Y-17061493D01*
X69813353Y-17159783D01*
X69753635Y-17212040D01*
X69691143Y-17234580D01*
X69644810Y-17241031D01*
X69443450Y-17261791D01*
X68341566Y-14542973D01*
X68339232Y-15898784D01*
X68336899Y-17254594D01*
X67861498Y-17254594D01*
X67861498Y-13952284D01*
X68216953Y-13973034D01*
X68572409Y-13993784D01*
X68993404Y-15023513D01*
X69145482Y-15395830D01*
X69287803Y-15744880D01*
X69408453Y-16041402D01*
X69495520Y-16256136D01*
X69524400Y-16327838D01*
X69634401Y-16602432D01*
X70690713Y-13993784D01*
X71041881Y-13973034D01*
X71393048Y-13952284D01*
X71393048Y-17254594D01*
G37*
X71393048Y-17254594D02*
X70917647Y-17254594D01*
X70914359Y-15898784D01*
X70911071Y-14542973D01*
X70378620Y-15881621D01*
X70200647Y-16327232D01*
X70063943Y-16661536D01*
X69959698Y-16900850D01*
X69879105Y-17061493D01*
X69813353Y-17159783D01*
X69753635Y-17212040D01*
X69691143Y-17234580D01*
X69644810Y-17241031D01*
X69443450Y-17261791D01*
X68341566Y-14542973D01*
X68339232Y-15898784D01*
X68336899Y-17254594D01*
X67861498Y-17254594D01*
X67861498Y-13952284D01*
X68216953Y-13973034D01*
X68572409Y-13993784D01*
X68993404Y-15023513D01*
X69145482Y-15395830D01*
X69287803Y-15744880D01*
X69408453Y-16041402D01*
X69495520Y-16256136D01*
X69524400Y-16327838D01*
X69634401Y-16602432D01*
X70690713Y-13993784D01*
X71041881Y-13973034D01*
X71393048Y-13952284D01*
X71393048Y-17254594D01*
G36*
X76605482Y-13971749D02*
G01*
X77057938Y-13993773D01*
X77396919Y-14033752D01*
X77644383Y-14099211D01*
X77822291Y-14197677D01*
X77952603Y-14336675D01*
X78025305Y-14458324D01*
X78112184Y-14727326D01*
X78134153Y-15034302D01*
X78092457Y-15323947D01*
X78001267Y-15524453D01*
X77828509Y-15728904D01*
X77646960Y-15864665D01*
X77421176Y-15947163D01*
X77115717Y-15991821D01*
X76894432Y-16006158D01*
X76282888Y-16035713D01*
X76282888Y-17254594D01*
X75739572Y-17254594D01*
X75739572Y-14371351D01*
X76282888Y-14371351D01*
X76282888Y-15607027D01*
X76721136Y-15607027D01*
X76979146Y-15595326D01*
X77204012Y-15564952D01*
X77324877Y-15530808D01*
X77507267Y-15376287D01*
X77616706Y-15133858D01*
X77639017Y-14934472D01*
X77585213Y-14688200D01*
X77426869Y-14514498D01*
X77158684Y-14410088D01*
X76775356Y-14371687D01*
X76728797Y-14371351D01*
X76282888Y-14371351D01*
X75739572Y-14371351D01*
X75739572Y-13945671D01*
X76605482Y-13971749D01*
G37*
X76605482Y-13971749D02*
X77057938Y-13993773D01*
X77396919Y-14033752D01*
X77644383Y-14099211D01*
X77822291Y-14197677D01*
X77952603Y-14336675D01*
X78025305Y-14458324D01*
X78112184Y-14727326D01*
X78134153Y-15034302D01*
X78092457Y-15323947D01*
X78001267Y-15524453D01*
X77828509Y-15728904D01*
X77646960Y-15864665D01*
X77421176Y-15947163D01*
X77115717Y-15991821D01*
X76894432Y-16006158D01*
X76282888Y-16035713D01*
X76282888Y-17254594D01*
X75739572Y-17254594D01*
X75739572Y-14371351D01*
X76282888Y-14371351D01*
X76282888Y-15607027D01*
X76721136Y-15607027D01*
X76979146Y-15595326D01*
X77204012Y-15564952D01*
X77324877Y-15530808D01*
X77507267Y-15376287D01*
X77616706Y-15133858D01*
X77639017Y-14934472D01*
X77585213Y-14688200D01*
X77426869Y-14514498D01*
X77158684Y-14410088D01*
X76775356Y-14371687D01*
X76728797Y-14371351D01*
X76282888Y-14371351D01*
X75739572Y-14371351D01*
X75739572Y-13945671D01*
X76605482Y-13971749D01*
G36*
X85790909Y-17254594D02*
G01*
X85315508Y-17254594D01*
X85312220Y-15898784D01*
X85308932Y-14542973D01*
X84776481Y-15881621D01*
X84598508Y-16327232D01*
X84461804Y-16661536D01*
X84357559Y-16900850D01*
X84276966Y-17061493D01*
X84211214Y-17159783D01*
X84151496Y-17212040D01*
X84089004Y-17234580D01*
X84042670Y-17241031D01*
X83841311Y-17261791D01*
X82739427Y-14542973D01*
X82737093Y-15898784D01*
X82734760Y-17254594D01*
X82259359Y-17254594D01*
X82259359Y-13952284D01*
X82614814Y-13973034D01*
X82970270Y-13993784D01*
X83391265Y-15023513D01*
X83543343Y-15395830D01*
X83685664Y-15744880D01*
X83806314Y-16041402D01*
X83893381Y-16256136D01*
X83922261Y-16327838D01*
X84032262Y-16602432D01*
X85088574Y-13993784D01*
X85439742Y-13973034D01*
X85790909Y-13952284D01*
X85790909Y-17254594D01*
G37*
X85790909Y-17254594D02*
X85315508Y-17254594D01*
X85312220Y-15898784D01*
X85308932Y-14542973D01*
X84776481Y-15881621D01*
X84598508Y-16327232D01*
X84461804Y-16661536D01*
X84357559Y-16900850D01*
X84276966Y-17061493D01*
X84211214Y-17159783D01*
X84151496Y-17212040D01*
X84089004Y-17234580D01*
X84042670Y-17241031D01*
X83841311Y-17261791D01*
X82739427Y-14542973D01*
X82737093Y-15898784D01*
X82734760Y-17254594D01*
X82259359Y-17254594D01*
X82259359Y-13952284D01*
X82614814Y-13973034D01*
X82970270Y-13993784D01*
X83391265Y-15023513D01*
X83543343Y-15395830D01*
X83685664Y-15744880D01*
X83806314Y-16041402D01*
X83893381Y-16256136D01*
X83922261Y-16327838D01*
X84032262Y-16602432D01*
X85088574Y-13993784D01*
X85439742Y-13973034D01*
X85790909Y-13952284D01*
X85790909Y-17254594D01*
D11*
X76001000Y-92645000D02*
G75*
G03X76001000Y-92645000I-1000J0D01*
G01*
X58667666Y-92645000D02*
G75*
G03X58667666Y-92645000I-1000J0D01*
G01*
X41334300Y-92645000D02*
G75*
G03X41334300Y-92645000I-1000J0D01*
G01*
X24001000Y-92645000D02*
G75*
G03X24001000Y-92645000I-1000J0D01*
G01*
M02*
