G04 #@! TF.GenerationSoftware,KiCad,Pcbnew,(5.1.5)-2*
G04 #@! TF.CreationDate,2019-12-12T13:33:21-05:00*
G04 #@! TF.ProjectId,face,66616365-2e6b-4696-9361-645f70636258,rev?*
G04 #@! TF.SameCoordinates,Original*
G04 #@! TF.FileFunction,Legend,Bot*
G04 #@! TF.FilePolarity,Positive*
%FSLAX46Y46*%
G04 Gerber Fmt 4.6, Leading zero omitted, Abs format (unit mm)*
G04 Created by KiCad (PCBNEW (5.1.5)-2) date 2019-12-12 13:33:21*
%MOMM*%
%LPD*%
G04 APERTURE LIST*
%ADD10C,0.120000*%
%ADD11C,0.150000*%
G04 APERTURE END LIST*
D10*
X10064000Y-22414000D02*
G75*
G03X10064000Y-22414000I-2250000J0D01*
G01*
X97250000Y-5000000D02*
G75*
G03X97250000Y-5000000I-2250000J0D01*
G01*
X97250000Y-95000000D02*
G75*
G03X97250000Y-95000000I-2250000J0D01*
G01*
X7250000Y-95000000D02*
G75*
G03X7250000Y-95000000I-2250000J0D01*
G01*
D11*
X9147333Y-25764380D02*
X9480666Y-25288190D01*
X9718761Y-25764380D02*
X9718761Y-24764380D01*
X9337809Y-24764380D01*
X9242571Y-24812000D01*
X9194952Y-24859619D01*
X9147333Y-24954857D01*
X9147333Y-25097714D01*
X9194952Y-25192952D01*
X9242571Y-25240571D01*
X9337809Y-25288190D01*
X9718761Y-25288190D01*
X8718761Y-25240571D02*
X8385428Y-25240571D01*
X8242571Y-25764380D02*
X8718761Y-25764380D01*
X8718761Y-24764380D01*
X8242571Y-24764380D01*
X7480666Y-25240571D02*
X7814000Y-25240571D01*
X7814000Y-25764380D02*
X7814000Y-24764380D01*
X7337809Y-24764380D01*
X6814000Y-24764380D02*
X6814000Y-25002476D01*
X7052095Y-24907238D02*
X6814000Y-25002476D01*
X6575904Y-24907238D01*
X6956857Y-25192952D02*
X6814000Y-25002476D01*
X6671142Y-25192952D01*
X6052095Y-24764380D02*
X6052095Y-25002476D01*
X6290190Y-24907238D02*
X6052095Y-25002476D01*
X5814000Y-24907238D01*
X6194952Y-25192952D02*
X6052095Y-25002476D01*
X5909238Y-25192952D01*
X96333333Y-8350380D02*
X96666666Y-7874190D01*
X96904761Y-8350380D02*
X96904761Y-7350380D01*
X96523809Y-7350380D01*
X96428571Y-7398000D01*
X96380952Y-7445619D01*
X96333333Y-7540857D01*
X96333333Y-7683714D01*
X96380952Y-7778952D01*
X96428571Y-7826571D01*
X96523809Y-7874190D01*
X96904761Y-7874190D01*
X95904761Y-7826571D02*
X95571428Y-7826571D01*
X95428571Y-8350380D02*
X95904761Y-8350380D01*
X95904761Y-7350380D01*
X95428571Y-7350380D01*
X94666666Y-7826571D02*
X95000000Y-7826571D01*
X95000000Y-8350380D02*
X95000000Y-7350380D01*
X94523809Y-7350380D01*
X94000000Y-7350380D02*
X94000000Y-7588476D01*
X94238095Y-7493238D02*
X94000000Y-7588476D01*
X93761904Y-7493238D01*
X94142857Y-7778952D02*
X94000000Y-7588476D01*
X93857142Y-7778952D01*
X93238095Y-7350380D02*
X93238095Y-7588476D01*
X93476190Y-7493238D02*
X93238095Y-7588476D01*
X93000000Y-7493238D01*
X93380952Y-7778952D02*
X93238095Y-7588476D01*
X93095238Y-7778952D01*
X96333333Y-98350380D02*
X96666666Y-97874190D01*
X96904761Y-98350380D02*
X96904761Y-97350380D01*
X96523809Y-97350380D01*
X96428571Y-97398000D01*
X96380952Y-97445619D01*
X96333333Y-97540857D01*
X96333333Y-97683714D01*
X96380952Y-97778952D01*
X96428571Y-97826571D01*
X96523809Y-97874190D01*
X96904761Y-97874190D01*
X95904761Y-97826571D02*
X95571428Y-97826571D01*
X95428571Y-98350380D02*
X95904761Y-98350380D01*
X95904761Y-97350380D01*
X95428571Y-97350380D01*
X94666666Y-97826571D02*
X95000000Y-97826571D01*
X95000000Y-98350380D02*
X95000000Y-97350380D01*
X94523809Y-97350380D01*
X94000000Y-97350380D02*
X94000000Y-97588476D01*
X94238095Y-97493238D02*
X94000000Y-97588476D01*
X93761904Y-97493238D01*
X94142857Y-97778952D02*
X94000000Y-97588476D01*
X93857142Y-97778952D01*
X93238095Y-97350380D02*
X93238095Y-97588476D01*
X93476190Y-97493238D02*
X93238095Y-97588476D01*
X93000000Y-97493238D01*
X93380952Y-97778952D02*
X93238095Y-97588476D01*
X93095238Y-97778952D01*
X6333333Y-98350380D02*
X6666666Y-97874190D01*
X6904761Y-98350380D02*
X6904761Y-97350380D01*
X6523809Y-97350380D01*
X6428571Y-97398000D01*
X6380952Y-97445619D01*
X6333333Y-97540857D01*
X6333333Y-97683714D01*
X6380952Y-97778952D01*
X6428571Y-97826571D01*
X6523809Y-97874190D01*
X6904761Y-97874190D01*
X5904761Y-97826571D02*
X5571428Y-97826571D01*
X5428571Y-98350380D02*
X5904761Y-98350380D01*
X5904761Y-97350380D01*
X5428571Y-97350380D01*
X4666666Y-97826571D02*
X5000000Y-97826571D01*
X5000000Y-98350380D02*
X5000000Y-97350380D01*
X4523809Y-97350380D01*
X4000000Y-97350380D02*
X4000000Y-97588476D01*
X4238095Y-97493238D02*
X4000000Y-97588476D01*
X3761904Y-97493238D01*
X4142857Y-97778952D02*
X4000000Y-97588476D01*
X3857142Y-97778952D01*
X3238095Y-97350380D02*
X3238095Y-97588476D01*
X3476190Y-97493238D02*
X3238095Y-97588476D01*
X3000000Y-97493238D01*
X3380952Y-97778952D02*
X3238095Y-97588476D01*
X3095238Y-97778952D01*
M02*
