G04 #@! TF.GenerationSoftware,KiCad,Pcbnew,(5.1.5)-2*
G04 #@! TF.CreationDate,2019-12-12T13:33:21-05:00*
G04 #@! TF.ProjectId,face,66616365-2e6b-4696-9361-645f70636258,rev?*
G04 #@! TF.SameCoordinates,Original*
G04 #@! TF.FileFunction,Soldermask,Bot*
G04 #@! TF.FilePolarity,Negative*
%FSLAX46Y46*%
G04 Gerber Fmt 4.6, Leading zero omitted, Abs format (unit mm)*
G04 Created by KiCad (PCBNEW (5.1.5)-2) date 2019-12-12 13:33:21*
%MOMM*%
%LPD*%
G04 APERTURE LIST*
%ADD10C,6.000000*%
%ADD11C,4.000000*%
%ADD12C,0.100000*%
G04 APERTURE END LIST*
D10*
X83964200Y-84085200D02*
G75*
G03X83964200Y-84085200I-1000J0D01*
G01*
X77106200Y-84085200D02*
G75*
G03X77106200Y-84085200I-1000J0D01*
G01*
X70248200Y-84085200D02*
G75*
G03X70248200Y-84085200I-1000J0D01*
G01*
X63390200Y-84085200D02*
G75*
G03X63390200Y-84085200I-1000J0D01*
G01*
X56532200Y-84085200D02*
G75*
G03X56532200Y-84085200I-1000J0D01*
G01*
X49674200Y-84085200D02*
G75*
G03X49674200Y-84085200I-1000J0D01*
G01*
X42816200Y-84085200D02*
G75*
G03X42816200Y-84085200I-1000J0D01*
G01*
X35958200Y-84085200D02*
G75*
G03X35958200Y-84085200I-1000J0D01*
G01*
X29100200Y-84085200D02*
G75*
G03X29100200Y-84085200I-1000J0D01*
G01*
X22242200Y-84085200D02*
G75*
G03X22242200Y-84085200I-1000J0D01*
G01*
X15384200Y-84085200D02*
G75*
G03X15384200Y-84085200I-1000J0D01*
G01*
X83964200Y-76465200D02*
G75*
G03X83964200Y-76465200I-1000J0D01*
G01*
X77106200Y-76465200D02*
G75*
G03X77106200Y-76465200I-1000J0D01*
G01*
X70248200Y-76465200D02*
G75*
G03X70248200Y-76465200I-1000J0D01*
G01*
X63390200Y-76465200D02*
G75*
G03X63390200Y-76465200I-1000J0D01*
G01*
X56532200Y-76465200D02*
G75*
G03X56532200Y-76465200I-1000J0D01*
G01*
X49674200Y-76465200D02*
G75*
G03X49674200Y-76465200I-1000J0D01*
G01*
X42816200Y-76465200D02*
G75*
G03X42816200Y-76465200I-1000J0D01*
G01*
X35958200Y-76465200D02*
G75*
G03X35958200Y-76465200I-1000J0D01*
G01*
X29100200Y-76465200D02*
G75*
G03X29100200Y-76465200I-1000J0D01*
G01*
X22242200Y-76465200D02*
G75*
G03X22242200Y-76465200I-1000J0D01*
G01*
X15384200Y-76465200D02*
G75*
G03X15384200Y-76465200I-1000J0D01*
G01*
X83964200Y-68845200D02*
G75*
G03X83964200Y-68845200I-1000J0D01*
G01*
X77106200Y-68845200D02*
G75*
G03X77106200Y-68845200I-1000J0D01*
G01*
X70248200Y-68845200D02*
G75*
G03X70248200Y-68845200I-1000J0D01*
G01*
X63390200Y-68845200D02*
G75*
G03X63390200Y-68845200I-1000J0D01*
G01*
X56532200Y-68845200D02*
G75*
G03X56532200Y-68845200I-1000J0D01*
G01*
X49674200Y-68845200D02*
G75*
G03X49674200Y-68845200I-1000J0D01*
G01*
X42816200Y-68845200D02*
G75*
G03X42816200Y-68845200I-1000J0D01*
G01*
X35958200Y-68845200D02*
G75*
G03X35958200Y-68845200I-1000J0D01*
G01*
X29100200Y-68845200D02*
G75*
G03X29100200Y-68845200I-1000J0D01*
G01*
X22242200Y-68845200D02*
G75*
G03X22242200Y-68845200I-1000J0D01*
G01*
X15384200Y-68845200D02*
G75*
G03X15384200Y-68845200I-1000J0D01*
G01*
X83964200Y-61225200D02*
G75*
G03X83964200Y-61225200I-1000J0D01*
G01*
X77106200Y-61225200D02*
G75*
G03X77106200Y-61225200I-1000J0D01*
G01*
X70248200Y-61225200D02*
G75*
G03X70248200Y-61225200I-1000J0D01*
G01*
X63390200Y-61225200D02*
G75*
G03X63390200Y-61225200I-1000J0D01*
G01*
X56532200Y-61225200D02*
G75*
G03X56532200Y-61225200I-1000J0D01*
G01*
X49674200Y-61225200D02*
G75*
G03X49674200Y-61225200I-1000J0D01*
G01*
X42816200Y-61225200D02*
G75*
G03X42816200Y-61225200I-1000J0D01*
G01*
X35958200Y-61225200D02*
G75*
G03X35958200Y-61225200I-1000J0D01*
G01*
X29100200Y-61225200D02*
G75*
G03X29100200Y-61225200I-1000J0D01*
G01*
X22242200Y-61225200D02*
G75*
G03X22242200Y-61225200I-1000J0D01*
G01*
X15384200Y-61225200D02*
G75*
G03X15384200Y-61225200I-1000J0D01*
G01*
X83964200Y-53605200D02*
G75*
G03X83964200Y-53605200I-1000J0D01*
G01*
X77106200Y-53605200D02*
G75*
G03X77106200Y-53605200I-1000J0D01*
G01*
X70248200Y-53605200D02*
G75*
G03X70248200Y-53605200I-1000J0D01*
G01*
X63390200Y-53605200D02*
G75*
G03X63390200Y-53605200I-1000J0D01*
G01*
X56532200Y-53605200D02*
G75*
G03X56532200Y-53605200I-1000J0D01*
G01*
X49674200Y-53605200D02*
G75*
G03X49674200Y-53605200I-1000J0D01*
G01*
X42816200Y-53605200D02*
G75*
G03X42816200Y-53605200I-1000J0D01*
G01*
X35958200Y-53605200D02*
G75*
G03X35958200Y-53605200I-1000J0D01*
G01*
X29100200Y-53605200D02*
G75*
G03X29100200Y-53605200I-1000J0D01*
G01*
X22242200Y-53605200D02*
G75*
G03X22242200Y-53605200I-1000J0D01*
G01*
X15384200Y-53605200D02*
G75*
G03X15384200Y-53605200I-1000J0D01*
G01*
X83964200Y-45985200D02*
G75*
G03X83964200Y-45985200I-1000J0D01*
G01*
X77106200Y-45985200D02*
G75*
G03X77106200Y-45985200I-1000J0D01*
G01*
X70248200Y-45985200D02*
G75*
G03X70248200Y-45985200I-1000J0D01*
G01*
X63390200Y-45985200D02*
G75*
G03X63390200Y-45985200I-1000J0D01*
G01*
X56532200Y-45985200D02*
G75*
G03X56532200Y-45985200I-1000J0D01*
G01*
X49674200Y-45985200D02*
G75*
G03X49674200Y-45985200I-1000J0D01*
G01*
X42816200Y-45985200D02*
G75*
G03X42816200Y-45985200I-1000J0D01*
G01*
X35958200Y-45985200D02*
G75*
G03X35958200Y-45985200I-1000J0D01*
G01*
X29100200Y-45985200D02*
G75*
G03X29100200Y-45985200I-1000J0D01*
G01*
X22242200Y-45985200D02*
G75*
G03X22242200Y-45985200I-1000J0D01*
G01*
X15384200Y-45985200D02*
G75*
G03X15384200Y-45985200I-1000J0D01*
G01*
X83964200Y-38365200D02*
G75*
G03X83964200Y-38365200I-1000J0D01*
G01*
X77106200Y-38365200D02*
G75*
G03X77106200Y-38365200I-1000J0D01*
G01*
X70248200Y-38365200D02*
G75*
G03X70248200Y-38365200I-1000J0D01*
G01*
X63390200Y-38365200D02*
G75*
G03X63390200Y-38365200I-1000J0D01*
G01*
X56532200Y-38365200D02*
G75*
G03X56532200Y-38365200I-1000J0D01*
G01*
X49674200Y-38365200D02*
G75*
G03X49674200Y-38365200I-1000J0D01*
G01*
X42816200Y-38365200D02*
G75*
G03X42816200Y-38365200I-1000J0D01*
G01*
X35958200Y-38365200D02*
G75*
G03X35958200Y-38365200I-1000J0D01*
G01*
X29100200Y-38365200D02*
G75*
G03X29100200Y-38365200I-1000J0D01*
G01*
X22242200Y-38365200D02*
G75*
G03X22242200Y-38365200I-1000J0D01*
G01*
X15384200Y-38365200D02*
G75*
G03X15384200Y-38365200I-1000J0D01*
G01*
X83964200Y-30745200D02*
G75*
G03X83964200Y-30745200I-1000J0D01*
G01*
X77106200Y-30745200D02*
G75*
G03X77106200Y-30745200I-1000J0D01*
G01*
X70248200Y-30745200D02*
G75*
G03X70248200Y-30745200I-1000J0D01*
G01*
X63390200Y-30745200D02*
G75*
G03X63390200Y-30745200I-1000J0D01*
G01*
X56532200Y-30745200D02*
G75*
G03X56532200Y-30745200I-1000J0D01*
G01*
X49674200Y-30745200D02*
G75*
G03X49674200Y-30745200I-1000J0D01*
G01*
X42816200Y-30745200D02*
G75*
G03X42816200Y-30745200I-1000J0D01*
G01*
X35958200Y-30745200D02*
G75*
G03X35958200Y-30745200I-1000J0D01*
G01*
X29100200Y-30745200D02*
G75*
G03X29100200Y-30745200I-1000J0D01*
G01*
X22242200Y-30745200D02*
G75*
G03X22242200Y-30745200I-1000J0D01*
G01*
X15384200Y-30745200D02*
G75*
G03X15384200Y-30745200I-1000J0D01*
G01*
X83964200Y-23125200D02*
G75*
G03X83964200Y-23125200I-1000J0D01*
G01*
X77106200Y-23125200D02*
G75*
G03X77106200Y-23125200I-1000J0D01*
G01*
X70248200Y-23125200D02*
G75*
G03X70248200Y-23125200I-1000J0D01*
G01*
X63390200Y-23125200D02*
G75*
G03X63390200Y-23125200I-1000J0D01*
G01*
X56532200Y-23125200D02*
G75*
G03X56532200Y-23125200I-1000J0D01*
G01*
X49674200Y-23125200D02*
G75*
G03X49674200Y-23125200I-1000J0D01*
G01*
X42816200Y-23125200D02*
G75*
G03X42816200Y-23125200I-1000J0D01*
G01*
X35958200Y-23125200D02*
G75*
G03X35958200Y-23125200I-1000J0D01*
G01*
X29100200Y-23125200D02*
G75*
G03X29100200Y-23125200I-1000J0D01*
G01*
X22242200Y-23125200D02*
G75*
G03X22242200Y-23125200I-1000J0D01*
G01*
X15384200Y-23125200D02*
G75*
G03X15384200Y-23125200I-1000J0D01*
G01*
X83964200Y-15505200D02*
G75*
G03X83964200Y-15505200I-1000J0D01*
G01*
X77106200Y-15505200D02*
G75*
G03X77106200Y-15505200I-1000J0D01*
G01*
X70248200Y-15505200D02*
G75*
G03X70248200Y-15505200I-1000J0D01*
G01*
X63390200Y-15505200D02*
G75*
G03X63390200Y-15505200I-1000J0D01*
G01*
X56532200Y-15505200D02*
G75*
G03X56532200Y-15505200I-1000J0D01*
G01*
X49674200Y-15505200D02*
G75*
G03X49674200Y-15505200I-1000J0D01*
G01*
X42816200Y-15505200D02*
G75*
G03X42816200Y-15505200I-1000J0D01*
G01*
X35958200Y-15505200D02*
G75*
G03X35958200Y-15505200I-1000J0D01*
G01*
X29100200Y-15505200D02*
G75*
G03X29100200Y-15505200I-1000J0D01*
G01*
X22242200Y-15505200D02*
G75*
G03X22242200Y-15505200I-1000J0D01*
G01*
X15384200Y-15505200D02*
G75*
G03X15384200Y-15505200I-1000J0D01*
G01*
D11*
X76001000Y-92645000D02*
G75*
G03X76001000Y-92645000I-1000J0D01*
G01*
X58667666Y-92645000D02*
G75*
G03X58667666Y-92645000I-1000J0D01*
G01*
X41334300Y-92645000D02*
G75*
G03X41334300Y-92645000I-1000J0D01*
G01*
X24001000Y-92645000D02*
G75*
G03X24001000Y-92645000I-1000J0D01*
G01*
D12*
G36*
X95598254Y-93027818D02*
G01*
X95971511Y-93182426D01*
X95971513Y-93182427D01*
X96307436Y-93406884D01*
X96593116Y-93692564D01*
X96817574Y-94028489D01*
X96972182Y-94401746D01*
X97051000Y-94797993D01*
X97051000Y-95202007D01*
X96972182Y-95598254D01*
X96817574Y-95971511D01*
X96817573Y-95971513D01*
X96593116Y-96307436D01*
X96307436Y-96593116D01*
X95971513Y-96817573D01*
X95971512Y-96817574D01*
X95971511Y-96817574D01*
X95598254Y-96972182D01*
X95202007Y-97051000D01*
X94797993Y-97051000D01*
X94401746Y-96972182D01*
X94028489Y-96817574D01*
X94028488Y-96817574D01*
X94028487Y-96817573D01*
X93692564Y-96593116D01*
X93406884Y-96307436D01*
X93182427Y-95971513D01*
X93182426Y-95971511D01*
X93027818Y-95598254D01*
X92949000Y-95202007D01*
X92949000Y-94797993D01*
X93027818Y-94401746D01*
X93182426Y-94028489D01*
X93406884Y-93692564D01*
X93692564Y-93406884D01*
X94028487Y-93182427D01*
X94028489Y-93182426D01*
X94401746Y-93027818D01*
X94797993Y-92949000D01*
X95202007Y-92949000D01*
X95598254Y-93027818D01*
G37*
G36*
X5598254Y-93027818D02*
G01*
X5971511Y-93182426D01*
X5971513Y-93182427D01*
X6307436Y-93406884D01*
X6593116Y-93692564D01*
X6817574Y-94028489D01*
X6972182Y-94401746D01*
X7051000Y-94797993D01*
X7051000Y-95202007D01*
X6972182Y-95598254D01*
X6817574Y-95971511D01*
X6817573Y-95971513D01*
X6593116Y-96307436D01*
X6307436Y-96593116D01*
X5971513Y-96817573D01*
X5971512Y-96817574D01*
X5971511Y-96817574D01*
X5598254Y-96972182D01*
X5202007Y-97051000D01*
X4797993Y-97051000D01*
X4401746Y-96972182D01*
X4028489Y-96817574D01*
X4028488Y-96817574D01*
X4028487Y-96817573D01*
X3692564Y-96593116D01*
X3406884Y-96307436D01*
X3182427Y-95971513D01*
X3182426Y-95971511D01*
X3027818Y-95598254D01*
X2949000Y-95202007D01*
X2949000Y-94797993D01*
X3027818Y-94401746D01*
X3182426Y-94028489D01*
X3406884Y-93692564D01*
X3692564Y-93406884D01*
X4028487Y-93182427D01*
X4028489Y-93182426D01*
X4401746Y-93027818D01*
X4797993Y-92949000D01*
X5202007Y-92949000D01*
X5598254Y-93027818D01*
G37*
G36*
X8412254Y-20441818D02*
G01*
X8785511Y-20596426D01*
X8785513Y-20596427D01*
X9121436Y-20820884D01*
X9407116Y-21106564D01*
X9631574Y-21442489D01*
X9786182Y-21815746D01*
X9865000Y-22211993D01*
X9865000Y-22616007D01*
X9786182Y-23012254D01*
X9631574Y-23385511D01*
X9631573Y-23385513D01*
X9407116Y-23721436D01*
X9121436Y-24007116D01*
X8785513Y-24231573D01*
X8785512Y-24231574D01*
X8785511Y-24231574D01*
X8412254Y-24386182D01*
X8016007Y-24465000D01*
X7611993Y-24465000D01*
X7215746Y-24386182D01*
X6842489Y-24231574D01*
X6842488Y-24231574D01*
X6842487Y-24231573D01*
X6506564Y-24007116D01*
X6220884Y-23721436D01*
X5996427Y-23385513D01*
X5996426Y-23385511D01*
X5841818Y-23012254D01*
X5763000Y-22616007D01*
X5763000Y-22211993D01*
X5841818Y-21815746D01*
X5996426Y-21442489D01*
X6220884Y-21106564D01*
X6506564Y-20820884D01*
X6842487Y-20596427D01*
X6842489Y-20596426D01*
X7215746Y-20441818D01*
X7611993Y-20363000D01*
X8016007Y-20363000D01*
X8412254Y-20441818D01*
G37*
G36*
X95598254Y-3027818D02*
G01*
X95971511Y-3182426D01*
X95971513Y-3182427D01*
X96307436Y-3406884D01*
X96593116Y-3692564D01*
X96817574Y-4028489D01*
X96972182Y-4401746D01*
X97051000Y-4797993D01*
X97051000Y-5202007D01*
X96972182Y-5598254D01*
X96817574Y-5971511D01*
X96817573Y-5971513D01*
X96593116Y-6307436D01*
X96307436Y-6593116D01*
X95971513Y-6817573D01*
X95971512Y-6817574D01*
X95971511Y-6817574D01*
X95598254Y-6972182D01*
X95202007Y-7051000D01*
X94797993Y-7051000D01*
X94401746Y-6972182D01*
X94028489Y-6817574D01*
X94028488Y-6817574D01*
X94028487Y-6817573D01*
X93692564Y-6593116D01*
X93406884Y-6307436D01*
X93182427Y-5971513D01*
X93182426Y-5971511D01*
X93027818Y-5598254D01*
X92949000Y-5202007D01*
X92949000Y-4797993D01*
X93027818Y-4401746D01*
X93182426Y-4028489D01*
X93406884Y-3692564D01*
X93692564Y-3406884D01*
X94028487Y-3182427D01*
X94028489Y-3182426D01*
X94401746Y-3027818D01*
X94797993Y-2949000D01*
X95202007Y-2949000D01*
X95598254Y-3027818D01*
G37*
M02*
